<svg width="20" height="18" viewBox="0 0 20 18" fill="none" xmlns="http://www.w3.org/2000/svg">
<path d="M1.57692 3.27469H4.595C4.85092 4.24746 5.73777 4.967 6.78969 4.967C7.84162 4.967 8.72846 4.24746 8.98438 3.27469H18.4231C18.7417 3.27469 19 3.01638 19 2.69777C19 2.37915 18.7417 2.12084 18.4231 2.12084H8.98431C8.72838 1.14807 7.84154 0.428535 6.78962 0.428535C5.73769 0.428535 4.85085 1.14807 4.59492 2.12084H1.57692C1.25831 2.12084 1 2.37915 1 2.69777C1 3.01638 1.25831 3.27469 1.57692 3.27469ZM6.78969 1.58238C7.40469 1.58238 7.90508 2.08277 7.90508 2.69777C7.90508 3.31277 7.40469 3.81315 6.78969 3.81315C6.17469 3.81315 5.67431 3.31277 5.67431 2.69777C5.67431 2.08277 6.17469 1.58238 6.78969 1.58238Z" fill="white"/>
<path d="M0.699219 2.69807C0.699219 2.21377 1.09187 1.82111 1.57617 1.82111V2.12092L1.45996 2.13264C1.19694 2.18634 0.999023 2.41919 0.999023 2.69807L1.01074 2.81428C1.05694 3.03956 1.23462 3.21648 1.45996 3.26252L1.57617 3.27424H4.59375C4.8337 4.18628 5.62852 4.87629 6.59375 4.95881L6.78906 4.96662C7.84083 4.96646 8.7275 4.2469 8.9834 3.27424H18.4219L18.5381 3.26252C18.7634 3.21648 18.9411 3.03956 18.9873 2.81428L18.999 2.69807C18.999 2.41919 18.8011 2.18634 18.5381 2.13264L18.4219 2.12092V1.82111C18.9062 1.82111 19.2988 2.21377 19.2988 2.69807C19.2987 3.18223 18.9061 3.57502 18.4219 3.57502H9.20215C8.84295 4.56044 7.89827 5.26726 6.78906 5.2674C5.67967 5.2674 4.73421 4.56059 4.375 3.57502H1.57617C1.09197 3.57502 0.699381 3.18223 0.699219 2.69807ZM7.60449 2.69807C7.60449 2.24887 7.23822 1.88283 6.78906 1.88264C6.33975 1.88264 5.97363 2.24875 5.97363 2.69807C5.9738 3.14724 6.33985 3.5135 6.78906 3.5135V3.8133L6.6748 3.80744C6.15044 3.75401 5.73198 3.33576 5.67871 2.81135L5.67285 2.69807C5.67285 2.08307 6.17406 1.58283 6.78906 1.58283L6.90234 1.58772C7.4642 1.64481 7.9043 2.12141 7.9043 2.69807L7.89844 2.81135C7.84136 3.3731 7.36557 3.81312 6.78906 3.8133V3.5135C7.23812 3.51331 7.60433 3.14713 7.60449 2.69807ZM6.78906 0.128731C7.89857 0.12891 8.84417 0.83526 9.20312 1.82111H18.4219V2.12092H8.9834L8.92773 1.94123C8.63625 1.11942 7.88422 0.514279 6.9834 0.437325L6.78906 0.428535C5.80301 0.428535 4.96167 1.06081 4.64941 1.94123L4.59375 2.12092H1.57617V1.82111H4.375C4.73407 0.835277 5.67948 0.128731 6.78906 0.128731Z" fill="white"/>
<path d="M18.4231 8.42307H14.5777C14.3218 7.4503 13.4349 6.73077 12.383 6.73077C11.3311 6.73077 10.4442 7.4503 10.1883 8.42307H1.57692C1.25831 8.42307 1 8.68138 1 9C1 9.31861 1.25831 9.57692 1.57692 9.57692H10.1884C10.4443 10.5496 11.3312 11.2692 12.3831 11.2692C13.435 11.2692 14.3218 10.5496 14.5778 9.57692H18.4232C18.7418 9.57692 19.0001 9.31861 19.0001 9C19.0001 8.68138 18.7417 8.42307 18.4231 8.42307ZM12.3831 10.1154C11.7681 10.1154 11.2677 9.615 11.2677 9C11.2677 8.385 11.7681 7.88461 12.3831 7.88461C12.9981 7.88461 13.4985 8.385 13.4985 9C13.4985 9.615 12.9981 10.1154 12.3831 10.1154Z" fill="white"/>
<path d="M0.699219 9.0003C0.699219 8.516 1.09187 8.12334 1.57617 8.12334V8.42315L1.45996 8.43487C1.19694 8.48857 0.999023 8.72142 0.999023 9.0003L1.01074 9.11651C1.05694 9.34179 1.23462 9.51871 1.45996 9.56475L1.57617 9.57647H10.1875C10.4274 10.4883 11.2216 11.1783 12.1865 11.261L12.3818 11.2689C13.4338 11.2689 14.3212 10.5492 14.5771 9.57647H18.4219L18.5381 9.56475C18.7635 9.51874 18.9411 9.34181 18.9873 9.11651L18.999 9.0003C18.999 8.72142 18.8011 8.48857 18.5381 8.43487L18.4219 8.42315V8.12334C18.9061 8.12334 19.2988 8.51594 19.2988 9.0003C19.2987 9.48446 18.9061 9.87725 18.4219 9.87725H14.7959C14.4367 10.8628 13.4912 11.5696 12.3818 11.5696C11.2726 11.5695 10.328 10.8626 9.96875 9.87725H1.57617C1.09197 9.87725 0.699381 9.48446 0.699219 9.0003ZM13.1973 9.0003C13.1973 8.55098 12.8312 8.18487 12.3818 8.18487C11.9326 8.18501 11.5664 8.55107 11.5664 9.0003C11.5666 9.44939 11.9327 9.81558 12.3818 9.81573V10.1155L12.2686 10.1097C11.744 10.0564 11.3258 9.6381 11.2725 9.11358L11.2666 9.0003C11.2666 8.38539 11.767 7.88521 12.3818 7.88506L12.4961 7.88995C13.0578 7.94721 13.4971 8.42376 13.4971 9.0003L13.4922 9.11358C13.4351 9.67546 12.9585 10.1155 12.3818 10.1155V9.81573C12.8311 9.81573 13.1971 9.44947 13.1973 9.0003ZM12.3818 6.43096C13.4915 6.43096 14.4368 7.13747 14.7959 8.12334H18.4219V8.42315H14.5771L14.5215 8.24346C14.2301 7.4217 13.4779 6.81664 12.5771 6.73956L12.3818 6.73077C11.3958 6.73085 10.5544 7.363 10.2422 8.24346L10.1875 8.42315H1.57617V8.12334H9.96777C10.3268 7.13746 11.2723 6.43104 12.3818 6.43096Z" fill="white"/>
<path d="M18.4231 14.7253H8.98431C8.72838 13.7526 7.84154 13.033 6.78962 13.033C5.73769 13.033 4.85085 13.7526 4.59492 14.7253H1.57692C1.25831 14.7253 1 14.9836 1 15.3022C1 15.6208 1.25831 15.8792 1.57692 15.8792H4.595C4.85092 16.8519 5.73777 17.5715 6.78969 17.5715C7.84162 17.5715 8.72846 16.8519 8.98438 15.8792H18.4231C18.7417 15.8792 19 15.6208 19 15.3022C19 14.9836 18.7417 14.7253 18.4231 14.7253ZM6.78969 16.4176C6.17469 16.4176 5.67431 15.9172 5.67431 15.3022C5.67431 14.6872 6.17469 14.1868 6.78969 14.1868C7.40469 14.1868 7.90508 14.6872 7.90508 15.3022C7.90508 15.9172 7.40469 16.4176 6.78969 16.4176Z" fill="white"/>
<path d="M0.699219 15.3025C0.699219 14.8182 1.09187 14.4256 1.57617 14.4256V14.7254L1.45996 14.7371C1.19694 14.7908 0.999023 15.0236 0.999023 15.3025L1.01074 15.4187C1.05694 15.644 1.23462 15.8209 1.45996 15.867L1.57617 15.8787H4.59375C4.8337 16.7907 5.62852 17.4807 6.59375 17.5633L6.78906 17.5711C7.84083 17.5709 8.7275 16.8514 8.9834 15.8787H18.4219L18.5381 15.867C18.7634 15.8209 18.9411 15.644 18.9873 15.4187L18.999 15.3025C18.999 15.0236 18.8011 14.7908 18.5381 14.7371L18.4219 14.7254V14.4256C18.9062 14.4256 19.2988 14.8182 19.2988 15.3025C19.2987 15.7867 18.9061 16.1795 18.4219 16.1795H9.20215C8.84295 17.1649 7.89827 17.8717 6.78906 17.8719C5.67967 17.8719 4.73421 17.1651 4.375 16.1795H1.57617C1.09197 16.1795 0.699381 15.7867 0.699219 15.3025ZM7.60449 15.3025C7.60449 14.8533 7.23822 14.4873 6.78906 14.4871C6.33975 14.4871 5.97363 14.8532 5.97363 15.3025C5.9738 15.7517 6.33985 16.118 6.78906 16.118V16.4178L6.6748 16.4119C6.15044 16.3585 5.73198 15.9402 5.67871 15.4158L5.67285 15.3025C5.67285 14.6875 6.17406 14.1873 6.78906 14.1873L6.90234 14.1922C7.4642 14.2493 7.9043 14.7259 7.9043 15.3025L7.89844 15.4158C7.84136 15.9776 7.36557 16.4176 6.78906 16.4178V16.118C7.23812 16.1178 7.60433 15.7516 7.60449 15.3025ZM6.78906 12.7332C7.89857 12.7334 8.84417 13.4398 9.20312 14.4256H18.4219V14.7254H8.9834L8.92773 14.5457C8.63625 13.7239 7.88422 13.1187 6.9834 13.0418L6.78906 13.033C5.80301 13.033 4.96167 13.6653 4.64941 14.5457L4.59375 14.7254H1.57617V14.4256H4.375C4.73407 13.4398 5.67947 12.7332 6.78906 12.7332Z" fill="white"/>
</svg>
