<svg xmlns="http://www.w3.org/2000/svg" width="24" height="24" fill="currentColor" viewBox="0 0 24 24">
  <path d="M22.927 10.792a18.451 18.451 0 0 0-9.78-9.746.72.72 0 0 0-.924.411.724.724 0 0 0 .39.954 17.021 17.021 0 0 1 9.016 8.988.722.722 0 0 0 .937.369.72.72 0 0 0 .361-.976Z"/>
  <path d="M12.56.97a.82.82 0 0 1 .545-.042l.077.024.004.001.412.18a18.551 18.551 0 0 1 9.419 9.616.826.826 0 0 1-.41 1.11h-.002a.82.82 0 0 1-1.067-.419v-.002a16.923 16.923 0 0 0-8.963-8.935.822.822 0 0 1-.443-1.085.82.82 0 0 1 .429-.447Zm.586.076a.72.72 0 0 0-.544.017l-.123.069a.722.722 0 0 0-.255.325.725.725 0 0 0-.059.28l.013.142a.715.715 0 0 0 .198.374.724.724 0 0 0 .237.158A17.023 17.023 0 0 1 21.63 11.4a.722.722 0 0 0 .804.41l.133-.041a.723.723 0 0 0 .126-.072l.11-.094a.727.727 0 0 0 .088-.116l.063-.13a.73.73 0 0 0 .037-.14l.008-.145a.725.725 0 0 0-.071-.279 18.452 18.452 0 0 0-9.37-9.567l-.41-.18Zm-.909 5.268a10.308 10.308 0 0 1 5.468 5.44.723.723 0 0 0 .627.42.662.662 0 0 0 .281-.066.722.722 0 0 0 .347-.932A11.694 11.694 0 0 0 12.757 5a.72.72 0 0 0-.902.39.724.724 0 0 0 .382.925Z"/>
  <path d="m12.64 4.866.15.038.006.002.52.236a11.795 11.795 0 0 1 5.498 5.475l.238.52.046.15a.823.823 0 0 1-.441.911.764.764 0 0 1-.324.075h-.005a.822.822 0 0 1-.714-.477l-.002-.003a10.21 10.21 0 0 0-5.414-5.388l.04-.091a10.31 10.31 0 0 1 5.467 5.44.722.722 0 0 0 .528.408l.099.01a.664.664 0 0 0 .214-.036l.067-.028a.722.722 0 0 0 .299-.273l.06-.124a.724.724 0 0 0-.012-.535 11.696 11.696 0 0 0-5.688-5.945L12.757 5a.72.72 0 0 0-.528.018l-.119.064a.722.722 0 0 0-.255.308l-.038.133a.725.725 0 0 0 .42.792l-.04.091a.822.822 0 0 1-.435-1.052l.002-.004.075-.135a.82.82 0 0 1 .801-.348ZM19.183 14.9a1.666 1.666 0 0 0-2.531 0c-.592.585-1.183 1.177-1.768 1.777a.347.347 0 0 1-.49.087c-.382-.21-.793-.376-1.161-.607a18.326 18.326 0 0 1-4.429-4.046A10.553 10.553 0 0 1 7.21 9.567a.362.362 0 0 1 .094-.47c.591-.577 1.168-1.162 1.753-1.755a1.69 1.69 0 0 0 0-2.6c-.462-.47-.924-.926-1.392-1.395L6.222 1.902A1.796 1.796 0 0 0 4.96 1.33a1.815 1.815 0 0 0-1.27.578c-.598.585-1.168 1.192-1.781 1.77a2.892 2.892 0 0 0-.902 1.95 8.314 8.314 0 0 0 .635 3.555c.9 2.337 2.195 4.5 3.83 6.395a23.534 23.534 0 0 0 7.854 6.148A11.297 11.297 0 0 0 17.654 23h.281a3.104 3.104 0 0 0 2.46-1.048c.505-.57 1.075-1.09 1.616-1.633a1.698 1.698 0 0 0 0-2.586 392.861 392.861 0 0 0-2.828-2.833Zm1.818 4.414-.541.535c-.375.36-.758.722-1.133 1.148a1.651 1.651 0 0 1-1.377.571h-.202a9.919 9.919 0 0 1-3.794-1.12 22.364 22.364 0 0 1-7.378-5.78A20.18 20.18 0 0 1 2.969 8.7a6.867 6.867 0 0 1-.548-2.933c.017-.387.182-.752.462-1.019.375-.361.72-.722 1.103-1.09l.721-.723a.289.289 0 0 1 .52 0c.317.31.627.628.937.946l.476.477.722.723.685.686c.267.267.252.318 0 .564l-.245.245c-.49.506-.988.997-1.508 1.503a1.8 1.8 0 0 0-.396 2.052A11.563 11.563 0 0 0 7.7 13.02a19.738 19.738 0 0 0 4.789 4.335c.281.173.57.318.822.44l.39.196c.275.163.588.25.908.253a1.787 1.787 0 0 0 1.32-.593c.57-.585 1.147-1.156 1.753-1.756a.468.468 0 0 1 .245-.166c.101.025.19.083.253.166.961.964 1.923 1.91 2.885 2.84.166.253.187.318-.065.578Z"/>
  <path d="M5.047 2.783a.288.288 0 0 1 .18.151c.317.311.627.63.937.948l.477.476 1.406 1.41c.267.267.252.317 0 .563l-.245.245-.743.752c-.25.25-.505.498-.765.75a1.802 1.802 0 0 0-.526.964l-.02.137c-.038.325.014.653.15.952A11.568 11.568 0 0 0 7.7 13.02a19.742 19.742 0 0 0 4.79 4.335c.28.173.57.318.822.44l.388.196c.242.143.512.227.79.248l.12.005c.186-.001.371-.032.548-.09l.174-.067a1.79 1.79 0 0 0 .598-.436c.285-.292.571-.581.862-.872l.89-.884a.469.469 0 0 1 .245-.166c.1.025.19.083.253.166.961.964 1.923 1.91 2.885 2.84.165.253.188.318-.065.578l-.54.534c-.376.362-.759.723-1.134 1.149l-.135.14c-.142.13-.306.236-.485.31l-.183.064c-.186.052-.38.072-.574.057h-.202l-.496-.056a9.92 9.92 0 0 1-2.851-.841l-.447-.223a22.363 22.363 0 0 1-6.993-5.33l-.386-.45a20.18 20.18 0 0 1-3.442-5.56L2.969 8.7a6.867 6.867 0 0 1-.548-2.933c.014-.338.143-.66.362-.914l.1-.105c.187-.18.368-.36.549-.542l.554-.549.721-.723a.29.29 0 0 1 .045-.066l.062-.052a.29.29 0 0 1 .153-.044l.08.011Zm-.08.089a.188.188 0 0 0-.169.106l-.008.016-.734.735c-.19.184-.372.366-.553.547a35.41 35.41 0 0 1-.55.544 1.4 1.4 0 0 0-.432.95c-.03.868.108 1.732.404 2.545l.137.346v.003l.163.406a20.08 20.08 0 0 0 3.142 5.2l.285.332v.002l.384.448a22.264 22.264 0 0 0 6.436 5.041l.526.265.003.002.443.22a9.82 9.82 0 0 0 3.313.889h.2l.183.002a1.553 1.553 0 0 0 1.112-.539l.285-.312c.286-.3.573-.574.854-.844l.538-.532.078-.084a.7.7 0 0 0 .05-.066.163.163 0 0 0 .033-.079.155.155 0 0 0-.02-.077 1.27 1.27 0 0 0-.084-.14c-.958-.927-1.917-1.87-2.876-2.83l-.01-.011a.348.348 0 0 0-.17-.121.368.368 0 0 0-.167.12l-.009.013v-.001c-.606.598-1.182 1.167-1.75 1.75l.001.002a1.889 1.889 0 0 1-1.393.625h-.002a1.916 1.916 0 0 1-.96-.267l-.382-.191a9.469 9.469 0 0 1-.83-.446h-.002a19.84 19.84 0 0 1-4.814-4.358 11.669 11.669 0 0 1-1.816-2.912 1.905 1.905 0 0 1 .42-2.164 73.976 73.976 0 0 0 1.504-1.5l.248-.248.133-.143c.027-.036.03-.053.03-.062 0-.008-.002-.026-.028-.063a.71.71 0 0 0-.053-.066l-.083-.087-1.883-1.886-.001-.001a57.85 57.85 0 0 0-.936-.944l-.012-.013-.008-.016a.19.19 0 0 0-.07-.078.19.19 0 0 0-.1-.028Zm2.337 6.225.06.08a.262.262 0 0 0-.087.297l.02.043.005.01-.092.04a.362.362 0 0 1-.049-.187l.007-.065a.363.363 0 0 1 .136-.218Zm2.362-3.055c0-.186-.031-.37-.09-.546l-.07-.173a1.69 1.69 0 0 0-.45-.582l-2.834-2.84a1.797 1.797 0 0 0-.415-.33l-.158-.082a1.794 1.794 0 0 0-.689-.158 1.82 1.82 0 0 0-.692.162l-.16.082c-.154.09-.295.202-.417.334-.599.585-1.169 1.192-1.782 1.77l-.192.2a2.892 2.892 0 0 0-.709 1.75l-.007.457a8.314 8.314 0 0 0 .642 3.098c.9 2.337 2.194 4.5 3.829 6.395a23.534 23.534 0 0 0 7.854 6.148 11.298 11.298 0 0 0 3.763 1.21l.565.062h.282c.404.017.807-.046 1.186-.183l.161-.063c.372-.159.71-.388.993-.675l.119-.127c.505-.57 1.075-1.091 1.616-1.633.14-.12.26-.26.354-.418l.086-.163a1.7 1.7 0 0 0 .147-.528l.01-.184c0-.184-.03-.368-.09-.542l-.067-.17a1.699 1.699 0 0 0-.44-.582 392.83 392.83 0 0 0-2.827-2.832 1.665 1.665 0 0 0-.41-.346l-.16-.085a1.667 1.667 0 0 0-.517-.143l-.18-.01c-.24 0-.478.053-.696.154l-.16.084a1.676 1.676 0 0 0-.41.346c-.59.585-1.182 1.178-1.766 1.778a.348.348 0 0 1-.099.096l-.061.032a.356.356 0 0 1-.068.019l-.068.006-.07-.009a.342.342 0 0 1-.065-.022l-.06-.035c-.383-.21-.794-.376-1.161-.607a18.325 18.325 0 0 1-4.193-3.752l-.235-.295a10.55 10.55 0 0 1-1.436-2.2l-.159-.342.092-.04c.353.796.804 1.546 1.343 2.23l.236.289.002.003.235.293a18.225 18.225 0 0 0 4.167 3.73c.18.113.372.21.568.307l.59.297.01.006.042.026a.245.245 0 0 0 .146.018.246.246 0 0 0 .16-.105l.006-.008.006-.006c.292-.3.586-.599.881-.895l.887-.884a1.766 1.766 0 0 1 2.075-.45c.23.105.432.26.597.45.952.945 1.896 1.889 2.83 2.833a1.795 1.795 0 0 1 .46 2.118 1.8 1.8 0 0 1-.468.615c-.407.408-.824.798-1.218 1.206l-.387.417a3.212 3.212 0 0 1-2.36 1.084l-.178-.003h-.286a11.396 11.396 0 0 1-4.363-1.28l-.566-.284a23.634 23.634 0 0 1-7.32-5.89 21.852 21.852 0 0 1-3.847-6.42l-.166-.431a8.415 8.415 0 0 1-.477-3.167l.03-.287c.098-.66.415-1.271.903-1.733l.452-.437c.445-.44.875-.888 1.328-1.331a1.919 1.919 0 0 1 1.337-.607h.006a1.895 1.895 0 0 1 1.33.6l1.442 1.445c.466.467.927.92 1.386 1.388l.144.134a1.792 1.792 0 0 1-.144 2.62c-.582.59-1.157 1.175-1.747 1.752l-.01.008-.06-.08a145.15 145.15 0 0 0 1.753-1.756 1.69 1.69 0 0 0 .361-.418l.088-.164a1.69 1.69 0 0 0 .15-.533l.01-.185Z"/>
</svg>
