<svg xmlns="http://www.w3.org/2000/svg" width="22" height="12" fill="currentColor" viewBox="0 0 22 12">
  <path d="M10.797 11.925h1.334s.4-.064.6-.254c.2-.19.2-.57.2-.57s0-1.65.8-1.903c.8-.254 1.868 1.649 2.935 2.346.8.57 1.4.444 1.4.444L21 11.924s1.535-.063.801-1.268c-.066-.063-.4-.825-2.2-2.41-1.867-1.649-1.6-1.332.6-4.186 1.334-1.712 1.867-2.728 1.734-3.234C21.8.38 20.8.508 20.8.508h-3.335s-.266-.064-.4.064c-.2.127-.266.317-.266.317s-.534 1.332-1.201 2.474C14.132 5.71 13.53 5.836 13.33 5.71c-.534-.318-.4-1.397-.4-2.094 0-2.283.4-3.235-.733-3.488-.334-.064-.6-.128-1.534-.128-1.2 0-2.201 0-2.735.254-.4.19-.666.572-.467.572.2 0 .734.125 1 .443.267.571.267 1.522.267 1.522s.2 2.728-.466 3.045c-.467.253-1.067-.254-2.401-2.411C5.194 2.348 4.66 1.078 4.66 1.078s-.066-.252-.267-.38c-.2-.127-.533-.19-.533-.19H.726s-.466 0-.667.19c-.133.19 0 .507 0 .507S2.526 6.66 5.33 9.45c2.6 2.665 5.468 2.475 5.468 2.475Z"/>
</svg>
