<svg width="116" height="120" viewBox="0 0 116 120" fill="none" xmlns="http://www.w3.org/2000/svg">
<path d="M60.1669 0.0329418C60.9896 0.0327686 61.7721 0.223765 62.3965 0.792423C63.0845 1.41909 63.218 2.08818 63.2492 2.96628C64.0201 3.23866 64.7877 3.50169 65.5737 3.72801C65.9666 3.35589 66.3744 3.0016 66.85 2.73857C67.5995 2.32437 68.4272 2.29216 69.2383 2.54324C70.5742 2.9571 73.457 5.04454 74.0942 6.32246C74.5583 7.2532 74.5299 8.39917 74.1998 9.36714C74.72 10.07 75.3553 10.6852 75.9073 11.3637C76.8215 12.4866 77.5723 13.7168 78.2909 14.9692C78.5686 14.9883 78.859 15.017 79.0997 15.1685C79.664 15.5235 80.076 16.1446 80.2092 16.7938C80.3723 17.5898 80.1603 18.1147 79.738 18.7651C80.0886 19.6097 80.2464 20.292 80.3032 21.2063C80.8157 21.4729 81.2992 21.7289 81.6634 22.1919C82.3402 23.0529 82.6434 25.3981 82.444 26.492C82.4389 26.52 82.4301 26.547 82.4232 26.5746L82.4796 26.6688L82.4524 26.7363C82.8559 27.1727 84.5105 29.087 85.0021 29.2494C85.1196 29.2882 85.3446 29.1931 85.4739 29.2182C85.8793 29.2967 86.6738 30.1083 87.0298 30.3829C88.8033 29.3491 90.5958 28.8146 92.5643 28.2821C92.5688 27.2845 92.4995 26.293 92.5801 25.2961C92.7056 25.0915 92.8514 24.8863 93.0348 24.7285C93.8374 24.0378 96.0021 24.1647 97.0088 24.2603C97.8331 24.3386 98.2781 24.5687 98.8048 25.1933C99.0433 26.2174 98.9711 27.2658 98.9531 28.3098C100.875 28.7957 102.568 29.509 104.269 30.5245C104.931 29.9206 106.141 28.5555 107.03 28.443C107.658 28.3635 108.283 28.6935 108.757 29.0745C109.584 29.74 111.357 31.2916 111.43 32.3696C111.5 33.3871 109.809 34.7775 109.176 35.4795C110.061 37.2309 110.802 38.8004 111.243 40.7308C112.19 40.697 114.073 40.4896 114.859 41.1103C115.41 41.5451 115.618 42.32 115.67 42.9884C115.757 44.1218 115.84 45.9884 115.04 46.8795C114.331 47.6698 112.427 47.4662 111.438 47.5278C111.129 49.4622 110.371 51.1171 109.474 52.8371C110.019 53.6037 111.405 54.8864 111.591 55.7514C111.696 56.2404 111.471 56.7154 111.195 57.1076C110.565 58.0016 109.064 59.7 107.971 59.8804C107.065 60.03 105.534 58.4636 104.79 57.9368C102.843 59.0366 100.984 59.8619 98.8118 60.4078C98.8206 61.3954 99.1207 63.6196 98.3934 64.3213C97.7943 64.8996 96.9132 64.9427 96.1288 64.9493C95.1316 64.9578 93.6344 65.0451 92.8914 64.248C92.2769 63.5884 92.555 61.3872 92.5517 60.4492C90.3744 59.9957 88.6947 59.2511 86.7801 58.1535C85.8372 58.8518 84.7297 59.8702 83.6131 60.2535C83.2758 60.3694 83.0344 60.3976 82.7153 60.2205C81.9389 59.7893 79.752 57.5876 79.6218 56.7313C79.5094 55.9924 81.3125 53.8795 81.8147 53.2106C80.5588 50.8946 79.7274 48.6556 79.183 46.0804C76.9082 47.4444 74.7027 48.4823 72.2007 49.3659C71.742 50.2328 71.1922 51.1263 70.9001 52.065C70.5202 53.2864 70.7579 55.5128 70.8192 56.8482C72.9342 57.5361 74.888 59.2172 76.2864 60.9038C77.1144 61.9026 78.0021 63.3765 79.2048 63.929C82.6085 65.4927 86.1676 66.9219 89.6741 68.2338C91.8382 69.0435 98.1323 70.9803 99.6582 72.1285C102.768 74.4688 105.036 78.0975 106.681 81.572C107.937 84.2236 108.842 87.0186 109.705 89.8175C112.144 97.7221 113.707 105.825 114.789 114.02C114.95 115.35 115.256 116.831 115.196 118.162C115.168 118.775 114.989 119.255 114.524 119.66C113.351 119.946 112.03 119.835 110.829 119.833L106.333 119.833C99.3808 119.872 92.4287 119.873 85.4767 119.836L2.33713 119.825C1.72293 119.82 1.06388 119.796 0.486048 119.57C0.29332 119.494 0.21609 119.424 0.139207 119.219C-0.322611 117.991 0.494012 114.172 0.715484 112.724C2.44726 101.406 4.60882 89.8217 9.72899 79.4795C10.6469 77.6257 11.7098 75.8489 13.2048 74.3952C17.0639 70.6428 25.4575 67.6148 30.5491 65.9311C32.4145 65.3141 34.307 64.7872 36.1693 64.1585C38.3704 61.0478 41.0718 58.3806 44.466 56.5845C44.4414 55.1968 44.4047 53.8161 44.2327 52.4373C41.899 49.3195 40.6145 46.0286 39.6206 42.2909C39.3683 42.5562 39.1411 42.8438 38.9089 43.1264C37.6034 43.1147 35.8881 43.021 34.7538 42.3431C34.1493 41.9819 33.5901 41.498 32.9688 41.1735C32.3735 40.8625 31.6899 40.7748 31.1449 40.3585C30.0402 39.5145 29.676 37.6686 29.5196 36.3632C29.2869 34.4206 29.1404 30.2696 30.7311 28.7985C31.2899 28.2818 32.1124 28.1919 32.5944 27.5668C32.7792 27.3271 32.9647 27.1711 33.2086 26.9943C33.0374 25.5509 32.726 23.6419 33.2164 22.2499C33.408 21.7065 33.9375 21.1576 34.4544 20.9117C34.7472 20.0194 34.9602 19.1017 35.1898 18.1916L35.1252 18.0662C35.0644 17.9505 34.9979 17.8342 34.9614 17.7077C34.855 17.3387 34.9061 16.8328 35.1271 16.5178C35.4171 16.1041 35.8296 16.0361 36.299 15.9895C37.7254 13.4482 38.8488 11.6073 40.8613 9.44143C40.5467 8.65736 40.1212 7.74896 40.1716 6.88714C40.2118 6.19987 40.7034 5.60056 41.2112 5.17701C42.0149 4.50671 44.9163 2.68454 45.929 2.37199C46.2989 2.2577 46.7086 2.25597 47.09 2.30394C48.1267 2.43398 48.7589 2.96749 49.3674 3.76281L51.3887 3.08108C51.515 2.28697 51.6312 1.60021 52.2017 0.985148C52.5915 0.565235 53.1065 0.292856 53.6621 0.164371C55.0249 -0.150954 58.5075 0.0961452 60.1669 0.0329418Z" fill="#B51111"/>
<path d="M67.1852 18.6729C67.2832 18.7703 67.3082 18.9002 67.3447 19.0311C68.1809 22.0188 71.5 21.8472 72.8467 24.2126C74.4834 27.0874 72.9764 31.9006 74.8436 34.2406C74.7279 35.2917 74.6506 36.3456 74.6116 37.4024C74.5826 38.0571 74.6358 38.7828 74.5004 39.4214C74.3458 40.1506 73.9856 40.9161 73.7284 41.6219L71.8136 46.7721C69.2327 47.7044 66.3996 48.0853 63.6829 48.3688L63.6315 48.2938C63.2576 47.7425 62.8484 47.3201 62.2666 46.984C60.6801 46.0678 58.0914 46.0981 56.3672 46.5679C55.4637 46.8141 54.6235 47.2633 54.1655 48.1155C53.7532 48.8831 53.6784 49.918 53.934 50.7477C54.1929 51.5882 54.7967 52.2109 55.5683 52.6102C57.1821 53.4453 59.6244 53.4261 61.3267 52.903C62.3925 52.5755 63.2 51.93 63.7267 50.9475C66.1535 50.7089 68.5535 50.2554 70.9442 49.7873C69.9994 52.1835 67.9619 54.4928 66.0969 56.2415C63.8819 58.3813 61.236 59.9721 58.0876 60.0587C54.2235 60.165 50.9593 58.2341 48.2469 55.6303C44.7908 52.3125 42.3752 48.5158 40.9413 43.9361C40.6543 43.0193 40.289 42.0096 40.2093 41.0509C40.1418 40.2377 40.2564 39.3617 40.2767 38.543C40.2984 37.2383 40.2922 35.9337 40.2583 34.6292C42.6554 30.6431 40.1044 25.3624 42.2637 22.9603C42.5714 22.618 42.9483 22.3897 43.4076 22.3288C45.2779 22.0808 47.3276 22.619 49.1968 22.7797C51.401 22.9691 53.7009 22.9402 55.9063 22.7811C59.6687 22.5096 64.6015 21.6599 67.1852 18.6729Z" fill="#F4F4F4"/>
<path d="M35.2297 65.2803L35.3828 65.304C35.3625 65.4931 33.4446 68.8533 33.1701 69.4056C31.9992 71.7613 30.9779 74.162 29.961 76.5861C29.2988 78.1639 28.589 79.7504 28.0491 81.375C28.8676 82.0067 29.8398 82.5045 30.7281 83.0351C32.3696 84.0157 34.015 84.9916 35.592 86.0746C34.1781 87.0574 32.8444 88.1187 31.4725 89.1551C30.6131 89.8041 29.7018 90.3944 28.8915 91.105C29.5804 92.9984 30.7965 94.8571 31.8334 96.5888C32.4418 97.6174 33.0679 98.6352 33.7116 99.6422C34.3553 100.649 35.0163 101.644 35.6945 102.629C36.3727 103.613 37.0677 104.585 37.7795 105.545C38.4913 106.505 39.2196 107.452 39.9643 108.387C40.7088 109.321 41.4694 110.243 42.246 111.151C43.0226 112.06 43.8146 112.955 44.6221 113.836C45.4296 114.717 46.2521 115.583 47.0896 116.436C47.9271 117.288 48.7792 118.126 49.6456 118.949C47.7663 119.07 45.8616 119.01 43.9785 119.009C36.5464 119.081 29.1135 118.918 21.681 119.003C21.5234 114.608 20.9556 110.132 20.4058 105.77C20.2015 104.148 19.7286 102.005 19.6912 100.466C19.6728 99.712 19.9431 99.0543 20.1504 98.3405C20.5719 96.8884 20.9807 95.1757 20.7786 93.6538C20.5516 91.9442 19.802 90.1882 19.3296 88.527C18.4579 85.4621 17.6846 82.3367 17.189 79.1878C16.8505 77.0384 16.6287 74.6325 17.2174 72.5114C22.8197 69.1901 29.1182 67.3868 35.2297 65.2803Z" fill="#F4F4F4"/>
<path d="M94.0749 25.1346C94.8771 25.1062 97.2879 24.7996 97.8529 25.3964C98.3623 25.9346 98.1073 28.2416 98.1047 29.0744C100.343 29.5087 102.44 30.3085 104.308 31.6276C105.152 31.02 105.771 30.042 106.629 29.5083C106.931 29.3203 107.251 29.2335 107.602 29.3286C108.425 29.5516 110.273 31.6849 110.729 32.4761C109.998 33.5874 108.863 34.4323 108.043 35.4924C109.406 37.1713 110.063 39.4633 110.588 41.5263C111.365 41.5701 113.632 41.4053 114.21 41.757C114.56 41.9693 114.705 42.3417 114.775 42.7282C114.921 43.5289 115.009 45.558 114.499 46.2063C113.897 46.9712 111.745 46.5722 110.836 46.664L110.689 46.6794C110.329 49.0053 109.602 50.8041 108.456 52.8449C109.161 53.9831 110.192 54.9109 110.846 56.0832C110.279 57.1997 108.917 58.531 107.807 59.1036C106.784 58.4323 105.852 57.6214 104.847 56.9213C104.196 57.1933 103.575 57.6119 102.956 57.9528C101.408 58.8041 99.8167 59.3708 98.0617 59.5952C98.0167 60.4319 98.2546 63.0545 97.839 63.6018C97.5831 63.939 97.1398 64.037 96.7407 64.0719C95.9642 64.14 94.2661 64.2834 93.6849 63.7028C93.1686 63.1868 93.381 60.5805 93.3414 59.727C90.7767 59.148 89.0349 58.6214 86.8778 57.0371C85.6145 57.7719 84.5125 58.9438 83.1509 59.4867C82.0435 58.7817 81.2254 57.6158 80.4113 56.6079C81.1622 55.4283 82.122 54.3871 82.9519 53.2628C81.4825 50.7348 80.4785 48.3566 80.0176 45.451C82.0359 44.1021 83.5126 42.5256 85.0358 40.664C84.8075 41.4984 84.4764 42.5119 84.5502 43.3899C84.5696 43.6217 84.6051 43.7171 84.776 43.8704C84.8332 43.8662 84.8924 43.874 84.9476 43.8581C85.1317 43.8053 85.2247 43.6645 85.287 43.4979C85.4207 43.1402 85.4172 42.7026 85.5028 42.3268C85.8271 40.9033 86.3566 39.5062 87.1992 38.3071C88.9144 35.8662 91.4581 34.4429 94.3694 33.9509C94.6783 33.9099 94.9884 33.8824 95.2996 33.8685C97.8977 33.7431 100.665 34.7019 102.577 36.4754C104.685 38.4295 106.063 41.3682 106.143 44.2494C106.22 46.9715 105.091 49.7035 103.216 51.66C101.277 53.6842 98.7407 54.7854 95.9371 54.8306C91.4995 54.9021 87.7561 52.1942 86.0093 48.1911C85.7765 47.6577 85.6517 46.4969 85.1767 46.1653C84.9887 46.034 84.8868 46.0499 84.6806 46.0844C84.6674 46.1066 84.6512 46.1272 84.6415 46.1511C84.5473 46.3817 84.6437 46.6707 84.7048 46.8995C85.5518 50.0721 87.4181 52.5461 90.2775 54.172C92.8739 55.6486 95.8042 56.108 98.6998 55.2965C98.879 55.2472 99.0568 55.1934 99.2333 55.1351C99.4098 55.077 99.5847 55.0144 99.758 54.9474C99.9314 54.8806 100.103 54.8094 100.273 54.7339C100.443 54.6584 100.61 54.5788 100.776 54.495C100.942 54.411 101.106 54.3231 101.267 54.2311C101.429 54.1391 101.588 54.0431 101.744 53.9433C101.901 53.8433 102.055 53.7395 102.207 53.6319C102.358 53.5244 102.507 53.4131 102.653 53.2981C102.799 53.183 102.942 53.0644 103.082 52.9422C103.222 52.8201 103.359 52.6946 103.493 52.5656C103.627 52.4366 103.757 52.3043 103.884 52.1689C104.011 52.0334 104.135 51.8948 104.255 51.7532C104.376 51.6115 104.492 51.467 104.606 51.3196C104.719 51.172 104.828 51.0218 104.934 50.869C105.039 50.716 105.141 50.5606 105.239 50.4027C105.337 50.2446 105.431 50.0843 105.52 49.9216C105.612 49.7586 105.7 49.5934 105.783 49.4261C105.867 49.2587 105.946 49.0893 106.021 48.918C106.096 48.7466 106.167 48.5734 106.234 48.3985C106.3 48.2236 106.362 48.0472 106.42 47.8693C106.477 47.6913 106.53 47.512 106.579 47.3313C106.628 47.1508 106.672 46.9691 106.712 46.7862C106.751 46.6034 106.786 46.4196 106.817 46.2351C106.847 46.0505 106.873 45.8652 106.894 45.6794C106.915 45.4935 106.932 45.3073 106.944 45.1206C106.956 44.9339 106.963 44.747 106.965 44.5599C106.968 44.3729 106.966 44.1859 106.959 43.9989C106.953 43.812 106.941 43.6253 106.925 43.4389C106.909 43.2526 106.888 43.0667 106.863 42.8813C106.838 42.696 106.808 42.5114 106.773 42.3275C106.738 42.1436 106.699 41.9608 106.656 41.779C106.612 41.597 106.564 41.4163 106.511 41.2368C106.456 41.0529 106.397 40.8705 106.333 40.6896C106.269 40.5086 106.2 40.3293 106.128 40.1516C106.055 39.9739 105.978 39.7981 105.897 39.6242C105.816 39.4503 105.731 39.2785 105.641 39.1087C105.552 38.9388 105.458 38.7713 105.361 38.606C105.263 38.4408 105.162 38.278 105.056 38.1177C104.951 37.9573 104.841 37.7996 104.728 37.6446C104.615 37.4895 104.498 37.3373 104.378 37.188C104.257 37.0386 104.133 36.8922 104.006 36.7488C103.878 36.6054 103.747 36.4653 103.613 36.3284C103.478 36.1914 103.341 36.0577 103.2 35.9274C103.059 35.797 102.915 35.6702 102.768 35.5468C102.621 35.4235 102.471 35.3037 102.318 35.1876C102.165 35.0716 102.01 34.9593 101.851 34.8508C101.693 34.7422 101.532 34.6375 101.369 34.5369C101.206 34.4361 101.04 34.3394 100.872 34.2467C98.3776 32.9007 95.3235 32.6456 92.6203 33.4595C88.9478 34.5651 86.9426 36.705 85.1918 39.9899L85.0823 39.9951C84.7674 39.6865 85.149 38.9644 85.2856 38.5971C86.3765 35.6652 86.1828 32.939 85.0671 30.065C85.7021 30.4789 86.2842 30.9751 86.9144 31.4008C89.0027 30.2288 91.0927 29.6068 93.3852 28.9845C93.4141 28.1762 93.1258 26.0887 93.5123 25.4699C93.6622 25.2295 93.8248 25.2184 94.0749 25.1346Z" fill="#F4F4F4"/>
<path d="M95.0362 35.2641C95.1833 35.2543 95.3305 35.2481 95.4778 35.2456C95.6251 35.2429 95.7724 35.244 95.9197 35.2487C96.067 35.2533 96.2141 35.2616 96.3609 35.2736C96.5079 35.2855 96.6544 35.301 96.8006 35.32C96.9466 35.3392 97.0921 35.3619 97.2371 35.3883C97.3822 35.4146 97.5265 35.4444 97.67 35.4778C97.8135 35.5111 97.9561 35.548 98.0979 35.5884C98.2395 35.6289 98.3801 35.6729 98.5197 35.7202C98.6593 35.7675 98.7976 35.8183 98.9346 35.8724C99.0717 35.9266 99.2074 35.984 99.3415 36.0449C99.4758 36.1057 99.6085 36.1698 99.7396 36.2371C99.8706 36.3045 99.9999 36.375 100.127 36.4487C100.255 36.5225 100.381 36.5993 100.505 36.6792C100.628 36.7592 100.75 36.8421 100.87 36.928C100.99 37.0139 101.107 37.1027 101.223 37.1943C101.338 37.2861 101.451 37.3806 101.562 37.4778C101.672 37.5751 101.781 37.675 101.886 37.7775C101.992 37.8801 102.096 37.9853 102.196 38.093C102.297 38.2006 102.395 38.3107 102.49 38.4232C102.585 38.5357 102.677 38.6504 102.767 38.7675C102.857 38.8845 102.943 39.0037 103.027 39.1251C103.11 39.2463 103.191 39.3696 103.269 39.4949C103.346 39.6202 103.421 39.7473 103.492 39.8762C103.564 40.0052 103.632 40.1358 103.697 40.2681C103.762 40.4003 103.823 40.5341 103.881 40.6695C103.94 40.8048 103.995 40.9414 104.046 41.0795C104.098 41.2175 104.146 41.3567 104.191 41.4972C104.236 41.6375 104.277 41.779 104.315 41.9214C104.353 42.0639 104.387 42.2071 104.418 42.3512C104.448 42.4954 104.476 42.6402 104.499 42.7857C104.523 42.9311 104.543 43.077 104.559 43.2234C104.576 43.3699 104.588 43.5167 104.598 43.6638C104.607 43.8108 104.612 43.958 104.614 44.1053C104.616 44.2527 104.615 44.4001 104.609 44.5474C104.604 44.6946 104.595 44.8416 104.583 44.9884C104.57 45.1353 104.554 45.2817 104.534 45.4277C104.515 45.5738 104.491 45.7192 104.464 45.8641C104.437 46.009 104.407 46.1531 104.373 46.2965C104.339 46.4399 104.301 46.5824 104.26 46.724C104.219 46.8655 104.175 47.006 104.127 47.1453C104.079 47.2846 104.028 47.4227 103.973 47.5595C103.918 47.6963 103.86 47.8317 103.799 47.9657C103.737 48.0997 103.673 48.232 103.605 48.3628C103.537 48.4936 103.466 48.6227 103.392 48.75C103.317 48.8772 103.24 49.0026 103.16 49.1261C103.079 49.2496 102.996 49.3711 102.909 49.4904C102.823 49.6098 102.734 49.727 102.641 49.8419C102.549 49.9569 102.454 50.0695 102.357 50.1798C102.259 50.2901 102.158 50.398 102.055 50.5032C101.952 50.6086 101.847 50.7114 101.739 50.8116C101.631 50.9117 101.52 51.0091 101.407 51.1039C101.294 51.1986 101.179 51.2905 101.062 51.3796C100.944 51.4686 100.825 51.5547 100.703 51.6379C100.582 51.7211 100.458 51.8012 100.332 51.8783C100.207 51.9554 100.079 52.0294 99.9502 52.1001C99.8209 52.1709 99.69 52.2385 99.5575 52.3029C99.4249 52.3673 99.2908 52.4284 99.1552 52.4861C99.0197 52.5438 98.8828 52.5982 98.7445 52.6494C98.6063 52.7004 98.4669 52.748 98.3263 52.7921C98.1857 52.8363 98.0441 52.877 97.9015 52.9141C97.7589 52.9513 97.6155 52.985 97.4712 53.0151C97.3269 53.0452 97.182 53.0718 97.0366 53.0947C96.891 53.1178 96.7449 53.1373 96.5983 53.1531C96.4518 53.1689 96.305 53.1811 96.158 53.1896C96.0116 53.1982 95.8652 53.2031 95.7187 53.2045C95.5721 53.2059 95.4255 53.2037 95.279 53.1978C95.1326 53.192 94.9864 53.1827 94.8404 53.1697C94.6944 53.1567 94.5487 53.1401 94.4035 53.12C94.2584 53.0999 94.1138 53.0763 93.9697 53.0492C93.8257 53.022 93.6824 52.9913 93.54 52.9571C93.3974 52.9229 93.2557 52.8853 93.115 52.8442C92.9743 52.8031 92.8347 52.7585 92.6963 52.7105C92.5578 52.6626 92.4205 52.6113 92.2845 52.5566C92.1486 52.5018 92.014 52.4439 91.8807 52.3827C91.7476 52.3214 91.6161 52.2569 91.4861 52.1891C91.3561 52.1215 91.2279 52.0507 91.1013 51.9767C90.9747 51.9027 90.85 51.8256 90.7273 51.7455C90.6046 51.6654 90.4839 51.5823 90.3652 51.4963C90.2464 51.4103 90.1299 51.3214 90.0156 51.2296C89.9012 51.138 89.7892 51.0435 89.6795 50.9463C89.5699 50.8491 89.4626 50.7493 89.3578 50.6468C89.253 50.5444 89.1507 50.4395 89.0509 50.332C88.9513 50.2245 88.8544 50.1147 88.76 50.0025C88.6657 49.8902 88.5742 49.7758 88.4854 49.6591C88.3967 49.5425 88.311 49.4237 88.2281 49.3027C88.1452 49.1818 88.0653 49.059 87.9884 48.9342C87.9116 48.8094 87.8378 48.6829 87.7671 48.5545C87.6965 48.426 87.629 48.2959 87.5647 48.1642C87.5004 48.0325 87.4393 47.8993 87.3815 47.7645C87.3238 47.6298 87.2694 47.4938 87.2182 47.3564C87.1671 47.219 87.1194 47.0805 87.075 46.9408C87.0307 46.8011 86.9898 46.6604 86.9524 46.5186C86.9149 46.377 86.8809 46.2345 86.8504 46.0911C86.82 45.9477 86.7931 45.8037 86.7697 45.6589C86.7463 45.5143 86.7265 45.3691 86.7102 45.2234C86.6938 45.0777 86.681 44.9317 86.6719 44.7855C86.6628 44.6392 86.6572 44.4928 86.6551 44.3462C86.6531 44.1996 86.6548 44.0531 86.66 43.9067C86.6651 43.7602 86.6739 43.6139 86.6863 43.4677C86.6986 43.3217 86.7146 43.1761 86.7341 43.0309C86.7536 42.8855 86.7766 42.7408 86.8032 42.5966C86.8297 42.4525 86.8598 42.3091 86.8934 42.1664C86.927 42.0238 86.964 41.882 87.0045 41.7412C87.0451 41.6002 87.089 41.4604 87.1365 41.3218C87.1838 41.183 87.2346 41.0455 87.2887 40.9093C87.3428 40.7731 87.4003 40.6383 87.461 40.505C87.5216 40.3715 87.5855 40.2396 87.6527 40.1093C87.7199 39.9791 87.7902 39.8505 87.8638 39.7237C87.9372 39.5968 88.0137 39.4718 88.0932 39.3488C88.1729 39.2257 88.2554 39.1046 88.3408 38.9855C88.4264 38.8665 88.5147 38.7496 88.6059 38.6348C88.6972 38.5201 88.7913 38.4077 88.888 38.2977C88.9847 38.1876 89.0841 38.0799 89.186 37.9746C89.2881 37.8693 89.3926 37.7666 89.4996 37.6665C89.6067 37.5663 89.7162 37.4688 89.8279 37.3741C89.9398 37.2793 90.0538 37.1873 90.1701 37.098C90.2864 37.0089 90.4049 36.9226 90.5254 36.8392C90.6459 36.7558 90.7685 36.6755 90.893 36.5981C91.0175 36.5207 91.1438 36.4463 91.2719 36.3751C91.4 36.3039 91.5298 36.2359 91.6612 36.1711C91.7927 36.1062 91.9256 36.0446 92.0601 35.9862C92.1946 35.9279 92.3304 35.8729 92.4676 35.8212C92.6047 35.7694 92.743 35.7211 92.8825 35.6762C93.022 35.6313 93.1626 35.5899 93.3041 35.5519C93.4458 35.5138 93.5882 35.4792 93.7313 35.4482C93.8746 35.4171 94.0185 35.3896 94.1632 35.3656C94.3077 35.3416 94.4528 35.3211 94.5985 35.3041C94.7441 35.2872 94.89 35.2739 95.0362 35.2641Z" fill="#B51111"/>
<path d="M95.0036 36.1118C95.1364 36.1016 95.2695 36.0945 95.4027 36.0907C95.5359 36.0869 95.6691 36.0864 95.8024 36.0892C95.9356 36.0919 96.0686 36.0979 96.2015 36.1072C96.3345 36.1165 96.4671 36.1291 96.5994 36.1449C96.7317 36.1607 96.8636 36.1798 96.9951 36.202C97.1264 36.2243 97.2572 36.2498 97.3873 36.2786C97.5174 36.3073 97.6467 36.3393 97.7753 36.3743C97.9039 36.4094 98.0316 36.4476 98.1582 36.489C98.2848 36.5303 98.4104 36.5747 98.535 36.6223C98.6594 36.6698 98.7827 36.7203 98.9047 36.7738C99.0267 36.8274 99.1473 36.884 99.2666 36.9435C99.3858 37.003 99.5035 37.0654 99.6197 37.1307C99.7359 37.1959 99.8504 37.264 99.9632 37.335C100.076 37.4059 100.187 37.4795 100.296 37.5558C100.406 37.6322 100.513 37.7113 100.618 37.7929C100.723 37.8745 100.827 37.9587 100.928 38.0455C101.029 38.1322 101.128 38.2213 101.225 38.3129C101.322 38.4044 101.416 38.4983 101.508 38.5946C101.601 38.6908 101.69 38.7892 101.778 38.8898C101.865 38.9905 101.95 39.0932 102.032 39.1979C102.114 39.3027 102.194 39.4095 102.271 39.5182C102.348 39.627 102.423 39.7375 102.494 39.8498C102.566 39.9623 102.635 40.0763 102.701 40.192C102.767 40.3078 102.83 40.4251 102.89 40.544C102.951 40.6628 103.008 40.7831 103.062 40.9047C103.117 41.0264 103.168 41.1494 103.216 41.2736C103.265 41.3978 103.31 41.5231 103.352 41.6495C103.394 41.7759 103.433 41.9033 103.469 42.0317C103.505 42.1599 103.538 42.289 103.567 42.419C103.597 42.549 103.623 42.6796 103.646 42.8107C103.669 42.942 103.689 43.0737 103.706 43.206C103.723 43.3382 103.736 43.4707 103.746 43.6036C103.756 43.7365 103.763 43.8695 103.767 44.0027C103.77 44.136 103.771 44.2692 103.768 44.4024C103.765 44.5356 103.759 44.6687 103.749 44.8017C103.74 44.9346 103.727 45.0672 103.711 45.1995C103.695 45.3317 103.676 45.4636 103.653 45.595C103.631 45.7263 103.605 45.8571 103.576 45.9872C103.548 46.1173 103.515 46.2466 103.48 46.375C103.445 46.5035 103.407 46.6311 103.365 46.7577C103.324 46.8844 103.279 47.0099 103.231 47.1343C103.184 47.2588 103.133 47.382 103.079 47.5039C103.025 47.6259 102.969 47.7465 102.909 47.8656C102.85 47.9847 102.787 48.1024 102.721 48.2185C102.656 48.3346 102.588 48.449 102.517 48.5617C102.446 48.6745 102.372 48.7854 102.296 48.8945C102.219 49.0036 102.14 49.1108 102.058 49.2161C101.976 49.3212 101.892 49.4244 101.805 49.5255C101.718 49.6265 101.629 49.7254 101.537 49.8221C101.446 49.9189 101.352 50.0132 101.255 50.1053C101.159 50.1974 101.06 50.287 100.96 50.3742C100.859 50.4614 100.756 50.5462 100.651 50.6284C100.546 50.7106 100.439 50.7901 100.33 50.867C100.222 50.944 100.111 51.0182 99.9987 51.0897C99.8862 51.1611 99.772 51.2298 99.6562 51.2957C99.5404 51.3616 99.423 51.4246 99.304 51.4846C99.1851 51.5448 99.0648 51.602 98.9431 51.6563C98.8213 51.7104 98.6983 51.7615 98.5741 51.8097C98.4498 51.8579 98.3244 51.903 98.198 51.9449C98.0715 51.9869 97.9441 52.0258 97.8157 52.0616C97.6873 52.0973 97.5581 52.1298 97.4281 52.1593C97.2982 52.1887 97.1675 52.2149 97.0363 52.2379C96.905 52.2609 96.7733 52.2806 96.6411 52.2971C96.5088 52.3135 96.3763 52.3267 96.2434 52.3368C96.1107 52.3467 95.9779 52.3534 95.8449 52.3569C95.7118 52.3603 95.5788 52.3605 95.4458 52.3575C95.3128 52.3544 95.18 52.3481 95.0472 52.3385C94.9146 52.3289 94.7822 52.3161 94.6501 52.3001C94.5181 52.2839 94.3865 52.2646 94.2553 52.2421C94.1242 52.2195 93.9937 52.1938 93.8638 52.1648C93.734 52.1358 93.6049 52.1038 93.4766 52.0685C93.3484 52.0332 93.221 51.9948 93.0946 51.9534C92.9682 51.9118 92.8429 51.8672 92.7187 51.8195C92.5945 51.7719 92.4715 51.7212 92.3497 51.6675C92.228 51.6138 92.1077 51.5571 91.9887 51.4975C91.8698 51.4379 91.7524 51.3754 91.6365 51.3101C91.5206 51.2448 91.4063 51.1766 91.2938 51.1056C91.1812 51.0346 91.0705 50.9609 90.9617 50.8845C90.8527 50.8081 90.7457 50.729 90.6406 50.6474C90.5356 50.5658 90.4326 50.4816 90.3317 50.395C90.2308 50.3083 90.1321 50.2191 90.0356 50.1276C89.939 50.036 89.8447 49.9422 89.7528 49.846C89.6608 49.7499 89.5713 49.6515 89.4843 49.551C89.3971 49.4504 89.3125 49.3478 89.2304 49.2431C89.1483 49.1383 89.0688 49.0316 88.992 48.9231C88.9152 48.8145 88.8411 48.704 88.7696 48.5917C88.6982 48.4795 88.6295 48.3656 88.5637 48.25C88.4978 48.1343 88.4349 48.0172 88.3748 47.8985C88.3147 47.7798 88.2575 47.6597 88.2034 47.5382C88.1491 47.4167 88.0979 47.2939 88.0498 47.1698C88.0015 47.0459 87.9564 46.9207 87.9144 46.7944C87.8724 46.6683 87.8335 46.5411 87.7977 46.413C87.7618 46.2848 87.7291 46.1559 87.6997 46.0261C87.6702 45.8964 87.644 45.766 87.6209 45.635C87.5978 45.5039 87.5779 45.3724 87.5613 45.2405C87.5447 45.1084 87.5313 44.9761 87.5211 44.8434C87.511 44.7108 87.5041 44.578 87.5005 44.445C87.497 44.312 87.4966 44.179 87.4995 44.0459C87.5024 43.9129 87.5085 43.7801 87.5178 43.6474C87.5273 43.5147 87.54 43.3823 87.5559 43.2502C87.5719 43.118 87.591 42.9864 87.6134 42.8552C87.6357 42.7241 87.6613 42.5936 87.6901 42.4637C87.7189 42.3338 87.7508 42.2047 87.7859 42.0763C87.821 41.948 87.8593 41.8206 87.9007 41.6942C87.942 41.5678 87.9865 41.4424 88.034 41.3181C88.0815 41.1937 88.132 41.0707 88.1856 40.9489C88.2391 40.8271 88.2956 40.7067 88.3551 40.5877C88.4145 40.4687 88.4769 40.3512 88.5421 40.2353C88.6073 40.1193 88.6753 40.005 88.7461 39.8924C88.817 39.7798 88.8905 39.6689 88.9667 39.5598C89.043 39.4508 89.1219 39.3438 89.2034 39.2386C89.2849 39.1334 89.3689 39.0303 89.4555 38.9293C89.5421 38.8283 89.6311 38.7295 89.7225 38.6329C89.8139 38.5361 89.9077 38.4418 90.0037 38.3498C90.0998 38.2576 90.1981 38.168 90.2986 38.0808C90.3991 37.9936 90.5016 37.9088 90.6062 37.8266C90.7108 37.7444 90.8173 37.6649 90.9258 37.5879C91.0343 37.5109 91.1447 37.4366 91.2569 37.365C91.369 37.2934 91.4828 37.2246 91.5984 37.1586C91.7139 37.0927 91.831 37.0296 91.9495 36.9693C92.0682 36.9091 92.1883 36.8517 92.3097 36.7974C92.4312 36.743 92.5539 36.6916 92.6778 36.6433C92.8017 36.595 92.9267 36.5498 93.0529 36.5075C93.1791 36.4654 93.3062 36.4263 93.4344 36.3903C93.5625 36.3543 93.6914 36.3215 93.8211 36.2919C93.9508 36.2623 94.0812 36.2358 94.2122 36.2126C94.3431 36.1893 94.4746 36.1693 94.6067 36.1525C94.7386 36.1357 94.8709 36.1221 95.0036 36.1118Z" fill="#F4F4F4"/>
<path d="M99.3295 73.0083C99.6573 73.1894 99.9525 73.4514 100.229 73.7034C102.635 75.8982 104.446 78.8272 105.826 81.7503C106.775 83.7617 107.5 85.8471 108.213 87.9503C110.786 95.539 112.446 103.471 113.564 111.397C113.858 113.487 114.241 115.676 114.317 117.782C114.33 118.149 114.344 118.552 114.082 118.83C112.843 119.201 109.339 118.994 107.852 118.988C103.164 119.026 98.4751 119.028 93.7866 118.992C94.2872 114.708 94.89 110.431 95.4415 106.153C95.6924 104.205 96.0651 102.21 96.175 100.251C96.2976 98.0656 95.1683 95.422 95.4304 93.3335C95.6445 91.6279 96.4027 89.8708 96.8114 88.1873C98.0635 83.0282 99.0775 78.3439 99.3295 73.0083Z" fill="#F4F4F4"/>
<path d="M16.0882 73.2368L16.1606 73.3371C16.1406 74.3021 16.0224 75.2389 16.0586 76.2126C16.2206 80.5681 17.4761 84.8843 18.6191 89.0638C19.0754 90.7315 19.9756 92.6264 19.9988 94.3532C20.0258 96.3736 19.2598 98.3942 18.6922 100.312C19.2719 102.411 19.449 104.688 19.6979 106.85C20.1401 110.899 20.5365 114.952 20.887 119.01C19.3266 119.049 17.7543 118.983 16.1924 118.977L7.4783 118.988C6.37267 118.986 1.64263 119.158 0.926782 118.79C0.627215 117.327 2.39674 107.649 2.81336 105.331C4.25769 97.294 6.37908 88.5849 9.84678 81.1689C10.5429 79.6801 11.2648 78.1731 12.2336 76.8396C13.3053 75.3643 14.6012 74.2711 16.0882 73.2368Z" fill="#F4F4F4"/>
<path d="M79.1421 64.8296C80.0083 65.1395 80.8563 65.5609 81.7004 65.9286C83.2266 66.6024 84.7654 67.246 86.3167 67.8597C90.3288 69.4414 94.4176 70.8161 98.4374 72.3768C98.4073 77.7624 97.2589 82.9184 95.9439 88.1117C95.7352 88.9359 95.5311 89.7591 95.2819 90.5723C95.0254 91.4086 94.6782 92.2833 94.5601 93.1518C94.3058 95.0235 95.4637 98.2367 95.3375 100.442C95.2464 102.033 94.9243 103.654 94.7227 105.237C94.1375 109.834 93.4166 114.422 92.8909 119.025L64.3608 118.966C65.1652 118.127 66.0822 117.385 66.915 116.572C69.0736 114.481 71.153 112.313 73.1532 110.069C74.2643 108.791 75.3865 107.522 76.5198 106.264C76.5347 107.614 76.3643 111.732 76.8734 112.769L76.9427 112.756C77.099 112.88 77.0272 112.851 77.2351 112.893C77.676 112.983 78.1865 112.988 78.6346 112.969C80.1711 112.906 92.7879 111.86 93.1146 111.621C93.4473 110.564 93.2679 102.539 92.8012 101.613C92.213 101.342 89.5802 101.811 88.7253 101.84C89.0221 100.193 89.85 98.539 89.9676 96.8956C89.404 96.3844 87.964 96.262 87.2098 96.1721C86.5802 98.0221 86.2677 99.9889 85.6472 101.858C84.7809 100.303 84.0793 98.5915 83.3082 96.9813C84.3032 94.9229 85.697 93.0533 86.6175 90.9678C85.9527 90.2615 85.0197 89.6963 84.2341 89.1264C82.7679 88.0628 81.294 87.0107 79.8658 85.8959C82.1911 84.3077 84.7931 83.1115 87.1006 81.4921C86.4677 79.57 85.5894 77.6408 84.7591 75.7963C83.0587 72.0194 81.2382 68.4043 79.1421 64.8296Z" fill="#F4F4F4"/>
<path d="M56.3376 6.60853C57.81 6.36679 59.7946 6.64402 61.2723 6.90203C66.0915 7.74324 71.1211 10.1841 73.9601 14.2968C75.8318 17.0082 76.4832 18.9356 76.5819 22.208C76.6195 23.4579 76.5798 24.7277 76.3651 25.9618C76.1456 27.2241 75.7622 28.4622 75.5007 29.7183C75.3012 30.6769 75.1738 31.6501 75.0024 32.6141C74.4271 29.9644 74.8351 27.3793 73.9553 24.6683C72.8841 21.3673 69.5329 21.7543 68.3528 19.4631C67.6889 18.1739 69.1959 16.551 68.8191 15.7457C68.4837 15.6852 68.2718 15.9817 68.0907 16.231C67.8017 16.6291 67.5722 17.0804 67.2612 17.4615C66.1102 18.8719 64.5125 19.8601 62.845 20.5348C58.6311 21.9947 53.6531 22.3233 49.2157 21.9396C47.5321 21.794 45.7999 21.4241 44.1087 21.4586C43.4224 21.4726 42.7643 21.6023 42.1875 21.9945C39.878 23.5645 40.571 27.265 40.5443 29.6447C40.5314 30.8019 40.3979 31.8804 40.1565 33.0111C39.7717 29.0381 38.8534 24.6761 37.5864 20.8832C38.3625 18.3832 39.5473 16.0982 41.2346 14.0887C45.1625 9.41026 50.3374 7.1306 56.3376 6.60853Z" fill="#F4F4F4"/>
<path d="M42.5901 81.9834C42.819 82.2262 43.0398 84.1503 43.1208 84.5855C43.68 87.538 44.3449 90.4664 45.1156 93.3708C47.1586 100.909 50.3897 109.445 54.5942 116.059C55.2349 117.066 55.9835 118.015 56.685 118.981C54.8155 119.164 52.8386 119.036 50.958 119.031C49.735 117.955 48.6069 116.763 47.4628 115.605C46.1048 114.211 44.7867 112.78 43.5085 111.313C42.2303 109.846 40.9939 108.344 39.7994 106.807C38.605 105.271 37.4543 103.703 36.3473 102.102C35.2404 100.502 34.1789 98.8715 33.1629 97.2118C32.0252 95.3472 31.0299 93.3905 29.9385 91.4977C31.2446 90.1872 32.9149 89.0643 34.4055 87.9623L42.5901 81.9834Z" fill="#F4F4F4"/>
<path d="M72.7349 81.9727C74.0889 82.613 75.4096 83.8282 76.6343 84.7095C79.6143 86.8118 82.5674 88.9514 85.4937 91.128C84.6241 92.9841 83.5221 94.7965 82.5266 96.5917C82.0929 96.6194 81.6068 96.6269 81.1815 96.719C80.95 96.7692 80.8586 96.8488 80.7273 97.036C80.6731 97.6128 80.8865 98.0421 81.1111 98.5569C80.0286 100.408 78.6969 102.103 77.3732 103.785C74.1779 107.845 70.7536 111.546 67.1104 115.202C65.7836 116.5 64.4411 117.78 63.0828 119.045L57.51 118.963C58.4463 117.7 59.4354 116.498 60.3062 115.184C60.7144 114.561 61.1139 113.932 61.5046 113.298C61.8954 112.664 62.2773 112.024 62.6504 111.379C63.0234 110.735 63.3875 110.085 63.7426 109.43C64.0975 108.775 64.4434 108.115 64.7801 107.451C65.1169 106.786 65.4443 106.117 65.7625 105.444C66.0806 104.77 66.3894 104.093 66.6887 103.411C66.9881 102.728 67.2779 102.042 67.5583 101.352C67.8386 100.662 68.1093 99.9681 68.3704 99.2705C68.6315 98.5728 68.8828 97.8716 69.1244 97.1671C69.3661 96.4625 69.598 95.7546 69.82 95.0435C70.042 94.3325 70.2541 93.6185 70.4563 92.9015C70.6585 92.1846 70.8507 91.465 71.0329 90.7427C71.2151 90.0204 71.3873 89.2957 71.5495 88.5687C71.7117 87.8417 71.8637 87.1126 72.0056 86.3813C72.1475 85.65 72.2792 84.9169 72.4009 84.182C72.5225 83.4471 72.6338 82.7107 72.7349 81.9727Z" fill="#F4F4F4"/>
<path d="M55.2627 78.9523C56.82 78.9421 58.4662 79.0521 60.004 79.29C60.0825 81.7499 60.4338 84.219 60.7084 86.664L61.7251 96.1078C61.968 98.3568 62.2506 100.603 62.4733 102.853C62.6633 104.774 62.7459 106.762 63.1713 108.647C61.7826 111.242 60.2979 113.733 58.5995 116.138L57.1138 118.194C56.013 116.796 52.9259 111.991 52.6091 110.506C52.3214 109.158 52.6338 106.457 52.7152 105.028C53.213 96.2941 54.4006 87.6512 55.2627 78.9523Z" fill="#F4F4F4"/>
<path d="M72.6121 67.9307C72.9485 69.544 72.685 72.474 72.6012 74.1952C72.0438 85.641 69.2822 97.2379 63.7787 107.34C63.5374 105.687 63.4178 104.003 63.2391 102.341C62.383 94.7495 61.4562 87.1452 60.7527 79.5386C61.7333 78.1139 62.5667 76.5677 63.4221 75.065C63.942 75.9968 64.414 76.9598 64.913 77.9033C65.0488 77.8787 65.0613 77.882 65.2048 77.8275C66.2093 77.4451 70.1425 72.3111 70.8703 71.1766C71.5371 70.1372 72.086 69.0451 72.6121 67.9307Z" fill="#F4F4F4"/>
<path d="M42.7916 67.4224C43.307 68.1063 43.775 69.6293 44.1949 70.4568C45.2339 72.505 47.5594 75.987 49.2044 77.6239C49.3913 77.8101 49.5941 78.0224 49.8728 78.0264C50.5367 77.0388 50.8812 75.8139 51.5522 74.8011L51.6271 74.689C52.5053 76.1944 53.4358 77.6667 54.4186 79.106C53.6706 87.1308 52.5303 95.0954 51.9946 103.146C51.7605 104.998 51.7762 106.957 51.682 108.825C48.1096 102.064 44.7059 90.2722 43.642 82.7001C43.4936 81.6438 43.4396 80.5611 43.3343 79.4984C43.1197 77.4932 42.9672 75.4833 42.8767 73.4688C42.7862 71.4542 42.7578 69.4388 42.7916 67.4224Z" fill="#F4F4F4"/>
<path d="M43.9473 57.9106C44.0915 58.0275 43.8482 58.3906 43.7729 58.547C42.9867 60.182 42.3945 62.2125 42.1554 64.0168C41.4842 69.0793 42.0418 75.7652 42.7022 80.817C41.9412 81.5553 41.0148 82.1274 40.1561 82.7446L36.2842 85.5486C35.0794 84.6343 33.7332 83.8781 32.4389 83.0965C31.299 82.4565 30.188 81.7609 29.0706 81.0822C29.6183 79.3913 30.4145 77.7394 31.0931 76.0956C33.8626 69.3882 37.2977 61.5938 43.9473 57.9106Z" fill="#F4F4F4"/>
<path d="M71.3237 58.041C71.4842 58.0848 71.6164 58.1331 71.7649 58.2079C73.4988 59.0815 75.0536 60.6583 76.2467 62.1638C79.0557 65.7084 81.1035 69.9884 83.0242 74.059C84.1101 76.3607 85.2122 78.6954 86.0491 81.1008C85.0602 81.8098 83.9901 82.4102 82.9459 83.0337C81.6694 83.8308 80.3954 84.6729 79.0607 85.3683C78.0041 84.7072 77.0257 83.9167 76.0198 83.1811C74.9824 82.4225 73.9102 81.7091 72.8969 80.9182C73.2865 77.0301 73.5507 73.1896 73.6134 69.2819C73.6498 67.022 73.7333 64.6872 73.2096 62.4736C72.8278 60.8594 72.1064 59.4866 71.3237 58.041Z" fill="#F4F4F4"/>
<path d="M69.9256 53.3047C70.1138 55.3449 69.8397 57.7667 69.9192 59.8882C67.9197 63.4257 61.1697 66.0261 57.4587 67.3838C56.2949 66.8463 55.0589 66.4827 53.8797 65.9809C51.3051 64.8855 46.6431 62.5731 45.2844 60.1923C45.2451 59.1831 45.3372 58.1478 45.3483 57.1353C45.3611 55.9722 45.3124 54.8036 45.2925 53.6403C45.847 54.3412 46.4385 55.0095 47.067 55.6451C47.6955 56.2806 48.3571 56.8795 49.0518 57.4418C51.946 59.7882 55.1964 61.3033 59.0054 60.8799C63.719 60.3558 67.1209 56.8134 69.9256 53.3047Z" fill="#F4F4F4"/>
<path d="M91.7379 102.355C91.967 102.34 91.9944 102.296 92.1911 102.433C92.4941 105.23 92.4136 108.146 92.3888 110.953C90.4022 111.006 88.3947 111.265 86.4119 111.43C83.6113 111.664 80.8089 111.841 78.0226 112.217C77.8595 112.216 77.7604 112.2 77.6101 112.136C77.2732 111.439 77.3438 106.247 77.3584 105.13C77.6485 104.797 77.945 104.469 78.248 104.147C81.8354 103.738 85.4605 103.509 89.0273 102.949C89.9459 102.805 90.8254 102.525 91.7379 102.355Z" fill="#F4F4F4"/>
<path d="M55.6153 3.24681C60.0679 2.76023 64.9214 4.083 68.7422 6.36144C72.0638 8.34204 75.6527 11.5876 77.3469 15.1027C77.6696 15.7723 77.7876 16.5228 78.071 17.2091C78.6594 18.6338 79.2177 19.879 79.5943 21.3883C79.1926 21.5855 78.7701 21.7296 78.3502 21.8828C77.4826 18.848 76.0733 15.5221 74.0984 13.0515C70.6186 8.69806 65.2712 6.52871 59.8586 5.90862C57.1943 5.65321 54.6123 5.72698 52.0025 6.38897C46.4847 7.78862 41.3531 11.3997 38.5581 16.4004C38.1358 17.1429 37.7651 17.9103 37.4459 18.7026C37.1498 19.4397 36.9055 20.2423 36.4982 20.9254C36.2738 21.0343 36.0286 21.0097 35.7893 20.9349C35.5761 20.8683 35.5377 20.8582 35.4331 20.6728C35.4696 18.5826 38.9169 13.057 40.2932 11.4016C40.4118 11.259 40.532 11.1179 40.6539 10.9781C40.7758 10.8384 40.8994 10.7002 41.0248 10.5635C41.1501 10.4268 41.277 10.2917 41.4056 10.1581C41.5342 10.0245 41.6644 9.8924 41.7962 9.76196C41.9279 9.63151 42.0613 9.50268 42.1962 9.37546C42.3312 9.24825 42.4676 9.1227 42.6056 8.99884C42.7435 8.87485 42.883 8.7526 43.0239 8.63209C43.1648 8.51157 43.3071 8.39278 43.4509 8.27572C43.5948 8.15867 43.74 8.0434 43.8866 7.92992C44.0332 7.81633 44.1812 7.70452 44.3304 7.59451C44.4798 7.48461 44.6305 7.3765 44.7824 7.27018C44.9343 7.16386 45.0875 7.05945 45.2421 6.95693C45.3966 6.85431 45.5522 6.75359 45.7091 6.65477C45.8661 6.55607 46.0242 6.45921 46.1834 6.36421C46.3427 6.2692 46.5031 6.17615 46.6646 6.08507C46.8262 5.99411 46.9889 5.90504 47.1526 5.81789C47.3163 5.73073 47.481 5.64559 47.6466 5.56247C47.8124 5.47936 47.9791 5.39826 48.1469 5.31918C48.3146 5.24011 48.4833 5.16305 48.6528 5.08802C48.8225 5.0131 48.993 4.9402 49.1644 4.86932C49.3358 4.79844 49.508 4.72969 49.6809 4.66308C49.8539 4.59636 50.0278 4.53177 50.2025 4.46932C50.377 4.40686 50.5524 4.34655 50.7285 4.28836C50.9046 4.23018 51.0813 4.17413 51.2587 4.12022C51.4362 4.06631 51.6142 4.0146 51.7929 3.96507C51.9715 3.91543 52.1507 3.86805 52.3306 3.82291C52.5105 3.77766 52.6908 3.7346 52.8717 3.69373C53.0526 3.65287 53.234 3.61419 53.4158 3.57771C53.5976 3.54123 53.7798 3.50701 53.9625 3.47503C54.1451 3.44294 54.3281 3.4131 54.5115 3.38551C54.6949 3.35792 54.8785 3.33258 55.0625 3.30949C55.2466 3.2864 55.4308 3.26551 55.6153 3.24681Z" fill="#F4F4F4"/>
<path d="M71.0532 59.4312C71.0808 59.4547 71.1121 59.4744 71.1362 59.5016C71.9253 60.3879 72.6828 63.5169 72.6821 64.6873C72.6818 65.3342 72.4125 66.0706 72.1943 66.672C70.8169 70.4706 68.0679 73.8417 65.2667 76.7084C64.6243 75.6673 64.1467 74.486 63.5429 73.4119C62.1665 71.2085 60.487 69.4928 58.4719 67.8746C59.2238 67.6172 59.9728 67.3519 60.719 67.0788C63.4754 66.048 67.7022 63.8668 69.6799 61.6604C70.2891 60.9808 70.6776 60.258 71.0532 59.4312Z" fill="#F4F4F4"/>
<path d="M44.1681 59.8613C44.242 60.0359 44.3209 60.2081 44.4048 60.3779C46.0439 63.6541 53.0902 66.7145 56.5281 67.8887C54.7135 69.4721 53.0888 70.9604 51.6874 72.9398C50.8609 74.1226 50.185 75.3746 49.5482 76.6669C47.633 74.7663 45.0614 70.5668 43.9263 68.0771C42.3669 64.6568 42.8844 63.2809 44.1681 59.8613Z" fill="#F4F4F4"/>
<path d="M57.5045 68.3691C57.7973 68.4493 58.1159 68.716 58.3626 68.8936C60.2769 70.2729 61.7152 72.1397 63.0045 74.0902C62.1403 75.5669 61.3926 77.0736 60.4217 78.4893L57.817 78.2784C56.7987 78.2502 55.7886 78.2121 54.7735 78.1219C53.8071 76.757 53.0302 75.2651 52.0305 73.9222C53.3625 71.6874 55.3573 69.8076 57.5045 68.3691Z" fill="#F4F4F4"/>
<path d="M36.0986 26.6586C36.3067 26.6404 36.4584 26.6371 36.6617 26.6886C37.0284 27.2569 37.054 28.2834 37.1427 28.9523C37.7119 33.2467 37.9462 37.784 37.4056 42.0943C36.7566 42.0461 36.111 41.975 35.4965 41.7509C35.0324 41.459 34.6172 41.1154 34.1934 40.7689C34.2101 39.353 34.3316 37.9409 34.3233 36.5234C34.3067 33.6503 33.9711 30.8015 33.4861 27.9729C34.3252 27.4617 35.1857 27.0224 36.0986 26.6586Z" fill="#F4F4F4"/>
<path d="M79.156 26.522C79.9847 26.6858 80.7989 26.8274 81.522 27.2899L82.1459 27.6854C81.687 31.8001 81.0605 35.8988 80.8027 40.0349C80.505 40.2782 80.2225 40.5454 79.9347 40.8004C79.77 40.9436 79.5767 41.0676 79.4006 41.1971C78.7457 41.1989 78.0905 41.2157 77.4358 41.2262C77.5454 36.2198 78.1452 31.4252 79.156 26.522Z" fill="#F4F4F4"/>
<path d="M58.257 47.1292C59.1287 47.0902 60.1064 47.1345 60.9495 47.3776C61.935 47.6616 62.4813 48.1922 62.962 49.062C62.9819 49.8076 63.0047 50.5595 62.545 51.1939C61.8979 52.0869 60.6039 52.2265 59.5956 52.3615C58.2188 52.4277 56.598 52.3934 55.4622 51.4954C54.9374 51.0805 54.6129 50.4968 54.5641 49.8263C54.5585 49.7539 54.5565 49.6814 54.5582 49.6088C54.5598 49.5363 54.565 49.4641 54.5739 49.392C54.5828 49.3199 54.5953 49.2484 54.6113 49.1776C54.6274 49.1069 54.6469 49.037 54.6699 48.9681C54.6928 48.8993 54.7192 48.8318 54.749 48.7655C54.7788 48.6994 54.8118 48.6349 54.848 48.5719C54.8842 48.509 54.9234 48.4481 54.9658 48.3891C55.008 48.3301 55.0532 48.2733 55.1012 48.2189C55.8932 47.3189 57.1388 47.206 58.257 47.1292Z" fill="#F4F4F4"/>
<path d="M32.6442 28.7314C32.6554 28.7384 32.6684 28.7429 32.6778 28.7521C32.9888 29.0575 33.0367 30.2168 33.0859 30.654C33.447 33.8705 33.5102 36.9931 33.3282 40.2215C32.7574 40.0161 32.1604 40.0303 31.6399 39.6904C31.377 39.3813 31.2018 39.092 31.0496 38.7152C30.1249 36.4253 29.8312 32.5619 30.8754 30.2662C31.2679 29.4028 31.7941 29.0551 32.6442 28.7314Z" fill="#F4F4F4"/>
<path d="M82.8897 39.377C83.3356 39.6805 83.7565 40.0028 84.1764 40.3411C79.1415 46.6083 72.5468 49.0017 64.7934 49.92C64.3789 49.9846 64.0537 50.0931 63.6888 49.8521C63.6682 49.7257 63.6268 49.6905 63.7181 49.5821C64.1723 49.0429 65.1202 49.0871 65.755 49.0237C66.7143 48.9279 67.689 48.7179 68.6343 48.5286C74.9137 47.2706 78.9439 44.2563 82.8897 39.377Z" fill="#F4F4F4"/>
<path d="M82.9332 28.6685C82.9801 28.6882 83.0286 28.7046 83.0739 28.7277C83.8778 29.1367 84.3576 30.4593 84.6279 31.2674C85.4696 33.7829 85.3255 36.664 84.1519 39.0453L83.2563 38.4936C83.0256 38.3983 82.7642 38.3137 82.5226 38.4333C82.111 38.6373 81.8963 39.2993 81.7153 39.6951C82.1055 36.0163 82.319 32.3227 82.9332 28.6685Z" fill="#F4F4F4"/>
<path d="M77.2683 26.2949C77.603 26.2793 77.9658 26.2301 78.2482 26.4261C78.2866 27.7835 77.6522 29.3046 77.4447 30.663C76.9031 34.2128 76.5661 37.7671 76.5969 41.3596C76.4884 41.3418 76.3796 41.3238 76.273 41.2959C76.0482 41.2372 75.9221 41.1059 75.8215 40.9033C75.4797 40.2142 75.5396 39.2192 75.5308 38.4601C75.522 37.4317 75.5519 36.4045 75.6203 35.3783C75.6889 34.3522 75.7958 33.3301 75.9412 32.312C76.0866 31.2939 76.2701 30.2827 76.4917 29.2784C76.7131 28.2742 76.9719 27.2797 77.2683 26.2949Z" fill="#F4F4F4"/>
<path d="M46.3761 3.10981C46.4085 3.10808 46.4411 3.10479 46.4735 3.10462C47.3219 3.09734 47.9529 3.41249 48.5465 3.99881C46.4343 5.17146 44.4038 6.3763 42.496 7.866L41.5257 8.7408C41.2257 8.0092 40.9225 7.29474 41.2322 6.50687C41.5983 5.57561 45.3644 3.53024 46.3761 3.10981Z" fill="#F4F4F4"/>
<path d="M53.8939 0.959839C53.9276 0.956896 53.9616 0.953087 53.9953 0.951009C55.093 0.878975 59.7058 0.838109 60.7036 1.00365C61.1134 1.0717 61.6165 1.18893 61.9306 1.48157C62.3297 1.85335 62.3328 2.39239 62.3746 2.89733C61.7998 2.77871 61.2151 2.69248 60.6365 2.59326C57.8752 2.11222 55.1133 2.40607 52.3657 2.79326C52.4268 2.42547 52.5304 2.06997 52.6288 1.71084C53.0121 1.35551 53.418 1.15638 53.8939 0.959839Z" fill="#F4F4F4"/>
<path d="M67.6208 3.29814C67.7133 3.2874 67.8059 3.27777 67.8988 3.26922C69.4304 3.13312 71.2634 4.66611 72.3874 5.62905C73.1377 6.27182 73.6563 7.04741 73.6835 8.07113C73.6896 8.30143 73.6575 8.39944 73.5057 8.56654C73.22 8.52775 73.123 8.37693 72.9121 8.1868C70.8773 6.50922 68.7391 5.27425 66.3921 4.08948C66.7744 3.73918 67.1507 3.50974 67.6208 3.29814Z" fill="#F4F4F4"/>
<path d="M37.5427 26.6367C37.733 26.6395 37.9107 26.6575 38.0989 26.6857C38.1583 26.7681 38.1699 26.7777 38.2191 26.8847C39.3162 29.2739 39.8667 39.4736 38.8892 41.7534C38.7497 41.9108 38.6213 42.0222 38.4475 42.1404L38.409 41.9517L38.5026 42.0161L38.4833 42.0765C38.4317 41.9742 38.3961 41.901 38.3954 41.7832C38.3893 40.8828 38.493 39.9631 38.5244 39.061C38.567 37.4238 38.5591 35.7868 38.5006 34.1501C38.391 31.5922 38.092 29.1365 37.5427 26.6367Z" fill="#F4F4F4"/>
<path d="M74.9195 40.9194C75.0155 41.2008 75.1081 41.4891 75.3102 41.7148C75.8156 42.2793 76.6636 42.3776 77.3777 42.4301L77.8262 43.36C76.9715 44.0387 76.1076 44.7019 75.1708 45.2642C74.4733 45.6737 73.7613 46.0176 72.999 46.2883C73.5736 44.4796 74.3154 42.7203 74.9195 40.9194Z" fill="#F4F4F4"/>
<path d="M34.9536 21.6523C35.3688 21.7188 35.7515 21.8312 36.1506 21.9583C36.1311 23.2497 35.8732 24.5183 35.8824 25.8155C35.4857 25.9169 35.0963 26.0742 34.7098 26.2101L33.9472 26.6177C33.8868 25.4217 33.6071 23.6859 34.019 22.5762C34.1927 22.1086 34.5132 21.8555 34.9536 21.6523Z" fill="#F4F4F4"/>
<path d="M80.1174 22.1758C80.3849 22.2566 80.6391 22.3349 80.8364 22.5437C81.6241 23.3772 81.5827 25.0998 81.5446 26.172C81.2591 26.0736 80.9636 25.9992 80.6727 25.9173C80.213 25.8186 79.7436 25.7517 79.2797 25.6731C79.1887 24.6276 78.9221 23.6312 78.6611 22.6186L80.1174 22.1758Z" fill="#F4F4F4"/>
<path d="M81.4329 99.6196C81.9251 100.113 82.6683 102.002 83.0018 102.709C82.1193 102.841 81.2345 102.955 80.3472 103.05C79.8783 103.111 79.3947 103.114 78.9221 103.136C79.8293 101.999 80.6464 100.841 81.4329 99.6196Z" fill="#F4F4F4"/>
<path d="M87.8501 97.0869C88.262 97.1924 88.6669 97.3333 89.0719 97.4625C88.5095 98.89 88.2177 100.387 87.7562 101.844L86.5254 102.019C87.1204 100.421 87.4127 98.7311 87.8501 97.0869Z" fill="#F4F4F4"/>
<path d="M81.6804 97.5044C81.9471 97.4829 82.1899 97.4815 82.4567 97.5047C82.8306 97.7835 84.7241 101.734 84.8458 102.286C84.482 102.322 84.119 102.365 83.7568 102.413C83.0891 100.822 82.0512 99.187 81.6804 97.5044Z" fill="#F4F4F4"/>
<path d="M37.1798 22.1343C37.3246 22.7575 38.0229 25.1861 37.8903 25.6899L37.6932 25.7615C37.5031 25.7426 36.94 25.7128 36.8371 25.5478C36.4494 24.9249 37.0111 22.8338 37.1798 22.1343Z" fill="#F4F4F4"/>
<path d="M77.5253 22.1387C78.1218 22.8833 78.2495 24.5532 78.3776 25.4704C78.0441 25.4059 77.7137 25.3113 77.3845 25.2277C77.5146 24.2045 77.5066 23.1685 77.5253 22.1387Z" fill="#F4F4F4"/>
<path d="M78.5337 15.707C78.7423 15.7917 78.8501 15.9136 78.9825 16.0909C79.3517 16.5851 79.5193 17.0925 79.4369 17.7058C79.2937 17.7011 79.2769 17.7287 79.1638 17.6234C78.7664 17.2532 78.5434 16.2372 78.5337 15.707Z" fill="#F4F4F4"/>
</svg>
