<svg width="114" height="70" viewBox="0 0 114 70" fill="none" xmlns="http://www.w3.org/2000/svg">
<g clip-path="url(#clip0_132_917)">
<path d="M50.2953 0.083565C49.1607 -0.0407352 47.8964 0.226635 46.7659 0.371356L42.5393 0.908811L29.6591 2.45884L10.4578 4.78974L5.44984 5.40451C4.49016 5.52173 3.51514 5.61156 2.56313 5.77765C1.92575 5.88873 1.46963 6.1895 1.11229 6.73014C0.842865 7.13787 0.689804 7.55881 0.652748 8.04527C0.474907 10.3798 0.551491 12.7755 0.50618 15.1168L0.281364 31.4846C0.248444 34.3227 0.140221 37.1585 0.119102 39.9978C0.10836 41.4504 0.0056839 43.0496 0.283371 44.4812C0.382149 44.9906 0.576279 45.6532 1.04113 45.9399C1.48438 46.2133 10.1247 48.2741 10.9209 48.331C11.3696 48.3631 11.8727 48.2105 12.3067 48.1055C12.2863 48.2405 12.2693 48.3759 12.2556 48.5118C11.974 51.3175 12.3204 54.591 14.1767 56.8362C14.8779 57.6842 15.787 58.3027 16.9068 58.3991C17.4962 58.45 18.1063 58.3632 18.6969 58.3321C20.1787 58.2538 21.6194 58.3009 22.8123 57.2801C24.2585 56.0423 24.8464 54.09 24.9895 52.2586C25.6589 52.3755 26.3277 52.5766 26.9897 52.7332L31.7742 53.8823L47.7389 57.6675C49.0407 57.9679 50.3388 58.2835 51.6332 58.6144C52.4805 58.8267 53.386 59.1113 54.2545 59.1924C54.852 59.2481 55.4983 59.1154 56.0958 59.0596C56.0928 59.2567 56.0911 59.4538 56.0907 59.651C56.0878 62.7415 57.1914 66.0224 59.4087 68.226C61.0967 69.9039 62.1437 69.9664 64.4169 69.9625C66.0043 69.9389 69.2815 69.6292 70.5771 68.7488C72.4722 67.4613 73.0109 64.8438 73.3719 62.7447C74.1431 62.9583 74.9129 63.178 75.692 63.3617L75.7377 63.4542L75.8345 63.3895L75.8419 63.4094C75.9745 63.5641 76.1123 63.7231 76.2772 63.8446C76.8673 64.2794 77.7303 64.4027 78.4342 64.5099C82.7234 65.1627 86.2929 64.2018 90.4845 63.4946C91.2034 64.5631 92.0345 65.4612 93.2741 65.906C93.8865 66.1257 94.5322 66.2076 95.1807 66.2039C96.5475 66.1964 99.4773 65.6574 100.707 65.0564C102.504 64.1783 103.557 62.4092 104.194 60.5917L105.139 60.49C105.253 60.6207 105.356 60.7297 105.535 60.7583C105.79 60.7993 110.748 59.6992 111.326 59.5172C111.759 59.3808 112.197 59.2056 112.565 58.9357C113.251 58.4329 113.539 57.449 113.675 56.647C113.869 55.5034 114.197 52.8238 113.486 51.8668C113.034 51.2576 112.382 51.0407 111.663 50.9496C111.789 50.3357 111.898 49.7188 111.99 49.0989C112.082 48.4789 112.156 47.8569 112.213 47.2328C112.271 46.6087 112.311 45.9835 112.333 45.3572C112.355 44.7308 112.36 44.1044 112.348 43.4778C112.324 42.4984 112.202 41.5238 112.178 40.5463C112.14 39.0432 112.29 37.4889 111.725 36.0573C111.227 34.7921 110.105 33.9555 109.433 32.7948C109.661 32.6085 109.928 32.4137 110.1 32.1738C110.566 31.5237 110.55 26.7549 110.353 25.9079C110.242 25.4281 110.029 24.8607 109.579 24.601C108.865 24.1898 107.037 23.9699 106.237 24.1815C105.849 24.284 105.583 24.4483 105.373 24.7913C104.842 23.6902 104.22 22.6388 103.578 21.5992C102.308 19.543 99.5548 14.9336 97.5445 13.806C96.4546 13.1947 95.1832 12.9637 93.9784 12.6788C93.7653 10.5261 94.7003 6.74348 93.2442 5.06159C92.8857 4.64738 92.3865 4.29076 91.8523 4.15926C90.6729 3.86864 89.346 3.8396 88.133 3.71908L80.5151 2.98001L50.2953 0.083565Z" fill="#B51111"/>
<path d="M48.2246 1.07407L20.1386 4.48624C15.6555 5.00123 11.1754 5.53986 6.69817 6.10214C5.39991 6.27708 4.06389 6.36904 2.7772 6.59675C2.46824 6.6514 2.17392 6.72789 1.93695 6.94474C1.56805 7.28199 1.50491 7.83054 1.46006 8.30496C1.38359 9.11214 1.41334 9.94896 1.40295 10.7597L1.35303 15.901L1.08171 32.9387C2.59086 33.1427 4.13187 33.2698 5.65046 33.3947C11.5886 33.9583 17.5214 34.5744 23.4487 35.2429C25.2799 35.4456 27.1205 35.5671 28.9487 35.7951L42.1372 37.5147C43.6377 37.7137 45.1309 37.995 46.6356 38.1584C46.7001 37.1871 46.6811 36.1978 46.6987 35.2237L46.7963 29.4622L47.1256 10.7742L47.206 5.53258C47.2206 4.53783 47.1462 3.44214 47.3442 2.46911C47.4597 1.90167 47.8574 1.49513 48.2246 1.07407Z" fill="white"/>
<path d="M50.4087 0.90929C50.2856 0.896777 50.1609 0.884028 50.0371 0.885208C49.4271 0.890992 48.7544 1.29588 48.3371 1.71706C48.0165 2.04074 47.8227 2.39723 47.7577 2.84887C47.5849 4.0469 47.6758 5.4541 47.6579 6.68211L47.5342 14.0358L47.1171 38.2429C49.8246 38.09 52.5517 38.0766 55.2626 38.0752L55.2724 38.1835C55.4071 39.8082 55.2397 41.5355 55.2331 43.1716L55.2319 47.435C55.2311 48.1509 55.2652 48.8999 55.2114 49.6121C55.1988 49.778 55.1885 49.8636 55.0793 49.9903C54.1946 49.9117 53.3053 49.6987 52.4305 49.5426C50.6291 49.2215 48.825 48.8791 47.016 48.6044C46.9807 51.2851 46.9021 53.9604 46.9446 56.6423C47.927 57.011 49.0602 57.1692 50.0864 57.3975C51.5871 57.7435 53.0854 58.0993 54.5813 58.465C54.5531 55.4411 54.5025 52.4242 55.601 49.5481C55.8207 48.9727 56.1453 48.4441 56.385 47.878L56.4285 47.7739C56.4748 47.6657 56.5094 47.5841 56.5082 47.4637C56.5049 47.1232 56.4067 46.7838 56.3995 46.4422C56.3918 46.0792 56.45 45.7118 56.4569 45.3473L56.4931 42.008C56.527 39.2529 56.5127 36.4784 56.6364 33.7267C56.7046 29.0831 56.8666 24.3971 57.2356 19.7668C57.3284 18.6035 57.4573 17.4484 57.5734 16.2876C57.6213 15.8087 57.6319 15.3223 57.7074 14.847C57.8815 13.7502 58.5433 12.8652 59.4369 12.2337C60.1793 11.7091 61.0152 11.434 61.9023 11.2709C63.3666 11.002 64.9005 10.9461 66.385 10.8954C69.7256 10.7815 73.0661 10.9008 76.4034 11.0482C79.3549 11.1664 82.3019 11.3535 85.2445 11.6096C87.9048 11.8183 90.5099 12.0255 93.142 12.4939L93.2073 9.43217C93.2314 8.57352 93.3322 7.63212 93.1558 6.7861C93.0537 6.29669 92.8404 5.85733 92.5343 5.46389C92.2019 5.03646 91.7492 4.94556 91.2397 4.85207C89.9129 4.60867 88.5033 4.54138 87.16 4.4159L80.6727 3.78201L60.4239 1.8573C57.0843 1.54614 53.7412 1.30108 50.4087 0.90929Z" fill="white"/>
<path d="M63.7167 14.5462C62.1186 14.4699 59.8918 14.4267 58.5455 15.3713C58.3211 16.1812 58.2814 17.0933 58.2015 17.9304C58.0672 19.2914 57.9548 20.6543 57.8642 22.0189C57.3112 30.197 57.3241 38.4012 57.1817 46.5939C58.0468 46.6392 58.8937 46.7247 59.7462 46.8885C60.918 47.1138 62.1074 47.4391 63.129 48.0745C65.9345 49.8192 67.69 53.9535 68.5951 57.0207C68.9364 58.1774 69.2637 59.9639 69.9334 60.931C69.9485 60.9529 69.9641 60.9745 69.9794 60.9961C70.4365 61.1413 70.8922 61.2306 71.3642 61.3128C70.6105 57.0731 67.5629 49.0799 63.7266 46.8444C63.1731 46.5218 62.5457 46.2818 61.9384 46.0836C61.3193 45.8815 58.346 45.2072 58.1162 44.886C58.012 44.1669 58.0463 43.4062 58.0463 42.6802C58.0466 41.3523 58.0768 40.0261 58.0907 38.6985C58.0981 38.0011 57.9769 37.2557 58.1128 36.5703C58.1314 36.4762 58.1325 36.3637 58.2228 36.3151C58.7524 36.0298 61.487 36.6844 62.1355 36.8907C62.2118 36.9416 62.2837 36.9881 62.3416 37.0608C62.4591 37.2084 62.5351 37.4953 62.5005 37.6832C62.4543 37.9337 62.3071 38.1139 62.0935 38.2444C61.3791 38.6813 59.3058 37.9778 58.4783 37.7502C58.4354 40.0217 58.2998 42.374 58.5038 44.6383C58.9433 44.8397 59.45 44.9314 59.9184 45.0499C61.3666 45.4164 62.8493 45.7211 64.1067 46.5717C68.205 49.3441 70.9889 56.8485 71.8964 61.5143C73.1339 61.8054 74.3883 62.0259 75.6399 62.2463C75.2771 60.5232 74.8155 57.6197 75.5562 55.9837C75.8217 55.3973 76.2571 55.2505 76.8239 55.0501C76.8627 53.1074 76.8307 51.1587 76.828 49.2155L76.8219 40.1167C76.8171 38.6919 76.8196 37.267 76.8293 35.8421C76.8334 35.004 76.8996 34.103 76.7819 33.273C76.5875 31.9024 75.7365 30.1676 75.2374 28.8634C74.4078 26.6934 73.5578 24.5314 72.6875 22.3774C72.2048 21.1939 71.7388 19.9918 71.1804 18.8414C70.7281 17.9095 70.2268 16.9281 69.5186 16.1627C68.1083 14.6386 65.6486 14.6191 63.7167 14.5462Z" fill="white"/>
<path d="M62.9259 15.4309C62.0641 15.3954 60.9832 15.3403 60.1518 15.5595C59.9424 15.6146 59.658 15.7136 59.5524 15.9169C59.136 16.7184 58.3359 29.5969 58.6738 30.2012C58.9628 30.7183 65.0822 32.5176 66.0383 32.7965C66.1213 32.9387 66.2074 33.0789 66.2965 33.2173C67.2111 34.6159 69.0528 34.4835 70.5155 34.7856C70.5085 35.0681 70.4984 35.3529 70.5131 35.6353C70.5503 36.3429 70.8136 36.7897 71.3286 37.2501C71.7924 37.5363 72.3636 37.7636 72.896 37.8825C73.1983 37.9499 73.5406 37.9867 73.8099 37.8C73.9845 37.6789 74.0869 37.4724 74.1399 37.2717C74.2465 36.869 74.2342 36.4054 74.2565 35.9899C74.3144 34.9056 74.3042 32.6307 74.5274 31.7129C74.5356 31.6797 74.5447 31.6466 74.5532 31.6134C74.5941 31.5776 74.6348 31.5416 74.6752 31.5053C74.9053 31.2977 75.1098 31.1253 75.1133 30.7913C75.1252 29.6226 70.9715 19.7758 70.2432 18.3374C70.0263 17.9091 69.7872 17.5241 69.4596 17.1711C67.8247 15.4094 65.1399 15.516 62.9259 15.4309Z" fill="#B51111"/>
<path d="M62.5651 16.2586C61.783 16.2518 60.9966 16.2588 60.2209 16.3667C59.994 17.5637 59.9664 18.8471 59.8703 20.0643C59.6151 23.2908 59.4753 26.5424 59.3501 29.7768C61.1156 30.5468 64.0695 31.3948 65.9733 31.8404C66.015 30.7941 66.0356 29.7462 66.064 28.6993C66.1146 27.6624 65.915 26.2599 66.3943 25.314C66.6124 24.8836 66.9935 24.6049 67.4517 24.4713C68.1305 24.2735 70.57 24.2978 71.2917 24.4422C71.5734 24.4985 71.8207 24.6346 72.0723 24.7669C71.4797 23.2067 69.8407 18.86 68.8941 17.8237C67.4321 16.2232 64.5583 16.318 62.5651 16.2586Z" fill="white"/>
<path d="M70.6081 25.1681C69.77 25.1366 68.088 24.9622 67.3754 25.3609C67.0863 25.5225 66.9708 25.8843 66.8984 26.1881C66.6873 27.0742 66.6292 30.8205 66.738 31.7806C66.781 32.1591 66.8741 32.6618 67.0914 32.9772C67.3955 33.4188 67.9399 33.5158 68.4279 33.6153C69.284 33.7304 70.1368 33.884 71.0001 33.9356C71.3022 33.7279 71.4913 33.4739 71.6909 33.1739C71.8002 31.9521 71.828 30.7118 71.8994 29.4864C71.9522 28.581 72.0977 27.5721 72.0153 26.6735C71.9858 26.3504 71.9314 26.0572 71.7418 25.7869C71.4675 25.3958 71.063 25.2415 70.6081 25.1681Z" fill="white"/>
<path d="M72.5797 33.4933C72.5408 33.5023 72.4998 33.5051 72.4628 33.52C72.073 33.6767 71.5594 34.4749 71.4109 34.8321C71.2391 35.2458 71.1981 35.7183 71.3844 36.1344C71.5884 36.5903 71.924 36.741 72.3614 36.9092C72.71 36.9965 73.0659 37.0543 73.4193 37.119C73.5239 35.9589 73.5259 34.766 73.5811 33.6006L72.5797 33.4933Z" fill="white"/>
<path d="M72.732 27.7219C72.4966 28.1927 72.3394 31.9637 72.4175 32.5687C72.526 32.6919 72.6913 32.7071 72.8443 32.7441C72.8767 32.7016 72.8923 32.6871 72.9102 32.6296C73.0096 32.3125 72.9931 31.8293 73.021 31.4913C73.1308 30.168 73.2973 28.9732 72.732 27.7219Z" fill="white"/>
<path d="M73.0666 26.6747L73.0321 26.719C73.0144 27.7532 73.7608 28.7105 73.8593 29.7389C73.9477 30.6609 73.4801 32.1495 73.6034 32.8247L73.6807 32.7952C73.6691 31.8964 73.9149 31.2554 74.2725 30.454C73.8969 29.1867 73.4457 27.9423 73.0666 26.6747Z" fill="white"/>
<path d="M71.0853 11.7136C68.4593 11.6536 62.5204 11.518 60.2744 12.6469C59.4449 13.0638 58.7825 13.9198 58.4988 14.7929C59.4346 14.3066 60.4592 14.1535 61.5002 14.078C63.6504 13.9222 67.9415 13.9878 69.5646 15.47C70.335 16.1734 70.8966 17.2445 71.3684 18.168C72.6719 20.7195 73.6337 23.4531 74.6984 26.1092C75.2186 27.4067 75.7126 28.7105 76.2113 30.0162C76.5954 31.022 77.0951 32.0815 77.2525 33.1503C77.3906 34.0873 77.3039 35.115 77.2989 36.0616C77.2874 38.2028 77.2177 40.3788 77.3245 42.5162C79.5796 44.5076 82.8037 44.2213 85.6033 44.4355C85.7433 44.4463 85.8823 44.464 86.0205 44.4886C86.1586 44.5132 86.2952 44.5447 86.4302 44.583C86.5653 44.6213 86.6981 44.6661 86.8286 44.7176C86.9592 44.7691 87.0869 44.827 87.2117 44.8913C89.2134 45.8993 89.233 48.2721 89.5273 50.2078C89.6478 51.0007 89.8559 51.77 90.0636 52.5436C90.2076 53.0803 90.3098 53.669 90.6801 54.1008C91.2821 54.3411 92.2008 54.1314 92.8333 54.0536C96.1482 53.626 99.4429 53.077 102.717 52.4064C103.383 52.2747 104.446 52.1715 105.041 51.8846C105.208 51.804 105.375 51.5421 105.489 51.3962C104.095 51.6069 102.706 51.8955 101.317 52.139L95.4728 53.1122C94.572 53.2637 92.0717 53.8274 91.323 53.6927C91.2702 53.6438 91.2284 53.6192 91.2022 53.5506C91.0596 53.1771 91.0226 52.7645 90.9481 52.3731C90.7203 51.1759 90.5457 49.994 90.3703 48.7886C90.2793 48.1626 90.1185 47.5167 90.0829 46.8867C90.0734 46.7177 90.0709 46.5865 90.1412 46.4284C90.3122 46.3196 90.5041 46.2977 90.7015 46.2752C91.8568 46.1433 93.0285 46.0802 94.1874 45.9649L102.316 45.0793L105.12 44.7489C105.673 44.6817 106.243 44.5705 106.8 44.5675C106.944 44.6421 106.969 44.6435 107.013 44.811C107.129 45.2494 107.001 45.9313 106.964 46.3869C106.8 48.4034 106.664 50.5673 105.586 52.3336L106.322 52.3578C106.971 50.836 107.417 49.0778 107.53 47.419C107.62 46.1104 107.5 44.7391 107.942 43.4823C108.509 41.8724 109.909 41.3966 111.325 40.7242C111.34 40.3018 111.333 39.876 111.337 39.4532C111.309 38.3683 111.286 37.2747 110.851 36.2614C110.396 35.2022 109.445 34.5298 108.889 33.5459C108.155 32.2464 107.524 30.9 106.848 29.5706C105.241 26.4094 103.651 23.273 101.748 20.2753C101.056 19.1858 100.383 18.0382 99.4743 17.1135C100.013 18.223 100.813 19.2924 101.44 20.3623C102.777 22.6421 103.98 24.964 105.206 27.3012C105.839 28.5065 107.561 31.4236 107.692 32.6381C107.729 32.9737 107.619 33.2745 107.396 33.5269C106.874 34.1169 105.75 34.0621 105.029 34.1163C104.856 34.3258 104.702 34.5368 104.425 34.6009C103.948 34.7113 103.552 34.3866 103.18 34.1386C100.004 34.2301 96.8412 34.6143 93.6678 34.7097C93.5965 34.7891 93.5233 34.8668 93.4484 34.9429C92.9296 35.4614 92.5623 35.0863 92.0159 34.8951C91.8256 34.8285 91.5985 34.8333 91.3984 34.8356C88.5432 34.8665 85.6889 35.1406 82.8355 35.147C81.5337 35.1499 80.2236 34.8993 79.2807 33.9278C78.9705 33.6081 78.7556 33.2247 78.5747 32.8216C77.8836 31.2822 77.3764 29.6506 76.72 28.0935L74.1207 21.9252C73.4284 20.3216 72.6959 18.731 72.0419 17.1114C71.9415 16.8627 71.8494 16.601 71.8671 16.3288C71.8815 16.1057 71.9902 15.8638 72.1633 15.7181C72.8046 15.1785 75.2753 15.2967 76.1493 15.277C79.2022 15.2309 82.2545 15.2579 85.306 15.3582C88.3576 15.4585 91.405 15.632 94.4482 15.8784C95.9837 16.0073 97.5112 16.2054 99.0445 16.3575C98.8094 16.0347 98.5708 15.7221 98.2933 15.4343C97.858 14.9828 97.3603 14.6098 96.7817 14.3629C93.0911 12.7879 86.0299 12.4445 81.9024 12.1901C78.3005 11.9468 74.6948 11.788 71.0853 11.7136Z" fill="white"/>
<path d="M1.10617 35.027L1.05897 35.0338C1.03502 35.079 1.02392 35.0935 1.01353 35.1504C0.919006 35.6645 1.01177 37.0727 1.00976 37.6761C1.00303 39.6453 0.807602 41.7163 1.0284 43.6702C1.09543 44.2633 1.21828 44.8117 1.50883 45.3376C2.7417 45.7236 4.071 45.9389 5.33267 46.2266C7.00302 46.6074 8.67407 47.0548 10.3535 47.3841C10.4159 45.0801 10.6307 42.9457 12.1091 41.0601C12.8422 40.125 13.9105 39.2778 15.1272 39.1528C16.2046 39.0419 17.1769 39.4644 18.0006 40.127C18.8073 40.776 19.4675 41.6364 20.0096 42.5124C21.6382 45.1442 22.1523 47.8903 22.4708 50.9055C26.1043 51.6558 29.6923 52.58 33.2985 53.4458C35.4029 53.9511 37.5233 54.3882 39.6311 54.8799C40.3668 55.0011 41.121 55.2314 41.8495 55.4039C43.3719 55.7755 44.9024 56.1096 46.4412 56.4061C46.4469 51.3054 46.6394 46.2048 46.5682 41.1032C45.5079 40.9079 44.4225 40.7908 43.3539 40.6419L37.7119 39.8308C25.5373 38.0173 13.2996 36.6924 1.10617 35.027Z" fill="white"/>
<path d="M2.04423 42.3924L1.73174 42.3828C1.57301 42.4643 1.50209 42.5265 1.45169 42.7026C1.31338 43.1866 1.40768 44.0188 1.68064 44.445C1.92138 44.8212 2.65424 44.8786 3.06823 44.9632C3.2895 44.9994 3.51585 45.0537 3.73937 45.0155C3.74928 44.9971 3.76131 44.9797 3.76934 44.9603C3.96075 44.5013 3.86859 43.3417 3.69641 42.8825C3.31369 42.585 2.52242 42.4999 2.04423 42.3924Z" fill="#B51111"/>
<path d="M1.50918 41.3339C1.36827 41.3172 1.26466 41.314 1.12552 41.3427L1.06982 41.4521C1.08964 41.5094 1.10357 41.561 1.14015 41.6119C1.35246 41.9063 2.95436 42.1254 3.38876 42.2178L3.65736 42.1916C3.77384 42.1029 3.79367 42.096 3.83887 41.9589L3.75767 41.8334C3.16902 41.4786 2.18421 41.4427 1.50918 41.3339Z" fill="#B51111"/>
<path d="M83.5789 16.1397C82.1153 16.0599 73.5559 15.9484 72.6446 16.3621C72.6424 16.3802 72.6381 16.3984 72.6379 16.4167C72.6346 16.7657 74.0193 19.6195 74.2852 20.2418C75.4597 23.008 76.611 25.7839 77.7392 28.5693C78.2555 29.8499 78.6946 31.1723 79.2559 32.433C79.4393 32.8451 79.6499 33.1846 79.9853 33.4944C80.4796 33.9508 81.1038 34.206 81.7591 34.3246C82.9675 34.5432 84.3531 34.3443 85.5739 34.2825L90.3624 34.0578C89.2763 33.6312 88.0915 33.2903 87.05 32.7725C87.8264 32.7565 90.7178 33.8584 91.7949 34.0912C92.1002 34.1572 92.3058 34.1319 92.606 34.0618C91.3352 33.6423 90.0687 33.191 88.7885 32.8023C87.6587 32.4592 86.5109 32.1703 85.3765 31.8415C84.7707 31.666 84.1659 31.4798 83.5566 31.3174C83.2071 31.2243 82.8321 31.1896 82.4918 31.0657C82.3312 31.0073 82.2662 30.9556 82.188 30.8074C82.2141 30.7365 82.21 30.6886 82.2842 30.6538C82.6969 30.46 88.6627 32.3313 89.5587 32.6372L92.0225 33.4801C92.5095 33.6466 93.0412 33.8769 93.5491 33.9524C94.3716 34.0744 95.7102 33.839 96.5689 33.7681C98.3398 33.6216 100.118 33.462 101.896 33.4517C100.145 32.7809 98.4079 32.1012 96.6346 31.4899C96.2532 31.3584 94.1557 30.8026 93.9795 30.6213C93.958 30.4605 93.9579 30.4714 94.0537 30.3399C94.4351 30.1667 101.197 32.1829 101.905 32.4059C102.695 32.6544 103.463 33.0084 104.265 33.2023C104.876 33.3501 106.153 33.4632 106.688 33.1026C106.816 33.016 106.911 32.8866 106.935 32.7316C107.131 31.4463 99.8786 18.758 98.7263 17.0676C97.2053 16.7533 95.5448 16.7452 93.994 16.6427C90.5243 16.4332 87.0527 16.2655 83.5789 16.1397Z" fill="white"/>
<path d="M111.73 51.7767C111.711 51.7767 111.692 51.7761 111.673 51.7768C111.642 51.7779 111.61 51.7808 111.579 51.7819C111.042 51.8008 110.642 52.1754 110.134 52.3038C109.066 52.5741 107.945 52.7244 106.862 52.9387C105.923 53.1244 105.002 53.3812 104.06 53.5525C102.438 53.8473 100.797 54.0635 99.1671 54.3093C94.706 55.0005 90.2281 55.557 85.7336 55.9787C84.0814 56.1358 82.4059 56.2329 80.7459 56.1777C80.1417 56.1576 79.5321 56.1341 78.9315 56.0625C78.3135 55.9889 77.6755 55.8603 77.0538 55.8463C76.8842 55.8424 76.6588 55.8485 76.5051 55.9306C76.326 56.0262 76.1934 56.2566 76.1192 56.4372C75.4866 57.979 76.0836 61.8056 76.6845 63.3203C78.1556 63.8638 80.0108 63.9757 81.5776 63.9914C83.8112 63.9842 86.0545 63.4665 88.2384 63.0494C90.0723 62.6992 91.9439 62.3784 93.762 61.962C93.6029 61.1251 93.503 58.3179 93.7182 57.5442C93.7712 57.3538 93.8029 57.2767 93.9835 57.1864C94.9462 56.7041 99.5652 56.2318 100.822 56.0501C102.144 55.8589 103.483 55.5821 104.811 55.4527C105.156 55.4191 105.564 55.3848 105.898 55.4821C105.971 55.5638 106.004 55.6376 106.03 55.7424C106.192 56.3894 106.09 58.6633 105.949 59.328C105.913 59.4951 105.836 59.644 105.752 59.7913C107.371 59.496 109.756 59.2712 111.208 58.6378C111.878 58.3453 112.366 57.9541 112.625 57.2498C112.861 56.6055 113.031 54.0015 112.988 53.2622C112.974 53.0174 112.923 52.7707 112.811 52.5512C112.576 52.0938 112.196 51.9239 111.73 51.7767Z" fill="white"/>
<path d="M64.2372 50.9555C63.4173 50.8384 62.4822 50.9169 61.6919 51.1654C60.1012 51.6657 58.87 52.9162 58.109 54.3717C56.691 57.0841 56.5267 60.501 57.4343 63.4002C58.1103 65.5593 59.4102 67.6777 61.4582 68.7537C61.7948 68.9162 62.1479 69.052 62.5155 69.1234C63.4632 69.3075 64.3233 69.05 65.1081 68.5282C66.8649 67.3602 67.6873 65.447 68.0904 63.4434C68.353 62.1377 68.4661 60.7552 68.3209 59.4279C68.0526 56.9787 66.5227 53.2215 65.1251 51.1297C64.8337 51.0457 64.5361 51.0031 64.2372 50.9555Z" fill="white"/>
<path d="M62.2406 54.6043C61.5818 54.5612 61.0205 54.6949 60.4683 55.0714C59.4408 55.7718 58.9192 57.0356 58.6971 58.2179C58.3388 60.1254 58.6869 62.4571 59.7972 64.0756C60.3713 64.9127 61.1326 65.4867 62.1437 65.6756C62.7713 65.7134 63.3439 65.5826 63.8854 65.2564C64.8535 64.6733 65.3721 63.6665 65.6302 62.5959C66.1354 60.5005 65.8502 58.2734 64.7041 56.4372C64.1015 55.4716 63.3622 54.8628 62.2406 54.6043Z" fill="#B51111"/>
<path d="M62.2021 55.0825C61.6903 55.0557 61.23 55.1609 60.7871 55.4231C59.9021 55.947 59.4284 56.9748 59.1761 57.9333C58.6994 59.7447 59.008 61.9773 59.9681 63.5887C60.4621 64.4178 61.1189 64.921 62.0604 65.1544C62.6149 65.21 63.0997 65.1357 63.5846 64.8403C64.4626 64.3054 64.891 63.2781 65.1194 62.3184C65.5591 60.4705 65.3294 58.3664 64.3138 56.7387C63.8038 55.9214 63.1621 55.3078 62.2021 55.0825Z" fill="white"/>
<path d="M62.073 56.0308C61.615 56.0325 61.2214 56.1463 60.8498 56.4181C60.0897 56.974 59.7131 58.0226 59.563 58.9195C59.3203 60.3704 59.6207 62.0329 60.4902 63.2386C60.9141 63.8263 61.3939 64.1423 62.1062 64.2543C62.6071 64.2152 62.9923 64.1202 63.4063 63.8208C64.1891 63.2543 64.572 62.2225 64.7181 61.2984C64.9391 59.9023 64.6797 58.2537 63.8213 57.1017C63.3636 56.4876 62.8284 56.1444 62.073 56.0308Z" fill="#B51111"/>
<path d="M62.1587 56.5566C61.9262 56.5681 61.7093 56.5996 61.4944 56.695C60.8753 56.9701 60.4822 57.5476 60.2586 58.1674C59.8269 59.3637 59.8892 60.8948 60.4317 62.046C60.7839 62.7934 61.2674 63.3513 62.0593 63.6376C62.4398 63.6881 62.736 63.66 63.0668 63.4466C63.7108 63.031 64.0212 62.2155 64.1707 61.4928C64.4406 60.1891 64.2631 58.5513 63.4915 57.4364C63.1452 56.9359 62.7549 56.6647 62.1587 56.5566Z" fill="white"/>
<path d="M77.3617 43.2127C77.1985 43.4032 77.2683 53.9216 77.2648 55.1322C80.9269 55.8602 85.5412 55.3385 89.2043 54.8306L90.0898 54.6904L90.0601 54.6295C89.3421 53.1854 89.0068 51.3406 88.7844 49.7538C88.6726 48.957 88.6002 48.1307 88.4075 47.3499C88.1216 46.1916 87.4342 45.4145 86.2946 45.0421C85.5716 44.8059 84.8179 44.8798 84.0704 44.8482C81.7805 44.7513 79.3465 44.4113 77.3617 43.2127Z" fill="white"/>
<path d="M85.3157 48.414C84.7109 48.3806 84.1724 48.4368 83.6485 48.7759C83.1269 49.1137 82.7326 49.6563 82.62 50.272C82.5299 50.7645 82.6272 51.2767 82.9283 51.6813C83.3367 52.2302 83.9369 52.4216 84.5822 52.5231C85.1638 52.5396 85.6875 52.4382 86.187 52.1271C86.7102 51.801 87.1379 51.275 87.2664 50.6634C87.3606 50.2159 87.2816 49.7494 87.022 49.3705C86.619 48.7821 85.9843 48.5509 85.3157 48.414Z" fill="#B51111"/>
<path d="M85.1659 48.8861C84.7503 48.8886 84.3825 48.9508 84.0253 49.1728C83.6009 49.4364 83.275 49.8662 83.165 50.3568C83.0881 50.6999 83.1284 51.0617 83.3264 51.3576C83.6104 51.7818 84.0547 51.9118 84.5269 52.0036C85.0242 52.0094 85.4515 51.9506 85.8769 51.6701C86.2667 51.413 86.5684 51.0157 86.6594 50.5528C86.7279 50.2032 86.6623 49.8438 86.4574 49.5503C86.1514 49.1119 85.6677 48.9647 85.1659 48.8861Z" fill="white"/>
<path d="M16.5537 43.6906C16.1808 43.6253 15.7952 43.7054 15.4476 43.8466C14.3871 44.2774 13.6823 45.4953 13.2836 46.5125C12.3447 48.908 12.6143 52.2934 13.6449 54.6216C14.2318 55.9476 15.0872 57.1031 16.4745 57.632C16.5465 57.6427 16.6188 57.6516 16.6914 57.6586C17.3434 57.7197 17.8886 57.5303 18.3812 57.097C19.9936 55.6788 20.2015 53.0023 20.3398 51.0084C20.193 50.9508 19.9915 50.8991 19.9142 50.7521C19.7016 50.3483 19.6957 49.5501 19.618 49.0904C19.3649 47.5939 18.8532 45.7673 17.9589 44.5194C17.5551 43.9559 17.2058 43.8025 16.5537 43.6906Z" fill="white"/>
<path d="M16.2351 46.1616C16.1766 46.1582 16.1182 46.158 16.0597 46.161C16.0012 46.1641 15.9431 46.1704 15.8854 46.1798C15.8276 46.1893 15.7706 46.202 15.7143 46.2177C15.6579 46.2334 15.6025 46.2522 15.5482 46.2741C14.7613 46.5855 14.2456 47.346 13.9381 48.1043C13.3178 49.634 13.4476 51.6239 14.1013 53.1222C14.5413 54.1308 15.1971 54.8714 16.2332 55.2826C16.6619 55.3073 17.0422 55.2627 17.4227 55.0506C18.1459 54.6476 18.5134 53.8413 18.7139 53.0725C19.1627 51.3518 18.9944 49.148 18.0638 47.6066C17.6261 46.8816 17.0745 46.3732 16.2351 46.1616Z" fill="#B51111"/>
<path d="M16.1923 46.6316C15.9943 46.6354 15.7826 46.6751 15.5993 46.7513C14.9851 47.0061 14.5861 47.5754 14.3404 48.171C13.7586 49.5814 13.8263 51.421 14.4235 52.8151C14.7887 53.6676 15.3167 54.3809 16.204 54.7319C16.5368 54.7604 16.8164 54.7303 17.1131 54.5651C17.7007 54.2376 18.0233 53.6043 18.2127 52.9829C18.693 51.4079 18.5455 49.4681 17.752 48.0175C17.3918 47.3592 16.9326 46.8457 16.1923 46.6316Z" fill="white"/>
<path d="M16.4055 47.5854C16.1597 47.5641 15.9221 47.5707 15.6905 47.6636C15.2674 47.8334 14.9696 48.2 14.7947 48.6109C14.3424 49.6744 14.4185 51.2048 14.8397 52.2683C15.113 52.9586 15.5237 53.5124 16.2188 53.8126C16.423 53.8169 16.6192 53.8191 16.815 53.7528C17.2651 53.6004 17.5849 53.2151 17.7718 52.7919C18.2545 51.6988 18.1706 50.1677 17.7384 49.0725C17.4732 48.4001 17.0793 47.8788 16.4055 47.5854Z" fill="#B51111"/>
<path d="M16.4077 48.0969C16.2718 48.0931 16.1548 48.0894 16.0213 48.1208C15.736 48.1881 15.4708 48.4735 15.3315 48.7183C14.8986 49.4789 14.8971 50.732 15.11 51.5641C15.2868 52.2554 15.6242 52.9044 16.2527 53.277C16.357 53.2815 16.4531 53.2784 16.5545 53.2529C16.867 53.1745 17.1315 52.9188 17.2922 52.6479C17.7732 51.8372 17.7292 50.6393 17.4944 49.7552C17.3158 49.0816 17.0286 48.4614 16.4077 48.0969Z" fill="white"/>
<path d="M1.70213 33.4897C1.47767 33.4564 1.23574 33.4625 1.00822 33.4518L1.00043 34.5733C3.7408 34.9498 6.5011 35.2272 9.24619 35.5778C21.4966 37.0679 33.7258 38.7151 45.9339 40.5195L46.5668 40.5885C46.5904 39.9531 46.5759 39.3147 46.5733 38.6788C44.4462 38.2933 42.2639 38.0551 40.1223 37.7552C34.9041 36.9958 29.6718 36.3505 24.4254 35.8194C16.8608 34.9468 9.2864 34.1702 1.70213 33.4897Z" fill="white"/>
<path d="M54.7773 40.9179C53.6812 40.8972 52.5782 40.9566 51.4824 40.9885C50.0144 41.0224 48.547 41.0712 47.08 41.135C47.0923 43.4496 47.0203 45.7658 47.0108 48.0809L48.1963 48.2869C50.2846 48.6723 52.6386 49.1942 54.7232 49.4354C54.7909 48.3477 54.7527 47.2388 54.7531 46.1491L54.7773 40.9179Z" fill="white"/>
<path d="M105.316 56.1313C101.721 56.7714 98.0569 57.0798 94.4721 57.763C94.4605 58.9989 94.4587 60.2349 94.4665 61.4709C96.3034 61.2518 98.1637 60.7571 99.9807 60.3953L102.895 59.8172C103.653 59.6663 104.423 59.5489 105.151 59.2814C105.424 58.9292 105.32 56.7308 105.316 56.1313Z" fill="white"/>
<path d="M57.9682 47.4788C57.9305 47.4748 57.8931 47.4677 57.8553 47.4668C57.682 47.4629 57.6019 47.5375 57.4891 47.6586C57.1307 48.0429 56.8881 48.7122 56.6758 49.1891C55.3437 52.1815 55.2552 55.2534 55.4412 58.4572C55.6562 58.4648 55.8731 58.4507 56.0881 58.4437C56.3655 57.0211 56.6486 55.6555 57.2596 54.3285C57.7475 53.3804 58.2919 52.5135 59.0803 51.7846C60.6846 50.3011 62.2499 50.0994 64.3457 50.1735C64.2413 50.04 64.1336 49.9092 64.0225 49.7812C62.6007 48.163 60.0142 47.6234 57.9682 47.4788Z" fill="white"/>
<path d="M15.6246 39.7466C15.1822 39.7708 14.784 39.8091 14.3646 39.9668C13.0828 40.4491 12.0548 41.7527 11.5122 42.9695C11.1393 43.8058 10.513 46.5422 10.8648 47.3356C10.9047 47.4254 10.9285 47.4451 11.0246 47.4736C11.1784 47.5191 11.3242 47.4802 11.4559 47.4002C11.7726 47.0028 11.7236 46.3138 11.7762 45.825C11.913 44.556 12.6632 42.2143 13.6985 41.4238C14.1065 41.1124 14.6069 41.0091 15.1094 41.0945C16.3504 41.3052 17.2953 42.4468 17.9984 43.3974C19.5994 45.7695 19.7194 47.6015 20.1786 50.3183C20.7515 50.5051 21.347 50.6169 21.9355 50.743C21.7477 47.7307 20.8281 44.0522 18.8601 41.6888C18.0279 40.6894 16.9524 39.8693 15.6246 39.7466Z" fill="white"/>
<path d="M69.1864 61.0162C69.1131 61.1112 68.8703 63.5371 68.8013 63.8685C68.3662 65.9545 67.3278 67.9524 65.5143 69.1482C66.4855 69.0077 67.4499 68.8304 68.4076 68.6166C69.1676 68.4418 69.7967 68.1407 70.3851 67.6229C71.8197 66.36 72.3947 64.4828 72.5049 62.629C72.1034 62.4654 71.7018 62.2801 71.2928 62.1372C70.6818 61.9239 70.0755 61.7946 69.4963 61.4969L69.1864 61.0162Z" fill="white"/>
<path d="M111.443 41.2784C111.242 41.342 111.04 41.4207 110.845 41.5022C107.715 42.8111 108.276 44.9843 108.056 47.7969C107.944 49.2411 107.584 50.8432 107.026 52.1808L110.179 51.4793L110.705 51.3793C110.789 50.7702 111.261 49.4674 111.115 48.9382C110.869 49.214 110.582 49.3853 110.21 49.4182C109.741 49.4595 109.248 49.3986 108.879 49.0824C108.604 48.8463 108.463 48.5064 108.444 48.1489C108.405 47.4368 108.788 46.7586 109.264 46.2557C109.612 45.8886 110.032 45.661 110.548 45.6664C110.925 45.6703 111.187 45.9252 111.439 46.1717C111.602 44.5281 111.615 42.9212 111.443 41.2784Z" fill="white"/>
<path d="M21.2196 51.3617L21.1876 51.3658C21.105 51.4808 21.1219 51.4546 21.1147 51.581C20.9992 53.6335 20.6204 56.1154 19.0065 57.5597C19.857 57.553 20.7912 57.5238 21.6072 57.2773C21.8446 57.1507 22.0649 56.9992 22.268 56.8229C23.5822 55.6886 23.9881 53.7223 24.126 52.0785C23.1694 51.809 22.1896 51.577 21.2196 51.3617Z" fill="white"/>
<path d="M99.166 61.403C97.7336 61.6513 95.9575 61.92 94.5734 62.2862C94.1413 62.4006 93.7933 62.6954 93.376 62.8427C92.6986 63.082 91.9345 63.1862 91.2297 63.3401C91.4648 63.7415 91.7555 64.0643 92.0934 64.3795C92.4833 64.7052 92.9325 64.9706 93.4225 65.1121C94.3738 65.3865 95.4079 65.2059 96.2636 64.7322C97.416 64.0941 98.8006 62.7 99.166 61.403Z" fill="white"/>
<path d="M106.441 45.1449C102.761 45.7493 99.0461 46.0876 95.3354 46.4463C93.8234 46.5926 92.2929 46.6812 90.7895 46.8905L90.9622 47.9596C91.4813 48.0801 92.9446 47.8104 93.5265 47.7492C97.826 47.2838 102.116 46.7426 106.396 46.1256C106.434 45.7974 106.439 45.4747 106.441 45.1449Z" fill="white"/>
<path d="M107.492 24.9297C107.163 24.8754 106.761 24.8644 106.449 24.9862C106.236 25.0692 106.055 25.2171 105.975 25.4366C105.917 25.5951 105.9 25.7718 105.948 25.934C106.159 26.6567 106.747 27.5537 107.104 28.2388C107.639 29.2551 108.144 30.2857 108.619 31.3307C108.734 31.6104 108.793 31.8683 109.084 31.999L109.213 31.9364C109.355 31.7115 109.401 31.51 109.436 31.247C109.54 30.4565 109.812 26.0444 109.316 25.4848C108.91 25.0258 108.057 24.9947 107.492 24.9297Z" fill="white"/>
<path d="M54.5666 38.5685C52.0744 38.6189 49.5819 38.6213 47.0902 38.7054C47.0791 39.2971 47.0237 39.9605 47.1115 40.5434L47.2044 40.6091C49.719 40.5815 52.2383 40.4696 54.7519 40.389C54.761 39.8964 54.8452 39.2313 54.7297 38.7619C54.6989 38.6366 54.6705 38.6304 54.5666 38.5685Z" fill="white"/>
<path d="M105.849 49.8558C104.346 49.9703 102.364 50.4407 100.817 50.6866C97.773 51.1707 94.7133 51.5751 91.6635 52.0262L91.7634 52.8118C91.7657 52.8148 91.7673 52.8189 91.7706 52.821C91.8034 52.8419 91.8334 52.8706 91.871 52.8802C92.1004 52.9395 104.28 50.8136 105.634 50.6218L105.849 49.8558Z" fill="white"/>
<path d="M106.126 48.3746C104.355 48.5136 102.572 48.9244 100.81 49.1767C97.6622 49.6279 94.4881 49.9892 91.3304 50.3686L91.4413 51.1006C91.5624 51.1818 91.6842 51.1795 91.827 51.1698C93.2481 51.0732 94.7172 50.7571 96.1292 50.5491C99.4285 50.0536 102.725 49.5406 106.019 49.0103L106.126 48.3746Z" fill="white"/>
<path d="M103.186 60.7115C102.104 60.7777 100.97 61.0864 99.9047 61.2953C99.344 62.7443 98.2459 64.2017 96.9854 65.1119C97.7821 64.9964 98.5953 64.8829 99.3591 64.6196C101.298 63.9508 102.326 62.4934 103.186 60.7115Z" fill="white"/>
<path d="M106.291 46.9034C105.124 47.0338 103.956 47.2526 102.793 47.4201C100.678 47.7151 98.5613 47.9952 96.4425 48.2606C95.3088 48.3987 94.1651 48.5304 93.0286 48.6355C92.4187 48.6919 91.7722 48.6444 91.1844 48.8317C91.1235 49.0255 91.1799 49.2493 91.208 49.4479C92.3279 49.5147 94.1402 49.2062 95.2936 49.056C97.5369 48.7646 99.7787 48.4616 102.019 48.1469C103.221 47.9773 105.053 47.8296 106.185 47.555C106.285 47.3626 106.276 47.1177 106.291 46.9034Z" fill="white"/>
<path d="M14.8767 41.9065C14.7012 41.8996 14.5973 41.8928 14.4457 41.9994C13.4556 42.6955 12.9348 44.9104 12.7431 46.0252C12.923 45.6637 13.1105 45.3182 13.3266 44.9772C13.5329 44.6783 13.774 44.3827 14.0283 44.1235C14.8132 43.3232 15.6009 43.133 16.6826 43.1233C16.1726 42.5399 15.6243 42.1338 14.8767 41.9065Z" fill="white"/>
<path d="M110.833 46.2751C110.738 46.2674 110.642 46.2603 110.546 46.2631C110.134 46.2753 109.773 46.5199 109.513 46.8261C109.217 47.1733 109.013 47.6463 109.056 48.1077C109.085 48.423 109.187 48.583 109.427 48.7809C109.59 48.8332 109.778 48.8751 109.95 48.8699C110.272 48.8604 110.561 48.6855 110.771 48.4485C111.072 48.1083 111.234 47.5988 111.207 47.1469C111.183 46.7568 111.132 46.5319 110.833 46.2751Z" fill="white"/>
<path d="M98.4306 31.8245L98.2675 31.8263L98.2822 31.8751C98.5756 32.02 103.279 33.5607 103.511 33.5712L103.884 33.4961C103.628 33.2138 99.1094 32.0036 98.4306 31.8245Z" fill="white"/>
<path d="M59.243 36.9053C58.9802 36.8625 58.9271 36.899 58.7173 37.0302L58.7059 37.0996C59.4837 37.3998 60.4082 37.5215 61.2256 37.7007C61.3824 37.7256 61.5153 37.7269 61.6726 37.72L61.7267 37.5288L61.7218 37.7088L61.7793 37.5644C61.4784 37.2223 59.747 37.0089 59.243 36.9053Z" fill="white"/>
</g>
<defs>
<clipPath id="clip0_132_917">
<rect width="114" height="70" fill="white" transform="matrix(-1 0 0 1 114 0)"/>
</clipPath>
</defs>
</svg>
