<svg width="139" height="139" viewBox="0 0 139 139" fill="none" xmlns="http://www.w3.org/2000/svg">
<g clip-path="url(#clip0_114_832)">
<path d="M65.9542 0.123026C68.2376 -0.0330921 70.6212 0.385277 72.9132 0.44947C74.7873 0.501852 76.823 0.195778 78.669 0.489869C79.4345 0.611751 80.2311 0.891805 80.8125 1.42007C81.2355 1.80455 81.4813 2.29875 81.5341 2.86845C81.6549 4.16669 81.1714 5.57672 81.1248 6.89329C81.0055 10.3991 81.058 13.9023 81.2822 17.4028C85.6721 18.1615 89.8581 19.577 93.9024 21.4474C94.4685 21.7091 97.8872 23.8867 98.0656 23.886C98.2617 23.8854 98.5934 23.5729 98.7232 23.4509C99.5409 22.6821 100.274 21.819 101.09 21.043C102.394 19.8035 103.783 18.6549 105.028 17.3547C105.935 16.4086 106.685 15.285 107.636 14.3931C107.931 14.1172 108.44 13.6101 108.85 13.5867C110.736 13.4785 116.858 18.5477 118.409 20.0228C119.968 21.5063 124.297 26.2174 125.104 28.0112C125.256 28.3481 125.285 28.7257 125.287 29.0917C125.3 30.8254 123.896 31.7323 122.954 32.9859C121.757 34.5806 120.677 36.2567 119.395 37.7881C118.103 39.3323 116.626 40.6989 115.218 42.1332C115.779 44.3735 117.208 46.4323 118.118 48.5513C119.075 50.7798 119.614 53.08 120.26 55.406C120.428 56.0115 120.675 56.7777 121.275 57.0798C122.909 57.9027 125.35 57.2091 127.118 57.2466C129.075 57.2878 130.993 57.7854 132.961 57.8108C134.164 57.8262 136.134 57.2531 137.183 57.8902C137.886 58.3173 138.33 59.1792 138.524 59.9562C138.865 61.325 138.722 62.8262 138.765 64.2274C138.921 69.2019 139.136 72.7255 138.048 77.6376C137.847 78.5466 137.667 79.6163 137.158 80.4075C136.981 80.6819 136.748 80.9303 136.434 81.0395C135.133 81.492 127.69 81.4938 125.91 81.4351C124.854 81.4002 123.441 81.1292 122.433 81.4086C121.886 81.5602 121.455 82.095 121.21 82.5826C120.476 84.0398 120.1 86.2298 119.444 87.8579C118.773 89.5207 117.936 91.2086 117.02 92.751C116.506 93.6171 115.916 94.4433 115.419 95.3176C115.197 95.7074 115.002 96.051 115.204 96.4969C115.581 97.3316 117.337 98.8053 118.03 99.6092C120.194 102.119 121.467 104.611 124.015 106.841C124.63 107.38 125.311 107.976 125.508 108.808C125.701 109.617 125.307 110.58 124.892 111.264C124.049 112.655 122.774 113.831 121.693 115.036C120.406 116.469 119.178 117.975 117.83 119.35C116.354 120.857 114.758 122.169 113.088 123.45C112.179 124.147 111.192 124.992 110.047 125.237C109.427 125.369 108.741 125.335 108.17 125.04C107.09 124.481 106.199 123.245 105.257 122.469C102.347 120.073 99.2346 117.552 96.1155 115.451C94.6665 116.055 93.3515 116.989 91.9757 117.744C90.4061 118.605 88.6453 119.306 86.9713 119.94C86.0981 120.271 82.4147 121.012 82.0495 121.304C81.9279 121.402 81.8396 121.617 81.8065 121.765C81.5754 122.795 82.1246 125.337 82.1106 126.66C82.0924 128.375 81.5558 129.995 81.4941 131.685C81.4351 133.296 82.3574 135.486 81.2558 136.885C80.9392 137.287 80.5264 137.483 80.048 137.634C78.8483 138.015 77.4996 138.046 76.2554 138.222C75.0092 138.398 73.7808 138.678 72.5261 138.795C70.0386 139.018 67.5485 138.614 65.0687 138.47C63.4836 138.377 61.8284 138.45 60.2666 138.138C59.6387 138.012 58.9621 137.799 58.4765 137.365C58.0408 136.976 57.8902 136.425 57.8044 135.867C57.5158 133.992 57.8102 132.068 57.6275 130.175C57.3328 127.121 56.5522 124.195 56.4212 121.108C54.8403 120.532 53.166 120.215 51.5603 119.703C49.7697 119.122 48.008 118.463 46.275 117.726C44.5421 116.99 42.8447 116.179 41.1827 115.293C40.2936 116.249 39.5152 117.306 38.5988 118.238C37.1439 119.717 35.564 120.993 34.0011 122.35C33.1188 123.116 32.2782 123.98 31.3417 124.674C31.0342 124.902 30.6798 125.135 30.3071 125.232C29.7467 125.379 29.1492 125.161 28.6684 124.878C27.9126 124.434 27.3016 123.753 26.5841 123.249C24.8839 122.054 23.0122 121.09 21.4382 119.722C19.9544 118.433 13.8237 111.678 13.4132 109.951C13.3025 109.486 13.2763 108.846 13.4862 108.404C14.1055 107.098 15.647 105.883 16.6547 104.861C18.0251 103.471 19.3297 102.015 20.6539 100.581C21.7265 99.4199 22.987 98.2392 23.807 96.8838L23.8715 96.7761C21.685 93.4511 19.4409 89.9718 18.4203 86.0834C18.034 84.6116 17.8418 83.0658 17.5868 81.5654C14.2481 81.822 10.9068 81.3179 7.57012 81.1999C6.79837 81.1727 6.01502 81.1599 5.24447 81.2182C4.5348 81.2718 3.81643 81.3939 3.10353 81.3769C2.77948 81.3694 2.45816 81.2636 2.17265 81.1136C1.56702 80.7954 1.15514 80.2351 0.961391 79.5848C0.671623 78.6122 0.735579 77.4467 0.628473 76.4325C0.456385 74.8027 0.125003 73.193 0.0922571 71.5495C0.0528595 69.5771 0.561787 67.6241 0.671281 65.6554C0.763038 64.0055 0.469348 62.2721 0.642287 60.6469C0.705392 60.0539 0.861789 59.476 1.16486 58.9594C1.55696 58.2911 2.11722 57.8828 2.87482 57.7271C4.26737 57.4405 6.48933 57.8741 8.02839 57.8388C9.25756 57.8106 10.5072 57.5944 11.7261 57.4362C13.7992 57.1673 15.8427 56.9131 17.8781 56.4242C18.3567 55.3531 18.4996 54.0985 18.8249 52.9697C19.9445 49.0841 21.3001 46.176 23.8633 43.0068C22.8475 41.7724 21.6705 40.6884 20.6675 39.4287C19.1915 37.5751 17.9151 35.5596 16.455 33.6917C15.1541 32.0275 13.9561 31.4052 13.169 29.2615C13.7625 27.4497 15.2932 26.2552 16.5393 24.8976C17.5408 23.8064 18.3867 22.5727 19.4158 21.5071C20.461 20.4247 21.6356 19.4872 22.7798 18.5155C24.2631 17.2561 25.7421 15.9803 27.3073 14.8238C28.056 14.2706 29.4859 13.2491 30.4626 13.5076C30.9047 13.6245 32.2806 15.6982 32.7586 16.1803C33.8259 17.2561 35.1168 18.0717 36.258 19.0604C37.3383 19.9963 38.2287 21.1334 39.1298 22.2377C39.5063 22.6992 40.2704 23.8253 40.9182 23.8429C41.7124 23.8645 44.3304 21.9546 45.1862 21.5246C46.3956 20.9171 47.7208 20.4424 49.0001 20.0048C50.7065 19.4211 52.4306 18.9984 54.1788 18.5631C55.0288 18.3514 55.9873 18.1997 56.8003 17.8765C57.029 17.7856 57.2325 17.6596 57.3881 17.4655C58.0522 16.6368 57.4377 13.3518 57.327 12.197C57.1404 10.2493 57.2861 8.27592 57.3497 6.32376C57.3846 5.24993 57.3217 4.11979 57.5318 3.06428C57.6383 2.52934 57.8303 1.97744 58.192 1.56027C59.3891 0.179344 64.2106 0.207077 65.9542 0.123026Z" fill="#B51111"/>
<path d="M65.7633 1.41514C68.4095 1.2354 71.0732 1.64025 73.7158 1.72584C75.4844 1.78301 77.4961 1.3037 79.2038 1.82855C79.5093 1.92236 80.1393 2.13445 80.2958 2.44326C80.6426 3.12662 80.2286 5.40574 80.2141 6.25001C80.1933 7.46763 80.2677 17.2896 80.6973 17.9952C80.8909 18.3132 83.5914 18.7306 84.0833 18.8451C86.2878 19.3583 88.3346 20.0985 90.4403 20.9075C92.6338 21.7501 94.6273 22.4699 96.5266 23.8886C96.8988 24.1666 97.5167 24.7459 97.9961 24.7666C98.309 24.7802 98.5777 24.6617 98.8292 24.4837C99.8752 23.7431 100.774 22.7102 101.714 21.8348C103.167 20.4809 104.755 19.1751 106.093 17.7102C107.045 16.6678 107.758 15.3501 108.904 14.5058C108.934 14.4841 108.964 14.4628 108.994 14.4414C111.84 15.418 116.332 18.9 118.416 21.0848C119.916 22.6752 121.348 24.325 122.712 26.0342C123.225 26.6719 123.804 27.3179 124.216 28.0239C124.416 28.368 124.593 28.781 124.569 29.1884C124.498 30.3879 123.211 31.2175 122.531 32.1011C121.65 33.2456 120.873 34.4713 119.993 35.6179C118.333 37.7787 116.41 39.8035 114.389 41.6265C114.94 44.2263 116.802 47.0633 117.804 49.6129C118.613 51.6703 118.971 53.8527 119.634 55.9502C119.902 56.7972 120.351 57.7588 121.188 58.1581C122.593 58.8283 125.32 58.2858 126.917 58.2802C128.931 58.2733 130.972 58.5832 132.992 58.6333C133.985 58.658 134.974 58.3933 135.967 58.4625C136.296 58.4854 136.634 58.5599 136.922 58.7253C137.37 58.9817 137.58 59.5326 137.717 60.004C138.105 61.3428 137.955 62.979 137.99 64.3734C138.048 66.7006 138.247 69.072 138.131 71.3963C138.036 73.3072 137.691 75.1673 137.339 77.0431C137.171 77.9388 137.056 79.111 136.574 79.9024C136.435 80.1323 136.271 80.2384 136.01 80.3098C134.731 80.659 130.65 80.5065 129.187 80.501C128.045 80.4967 126.904 80.5383 125.762 80.5284C124.624 80.5185 123.35 80.3601 122.251 80.6842C121.553 80.8903 121.144 81.3271 120.797 81.9562C119.916 83.5517 119.392 86.3888 118.543 88.2913C117.847 89.832 117.06 91.3239 116.181 92.7671C115.531 93.8279 114.792 94.8738 114.223 95.9788L114.178 96.0692C114.335 96.4874 114.535 96.8693 114.802 97.2281C115.785 98.5515 117.054 99.72 118.105 101.007C119.228 102.381 120.19 103.925 121.355 105.252C122.138 106.144 124.472 107.97 124.687 108.911C124.864 109.684 124.514 110.429 124.089 111.055C123.174 112.408 121.903 113.538 120.806 114.737C119.481 116.184 118.24 117.702 116.848 119.089C115.67 120.263 114.371 121.304 113.071 122.337C112.175 123.05 111.092 124.022 109.931 124.207C109.4 124.291 108.97 124.178 108.521 123.886C107.412 123.165 106.489 121.945 105.457 121.082C103.59 119.519 101.612 118.074 99.654 116.631C98.8425 116.032 98.0592 115.379 97.2307 114.807C96.9559 114.617 96.5819 114.358 96.2382 114.431C95.3433 114.62 93.136 116.208 92.161 116.753C91.2579 117.258 90.3124 117.72 89.3706 118.146C87.8924 118.815 86.2916 119.358 84.7268 119.79C84.2105 119.933 81.4558 120.487 81.2433 120.715C80.5779 121.432 81.3166 125.396 81.2736 126.547C81.2199 127.982 80.661 129.346 80.5844 130.794C80.5268 131.881 81.0444 135.343 80.6646 136.063C80.6297 136.128 80.5905 136.19 80.5471 136.249C79.9675 137.041 77.0212 136.797 76.0742 136.915C74.9091 137.061 73.7536 137.334 72.591 137.511C70.618 137.878 67.4594 137.408 65.3666 137.278C64.0013 137.194 62.6075 137.208 61.2518 137.016C60.7405 136.944 60.2212 136.828 59.7586 136.591C59.2886 136.35 59.144 136.026 59.0529 135.516C58.7539 133.843 59.1046 132.011 58.9512 130.304C58.7321 127.863 58.0894 125.484 57.8633 123.047C57.8121 122.496 57.9387 120.778 57.8254 120.493C57.7932 120.412 57.6832 120.234 57.6278 120.18C57.231 119.795 53.952 119.025 53.233 118.821C50.9157 118.164 49.005 117.293 46.817 116.342C45.6794 115.848 44.5171 115.402 43.3901 114.885C42.8528 114.638 42.4116 114.215 41.8829 113.988C41.5455 113.844 41.4079 114.04 41.1596 114.244C39.9691 115.223 39.1101 116.552 38.0316 117.65C37.1195 118.579 30.9728 123.824 30.0029 124.222C29.9678 124.236 29.9323 124.25 29.897 124.264C28.7671 123.752 28.0208 122.86 27.0189 122.176C26.0364 121.505 24.9805 120.942 23.987 120.287C20.8881 118.242 18.7303 115.356 16.5037 112.448C15.8675 111.617 14.8944 110.712 14.7086 109.651C14.6121 109.099 14.7688 108.7 15.0815 108.251C15.8292 107.175 16.9587 106.28 17.8758 105.345C19.2985 103.894 20.6348 102.352 22.0009 100.847C22.9625 99.7879 24.0895 98.7092 24.8802 97.5172C25.1456 97.117 25.3247 96.7287 25.1533 96.251C24.8297 95.3497 23.2569 93.1509 22.6784 92.1924C21.2996 89.9087 20.0133 87.4481 19.4462 84.8208C19.1892 83.6304 19.1039 82.414 18.8609 81.2251C18.8145 80.9986 18.7219 80.5789 18.5118 80.4435C17.9943 80.11 15.7328 80.456 14.9837 80.442C12.948 80.4036 10.9154 80.1624 8.87866 80.0956C7.31844 80.0446 5.73333 80.173 4.1808 80.0498C3.7974 80.0193 2.85851 79.9756 2.57931 79.7014C2.35367 79.4797 2.23633 78.9451 2.17374 78.6471C1.99739 77.8068 1.99875 76.8937 1.90103 76.0368C1.70336 74.3034 1.37351 72.5802 1.35952 70.8309C1.34741 69.3083 1.74633 67.1873 1.8415 65.5686C1.94349 63.8291 1.6527 61.9438 1.9568 60.2347C2.0506 59.7077 2.40296 59.1313 2.95231 58.9882C4.07505 58.6958 5.53958 59.1245 6.69627 59.1482C8.62197 59.1876 10.5507 58.932 12.4614 58.7225C13.8272 58.5727 15.2435 58.4712 16.5793 58.1434C17.372 57.9489 18.1593 57.6766 18.8333 57.2064C18.8628 57.1858 18.8918 57.1648 18.9209 57.1439C19.5436 55.972 19.7186 54.6003 20.0425 53.3239C20.367 52.0452 20.759 50.7547 21.2698 49.5386C21.7685 48.3516 22.3405 47.1384 23.0616 46.0727C23.789 44.9976 24.5974 44.0493 25.1749 42.8729C25.0516 42.5033 24.8799 42.211 24.6452 41.8999C23.4488 40.3136 22.0347 38.8919 20.8096 37.3234C19.7077 35.9127 18.7862 34.3357 17.6409 32.9661C16.5982 31.7192 15.31 30.7505 14.4567 29.3365C15.1186 28.0838 16.0204 27.0855 16.9202 26.0101C17.8071 24.9501 18.6772 23.8712 19.6311 22.8703C22.2276 20.1457 26.7524 16.3123 29.9867 14.4637C31.0107 15.6974 32.0478 16.9727 33.2536 18.0323C34.2324 18.8925 35.3927 19.6253 36.3048 20.5473C37.5799 21.8367 38.5798 23.5105 39.9821 24.6617C40.3454 24.9599 40.7537 25.2199 41.2414 25.1514C42.6014 24.9602 43.9602 23.623 45.188 22.9957C46.334 22.4103 47.5418 21.9394 48.7536 21.5109C49.641 21.197 50.5345 20.8769 51.4418 20.6254C53.1925 20.1399 56.8158 19.5639 58.1119 18.5471C58.5469 18.2061 58.8875 17.7735 58.9891 17.2197C59.2749 15.6613 58.7261 13.8024 58.6093 12.2215C58.5127 10.9156 58.3112 3.12183 58.9485 2.37274C59.7806 1.3946 64.4347 1.46256 65.7633 1.41514Z" fill="#F4F4F4"/>
<path d="M83.9594 46.1691C85.5889 46.0169 89.1106 46.0252 90.6759 46.4041C91.2297 46.5382 91.7697 46.7623 92.2117 47.13C92.8876 47.692 93.1157 48.5443 93.1933 49.3887C93.3428 51.017 93.3248 52.6711 93.4138 54.3051C93.5492 56.7942 93.7735 59.2868 93.7772 61.7808C93.7825 65.1741 93.6214 68.5808 93.7017 71.9716C93.7581 74.355 94.1351 76.7202 94.2215 79.0984C94.2952 81.1208 94.0438 83.1898 94.0418 85.2225C94.0402 86.6397 94.2471 88.1839 94.0491 89.5818C93.9313 90.4136 93.4723 91.1536 92.9383 91.7839C92.0415 92.8428 90.8622 93.7747 89.5138 94.1554C87.724 94.6611 85.7047 94.3836 83.8591 94.499C79.6197 94.7642 75.3288 95.1368 71.0778 95.0499C68.3269 94.9936 65.5609 94.7032 62.8067 94.601C59.8121 94.4901 56.6888 94.6108 53.7033 94.8513C52.7163 94.936 51.7348 95.0779 50.7486 95.1724C49.0643 95.3335 47.289 95.3506 45.9201 94.1931C44.8013 93.247 44.2891 91.9469 44.1935 90.5088C44.1198 89.4 44.3442 88.2736 44.3185 87.1555C44.2579 84.5223 44.0865 81.8913 44.0668 79.2573C44.0461 76.5101 44.1747 73.7608 44.1167 71.0138C44.0628 68.4656 43.8034 65.9253 43.6583 63.3822C43.5364 61.0963 43.4844 58.8089 43.5024 56.52C43.4998 54.9564 43.4654 53.3399 43.6424 51.7844C43.772 50.6469 44.1846 49.5835 44.9413 48.7178C45.8593 47.6683 47.1157 47.0983 48.4713 46.8686C51.2883 46.3913 56.0433 46.7707 59.0648 46.7426L66.9685 46.6573C69.4432 46.652 71.9222 46.6967 74.396 46.6351C77.5864 46.5332 80.7742 46.3778 83.9594 46.1691Z" fill="#B51111"/>
<path d="M84.5688 47.2835C86.2376 47.212 90.0793 47.1548 91.3844 48.1999C92.0453 48.729 92.0797 49.7739 92.1493 50.5579C92.2747 51.9708 92.3038 53.3918 92.3777 54.8082C92.5017 57.1878 92.6344 59.5602 92.6183 61.9446C92.597 65.0933 92.4283 68.2386 92.4616 71.3892C92.4894 74.0027 92.8578 76.6231 92.9524 79.2378C93.0138 80.9292 92.8319 82.6412 92.7995 84.3352C92.7674 86.0128 92.9789 88.1363 92.6797 89.7511C92.5929 90.2189 92.4493 90.5093 92.1413 90.873C91.4299 91.7129 90.5219 92.4828 89.4485 92.7872C87.5589 93.323 85.5462 93.0272 83.6146 93.1444C79.5418 93.3916 75.4381 93.7664 71.3548 93.7177C69.4304 93.695 67.5004 93.4719 65.5759 93.3985C61.5047 93.2434 57.3378 93.2956 53.2776 93.6498C52.4397 93.7661 51.6006 93.8721 50.7602 93.9678C49.4402 94.1077 47.8789 94.0752 46.812 93.17C45.9217 92.4145 45.5763 91.2748 45.4811 90.1477C45.3633 88.7481 45.5009 87.2928 45.4736 85.8851C45.4247 83.3561 45.2216 80.8407 45.218 78.306C45.2147 76.1363 45.4066 73.9672 45.3565 71.7973C45.2342 66.4926 44.6852 61.3331 44.7157 55.9798C44.723 54.6827 44.7097 53.3608 44.8177 52.0677C44.895 51.1435 45.1516 50.095 45.7834 49.386C46.5387 48.5378 47.7536 48.1692 48.8461 48.0311C50.6651 47.801 52.5162 47.9337 54.3432 47.985C55.9082 48.0244 57.4733 48.0323 59.0387 48.0088C64.6713 47.948 70.3144 48.0311 75.9435 47.8395C78.8173 47.7416 81.6987 47.4744 84.5688 47.2835Z" fill="#F4F4F4"/>
<path d="M51.3933 51.6452C51.4252 51.6396 51.4569 51.6325 51.4892 51.6286C52.4327 51.5137 56.076 51.6858 56.7292 52.3655C57.1416 52.7949 57.1087 53.9211 57.1553 54.5045C57.7225 54.015 58.5361 53.1968 59.2334 52.9426C59.4238 52.8733 59.5079 52.868 59.6956 52.9556C59.7303 53.0326 59.763 53.0905 59.7674 53.1802C59.8137 54.1102 57.9147 55.4011 57.2666 55.9609C57.3945 57.5171 57.436 59.0586 57.4176 60.6199C57.4184 60.6908 57.4234 60.8317 57.4092 60.8979C57.3567 61.1439 57.0224 61.3091 56.8186 61.406C54.4341 62.5382 51.8397 62.2748 49.4246 61.4668C49.3249 60.6749 49.1888 59.8878 49.1011 59.0939C48.9831 58.0257 48.5269 53.0578 49.1506 52.3385C49.6639 51.7464 50.6741 51.7257 51.3933 51.6452Z" fill="#B51111"/>
<path d="M51.5978 52.4317C52.4135 52.3534 55.6209 52.3682 56.2015 52.9011C56.5335 53.2058 56.53 54.4776 56.5566 54.9337C55.6289 55.5562 54.753 56.245 53.9289 57.0002L53.2823 57.6291C52.1081 56.8155 50.6862 56.1792 49.6385 55.2235C49.6096 54.3776 49.6042 53.5316 49.6223 52.6855C50.2714 52.5613 50.941 52.5073 51.5978 52.4317Z" fill="#F4F4F4"/>
<path d="M56.6752 56.3022C56.6803 56.3072 56.6861 56.3113 56.6906 56.317C56.9703 56.6588 56.813 59.9085 56.7891 60.5712C54.7089 61.2256 52.0618 61.3662 50.0138 60.5267C49.9253 59.9626 49.8813 59.3895 49.8255 58.8212C49.7284 58.0887 49.708 57.3465 49.672 56.6088C50.3416 57.1022 52.68 59.1256 53.3629 59.135C53.5498 59.1375 53.7347 59.0403 53.8768 58.9248C54.283 58.5947 54.6185 58.1365 54.992 57.7653C55.5189 57.2422 56.1037 56.7751 56.6752 56.3022Z" fill="#F4F4F4"/>
<path d="M57.8928 89.6907C57.5225 89.9042 57.1543 90.024 56.7432 90.1278C54.8471 90.6062 53.0513 90.6386 51.1919 90.0245C50.8062 89.8972 50.3907 89.7811 50.0446 89.5639C49.6152 89.2943 49.4856 88.9514 49.382 88.4671C49.0814 87.0605 48.7247 82.231 49.5345 81.1559C49.8862 80.6891 50.764 80.5864 51.3175 80.5268C52.3995 80.4103 56.3709 80.2964 57.155 81.012C57.4529 81.2842 57.4127 81.8677 57.4314 82.2428C57.58 82.0954 57.7304 81.9432 57.8989 81.8186C58.2224 81.5794 58.5724 81.519 58.9626 81.5788C59.0338 81.6525 59.0981 81.6727 59.0858 81.7845C59.0196 82.389 58.0855 83.125 57.6779 83.5145C57.8008 84.0195 57.8176 84.5017 57.8319 85.0185C57.9156 86.5805 58.0282 88.1285 57.8928 89.6907Z" fill="#B51111"/>
<path d="M50.2041 88.4074C49.899 87.1916 49.5094 82.9232 49.9031 81.8093C49.9858 81.5748 50.0956 81.4209 50.3259 81.315C51.1217 80.9485 55.766 81.0161 56.5778 81.3745C56.9249 81.7725 56.8774 82.214 56.881 82.7073C55.6406 83.8005 54.5382 85.0967 53.2553 86.1284C52.3469 85.8201 51.4856 84.9909 50.6291 84.8201C50.4205 84.9043 50.4185 84.9418 50.2989 85.1374C50.279 85.3857 50.3039 85.5579 50.4389 85.7683C50.8998 86.4852 52.4799 87.5063 53.325 87.668C54.1357 87.4066 55.103 85.9186 55.7424 85.2946C56.2236 84.825 56.7666 84.4009 57.2753 83.9602C57.283 84.3218 57.2979 84.6847 57.2938 85.0462C57.2452 86.3833 57.3891 87.7257 57.3918 89.0656C54.8348 89.328 52.5731 89.6957 50.2041 88.4074Z" fill="#F4F4F4"/>
<path d="M51.4873 66.0241C52.4526 65.8999 55.9044 65.9841 56.6826 66.4588C57.1488 66.7429 57.2042 67.35 57.3133 67.839C57.7312 67.4417 58.1777 66.9422 58.6687 66.6435C58.8947 66.5059 59.0373 66.4737 59.2923 66.5336C59.3818 66.6385 59.4478 66.6698 59.4514 66.8177C59.4688 67.536 58.1352 68.6229 57.6403 69.1157C57.6031 70.3023 57.9654 74.1789 57.6316 74.9873C57.2596 75.1732 56.8766 75.2904 56.472 75.3805C54.8871 75.7334 51.0082 76.2405 49.5948 75.2618C49.3155 75.0684 49.2657 74.7875 49.2048 74.472C48.9849 73.3312 48.5135 67.6745 49.1627 66.8246C49.7028 66.1173 50.6871 66.1127 51.4873 66.0241Z" fill="#B51111"/>
<path d="M51.3925 66.8756C52.4339 66.8314 55.6945 66.7498 56.4907 67.2108C56.7383 67.5069 56.7821 67.8601 56.8648 68.228C55.4854 69.2968 54.346 70.555 53.0684 71.7314C52.4997 71.3703 51.29 70.1902 50.7299 70.111C50.5017 70.0786 50.3747 70.1731 50.2044 70.307C50.1106 70.5143 50.0844 70.5725 50.148 70.8063C50.3463 71.5361 52.5182 73.2244 53.2541 73.5353C53.6204 73.1391 53.9835 72.7397 54.3432 72.3373L57.0501 69.5582C56.9865 71.1702 57.0207 72.7925 57.0192 74.4059C54.7599 74.9119 52.1939 74.9748 49.9408 74.433C49.8043 73.3531 49.3793 68.2101 49.7596 67.4842C50.0107 67.005 50.9213 66.9441 51.3925 66.8756Z" fill="#F4F4F4"/>
<path d="M78.2833 83.2358C79.8401 83.2055 85.8409 83.1062 86.8465 83.4823C87.0121 83.5441 86.9545 83.5017 87.0282 83.6766C87.0065 83.7049 86.9874 83.7353 86.9632 83.7613C86.7275 84.0162 86.3824 84.0871 86.0523 84.1275C85.4976 84.1956 84.9055 84.1568 84.3454 84.1689C83.0011 84.1977 81.6621 84.2164 80.3174 84.216C77.0115 84.1899 73.7061 84.2258 70.4014 84.3237C68.4913 84.5565 66.4604 84.5202 64.5349 84.5544C63.8552 84.5664 63.1705 84.6623 62.4913 84.6298C62.2152 84.6166 62.0498 84.5871 61.8644 84.3785L61.9224 84.1594C62.7137 83.7576 76.2535 83.2519 78.2833 83.2358Z" fill="#B51111"/>
<path d="M74.4896 73.0468C75.5746 72.9645 82.1293 72.8501 82.5797 73.0966C82.6687 73.1452 82.7109 73.2589 82.7141 73.3582C82.7218 73.5926 82.6295 73.684 82.4896 73.8473C82.345 73.907 82.2219 73.9531 82.0639 73.9604C81.0244 74.0094 79.9661 73.938 78.9236 73.9551C75.8685 73.9822 72.8144 74.0512 69.7613 74.1622C68.1706 74.2037 63.3876 74.6761 62.25 74.2946C62.0438 74.2254 61.8707 74.0986 61.7856 73.8921C61.7343 73.7677 61.7964 73.712 61.8452 73.5965C62.1636 73.3709 62.4806 73.3151 62.8656 73.2801C64.1077 73.167 65.4068 73.2735 66.6568 73.2599C69.2685 73.2179 71.8794 73.1469 74.4896 73.0468Z" fill="#B51111"/>
<path d="M77.6505 58.7552C78.7893 58.7217 82.333 58.5385 83.2252 58.8905C83.4368 58.9738 83.4977 59.0419 83.5902 59.2443L83.5017 59.4598C83.43 59.5057 83.3652 59.5642 83.2869 59.5978C83.0686 59.6911 69.6029 59.7542 67.4747 59.9023C66.1221 59.9348 62.9303 60.515 61.8637 59.9271C61.6341 59.8006 61.5347 59.6789 61.4615 59.4304L61.5501 59.2729C61.8876 59.0423 62.3276 59.0028 62.7265 58.9745C64.3191 58.8617 65.9609 58.9899 67.5596 58.9711L77.6505 58.7552Z" fill="#B51111"/>
<path d="M79.2547 69.2884C80.4415 69.2665 84.7743 69.1446 85.7461 69.4815C85.9946 69.5676 86.2002 69.6693 86.3208 69.9134L86.2221 70.0526C85.106 70.4035 79.8226 70.2197 78.2839 70.2291C75.1634 70.2445 72.0435 70.3003 68.9243 70.3965C68.0477 70.4121 62.6402 70.6791 62.2256 70.5072C62.1607 70.3188 62.1717 70.2361 62.223 70.0449C62.2997 69.9875 62.3171 69.966 62.4225 69.9365C62.8324 69.8218 64.7127 69.8513 65.2829 69.8222C68.4379 69.6606 71.595 69.4189 74.7528 69.3252C76.2533 69.2929 77.7539 69.2807 79.2547 69.2884Z" fill="#B51111"/>
<path d="M75.4331 87.4265C76.6834 87.3429 82.122 87.2149 82.9468 87.503C83.1342 87.5685 83.1608 87.5898 83.2466 87.7575L83.1596 87.9328C82.9616 88.0532 82.8213 88.0713 82.589 88.0901C80.4791 88.2615 78.3206 88.2 76.2035 88.2564C74.0025 88.3151 71.806 88.4842 69.6065 88.5826C67.708 88.6615 64.3365 89.1025 62.6154 88.919C62.3177 88.8873 62.1045 88.7976 61.9406 88.5326C61.8203 88.3384 61.8142 88.2 61.8456 87.9821C62.0574 87.7716 62.3888 87.7745 62.6715 87.7529C64.2382 87.6339 65.8448 87.7384 67.4178 87.7087C70.0865 87.6584 72.765 87.5228 75.4331 87.4265Z" fill="#B51111"/>
<path d="M79.969 54.7317C80.9396 54.6732 84.8983 54.525 85.6185 54.9053C85.8225 55.013 85.8472 55.057 85.9165 55.2597L85.8399 55.4038C85.6586 55.5206 85.5377 55.583 85.3144 55.5948C84.1632 55.6563 82.9951 55.557 81.8413 55.5745C77.0781 55.6471 72.3197 55.6397 67.5599 55.8689C66.1026 55.8617 64.6036 55.9672 63.1484 56.0695C62.772 56.0959 62.3884 56.1991 62.0136 56.2013C61.8045 56.2024 61.7287 56.1827 61.555 56.0796C61.5374 55.8715 61.5906 55.8422 61.6894 55.6659C62.2406 55.2996 63.9149 55.3542 64.5979 55.3044C67.7598 55.0582 70.9257 54.8909 74.0958 54.8026C76.0534 54.7521 78.0119 54.7954 79.969 54.7317Z" fill="#B51111"/>
<path d="M31.6922 65.8569C31.7853 65.8961 31.8786 65.9559 31.9674 66.0048C32.2432 66.6427 31.2254 68.2216 31.0968 68.9295C30.1925 73.9056 30.3029 79.8001 32.0638 84.5841C32.7542 86.4596 33.7869 88.2286 34.6049 90.058C35.1027 91.1715 35.6193 92.2572 36.2816 93.2853C37.6438 95.4001 40.3852 98.4091 42.4119 99.9089C44.5005 101.454 46.8783 102.654 49.189 103.823C51.2712 104.877 53.3197 105.93 55.5033 106.759C56.2379 107.045 56.9817 107.304 57.7346 107.537C58.4875 107.77 59.2475 107.977 60.0148 108.156C60.7821 108.335 61.5548 108.488 62.3327 108.612C63.1107 108.737 63.892 108.835 64.6768 108.904C66.8703 109.086 69.01 108.836 71.1921 108.67C73.6257 108.484 76.0994 108.405 78.4995 107.936C84.8906 106.686 94.0682 102.503 98.6129 97.824C99.3736 97.0322 100.075 96.1909 100.718 95.2999C101.432 94.3189 105.471 88.0105 106.209 87.7268C106.357 87.67 106.295 87.6799 106.458 87.7508L106.508 87.9679C106.446 88.3184 106.228 88.5655 106.022 88.844C105.155 90.2066 104.206 91.5187 103.311 92.8633C102.145 94.6154 101.018 96.4635 99.6245 98.045C95.1577 103.113 85.3991 107.717 78.8359 109.051C75.4884 109.731 71.4438 109.947 68.0208 110.155C60.882 110.588 54.2078 107.961 47.983 104.734C45.3694 103.38 42.7774 101.938 40.5675 99.9614C38.6248 98.2239 36.0578 95.1952 34.8363 92.9107C34.1608 91.6474 33.6643 90.2961 33.0793 88.9902C32.6051 87.9317 31.9895 86.9361 31.538 85.8687C30.4045 83.1886 29.965 79.9286 29.7989 77.0326C29.6215 73.9403 29.6309 68.1785 31.6922 65.8569Z" fill="#B51111"/>
<path d="M70.0353 30.0058C74.1102 29.6516 78.1321 30.4401 82.0173 31.611C84.9938 32.5078 87.6774 33.818 90.4305 35.2414C91.6759 35.8852 92.9693 36.4484 94.1531 37.2052C96.6381 38.7936 99.0777 41.3181 100.642 43.8375C101.36 44.9945 101.923 46.2303 102.541 47.4418C103.072 48.4825 103.646 49.5018 104.197 50.5316C105.632 53.2125 108.444 61.5323 107.433 64.4126C107.361 64.6197 107.313 64.7296 107.112 64.8306C107.08 64.8193 107.047 64.8142 107.019 64.7966C106.751 64.6286 106.61 64.1618 106.539 63.8723C106.293 62.8678 106.296 61.7511 106.142 60.7253C105.97 59.634 105.747 58.5534 105.472 57.4835C105.196 56.4137 104.87 55.3596 104.494 54.3212C103.764 52.3242 102.676 50.4736 101.7 48.5897C100.991 47.2213 100.389 45.8255 99.5525 44.5193C98.9649 43.6018 98.253 42.787 97.5255 41.9805C94.9356 39.1095 93.315 38.1514 89.9593 36.4097C88.8184 35.8178 87.7056 35.1997 86.5382 34.6589C84.7508 33.7361 82.7265 33.1249 80.8003 32.5667C78.7814 31.9816 76.7004 31.4205 74.6096 31.1736C70.1431 30.6464 65.3025 31.5242 60.9511 32.4609C58.4677 32.9953 55.7264 33.5842 53.3799 34.5805C51.24 35.489 49.4187 36.7959 47.5005 38.0863C46.1536 38.9922 44.7662 39.8687 43.5512 40.9514C42.5565 41.8378 41.5953 42.8241 40.7442 43.8505C40.1263 44.5955 37.5382 48.5931 36.9774 48.7427C36.8577 48.6383 36.8786 48.6953 36.8672 48.5421C36.7557 47.0448 39.5822 43.6057 40.5975 42.4674C42.6974 40.1134 45.141 38.3888 47.7264 36.6254C49.069 35.7096 50.3901 34.7873 51.8743 34.1094C56.4393 32.0244 65.0012 30.2843 70.0353 30.0058Z" fill="#B51111"/>
<path d="M93.9826 40.2651C94.0039 40.2758 94.0268 40.2838 94.0467 40.297C94.4144 40.5394 96.948 44.4202 97.2603 44.9956C97.5857 45.5952 97.8707 46.2356 98.0385 46.8991C98.1565 47.3654 98.2072 47.6787 97.9576 48.1044C97.1057 47.3226 96.9335 45.9385 96.3596 44.9477C95.5769 43.5963 94.2041 42.3953 93.6995 40.9055C93.709 40.6108 93.8115 40.487 93.9826 40.2651Z" fill="#B51111"/>
<path d="M110.417 74.2329C110.585 74.28 110.669 74.3517 110.799 74.4662C110.981 74.8596 110.986 75.2847 110.987 75.7114C110.991 77.1617 110.361 81.5771 109.397 82.5517C109.172 82.5068 109.107 82.5192 108.952 82.355C108.859 81.5082 109.823 79.5428 110.007 78.5643C110.276 77.1346 110.112 75.6318 110.417 74.2329Z" fill="#B51111"/>
<path d="M112.085 77.2246C112.18 77.2479 112.252 77.2623 112.341 77.2927C112.53 77.3571 112.616 77.4697 112.687 77.6529C113.095 78.7105 112.328 82.2545 111.83 83.2612C111.684 83.2307 111.545 83.179 111.404 83.1328C111.117 82.7622 111.36 82.3382 111.483 81.9232C112.038 80.0556 111.931 79.085 112.085 77.2246Z" fill="#B51111"/>
<path d="M23.8582 101.548C23.8741 101.555 23.8911 101.56 23.9055 101.57C24.0822 101.693 24.0709 101.719 24.0919 101.923C23.8523 102.661 20.9356 106.077 20.2722 106.573C20.2633 106.566 20.2541 106.56 20.2458 106.553C20.074 106.405 19.9657 106.368 19.9468 106.133C20.5852 105.121 22.9441 102.244 23.8582 101.548Z" fill="#B51111"/>
<path d="M104.889 114.737C105.042 114.833 105.126 114.95 105.206 115.111C105.41 115.524 106.795 119.107 106.83 119.433C106.86 119.718 106.696 119.828 106.529 120.028C106.497 120.004 106.464 119.982 106.433 119.957C105.744 119.393 104.627 116.274 104.607 115.339C104.6 115.03 104.698 114.95 104.889 114.737Z" fill="#B51111"/>
<path d="M27.1732 100.624C27.3132 100.676 27.4353 100.742 27.5668 100.813L27.6052 100.968C27.1058 102.269 25.3851 104.174 24.5469 105.485C24.3311 105.402 24.2064 105.375 24.0789 105.17C24.1766 104.408 26.5445 101.314 27.1732 100.624Z" fill="#B51111"/>
<path d="M21.5553 25.0288C21.7388 25.098 21.7725 25.1058 21.8907 25.2597C21.7973 25.6673 19.7273 29.8098 19.4387 30.148L19.1656 29.9185C19.0967 29.7747 19.0546 29.6742 19.0609 29.5102C19.093 28.6719 20.9097 25.6319 21.5553 25.0288Z" fill="#B51111"/>
<path d="M62.7052 123.796C62.8334 123.815 62.9272 123.829 63.0436 123.892C63.1234 123.935 63.1309 123.924 63.1414 124.013C63.201 124.511 61.432 128.109 61.0638 128.707C60.809 128.64 60.7571 128.659 60.6036 128.45C60.6113 127.817 62.2912 124.313 62.7052 123.796Z" fill="#B51111"/>
<path d="M64.6093 12.9922C64.6954 13.1665 64.766 13.2661 64.7102 13.4694C64.5965 13.8839 61.9582 16.928 61.5862 17.1697C61.4394 16.9836 61.3606 16.9467 61.3964 16.7002C61.5502 15.646 63.6751 13.5398 64.6093 12.9922Z" fill="#B51111"/>
<path d="M63.378 9.64746C63.4984 9.70121 63.4965 9.73202 63.5653 9.83918C63.5544 9.92187 63.5527 9.9638 63.5307 10.0402C63.2784 10.9197 61.8239 12.7406 61.0471 13.2034C60.957 13.1516 60.8726 13.0839 60.7878 13.0235C60.7281 12.8347 60.7171 12.7037 60.7841 12.5127C61.1387 11.5029 62.4459 10.1073 63.378 9.64746Z" fill="#B51111"/>
<path d="M38.1077 92.0835C38.3585 92.1949 40.4429 95.3485 40.6354 95.7752C40.7357 95.9974 40.5895 96.179 40.4993 96.3797C40.2887 96.2412 40.0953 96.0991 39.9271 95.9087C39.4204 95.3353 37.7517 93.0762 37.8764 92.3278C37.898 92.1975 38.0099 92.1581 38.1077 92.0835Z" fill="#B51111"/>
<path d="M63.4928 127.573C63.6814 127.611 63.8038 127.659 63.9689 127.758C64.0885 128.248 62.6591 130.844 62.3347 131.447C62.1792 131.498 62.0988 131.495 61.939 131.463C61.9249 131.435 61.9039 131.41 61.8967 131.38C61.713 130.603 63.1175 128.288 63.4928 127.573Z" fill="#B51111"/>
<path d="M62.2036 6.20898C62.4063 6.28413 62.4118 6.30553 62.5349 6.48698C62.6175 7.39442 61.5069 8.70636 60.9677 9.39366C60.9069 9.36798 60.8091 9.33015 60.7574 9.29198C60.5814 9.16239 60.5664 9.03914 60.5779 8.8279C60.6164 8.11767 61.7047 6.70439 62.2036 6.20898Z" fill="#B51111"/>
<path d="M90.0751 38.2168C90.5728 38.6513 91.6167 40.4814 91.6522 41.1312C91.667 41.4013 91.5952 41.44 91.4291 41.637C91.3062 41.5812 91.3143 41.592 91.2025 41.5121C90.5898 41.0747 89.9472 39.5674 89.8377 38.8111C89.7974 38.534 89.9225 38.4241 90.0751 38.2168Z" fill="#B51111"/>
<path d="M108.178 117.458C108.325 117.486 108.419 117.535 108.547 117.611C109.155 118.497 108.87 119.947 108.719 120.952C108.526 120.944 108.486 120.946 108.315 120.84C107.998 120.038 107.909 118.252 108.178 117.458Z" fill="#B51111"/>
<path d="M10.3836 61.4761C10.5995 61.5843 10.6069 61.575 10.7013 61.7953C10.5666 62.5658 9.51226 63.9601 8.94313 64.5069L8.72516 64.4748C8.62556 64.3999 8.5587 64.3927 8.54438 64.2574C8.47274 63.5825 9.95689 62.0153 10.3836 61.4761Z" fill="#B51111"/>
<path d="M6.4648 61.8579C6.5673 61.9334 6.59237 61.9868 6.65377 62.0957C6.5772 62.7212 5.43228 64.3084 4.93427 64.7199C4.90766 64.6956 4.87918 64.6732 4.85462 64.647C4.69959 64.4821 4.65132 64.3012 4.65882 64.0773C4.68458 63.2964 5.89277 62.3081 6.4648 61.8579Z" fill="#B51111"/>
<path d="M86.845 37.8569C87.2543 37.9049 87.4612 38.0853 87.7235 38.391C88.1961 38.9417 88.8126 39.9652 88.7758 40.7042C88.6097 40.7131 88.5283 40.7278 88.3852 40.6169C87.7438 40.1196 86.8941 38.6778 86.845 37.8569Z" fill="#B51111"/>
<path d="M22.5361 30.3604C22.5864 30.3848 22.65 30.4134 22.6937 30.4471C22.8419 30.5613 22.8733 30.626 22.8753 30.8124C22.8837 31.5494 22.4179 32.9462 21.93 33.493L21.8104 33.4564C21.6642 33.3061 21.5999 33.208 21.5802 32.9923C21.5167 32.3022 22.1249 30.8958 22.5361 30.3604Z" fill="#B51111"/>
<path d="M14.4552 61.9297L14.6684 62.0173C14.7229 62.1301 14.7808 62.1899 14.7584 62.3203C14.6399 63.0088 13.7556 64.185 13.1875 64.5426C13.0367 64.4868 13.0803 64.5195 12.9714 64.4238C12.8755 64.3398 12.8607 64.2468 12.8723 64.1164C12.9315 63.4537 13.9601 62.3493 14.4552 61.9297Z" fill="#B51111"/>
<path d="M23.8044 34.8618C23.851 34.8765 23.8996 34.8863 23.9445 34.9058C24.1316 34.9873 24.1739 35.0982 24.2132 35.2947C24.3434 35.9445 23.8353 37.0684 23.4794 37.6036C23.2996 37.5177 23.2831 37.4816 23.1759 37.3219C23.025 36.5279 23.5007 35.5811 23.8044 34.8618Z" fill="#B51111"/>
<path d="M63.7029 131.417L64.0392 131.462C64.1977 131.626 64.2599 131.685 64.2626 131.932C64.2678 132.388 63.9217 132.921 63.6359 133.25L63.3275 133.245C63.2293 133.141 63.1602 133.103 63.1329 132.955C63.036 132.427 63.4223 131.832 63.7029 131.417Z" fill="#B51111"/>
</g>
<defs>
<clipPath id="clip0_114_832">
<rect width="139" height="139" fill="white"/>
</clipPath>
</defs>
</svg>
