<svg width="103" height="130" viewBox="0 0 103 130" fill="none" xmlns="http://www.w3.org/2000/svg">
<path d="M3.09624 0.0559906C5.01852 -0.0791259 7.01078 0.0699445 8.94306 0.091944L20.6608 0.20851L59.4554 0.513711L82.6395 0.638321L89.9869 0.680843C91.3326 0.691022 92.7549 0.614842 94.0907 0.771137C94.74 0.846986 94.9943 1.099 95.3911 1.5976C95.6477 3.17467 95.5541 4.94645 95.5807 6.54847L95.6973 16.3215C95.7963 32.8972 95.5295 49.467 94.8968 66.0309C94.7815 69.4766 94.6442 72.9215 94.4847 76.3654C94.369 78.6263 94.0217 81.0109 94.2885 83.2646C95.1898 83.7597 96.1687 83.7374 97.118 84.0477C99.0154 84.6676 97.3777 86.7596 97.9356 88.0301C98.4444 89.1887 100.511 88.7618 101.078 89.9927C101.496 90.8999 99.9439 92.7091 99.608 93.6341C99.5968 93.6648 99.5865 93.6955 99.5757 93.7262C100.062 94.4535 100.737 94.9956 101.329 95.6298C101.677 96.0021 102.098 96.5025 102.051 97.0509C101.959 98.1115 100.435 98.6688 99.7215 99.2903C98.3384 100.494 100.12 102.026 99.9963 103.45C99.8431 105.222 97.2255 104.61 96.2719 105.53C95.9309 105.859 95.8814 106.726 95.9412 107.189C96.1321 108.67 97.2086 111.165 97.7381 112.641L101.617 123.37C101.878 124.093 102.557 125.2 102.501 125.945C102.49 126.101 102.508 126.043 102.376 126.151C101.373 126.081 94.9086 123.311 93.5076 122.758C92.9839 123.736 90.243 129.717 89.9839 129.951C89.9004 130.026 89.8292 129.994 89.725 129.99C89.2899 129.56 89.0526 128.584 88.8375 127.999C87.8796 125.422 87.0102 122.748 85.8514 120.255C84.8621 120.256 83.8185 120.307 82.8348 120.203C82.6267 120.181 82.4657 120.177 82.3245 120.013C82.3653 119.937 82.3646 119.926 82.4394 119.86C82.9584 119.403 84.8828 119.631 85.6047 119.629C84.9457 117.874 84.3913 115.981 83.5762 114.297C82.8643 115.967 82.3884 117.76 81.8011 119.477C81.0826 121.578 80.2732 123.648 79.5615 125.752C79.3257 126.45 78.3993 129.429 78.12 129.823C77.9157 129.939 77.9113 129.935 77.6782 129.9C77.1266 129.363 76.7076 128.604 76.271 127.968C75.1081 126.273 74.0113 124.522 72.8075 122.858C71.7064 123.122 70.604 123.673 69.5535 124.097L64.7764 125.984C64.5305 126.082 64.3594 126.095 64.1182 125.991C64.0517 125.815 64.053 125.756 64.1023 125.567C64.4245 124.327 65.1867 122.851 65.5902 121.527C62.8899 121.737 60.1434 121.709 57.436 121.774L41.4168 122.106L23.2676 122.452C16.5983 122.624 9.83176 122.92 3.1672 122.923C2.69671 122.924 1.73541 122.972 1.32981 122.757C0.897341 122.527 0.506329 121.985 0.33688 121.536C0.198896 121.171 0.150553 120.778 0.150881 120.389C0.152028 118.858 0.379489 117.294 0.449301 115.759L1.36488 98.8363C1.95495 86.6905 2.40124 74.5394 2.70376 62.3831C3.00901 51.92 3.07041 41.4554 2.88796 30.9893C2.7409 24.8894 2.50476 18.793 2.17952 12.7L1.74377 5.17548C1.6869 4.22112 1.57563 3.26381 1.54482 2.30897C1.53155 1.89459 1.54728 1.49105 1.73754 1.11509C2.02482 0.547366 2.51677 0.258091 3.09624 0.0559906Z" fill="#B51111"/>
<path d="M14.8551 6.8418L82.1246 6.87562C83.69 10.2988 85.7637 12.5525 89.286 13.9424C89.2954 17.9572 89.2782 21.972 89.2344 25.9866L89.1256 54.9099C89.0591 62.7613 89.202 70.6365 88.9414 78.4832C88.7289 78.1399 88.5207 77.7449 88.1064 77.6193C87.1737 77.3366 85.3815 78.7914 84.5382 79.269C83.6583 78.7356 82.8627 77.7136 81.9132 77.368C80.6631 76.9131 79.4357 79.2494 78.2491 79.7963C78.2215 79.809 78.1938 79.8209 78.1663 79.8331C77.3212 79.6187 76.1629 78.9605 75.2973 79.2087C74.0813 79.5574 74.2188 81.169 73.6972 82.0779C73.0902 83.135 71.2946 82.6549 70.2825 82.9327C68.405 83.4481 69.9326 85.7155 69.4366 86.9077C68.9658 88.0397 66.7565 87.9662 66.1815 89.1256C65.7223 90.052 67.2554 92.228 67.5815 93.3014C67.1795 94.0834 65.1989 96.2193 65.1963 96.7138C65.1913 97.6596 66.805 98.841 67.4443 99.4581C68.5136 100.59 66.3227 102.685 67.0489 104.02C67.414 104.691 68.6532 104.763 69.3214 105.003C69.8281 105.185 70.3338 105.466 70.5586 105.981C70.7866 106.504 70.7099 107.13 70.5978 107.673C70.3684 108.785 69.8895 109.862 69.4939 110.925C68.847 112.633 68.2186 114.348 67.6087 116.069C49.7294 116.588 31.8466 116.767 13.9605 116.606C12.5189 112.7 11.0548 110.75 7.4043 108.704C7.43511 105.909 7.58571 103.107 7.66126 100.312L8.18173 80.9388L8.75547 51.337C8.97572 42.2957 8.94698 33.2552 8.66927 24.2155C8.55799 20.7023 8.54472 17.1725 8.22565 13.67C11.2634 12.1429 13.4292 9.92633 14.8551 6.8418Z" fill="#F4F4F4"/>
<path d="M17.1374 36.7632C21.8794 36.699 26.629 36.7842 31.3718 36.7954L57.0371 36.8073L74.1229 36.8057C76.2473 36.7933 78.3717 36.7964 80.4961 36.8151C81.043 36.8193 81.5997 36.7412 82.1418 36.7663C82.3678 36.7768 82.5184 36.8247 82.7104 36.941C82.8304 37.1498 82.8392 37.1872 82.8368 37.4282C82.4125 37.8055 80.7018 37.6082 80.0714 37.608L27.1187 37.5619C25.684 37.5576 14.9636 37.6647 14.5726 37.4814C14.4566 37.4271 14.4725 37.3526 14.4417 37.2406C14.4787 37.1258 14.5138 37.0487 14.608 36.9654C15.0278 36.5942 16.5383 36.7651 17.1374 36.7632Z" fill="#B51111"/>
<path d="M14.5239 74.0069L65.4969 73.9944L77.5109 74.002C78.7424 74.0003 81.6311 73.8447 82.6157 74.0542C82.7437 74.2766 82.7012 74.5339 82.6935 74.782C77.7715 74.9077 72.8171 74.7892 67.891 74.7953L36.1581 74.8084L21.2152 74.8207L16.9781 74.8214C16.1968 74.8206 15.357 74.8805 14.5875 74.7619C14.4564 74.5011 14.5093 74.2955 14.5239 74.0069Z" fill="#B51111"/>
<path d="M16.358 68.3812C25.5155 68.2808 34.6829 68.4117 43.8419 68.4092L82.0538 68.414C82.2311 68.4155 82.3812 68.4138 82.5459 68.4895C82.6662 68.5447 82.6472 68.6031 82.6798 68.718C82.6426 68.8486 82.6373 68.9778 82.5313 69.0709C82.3443 69.2354 82.117 69.2531 81.8805 69.24C81.4846 69.2181 81.0895 69.2135 80.6931 69.2074L32.0871 69.1638L19.9332 69.1536C18.5109 69.1554 15.7903 69.3097 14.4895 69.1132C14.4511 68.866 14.4544 68.6975 14.4936 68.4503C15.0876 68.3322 15.7512 68.3821 16.358 68.3812Z" fill="#B51111"/>
<path d="M14.4943 62.8032L63.1405 62.86L76.703 62.8451L80.4546 62.8367C81.1989 62.8334 81.9795 62.7821 82.7169 62.882C82.8536 63.1142 82.8033 63.3892 82.7925 63.6489L33.971 63.5837L20.387 63.557L16.7534 63.5597C16.044 63.5625 15.2872 63.6295 14.5868 63.5164C14.4455 63.2652 14.4884 63.0879 14.4943 62.8032Z" fill="#B51111"/>
<path d="M14.6598 32.2623L61.506 32.233L76.3854 32.2361L80.6341 32.222C81.2369 32.2182 81.9128 32.1519 82.5092 32.2154C82.7483 32.2408 82.7622 32.2691 82.8909 32.4513C82.8866 32.6684 82.8938 32.8022 82.7845 32.9967L28.1659 32.9819C26.3909 32.979 15.3972 33.1111 14.7127 32.8844C14.5315 32.8243 14.5382 32.7378 14.4526 32.5769C14.5072 32.4449 14.5624 32.3668 14.6598 32.2623Z" fill="#B51111"/>
<path d="M61.5548 79.5441C62.4465 79.5555 63.3466 79.4837 64.2357 79.5174C64.5888 79.5307 64.9317 79.5422 65.1862 79.814C65.2027 80.0201 65.1891 80.0058 65.0547 80.1667C64.7799 80.2851 64.5359 80.3363 64.2358 80.3468C62.7206 80.3995 61.17 80.329 59.6512 80.3292L49.3029 80.3332L18.5765 80.3453C17.4161 80.3466 15.55 80.5359 14.4958 80.1455L14.4519 79.8444C14.7649 79.6457 15.1653 79.5898 15.5305 79.5725C17.0746 79.4991 18.6726 79.5863 20.2214 79.586L30.4417 79.5812L61.5548 79.5441Z" fill="#B51111"/>
<path d="M14.4957 90.7473L48.2844 90.7404C52.5199 90.7402 56.7612 90.6939 60.9963 90.7535C61.9047 90.7663 62.8272 90.658 63.7286 90.7003C64.0146 90.7138 64.2589 90.751 64.503 90.9034C64.6296 91.1485 64.5993 91.2569 64.5849 91.5278C61.1826 91.658 57.6162 91.5071 54.1953 91.5015L32.6765 91.5007L19.8479 91.5105C18.4586 91.509 15.8386 91.6836 14.5891 91.4593C14.4437 91.2556 14.4909 90.9868 14.4957 90.7473Z" fill="#B51111"/>
<path d="M17.36 85.1246L47.7912 85.1207L59.0286 85.1469C60.8096 85.1497 62.6092 85.0796 64.3874 85.1335C64.6329 85.1409 64.8464 85.1445 65.0437 85.296C65.0939 85.4873 65.116 85.5725 65.0427 85.7593C64.3394 86.0839 63.0488 85.9123 62.2703 85.9059L34.4223 85.856L20.6823 85.8778C19.0945 85.869 16.8389 86.0059 15.3412 85.8639C15.0489 85.8361 14.7949 85.779 14.5189 85.6799L14.4683 85.4086C15.1162 84.9667 16.5842 85.1235 17.36 85.1246Z" fill="#B51111"/>
<path d="M42.5886 96.2078C47.4772 96.1764 52.3657 96.184 57.2541 96.2306C59.3588 96.2436 61.5377 96.0973 63.6314 96.2407C63.9372 96.2617 64.1809 96.3055 64.4397 96.4715L64.443 96.614C64.4213 96.6368 64.4018 96.6621 64.3779 96.6825C64.134 96.8896 63.7417 96.9573 63.4325 96.9827C62.5682 97.0538 61.6395 96.9757 60.7672 96.9783L54.5854 96.9868L36.2738 96.968L22.3391 96.9822C20.067 96.9826 17.6037 97.1238 15.3581 96.9813C15.0291 96.9604 14.7319 96.9067 14.4299 96.7732L14.4075 96.49C14.7016 96.3011 15.1087 96.2467 15.4527 96.2267C16.3912 96.172 17.3655 96.2262 18.3076 96.2239L24.6293 96.2241C30.6157 96.2523 36.6022 96.2469 42.5886 96.2078Z" fill="#B51111"/>
<path d="M14.4746 57.0615L38.4649 57.072L47.2779 57.0774C48.7099 57.0784 50.1594 57.0311 51.5892 57.0794C51.7111 57.0835 51.7975 57.1148 51.9038 57.1716C52.0336 57.4243 51.9987 57.5821 51.9913 57.8628C51.013 57.948 49.9783 57.8692 48.9925 57.8664L42.9076 57.8554L23.0037 57.8249C20.8224 57.835 18.6411 57.833 16.4598 57.819C15.9793 57.8183 15.4967 57.9034 15.0201 57.8899C14.861 57.8853 14.742 57.8387 14.5973 57.7778C14.4225 57.5328 14.4739 57.3576 14.4746 57.0615Z" fill="#B51111"/>
<path d="M81.2839 78.0811C82.2608 78.0797 83.4512 79.5265 84.3358 80.0026C85.3878 79.7767 86.0516 79.0904 86.9783 78.6393C88.6837 77.8087 88.4582 80.2682 89.5651 80.8374C90.5738 81.356 92.0718 80.3268 93.1886 80.708C93.6236 81.207 93.4502 82.4857 93.5588 83.1557C93.8292 84.8215 96.0393 84.194 97.0968 84.9671C97.479 85.5525 97.1104 87.3268 97.0275 88.0468C97.7488 89.8024 99.7655 89.3072 100.312 90.2542C100.541 90.6523 98.9422 93.0173 98.7467 93.6137C98.7359 93.6467 98.7259 93.68 98.7154 93.7132C99.2439 95.0476 100.58 95.7713 101.344 96.9565C100.604 98.098 99.1662 98.5078 98.3647 99.6202C98.3604 99.9727 98.3618 100.325 98.4417 100.671C98.5992 101.35 99.2995 102.824 99.189 103.432C99.0472 104.212 96.3777 104.48 95.6986 105.035C94.9757 105.626 95.2114 107.301 95.0909 108.16C95.049 108.459 94.9456 108.829 94.6693 108.997C93.9862 109.413 92.4918 108.835 91.7254 108.743C89.4698 108.472 90.1744 111.388 89.0316 112.302C88.3446 112.406 86.7838 111.27 85.9857 111.037C85.9564 111.029 85.9269 111.021 85.8976 111.013C84.8248 111.202 84.1174 112.533 83.2205 113.131C82.5858 112.759 82.1446 112.238 81.6487 111.711C79.7037 109.641 78.6231 112.233 77.0915 112.047C76.189 111.937 76.1197 109.671 75.4478 108.993C74.6404 108.178 72.4834 108.573 71.431 108.584C71.4662 107.523 71.4733 106.418 71.2138 105.382C70.2799 104.4 68.9299 104.072 67.6748 103.705C67.7382 102.669 68.2088 101.758 68.4188 100.758C68.7113 99.3635 67.5533 98.4648 66.6246 97.6406C66.4439 97.4802 66.182 97.2891 66.0781 97.0643C65.7928 96.4482 67.4876 94.8094 67.8368 94.2688C68.0107 93.9995 68.1192 93.7208 68.2231 93.4197L68.2614 93.3057C67.9784 92.0941 67.2062 91.1631 66.8808 90.014C66.5781 88.9457 69.3409 88.3164 69.9015 87.6005C70.7429 86.5254 69.7268 84.6801 70.2462 83.797C70.8209 83.4307 71.5718 83.5432 72.2274 83.5108C74.4444 83.4015 74.3165 82.5762 74.9371 80.7263C75.0083 80.5145 75.1074 80.1727 75.2931 80.0297C75.8109 79.6305 77.4651 80.4636 78.1354 80.5312C79.4046 80.6593 80.4016 78.8259 81.2839 78.0811Z" fill="#F4F4F4"/>
<path d="M82.5384 81.5997C82.7654 81.5834 82.9925 81.5726 83.22 81.5675C83.4475 81.5623 83.6749 81.5628 83.9024 81.569C84.1298 81.575 84.357 81.5866 84.5838 81.6038C84.8107 81.621 85.037 81.6437 85.2627 81.6721C85.4884 81.7004 85.7134 81.7343 85.9376 81.7737C86.1617 81.8131 86.3846 81.858 86.6065 81.9083C86.8284 81.9587 87.0489 82.0144 87.2681 82.0756C87.4873 82.1368 87.7048 82.2033 87.9207 82.2752C88.1365 82.3472 88.3506 82.4243 88.5627 82.5067C88.7749 82.5892 88.9849 82.6767 89.1927 82.7694C89.4005 82.8621 89.6059 82.9599 89.809 83.0628C90.0121 83.1656 90.2125 83.2733 90.4103 83.3859C90.608 83.4986 90.8029 83.6161 90.995 83.7384C91.187 83.8606 91.3758 83.9875 91.5617 84.1191C91.7475 84.2506 91.93 84.3865 92.109 84.5271C92.2882 84.6676 92.4638 84.8125 92.6359 84.9617C92.808 85.1107 92.9763 85.264 93.1408 85.4213C93.3053 85.5788 93.4659 85.7402 93.6226 85.9055C93.7793 86.0708 93.9318 86.2398 94.0801 86.4126C94.2285 86.5855 94.3726 86.7618 94.5123 86.9416C94.652 87.1215 94.7872 87.3048 94.9179 87.4913C95.0487 87.6778 95.1748 87.8674 95.2963 88.0601C95.4178 88.2529 95.5344 88.4485 95.6463 88.6469C95.7582 88.8453 95.8652 89.0464 95.9672 89.2502C96.0692 89.4539 96.1663 89.66 96.2582 89.8685C96.3502 90.077 96.437 90.2876 96.5186 90.5003C96.6003 90.713 96.6766 90.9277 96.7477 91.1442C96.8189 91.3607 96.8847 91.5788 96.9452 91.7986C97.0056 92.0184 97.0606 92.2394 97.1102 92.4618C97.1598 92.6844 97.204 92.9079 97.2426 93.1325C97.2813 93.3571 97.3145 93.5825 97.3421 93.8087C97.3698 94.035 97.3918 94.2618 97.4083 94.4891C97.4248 94.7164 97.4358 94.944 97.4413 95.1719C97.4466 95.3998 97.4464 95.6276 97.4406 95.8555C97.4348 96.0834 97.4235 96.3109 97.4065 96.5382C97.3896 96.7655 97.3671 96.9923 97.339 97.2185C97.311 97.4446 97.2775 97.67 97.2384 97.8946C97.1994 98.1191 97.1549 98.3425 97.1048 98.5649C97.0548 98.7873 96.9993 99.0083 96.9385 99.2278C96.8776 99.4475 96.8115 99.6655 96.74 99.8819C96.6685 100.098 96.5917 100.313 96.5098 100.525C96.4277 100.738 96.3406 100.948 96.2482 101.157C96.1559 101.365 96.0586 101.571 95.9562 101.775C95.8537 101.978 95.7464 102.179 95.6342 102.377C95.5219 102.576 95.4048 102.771 95.283 102.963C95.1612 103.156 95.0348 103.345 94.9038 103.532C94.7727 103.718 94.6371 103.901 94.4971 104.081C94.357 104.26 94.2126 104.436 94.0639 104.609C93.9152 104.781 93.7624 104.95 93.6056 105.115C93.4486 105.28 93.2876 105.441 93.1228 105.598C92.958 105.755 92.7895 105.908 92.6172 106.057C92.4448 106.206 92.2689 106.351 92.0895 106.491C91.9101 106.631 91.7274 106.767 91.5414 106.898C91.3553 107.029 91.1662 107.156 90.974 107.278C90.7817 107.399 90.5866 107.517 90.3886 107.629C90.1907 107.741 89.9901 107.849 89.7869 107.951C89.5836 108.054 89.378 108.151 89.17 108.243C88.962 108.336 88.7519 108.423 88.5396 108.505C88.3273 108.587 88.1132 108.664 87.8971 108.735C87.6811 108.807 87.4634 108.873 87.2442 108.934C87.0249 108.994 86.8043 109.05 86.5823 109.1C86.3603 109.15 86.1372 109.194 85.913 109.233C85.6889 109.272 85.464 109.306 85.2381 109.334C85.0123 109.361 84.786 109.384 84.559 109.401C84.3318 109.418 84.1043 109.429 83.8765 109.434C83.6487 109.44 83.421 109.44 83.1933 109.434C82.9655 109.429 82.738 109.418 82.5107 109.401C82.2835 109.384 82.0568 109.362 81.8307 109.334C81.6046 109.306 81.3793 109.272 81.1548 109.233C80.9303 109.194 80.7069 109.15 80.4846 109.1C80.2622 109.05 80.0413 108.994 79.8217 108.934C79.6022 108.873 79.3842 108.806 79.1678 108.735C78.9515 108.663 78.7371 108.586 78.5246 108.504C78.312 108.422 78.1015 108.334 77.8932 108.242C77.6849 108.149 77.4791 108.052 77.2755 107.949C77.0721 107.847 76.8712 107.739 76.6729 107.626C76.4748 107.514 76.2794 107.396 76.0869 107.274C75.8945 107.152 75.7052 107.025 75.5189 106.894C75.3326 106.762 75.1498 106.626 74.9703 106.486C74.7906 106.345 74.6146 106.2 74.4422 106.051C74.2697 105.902 74.101 105.749 73.936 105.591C73.7711 105.434 73.6101 105.273 73.4531 105.107C73.2961 104.942 73.1432 104.773 72.9944 104.6C72.8457 104.427 72.7013 104.25 72.5613 104.07C72.4211 103.89 72.2855 103.707 72.1544 103.52C72.0234 103.333 71.897 103.144 71.7751 102.951C71.6533 102.758 71.5363 102.562 71.4241 102.363C71.312 102.165 71.2048 101.963 71.1024 101.759C71.0002 101.556 70.9029 101.349 70.8107 101.14C70.7185 100.932 70.6315 100.721 70.5497 100.508C70.4678 100.295 70.3913 100.08 70.3199 99.863C70.2487 99.6462 70.1828 99.4278 70.1221 99.2078C70.0615 98.9878 70.0063 98.7664 69.9566 98.5436C69.9069 98.3208 69.8626 98.097 69.8239 97.8721C69.7851 97.6472 69.7519 97.4214 69.7242 97.1949C69.6966 96.9683 69.6745 96.7412 69.6579 96.5135C69.6414 96.2859 69.6304 96.058 69.6249 95.8297C69.6196 95.6015 69.6198 95.3733 69.6257 95.1451C69.6315 94.917 69.6429 94.6892 69.6598 94.4615C69.6769 94.2338 69.6995 94.0068 69.7277 93.7803C69.7557 93.5538 69.7894 93.3281 69.8286 93.1033C69.8678 92.8784 69.9125 92.6546 69.9627 92.432C70.0128 92.2093 70.0684 91.988 70.1295 91.768C70.1906 91.5481 70.2569 91.3299 70.3286 91.1133C70.4004 90.8966 70.4774 90.6818 70.5597 90.4689C70.6419 90.2561 70.7293 90.0455 70.8219 89.8368C70.9145 89.6283 71.0122 89.4222 71.1149 89.2184C71.2176 89.0146 71.3252 88.8135 71.4379 88.6151C71.5504 88.4166 71.6678 88.2211 71.7899 88.0285C71.912 87.8357 72.0389 87.6461 72.1704 87.4597C72.3019 87.2734 72.4378 87.0902 72.5783 86.9104C72.7187 86.7307 72.8635 86.5545 73.0126 86.3819C73.1616 86.2093 73.3148 86.0405 73.4723 85.8755C73.6296 85.7104 73.7909 85.5493 73.9562 85.3921C74.1214 85.2349 74.2904 85.082 74.4632 84.9332C74.6359 84.7844 74.8122 84.6399 74.9921 84.4998C75.1719 84.3596 75.3551 84.224 75.5417 84.0928C75.7282 83.9617 75.9178 83.8353 76.1105 83.7136C76.3031 83.5918 76.4987 83.4748 76.6972 83.3626C76.8956 83.2504 77.0967 83.1432 77.3004 83.041C77.5041 82.9387 77.7101 82.8415 77.9186 82.7494C78.127 82.6572 78.3376 82.5703 78.5503 82.4885C78.7631 82.4069 78.9778 82.3304 79.1942 82.2592C79.4107 82.188 79.6288 82.1222 79.8486 82.0617C80.0683 82.0012 80.2893 81.9462 80.5116 81.8967C80.734 81.8471 80.9576 81.803 81.1822 81.7645C81.4067 81.7259 81.6321 81.6928 81.8584 81.6653C82.0845 81.6379 82.3112 81.616 82.5384 81.5997Z" fill="#B51111"/>
<path d="M82.0691 82.4065C82.2829 82.3822 82.4972 82.3631 82.712 82.3493C82.9268 82.3355 83.1418 82.327 83.357 82.3237C83.5722 82.3205 83.7874 82.3226 84.0025 82.3299C84.2176 82.3373 84.4324 82.3499 84.6469 82.3679C84.8613 82.3858 85.0753 82.409 85.2886 82.4375C85.502 82.4659 85.7145 82.4996 85.9261 82.5384C86.1378 82.5773 86.3485 82.6214 86.558 82.6706C86.7676 82.7199 86.9757 82.7742 87.1826 82.8336C87.3895 82.8932 87.5948 82.9578 87.7984 83.0274C88.0022 83.0969 88.2041 83.1714 88.4041 83.251C88.6041 83.3304 88.8022 83.4148 88.9981 83.504C89.194 83.5933 89.3876 83.6873 89.5789 83.786C89.7703 83.8847 89.9591 83.9882 90.1453 84.0963C90.3316 84.2043 90.5151 84.3169 90.6959 84.4339C90.8766 84.551 91.0544 84.6724 91.2292 84.7982C91.404 84.924 91.5756 85.0541 91.7439 85.1882C91.9124 85.3224 92.0775 85.4607 92.2392 85.6031C92.4007 85.7455 92.5588 85.8918 92.7133 86.042C92.8677 86.192 93.0184 86.3458 93.1654 86.5034C93.3123 86.6609 93.4553 86.822 93.5944 86.9866C93.7335 87.1511 93.8684 87.319 93.9992 87.4901C94.1301 87.6614 94.2566 87.8358 94.3789 88.0132C94.5012 88.1906 94.619 88.3709 94.7325 88.5542C94.8459 88.7374 94.9549 88.9233 95.0593 89.1119C95.1637 89.3004 95.2633 89.4915 95.3582 89.685C95.4533 89.8784 95.5435 90.0741 95.6288 90.2721C95.7142 90.47 95.7947 90.6698 95.8703 90.8717C95.9459 91.0736 96.0166 91.2772 96.0822 91.4826C96.1479 91.6879 96.2085 91.8947 96.264 92.103C96.3195 92.3114 96.3698 92.521 96.4151 92.7318C96.4603 92.9426 96.5003 93.1544 96.5352 93.3671C96.57 93.5799 96.5996 93.7934 96.624 94.0076C96.6484 94.2218 96.6675 94.4365 96.6814 94.6516C96.6952 94.8668 96.7039 95.0822 96.7073 95.2978C96.7105 95.5135 96.7086 95.729 96.7014 95.9445C96.6942 96.16 96.6816 96.3752 96.6638 96.5901C96.646 96.8049 96.623 97.0192 96.5948 97.233C96.5665 97.4467 96.533 97.6597 96.4942 97.8718C96.4555 98.0839 96.4117 98.2949 96.3626 98.5048C96.3136 98.7148 96.2594 98.9234 96.2002 99.1307C96.1409 99.338 96.0766 99.5437 96.0072 99.7478C95.9379 99.9519 95.8636 100.154 95.7843 100.355C95.7051 100.555 95.621 100.754 95.5319 100.95C95.443 101.146 95.3493 101.34 95.2509 101.532C95.1523 101.724 95.0492 101.913 94.9415 102.099C94.8338 102.286 94.7215 102.47 94.6047 102.651C94.4879 102.832 94.3668 103.011 94.2412 103.186C94.1158 103.361 93.9861 103.533 93.8522 103.702C93.7182 103.87 93.5803 104.036 93.4382 104.198C93.2962 104.36 93.1503 104.518 93.0005 104.673C92.8507 104.828 92.6973 104.979 92.5402 105.126C92.383 105.274 92.2223 105.417 92.0581 105.556C91.8939 105.696 91.7263 105.831 91.5555 105.962C91.3847 106.093 91.2108 106.22 91.0337 106.343C90.8567 106.465 90.6767 106.584 90.4939 106.697C90.3111 106.811 90.1256 106.92 89.9373 107.025C89.7491 107.13 89.5585 107.23 89.3654 107.325C89.1724 107.42 88.9771 107.511 88.7795 107.596C88.582 107.682 88.3825 107.763 88.1811 107.838C87.9796 107.914 87.7764 107.985 87.5714 108.051C87.3665 108.117 87.1601 108.178 86.9521 108.233C86.7442 108.289 86.5351 108.34 86.3247 108.385C86.1142 108.431 85.9028 108.471 85.6905 108.506C85.4781 108.541 85.265 108.571 85.0512 108.595C84.8373 108.62 84.6228 108.639 84.4078 108.653C84.1929 108.667 83.9778 108.676 83.7624 108.679C83.5471 108.683 83.3318 108.681 83.1166 108.674C82.9014 108.666 82.6864 108.654 82.4717 108.636C82.2572 108.618 82.0431 108.595 81.8295 108.567C81.616 108.539 81.4034 108.505 81.1915 108.467C80.9797 108.428 80.7689 108.384 80.5591 108.335C80.3495 108.286 80.1411 108.231 79.9339 108.172C79.7269 108.113 79.5215 108.048 79.3176 107.979C79.1137 107.909 78.9117 107.835 78.7114 107.755C78.5112 107.676 78.313 107.592 78.1169 107.503C77.9208 107.413 77.727 107.319 77.5354 107.221C77.3439 107.122 77.1549 107.019 76.9684 106.911C76.782 106.803 76.5984 106.69 76.4175 106.573C76.2365 106.456 76.0586 106.335 75.8836 106.209C75.7085 106.083 75.5367 105.953 75.3682 105.819C75.1996 105.685 75.0344 105.546 74.8726 105.404C74.7108 105.262 74.5525 105.115 74.3978 104.965C74.2433 104.815 74.0924 104.661 73.9452 104.503C73.7982 104.346 73.655 104.185 73.5157 104.02C73.3765 103.856 73.2414 103.688 73.1104 103.516C72.9795 103.345 72.8529 103.171 72.7304 102.993C72.6079 102.816 72.4899 102.635 72.3764 102.452C72.2628 102.269 72.1538 102.083 72.0493 101.894C71.9449 101.705 71.8451 101.514 71.7499 101.321C71.6549 101.127 71.5646 100.931 71.4792 100.733C71.3936 100.535 71.313 100.335 71.2373 100.133C71.1617 99.9311 71.091 99.7274 71.0253 99.5219C70.9596 99.3165 70.899 99.1095 70.8433 98.901C70.7879 98.6926 70.7374 98.4829 70.6921 98.2719C70.6469 98.061 70.6068 97.8491 70.572 97.6362C70.5371 97.4233 70.5075 97.2097 70.483 96.9952C70.4586 96.7808 70.4395 96.566 70.4256 96.3507C70.4118 96.1354 70.4031 95.9199 70.3997 95.7042C70.3965 95.4885 70.3984 95.2728 70.4056 95.0572C70.413 94.8415 70.4255 94.6262 70.4433 94.4111C70.4611 94.1962 70.4842 93.9818 70.5126 93.7679C70.5409 93.5539 70.5745 93.3408 70.6133 93.1286C70.652 92.9164 70.696 92.7052 70.745 92.4952C70.7942 92.2852 70.8484 92.0764 70.9077 91.869C70.9672 91.6616 71.0316 91.4558 71.101 91.2516C71.1704 91.0473 71.2449 90.8449 71.3243 90.6443C71.4036 90.4438 71.4879 90.2453 71.577 90.0488C71.6661 89.8524 71.7599 89.6582 71.8586 89.4665C71.9572 89.2747 72.0605 89.0855 72.1683 88.8988C72.2762 88.7119 72.3886 88.528 72.5055 88.3468C72.6224 88.1656 72.7437 87.9873 72.8694 87.8121C72.9951 87.6369 73.125 87.4649 73.2591 87.2961C73.3931 87.1272 73.5313 86.9618 73.6735 86.7998C73.8156 86.6377 73.9617 86.4792 74.1117 86.3243C74.2617 86.1696 74.4154 86.0185 74.5727 85.8712C74.7301 85.7239 74.891 85.5806 75.0553 85.4412C75.2197 85.3018 75.3875 85.1665 75.5586 85.0354C75.7296 84.9043 75.9037 84.7775 76.0809 84.655C76.2582 84.5324 76.4383 84.4143 76.6213 84.3005C76.8044 84.1868 76.9902 84.0777 77.1785 83.9732C77.3669 83.8686 77.5577 83.7688 77.7509 83.6736C77.9443 83.5784 78.1398 83.4881 78.3375 83.4025C78.5352 83.317 78.7349 83.2364 78.9366 83.1607C79.1383 83.0849 79.3416 83.0142 79.5467 82.9484C79.7519 82.8827 79.9585 82.8221 80.1666 82.7666C80.3748 82.711 80.5841 82.6606 80.7946 82.6154C81.0053 82.5701 81.2168 82.5301 81.4293 82.4953C81.6418 82.4605 81.8551 82.4309 82.0691 82.4065Z" fill="#F4F4F4"/>
<path d="M82.1929 84.4396C82.3738 84.4174 82.5552 84.3997 82.7371 84.3864C82.9189 84.3732 83.1009 84.3644 83.2831 84.36C83.4655 84.3557 83.6478 84.3559 83.83 84.3605C84.0122 84.3651 84.1942 84.3742 84.376 84.3878C84.5579 84.4013 84.7393 84.4193 84.9203 84.4418C85.1012 84.4642 85.2814 84.4911 85.4611 84.5224C85.6407 84.5538 85.8194 84.5895 85.9973 84.6296C86.1751 84.6696 86.3519 84.7141 86.5276 84.7629C86.7032 84.8116 86.8777 84.8646 87.0508 84.922C87.2239 84.9793 87.3955 85.0409 87.5656 85.1067C87.7357 85.1724 87.9041 85.2422 88.0708 85.3163C88.2374 85.3903 88.4022 85.4684 88.5651 85.5505C88.7278 85.6326 88.8885 85.7187 89.0472 85.8087C89.2059 85.8987 89.3623 85.9925 89.5164 86.0903C89.6704 86.1879 89.8219 86.2893 89.971 86.3945C90.1201 86.4995 90.2665 86.6083 90.4103 86.7207C90.5541 86.833 90.695 86.9487 90.8331 87.0679C90.9712 87.1871 91.1063 87.3096 91.2384 87.4355C91.3706 87.5614 91.4995 87.6904 91.6253 87.8226C91.7512 87.9549 91.8736 88.0901 91.9927 88.2283C92.1119 88.3665 92.2277 88.5076 92.34 88.6516C92.4523 88.7954 92.561 88.9419 92.6661 89.0912C92.7712 89.2404 92.8726 89.3921 92.9702 89.5463C93.0679 89.7005 93.1618 89.857 93.2519 90.0159C93.342 90.1747 93.4281 90.3356 93.5102 90.4987C93.5924 90.6618 93.6705 90.8268 93.7446 90.9937C93.8186 91.1605 93.8886 91.329 93.9545 91.4993C94.0203 91.6698 94.0819 91.8416 94.1393 92.0149C94.1968 92.1882 94.25 92.3629 94.299 92.5389C94.3478 92.7148 94.3923 92.8918 94.4325 93.07C94.4727 93.2482 94.5086 93.4272 94.5402 93.607C94.5716 93.787 94.5987 93.9676 94.6213 94.1488C94.6439 94.3301 94.6621 94.5118 94.6759 94.6939C94.6896 94.876 94.6989 95.0584 94.7037 95.2409C94.7087 95.4235 94.709 95.6061 94.7049 95.7888C94.7007 95.9713 94.6922 96.1537 94.6791 96.336C94.6661 96.5181 94.6487 96.6998 94.6267 96.8812C94.6049 97.0625 94.5785 97.2432 94.5477 97.4231C94.517 97.6032 94.4819 97.7823 94.4423 97.9606C94.4028 98.139 94.3589 98.3163 94.3108 98.4924C94.2626 98.6685 94.2101 98.8434 94.1534 99.017C94.0966 99.1905 94.0357 99.3626 93.9705 99.5333C93.9053 99.7038 93.836 99.8727 93.7626 100.04C93.6892 100.207 93.6117 100.372 93.5302 100.536C93.4487 100.699 93.3633 100.86 93.2739 101.02C93.1844 101.179 93.0912 101.336 92.9942 101.49C92.897 101.645 92.7962 101.797 92.6916 101.947C92.5872 102.096 92.4791 102.243 92.3673 102.388C92.2557 102.532 92.1405 102.674 92.0219 102.812C91.9032 102.951 91.7813 103.087 91.6559 103.219C91.5307 103.352 91.4023 103.482 91.2707 103.608C91.1391 103.734 91.0045 103.857 90.8669 103.977C90.7292 104.097 90.5887 104.213 90.4454 104.326C90.302 104.439 90.156 104.548 90.0073 104.654C89.8588 104.76 89.7076 104.862 89.5539 104.96C89.4003 105.058 89.2443 105.153 89.086 105.244C88.9277 105.334 88.7673 105.421 88.6047 105.504C88.4423 105.586 88.2778 105.665 88.1114 105.74C87.945 105.815 87.7769 105.885 87.607 105.952C87.4372 106.018 87.2659 106.08 87.0931 106.138C86.9202 106.196 86.746 106.25 86.5705 106.299C86.3951 106.349 86.2184 106.394 86.0407 106.435C85.8629 106.476 85.6843 106.512 85.5048 106.544C85.3253 106.576 85.1452 106.604 84.9643 106.627C84.7829 106.65 84.6009 106.669 84.4185 106.683C84.2361 106.698 84.0535 106.707 83.8705 106.713C83.6876 106.718 83.5047 106.719 83.3218 106.715C83.1389 106.711 82.9562 106.703 82.7736 106.691C82.5911 106.678 82.409 106.661 82.2273 106.639C82.0456 106.617 81.8646 106.591 81.6842 106.56C81.5038 106.53 81.3243 106.495 81.1455 106.455C80.9669 106.416 80.7893 106.372 80.6127 106.324C80.4362 106.276 80.261 106.223 80.087 106.166C79.9131 106.109 79.7406 106.048 79.5697 105.983C79.3988 105.918 79.2296 105.848 79.062 105.775C78.8945 105.701 78.7289 105.623 78.5651 105.541C78.4014 105.459 78.2399 105.374 78.0803 105.284C77.9208 105.194 77.7636 105.1 77.6087 105.003C77.4538 104.905 77.3013 104.804 77.1513 104.699C77.0014 104.594 76.8542 104.485 76.7097 104.373C76.565 104.261 76.4233 104.145 76.2844 104.025C76.1455 103.906 76.0095 103.784 75.8767 103.658C75.7437 103.531 75.614 103.402 75.4875 103.27C75.361 103.137 75.2377 103.002 75.1178 102.864C74.9979 102.725 74.8815 102.584 74.7686 102.44C74.6556 102.295 74.5462 102.149 74.4405 101.999C74.3347 101.849 74.2327 101.697 74.1344 101.543C74.0361 101.388 73.9417 101.231 73.8512 101.072C73.7606 100.913 73.674 100.751 73.5913 100.588C73.5087 100.424 73.4301 100.259 73.3556 100.091C73.281 99.9239 73.2106 99.7547 73.1444 99.5838C73.0782 99.413 73.0162 99.2406 72.9584 99.0667C72.9007 98.8928 72.8473 98.7175 72.7981 98.541C72.7489 98.3643 72.7041 98.1867 72.6637 98.0079C72.6233 97.8292 72.5872 97.6495 72.5556 97.4689C72.524 97.2885 72.4968 97.1073 72.4741 96.9253C72.4514 96.7434 72.4332 96.5611 72.4194 96.3783C72.4056 96.1955 72.3963 96.0125 72.3915 95.8293C72.3867 95.6461 72.3864 95.4629 72.3907 95.2797C72.395 95.0963 72.4037 94.9133 72.4169 94.7305C72.43 94.5477 72.4477 94.3653 72.4699 94.1833C72.492 94.0014 72.5186 93.8201 72.5497 93.6395C72.5807 93.4588 72.6161 93.2791 72.656 93.1002C72.696 92.9213 72.7403 92.7435 72.7888 92.5668C72.8374 92.3901 72.8903 92.2147 72.9476 92.0406C73.0048 91.8665 73.0663 91.6939 73.1319 91.5228C73.1976 91.3518 73.2674 91.1824 73.3415 91.0147C73.4155 90.8471 73.4935 90.6814 73.5757 90.5176C73.6579 90.3538 73.744 90.1922 73.8341 90.0326C73.9242 89.873 74.0181 89.7158 74.1158 89.5609C74.2137 89.4061 74.3153 89.2536 74.4205 89.1037C74.5258 88.9538 74.6347 88.8065 74.7473 88.6621C74.8598 88.5175 74.9758 88.3758 75.0952 88.237C75.2147 88.0981 75.3375 87.9623 75.4636 87.8295C75.5898 87.6968 75.7191 87.5672 75.8515 87.4408C75.984 87.3143 76.1195 87.1913 76.258 87.0715C76.3966 86.9518 76.538 86.8356 76.6823 86.7228C76.8265 86.6101 76.9734 86.501 77.123 86.3955C77.2727 86.2899 77.4248 86.1882 77.5794 86.0901C77.734 85.992 77.8909 85.8978 78.05 85.8075C78.2093 85.7172 78.3707 85.631 78.5341 85.5486C78.6976 85.4663 78.8629 85.3881 79.0302 85.3139C79.1976 85.2397 79.3666 85.1696 79.5374 85.1037C79.7082 85.0378 79.8804 84.9762 80.0541 84.9189C80.2279 84.8615 80.403 84.8084 80.5793 84.7596C80.7556 84.7109 80.9331 84.6665 81.1118 84.6265C81.2903 84.5865 81.4697 84.5509 81.6499 84.5198C81.8303 84.4886 82.0113 84.4619 82.1929 84.4396Z" fill="#B51111"/>
<path d="M82.5966 85.1992C83.6114 85.0675 84.7506 85.1814 85.7486 85.397C88.7543 86.0466 90.8531 87.8508 92.4804 90.3769C91.4008 90.7069 90.2294 90.8732 89.1263 91.1361C85.4391 92.0146 81.7261 92.7629 78.0313 93.6051C77.2809 93.7762 76.5297 93.9656 75.7746 94.1131C75.3506 94.196 74.8698 94.2075 74.4668 94.3646C74.2533 94.4477 74.2055 94.5304 74.1097 94.7305C74.1645 94.964 74.1483 94.9583 74.3475 95.0878C75.1745 95.1561 76.3275 94.7189 77.1544 94.5498C81.8302 93.5903 86.4871 92.5466 91.1251 91.4186L92.8601 91.0528C93.6266 92.8409 93.9309 94.5288 93.9945 96.4628C93.2903 96.6704 92.5376 96.7878 91.8208 96.9553C89.81 97.4302 87.7941 97.8821 85.7731 98.311L74.7307 100.822C73.872 99.5069 73.3556 97.9426 73.1835 96.3825C72.9098 93.9001 73.5609 91.0988 75.1455 89.1366C77.0738 86.7487 79.5814 85.5052 82.5966 85.1992Z" fill="#F4F4F4"/>
<path d="M93.5791 97.3374C93.7846 97.3134 93.6888 97.2963 93.8681 97.3819C93.9592 98.3305 92.9739 100.361 92.4613 101.176C91.0128 103.478 88.4524 105.153 85.8155 105.736C82.943 106.371 80.0825 105.606 77.6477 104.036C76.6995 103.324 75.9065 102.459 75.1353 101.564C78.9633 100.629 82.7975 99.7721 86.6394 98.8998C88.9537 98.3745 91.2485 97.7911 93.5791 97.3374Z" fill="#F4F4F4"/>
<path d="M7.72587 13.8374C7.86255 14.524 7.86173 15.2794 7.90368 15.9784C8.00234 17.6022 8.06483 19.2274 8.09116 20.8539L8.33468 30.6468C8.48282 38.0356 8.37253 45.4015 8.25569 52.7882C8.2098 59.5688 8.08646 66.348 7.88565 73.1258C7.65098 84.9198 7.32492 96.7113 6.90747 108.5C5.69167 108.068 4.47848 107.721 3.22089 107.435C2.78891 107.349 2.35005 107.285 1.91577 107.212C2.07735 105.167 2.12094 103.101 2.22222 101.051C2.47164 96.2917 2.69151 91.5313 2.88183 86.7696C3.61141 70.5823 3.96511 54.3868 3.94293 38.183C3.89552 33.469 3.78927 28.7563 3.62419 24.0449C3.52095 21.0907 3.3438 18.1326 3.30807 15.1772C4.84721 14.9109 6.27179 14.3892 7.72587 13.8374Z" fill="#F4F4F4"/>
<path d="M81.3584 1.62902C83.959 1.57419 86.5681 1.6016 89.1694 1.60128C90.9013 1.60095 92.7905 1.45384 94.4933 1.75396C94.6111 3.44841 94.5866 5.17948 94.6224 6.87886C94.69 11.4057 94.7267 15.9329 94.7326 20.4603C94.7411 32.9318 94.5494 45.4002 94.1574 57.8655L93.2621 79.7245L93.1576 79.8086C92.0209 79.8055 90.9154 80.1474 89.7804 80.2169C89.6696 78.6799 89.7956 77.0928 89.8182 75.55C89.852 73.2593 89.8282 70.9666 89.8345 68.6753L89.8253 44.3107L89.7161 23.7444L89.7315 17.6839C89.7291 16.5032 89.616 15.2292 89.7502 14.0592C89.9397 14.0794 90.0832 14.1 90.2707 14.0532L90.3072 13.877C90.1327 13.6447 89.9416 13.6153 89.6752 13.5096C89.699 11.1482 89.7002 8.7868 89.6788 6.42541C87.2929 6.29637 84.8472 6.40259 82.4557 6.40029C81.835 4.84883 81.5285 3.28834 81.3584 1.62902Z" fill="#F4F4F4"/>
<path d="M15.7656 1.11182L80.9689 1.6114C81.0687 3.25414 81.4141 4.73304 81.9162 6.29024C81.812 6.3922 81.6486 6.35887 81.5052 6.36445L15.1055 6.30256C15.698 4.60186 15.7888 2.89329 15.7656 1.11182Z" fill="#F4F4F4"/>
<path d="M66.1782 116.56C66.6023 116.521 67.0433 116.525 67.4697 116.509C67.0063 117.86 66.4684 119.188 66.0014 120.541C62.233 120.779 58.4551 120.804 54.6811 120.89L33.694 121.286L23.1778 121.552C21.6757 121.596 19.8211 121.811 18.3501 121.663C17.6604 121.593 17.0942 121.062 16.5712 120.646C15.4674 119.602 14.7104 118.45 14.0464 117.088C23.3351 117.157 32.6236 117.142 41.9119 117.045C49.9935 116.989 58.1044 116.932 66.1782 116.56Z" fill="#F4F4F4"/>
<path d="M71.0338 109.092C72.1039 109.9 73.7204 108.77 74.7579 109.457C75.701 110.082 75.3816 111.967 76.4075 112.628C77.5771 113.383 78.8597 111.929 79.9752 111.742C80.6542 111.628 82.0068 113.31 82.7943 113.826C81.1504 118.699 79.4546 123.555 77.7069 128.392L76.8162 127.138C75.5707 125.391 74.5488 123.362 73.0983 121.782C72.1463 121.976 71.1808 122.474 70.2785 122.841C68.6433 123.507 67.009 124.183 65.325 124.717C67.3841 119.568 69.0676 114.277 71.0338 109.092Z" fill="#F4F4F4"/>
<path d="M95.5649 109.383C95.9674 109.933 97.4242 114.442 97.7748 115.416C98.906 118.561 100.239 121.678 101.168 124.89C99.8678 124.338 94.1221 121.839 93.0043 121.802C92.5528 122.209 90.7495 126.378 90.3456 127.244L89.8862 128.229C89.1332 126.464 88.4895 124.647 87.8074 122.853L85.4401 116.703C85.0309 115.614 84.6975 114.497 84.251 113.422C84.7567 112.843 85.2585 112.276 85.8188 111.748C85.8275 111.751 85.8362 111.755 85.845 111.758C86.8394 112.118 87.9156 112.999 88.9542 113.082C90.6101 113.214 90.0612 110.375 91.0684 109.677C91.8187 109.158 93.295 109.849 94.138 109.9C94.7516 109.937 95.1169 109.792 95.5649 109.383Z" fill="#F4F4F4"/>
<path d="M1.86036 107.648C3.57583 107.987 5.22066 108.35 6.85059 109.007C6.78799 111.676 6.57888 114.351 6.58953 117.02L13.526 117.096C14.456 118.987 15.4871 120.372 17.1249 121.695L16.0774 121.726C12.954 121.836 9.83479 121.884 6.71064 121.95C5.10448 121.984 3.49536 122.079 1.88888 122.064C1.70386 121.947 1.51016 121.809 1.35496 121.653C1.1765 121.475 1.10276 121.249 1.08408 121.001C0.991485 119.767 1.22616 118.408 1.29466 117.165L1.86036 107.648Z" fill="#F4F4F4"/>
<path d="M3.14286 0.950022C4.48075 0.893545 5.86699 0.990901 7.20849 1.01044L15.2958 1.11026C15.3238 2.95592 15.1442 4.52084 14.5471 6.27982C12.108 6.28693 9.66921 6.26603 7.23061 6.2171C7.21209 6.68057 7.25208 7.15093 7.27289 7.61423C7.46364 9.51522 7.56295 11.4349 7.71618 13.3403C6.24587 13.9025 4.80113 14.3929 3.27871 14.7936L2.93014 8.46795C2.85935 7.35336 2.3315 2.31005 2.5275 1.61657C2.62336 1.27772 2.86967 1.1357 3.14286 0.950022Z" fill="#F4F4F4"/>
<path d="M7.35523 109.241C7.7877 109.414 8.22525 109.671 8.61577 109.924C10.7318 111.299 12.8376 113.971 13.3792 116.483L13.2923 116.604C11.2094 116.607 9.12647 116.594 7.0437 116.567C7.12979 114.124 7.23363 111.682 7.35523 109.241Z" fill="#F4F4F4"/>
<path d="M82.9166 6.89521L89.2161 6.87354C89.2667 7.89783 89.4083 12.6611 89.1969 13.3925L89.131 13.4197C87.9598 12.9704 86.8803 12.3718 85.9523 11.5194C85.1393 10.7727 82.7759 8.04263 82.7314 6.95004L82.9166 6.89521Z" fill="#F4F4F4"/>
<path d="M7.7495 6.73265C9.95856 6.66189 12.1811 6.74053 14.3905 6.77665C13.8049 8.18971 12.8761 9.54645 11.7953 10.6239C10.6772 11.6039 9.49708 12.4492 8.19852 13.1739C8.06873 12.0472 8.0235 10.9027 7.93877 9.77105C7.86372 8.76777 7.73622 7.73823 7.7495 6.73265Z" fill="#F4F4F4"/>
</svg>
