<svg width="72" height="80" viewBox="0 0 72 80" fill="none" xmlns="http://www.w3.org/2000/svg">
<g clip-path="url(#clip0_129_700)">
<path d="M24.3896 -0.0445786C24.6832 -0.0726802 24.9584 -0.0562003 25.2471 0.0628433L25.4629 0.156593C25.965 0.385958 26.4587 0.682216 26.9229 0.928078H26.9219C28.0998 1.55175 29.2747 2.18146 30.4463 2.81675H30.4473C32.6161 3.96884 34.8864 5.02948 37.0459 6.22202C37.6068 5.75113 38.2148 5.32018 38.7891 4.88609V4.88511L40.6094 3.52573C41.2177 3.07444 41.8281 2.62553 42.4395 2.17808L43.0928 1.68101C43.6418 1.25313 44.2035 0.802099 44.7822 0.417336L45.1309 0.194679C45.1725 0.168972 45.2156 0.145713 45.2598 0.124367L45.3965 0.0677261V0.0667496C45.443 0.0498572 45.491 0.035818 45.5391 0.0237808L45.6846 -0.00551605C45.7337 -0.0125764 45.7835 -0.0171863 45.833 -0.0191879L45.9814 -0.0172348L46.1289 -0.00063324L46.2725 0.0315933L46.2734 0.0306168C46.5434 0.102303 46.7352 0.29682 46.8857 0.464211L47.1191 0.739601C47.6593 1.41264 48.1694 2.27929 48.6191 2.94077L50.1064 5.11655C50.5781 5.81379 51.0416 6.51743 51.4795 7.23277C52.8637 6.77553 54.2685 6.39043 55.6582 5.97691L57.3877 5.44859C57.9721 5.27447 58.5621 5.113 59.1484 4.99351L59.3506 4.9564C59.8223 4.88229 60.2912 4.89959 60.7373 5.2103L60.8398 5.28843C61.0646 5.47742 61.1919 5.70913 61.2842 5.97788L61.3604 6.22007C61.43 6.4649 61.4825 6.71715 61.5293 6.96714C61.5926 7.30493 61.6442 7.6315 61.7119 7.94859L61.8857 8.73081C62.0648 9.51121 62.2565 10.2883 62.4385 11.0736L62.918 13.1732C63.3903 15.2737 63.8428 17.3785 64.2744 19.4876L65.0781 23.3334L65.2695 24.1722C65.3256 24.4131 65.3787 24.6558 65.4268 24.8968C65.6577 24.8894 65.8891 24.8836 66.1201 24.8802H66.1211L66.3477 24.8851C67.4723 24.9344 68.4602 25.3906 69.2646 26.1849L69.4082 26.3334C70.1055 27.0909 70.5023 28.0609 70.6738 29.0521L70.7129 29.3109C70.7933 29.9256 70.7999 30.6121 70.7832 31.2943C70.7687 31.8869 70.7374 32.4661 70.7197 33.0082L70.708 33.5365L70.6104 43.5785C71.0146 43.7371 71.388 43.9305 71.6768 44.3177L71.751 44.4251C71.9201 44.6821 72.0482 44.9903 72.0732 45.3031L72.0918 45.6478C72.1032 45.9949 72.093 46.3479 72.0771 46.6976C72.0559 47.1669 72.0247 47.6263 72.0176 48.0736L71.9326 54.1078C71.9162 55.0058 71.9055 55.904 71.9014 56.8021L71.9072 57.1869C71.9104 57.3185 71.9143 57.4546 71.915 57.5902C71.9161 57.7931 71.9102 58 71.8867 58.2005L71.8564 58.3988C71.7748 58.8293 71.4482 59.1955 71.0928 59.4896C70.7613 59.7638 70.3801 59.9944 70.0889 60.1712L70.0264 67.4867C70.0239 67.7933 70.0294 68.1378 70.0342 68.5023C70.039 68.8663 70.0437 69.2498 70.041 69.6312C70.0363 70.2965 70.009 70.9645 69.917 71.5218L69.873 71.7533C69.7044 72.5454 69.2749 73.3447 68.7969 73.9828C68.788 74.3746 68.799 74.8014 68.7783 75.2035V75.2044L68.7588 75.4486L68.7266 75.6917L68.6826 75.933L68.626 76.1722C68.6053 76.2511 68.5832 76.3297 68.5586 76.4076H68.5576L68.4785 76.639L68.3867 76.8675L68.2842 77.0902L68.1709 77.308L68.0459 77.5209L67.9111 77.7259L67.7666 77.9251C67.7167 77.9901 67.6644 78.0531 67.6113 78.1156L67.6123 78.1166L67.4473 78.3001L67.2744 78.4759L67.0928 78.6429C65.3515 80.1589 63.2347 80.1591 61.1533 80.0375L60.2646 79.9818L56.8242 79.7757V79.7748L22.71 77.8626L9.73145 77.1351H9.73047C8.72218 77.0735 7.71335 77.0214 6.7041 76.9779H6.70312C6.26637 76.9576 5.80872 76.9506 5.35645 76.9164L4.90625 76.8714C4.3124 76.7957 3.71648 76.6062 3.19727 76.2943L2.97949 76.1527C2.18233 75.5945 1.63878 74.7957 1.43555 73.8587L1.39941 73.6693C1.33378 73.2713 1.30292 72.8583 1.28516 72.4466L1.25098 71.2328C1.22284 70.3589 1.19008 69.4852 1.15234 68.6117V68.6107C0.990619 64.447 0.860753 60.2822 0.762695 56.1166L0.597656 51.3685C0.492167 48.2031 0.39645 45.0374 0.30957 41.8714L0.185547 37.1224L0.0361328 31.2132C0.000234124 29.9322 -0.0818737 28.6144 -0.0478516 27.3216L-0.0390625 27.1605C-0.00796153 26.7885 0.101197 26.4356 0.345703 26.1175L0.46582 25.9808C0.776775 25.6713 1.28484 25.4277 1.87598 25.2298C2.55926 25.0012 3.38543 24.8243 4.22754 24.6849C5.91102 24.4063 7.68241 24.2739 8.53809 24.1878L9.94727 24.0345C10.3915 23.9841 10.8355 23.9314 11.2793 23.8773C11.8846 22.8421 12.4226 21.7562 12.9717 20.6751L13.5391 19.5755L19.8271 7.46519C20.9009 5.36263 21.9011 3.17158 23.0596 1.10093L23.1768 0.902687C23.4541 0.455825 23.7782 0.127095 24.3633 -0.0396957L24.376 -0.043602L24.3896 -0.0445786Z" fill="#B51111" stroke="#B51111" stroke-width="0.3"/>
<path d="M11.0046 24.6698C11.041 24.6794 11.0147 24.6698 11.0639 24.7289C11.0386 24.7837 11.0101 24.8565 10.9735 24.9065C10.8325 25.0992 8.98983 25.1612 8.60794 25.2557C8.49322 25.2842 8.43898 25.3081 8.37322 25.4079L8.40634 25.4954C8.88337 25.6351 10.1865 25.4113 10.7249 25.3376C10.3517 25.9647 9.95809 26.5803 9.70129 27.265C7.91876 27.2544 6.12336 27.2298 4.34343 27.137C3.97325 27.1177 2.46567 27.0665 2.26224 26.8428L2.29066 26.7463C2.87156 26.2945 4.07271 26.2459 4.7786 26.0421C4.89629 26.0082 5.00564 25.9667 5.06612 25.8556C5.00324 25.7733 4.9488 25.759 4.84839 25.7435C4.28861 25.6574 2.28557 26.0972 1.85885 26.4394C1.70794 26.5604 1.60157 26.7094 1.58602 26.9048C1.5745 27.0502 1.61636 27.1974 1.72042 27.3042C2.06669 27.6599 3.64609 27.6993 4.17754 27.7356C6.06913 27.8647 7.95668 27.875 9.85008 27.9301L22.2274 28.212L63.6481 28.968C65.0044 29.0051 66.2528 29.393 67.196 30.3921C67.2611 30.4611 67.3239 30.5322 67.3842 30.6053C67.4446 30.6784 67.5025 30.7534 67.5578 30.8303C67.6131 30.9073 67.6657 30.986 67.7157 31.0664C67.7657 31.1467 67.8129 31.2287 67.8574 31.3121C67.9019 31.3957 67.9435 31.4805 67.9822 31.5667C68.0209 31.653 68.0567 31.7404 68.0895 31.829C68.1224 31.9176 68.1522 32.0071 68.179 32.0976C68.2058 32.1882 68.2295 32.2795 68.2502 32.3717C68.5379 33.7139 68.4266 35.7543 68.4371 37.1585C68.4607 40.3461 68.4809 43.5511 68.3684 46.737C67.3988 47.0158 66.3894 47.1622 65.3923 47.3074C64.0124 47.5057 62.6267 47.6488 61.2351 47.7367C59.8436 47.8247 58.4507 47.8571 57.0565 47.8341C56.3199 47.8215 55.5839 47.8172 54.8479 47.7846C54.1632 47.7543 53.4107 47.6501 52.7322 47.7382C51.9573 47.8389 51.0996 48.1942 50.4613 48.6358C50.3752 48.6962 50.2906 48.7585 50.2076 48.8228C50.1245 48.8872 50.0431 48.9535 49.9634 49.0217C49.8836 49.09 49.8055 49.1601 49.7292 49.232C49.6528 49.304 49.5782 49.3777 49.5055 49.4532C49.4327 49.5287 49.3618 49.6059 49.2928 49.6848C49.2239 49.7637 49.1569 49.8442 49.0918 49.9263C49.0268 50.0083 48.9638 50.0919 48.9029 50.1771C48.8419 50.2621 48.783 50.3486 48.7263 50.4365C48.6696 50.5244 48.6151 50.6136 48.5628 50.7041C48.5103 50.7946 48.4602 50.8863 48.4123 50.9792C48.3645 51.072 48.3189 51.166 48.2756 51.261C48.2324 51.3562 48.1914 51.4522 48.1528 51.5492C48.1142 51.6462 48.0781 51.7441 48.0443 51.8429C48.0105 51.9416 47.9791 52.041 47.9502 52.1412C47.9212 52.2415 47.8948 52.3423 47.8708 52.4439C47.8468 52.5454 47.8253 52.6474 47.8063 52.7499C47.7589 53.016 47.63 53.6164 47.7871 53.8381L47.8503 53.7964C47.8583 53.6265 47.8732 53.4573 47.8949 53.2886C47.9165 53.1199 47.945 52.9523 47.9802 52.7859C48.0154 52.6194 48.0573 52.4547 48.1059 52.2916C48.1544 52.1284 48.2094 51.9674 48.271 51.8086C48.9586 50.0629 50.4798 48.5251 52.3403 48.0301C53.2586 47.7857 55.1334 48.0392 56.1548 48.0705C59.3846 48.1695 62.6041 48.0717 65.8057 47.6181C67.0131 47.447 68.2877 47.2588 69.4094 46.7692C69.9077 46.5517 70.5354 46.1813 70.7204 45.6484C70.8093 45.3925 70.9041 44.9202 70.7902 44.6736L70.7139 44.6469C70.6576 44.7283 70.6704 44.7049 70.6314 44.7748C70.624 44.7882 70.6169 44.8016 70.6096 44.8151L70.5188 44.7872C70.4159 44.6342 70.3152 44.4734 70.3487 44.2887L70.4501 44.2313C70.7178 44.238 70.9215 44.3753 71.1061 44.5611C71.3042 44.7605 71.4315 45.0073 71.4627 45.285C71.519 45.7865 71.4493 46.3173 71.4312 46.8207C71.4097 47.4197 71.4159 48.0204 71.4139 48.6198C71.3994 50.6343 71.371 52.6486 71.3288 54.6628C71.3112 55.7155 71.3418 56.7846 71.2865 57.8354C71.2589 58.3616 71.073 58.7285 70.6703 59.0753C69.6895 59.9198 68.2638 60.265 67.0122 60.468C65.3434 60.7384 63.6117 60.7453 61.9248 60.7353C59.7972 60.7272 57.6726 60.6428 55.5512 60.482C54.6215 60.423 53.6064 60.417 52.701 60.2002C52.6336 60.1836 52.5665 60.1659 52.4997 60.1471C52.433 60.1283 52.3665 60.1083 52.3004 60.0873C52.2343 60.0663 52.1686 60.0441 52.1032 60.0209C52.0379 59.9977 51.973 59.9733 51.9085 59.9479C51.8439 59.9225 51.7799 59.896 51.7164 59.8684C51.6527 59.8409 51.5896 59.8123 51.5271 59.7827C51.4644 59.753 51.4023 59.7222 51.3407 59.6905C51.2792 59.6587 51.2182 59.6259 51.1577 59.5921C51.0973 59.5584 51.0375 59.5236 50.9782 59.4878C50.919 59.452 50.8604 59.4152 50.8024 59.3774C50.7445 59.3397 50.6871 59.301 50.6305 59.2613C50.5738 59.2216 50.5178 59.181 50.4626 59.1395C50.4074 59.0979 50.3528 59.0555 50.299 59.0121C50.2452 58.9688 50.1922 58.9245 50.1399 58.8793C50.0877 58.8342 50.0362 58.7882 49.9855 58.7413C49.9347 58.6945 49.8848 58.6468 49.8358 58.5983C49.7867 58.5497 49.7385 58.5004 49.6911 58.4502C49.6438 58.4001 49.5973 58.3491 49.5517 58.2974C49.506 58.2458 49.4613 58.1933 49.4175 58.1401C49.3737 58.0869 49.3308 58.033 49.2888 57.9783C49.2468 57.9236 49.2058 57.8683 49.1657 57.8123C49.1257 57.7563 49.0866 57.6997 49.0485 57.6423C49.0104 57.585 48.9732 57.527 48.9371 57.4684C48.901 57.4099 48.8659 57.3508 48.8318 57.291C48.7976 57.2313 48.7646 57.171 48.7326 57.1101C48.7005 57.0493 48.6695 56.9879 48.6396 56.9261C48.6097 56.8642 48.5808 56.8018 48.5531 56.739C48.5253 56.6762 48.4986 56.6129 48.4729 56.5491C48.4473 56.4853 48.4228 56.4212 48.3994 56.3566C48.376 56.2921 48.3537 56.2271 48.3326 56.1618C48.3114 56.0965 48.2913 56.0309 48.2724 55.9649C48.2534 55.8989 48.2356 55.8326 48.219 55.7661C48.1633 55.5406 48.0906 54.7565 47.9341 54.6252C47.9221 54.6354 47.9086 54.644 47.8981 54.6556C47.8147 54.748 47.7887 54.9138 47.7929 55.0343C47.8367 56.2812 48.8941 58.0719 49.8001 58.9152C50.5738 59.6352 51.6705 60.2114 52.6989 60.471C53.5363 60.6825 54.4934 60.6758 55.3538 60.7387C58.5309 60.9768 61.7124 61.0714 64.8982 61.0224C64.8354 61.4477 64.8695 61.8032 64.8872 62.2273C64.8968 62.4601 64.8637 62.6947 64.8687 62.9287C64.8714 63.0537 64.8749 63.2131 64.971 63.3009L65.0313 63.2427C65.2228 62.7169 65.0667 62.2341 65.0843 61.7049C65.0914 61.491 65.167 61.3376 65.1204 61.1158C65.116 61.0955 65.111 61.0752 65.1064 61.0549C65.3414 60.9174 66.2103 60.9474 66.5523 60.9062C67.0944 60.8407 67.6322 60.7457 68.1698 60.6514C68.0462 64.2173 68.1278 67.8049 68.11 71.3733C68.1038 72.6099 68.2122 74.1904 68.0918 75.3804C67.9778 76.5058 67.4354 77.575 66.541 78.2921C65.5789 79.0636 64.332 79.466 63.1018 79.5182C62.0957 79.5609 61.0593 79.4119 60.0553 79.3381L55.6927 79.0586L40.9548 78.199L14.0424 76.7039L7.59524 76.3493C6.7417 76.3028 5.85927 76.3179 5.01264 76.226C4.95152 76.219 4.89063 76.2106 4.82996 76.2006C4.76928 76.1907 4.70887 76.1792 4.64871 76.1663C4.58861 76.1533 4.5289 76.1389 4.46957 76.123C4.41018 76.1072 4.35124 76.0899 4.29274 76.0711C4.23425 76.0523 4.17626 76.032 4.11879 76.0104C4.06125 75.9888 4.00436 75.9657 3.9481 75.9412C3.89178 75.9168 3.8361 75.891 3.78106 75.8638C3.72608 75.8366 3.67181 75.8081 3.61824 75.7782C3.56468 75.7483 3.51191 75.7171 3.45994 75.6847C3.40791 75.6522 3.35677 75.6184 3.30653 75.5834C3.25623 75.5484 3.20685 75.5122 3.15841 75.4748C3.10996 75.4374 3.0625 75.3988 3.01604 75.359C2.96951 75.3192 2.92404 75.2783 2.87962 75.2363C2.8352 75.1943 2.79188 75.1512 2.74964 75.107C2.7074 75.0629 2.66628 75.0178 2.62628 74.9716C2.58634 74.9254 2.54759 74.8782 2.51002 74.8301C2.10154 74.3067 1.90052 73.3172 1.99105 72.6702L2.02445 72.6877C2.05258 72.7784 2.0833 72.8786 2.14445 72.9536C2.54967 73.4506 3.4584 73.8683 4.08346 73.974C4.21248 73.9958 4.41581 73.9597 4.53111 74.0059C4.64948 74.0533 4.65936 74.118 4.8049 74.14C4.91674 74.0799 4.92077 74.0744 4.97607 73.9609C4.82372 73.7166 4.06397 73.7395 3.77069 73.6713C3.09149 73.5132 2.46874 72.9531 1.97453 72.4905L0.657605 28.8931C0.761957 28.9588 0.860932 29.0136 0.97402 29.0645L1.05149 29.0317C1.0464 28.9905 1.04698 28.9698 1.02509 28.9295C0.942821 28.7784 0.781156 28.7265 0.630148 28.6654C0.621316 28.046 0.486724 27.0225 0.935524 26.5297C1.87421 25.4989 6.32497 25.1657 7.77197 25.0074C8.84813 24.8897 9.92544 24.7565 11.0046 24.6698Z" fill="white"/>
<mask id="path-3-outside-1_129_700" maskUnits="userSpaceOnUse" x="49.7529" y="49.7499" width="8" height="8" fill="black">
<rect fill="white" x="49.7529" y="49.7499" width="8" height="8"/>
<path d="M53.8373 50.7557C53.891 50.7525 53.9448 50.7506 53.9986 50.7501C54.0524 50.7495 54.1062 50.7502 54.16 50.7522C54.2137 50.7542 54.2674 50.7576 54.321 50.7622C54.3746 50.7669 54.4281 50.7728 54.4813 50.78C54.5346 50.7873 54.5877 50.7958 54.6407 50.8056C54.6935 50.8154 54.7461 50.8264 54.7984 50.8388C54.8507 50.8512 54.9027 50.8648 54.9544 50.8797C55.006 50.8946 55.0573 50.9107 55.1081 50.9281C55.159 50.9454 55.2094 50.964 55.2593 50.9839C55.3092 51.0037 55.3586 51.0247 55.4074 51.0469C55.4563 51.0692 55.5046 51.0925 55.5523 51.1171C55.6 51.1416 55.6471 51.1674 55.6935 51.1942C55.74 51.2211 55.7857 51.249 55.8307 51.2781C55.8757 51.3072 55.92 51.3373 55.9635 51.3685C56.0071 51.3997 56.0498 51.432 56.0917 51.4653C56.1336 51.4986 56.1747 51.5329 56.215 51.5682C56.2552 51.6035 56.2945 51.6397 56.3329 51.6769C56.3713 51.7141 56.4088 51.7522 56.4453 51.7912C56.4818 51.8302 56.5173 51.8701 56.5518 51.9109C56.5864 51.9516 56.6199 51.9931 56.6523 52.0355C56.6848 52.0779 56.7162 52.121 56.7464 52.1649C56.7768 52.2089 56.806 52.2535 56.8341 52.2988C56.8622 52.3441 56.8891 52.39 56.9149 52.4366C56.9407 52.4832 56.9653 52.5305 56.9887 52.5783C57.0122 52.6261 57.0345 52.6745 57.0554 52.7233C57.0765 52.7722 57.0963 52.8216 57.1149 52.8715C57.1334 52.9213 57.1508 52.9716 57.1669 53.0223C57.183 53.073 57.1977 53.1241 57.2113 53.1754C57.2248 53.2269 57.237 53.2786 57.248 53.3306C57.259 53.3826 57.2686 53.4349 57.2769 53.4873C57.2853 53.5398 57.2923 53.5925 57.298 53.6453C57.3038 53.6981 57.3082 53.7511 57.3113 53.8041C57.3144 53.8571 57.3161 53.9102 57.3166 53.9633C57.317 54.0165 57.3161 54.0696 57.314 54.1227C57.3118 54.1757 57.3083 54.2287 57.3034 54.2816C57.2986 54.3345 57.2924 54.3873 57.285 54.4399C57.2775 54.4925 57.2687 54.5449 57.2587 54.5971C57.2486 54.6493 57.2372 54.7012 57.2245 54.7528C57.2119 54.8044 57.198 54.8557 57.1827 54.9066C57.1675 54.9576 57.151 55.0082 57.1333 55.0583C57.1156 55.1085 57.0966 55.1582 57.0764 55.2074C57.0562 55.2566 57.0348 55.3053 57.0122 55.3536C56.9895 55.4018 56.9657 55.4494 56.9406 55.4964C56.9157 55.5434 56.8895 55.5898 56.8622 55.6356C56.8349 55.6814 56.8064 55.7264 56.7769 55.7708C56.7473 55.8152 56.7166 55.8589 56.6849 55.9017C56.6531 55.9446 56.6204 55.9867 56.5866 56.0281C56.5527 56.0694 56.5179 56.1099 56.482 56.1495C56.4462 56.1891 56.4094 56.2278 56.3715 56.2656C56.3338 56.3034 56.2951 56.3403 56.2555 56.3762C56.2159 56.4122 56.1754 56.4471 56.134 56.4811C56.0927 56.5151 56.0505 56.5481 56.0075 56.58C55.9645 56.6119 55.9207 56.6428 55.8762 56.6726C55.8316 56.7024 55.7864 56.7312 55.7404 56.7588C55.6945 56.7864 55.6479 56.8129 55.6006 56.8382C55.5533 56.8635 55.5054 56.8877 55.4569 56.9107C55.4084 56.9337 55.3594 56.9555 55.3098 56.9762C55.2602 56.9969 55.2101 57.0163 55.1596 57.0345C55.1091 57.0527 55.0581 57.0697 55.0067 57.0854C54.9553 57.1011 54.9036 57.1156 54.8515 57.1288C54.7993 57.142 54.7469 57.154 54.6942 57.1646C54.6415 57.1753 54.5885 57.1847 54.5354 57.1928C54.4822 57.2009 54.4289 57.2077 54.3754 57.2133C54.3218 57.2188 54.2682 57.223 54.2145 57.2259C54.1609 57.2288 54.1074 57.2304 54.0538 57.2307C54.0002 57.231 53.9466 57.23 53.893 57.2277C53.8394 57.2254 53.786 57.2218 53.7326 57.217C53.6792 57.2121 53.6259 57.2059 53.5729 57.1985C53.5198 57.191 53.4669 57.1823 53.4143 57.1723C53.3616 57.1623 53.3092 57.151 53.2571 57.1385C53.205 57.1259 53.1533 57.1121 53.1019 57.0971C53.0505 57.082 52.9995 57.0658 52.9489 57.0482C52.8983 57.0307 52.8482 57.0119 52.7985 56.992C52.7489 56.9721 52.6997 56.9509 52.6511 56.9286C52.6024 56.9063 52.5544 56.8828 52.507 56.8582C52.4595 56.8336 52.4127 56.8078 52.3665 56.7809C52.3203 56.7539 52.2748 56.7259 52.2301 56.6968C52.1853 56.6676 52.1413 56.6375 52.098 56.6063C52.0547 56.575 52.0122 56.5428 51.9705 56.5095C51.9289 56.4762 51.888 56.4419 51.848 56.4065C51.808 56.3713 51.7689 56.3351 51.7308 56.2979C51.6926 56.2608 51.6553 56.2227 51.6191 56.1837C51.5828 56.1448 51.5475 56.105 51.5132 56.0643C51.4789 56.0236 51.4456 55.9821 51.4132 55.9398C51.381 55.8975 51.3499 55.8545 51.3197 55.8107C51.2896 55.7669 51.2606 55.7224 51.2327 55.6772C51.2048 55.632 51.178 55.5861 51.1523 55.5396C51.1267 55.4931 51.1023 55.446 51.079 55.3984C51.0557 55.3507 51.0336 55.3025 51.0126 55.2537C50.9917 55.205 50.972 55.1557 50.9536 55.1061C50.9352 55.0563 50.9179 55.0062 50.9019 54.9556C50.8859 54.9051 50.8712 54.8543 50.8578 54.803C50.8443 54.7518 50.8322 54.7002 50.8213 54.6483C50.8104 54.5965 50.8008 54.5445 50.7925 54.4921C50.7842 54.4399 50.7772 54.3874 50.7715 54.3348C50.7658 54.2821 50.7614 54.2293 50.7583 54.1765C50.7553 54.1237 50.7535 54.0708 50.753 54.0178C50.7526 53.9649 50.7535 53.9119 50.7556 53.8591C50.7578 53.8062 50.7613 53.7534 50.766 53.7007C50.7708 53.6479 50.7769 53.5953 50.7843 53.5428C50.7918 53.4905 50.8005 53.4382 50.8105 53.3862C50.8204 53.3342 50.8317 53.2824 50.8442 53.231C50.8569 53.1795 50.8707 53.1284 50.8858 53.0776C50.9009 53.0268 50.9173 52.9764 50.9349 52.9264C50.9525 52.8764 50.9713 52.8268 50.9913 52.7777C51.0114 52.7286 51.0327 52.6801 51.0552 52.632C51.0776 52.584 51.1013 52.5364 51.1261 52.4895C51.1509 52.4426 51.1769 52.3963 51.2041 52.3506C51.2312 52.305 51.2594 52.26 51.2888 52.2157C51.3182 52.1714 51.3486 52.1279 51.3801 52.085C51.4117 52.0422 51.4442 52.0002 51.4778 51.959C51.5114 51.9177 51.5461 51.8773 51.5817 51.8377C51.6173 51.7982 51.6539 51.7595 51.6914 51.7216C51.729 51.6838 51.7674 51.6469 51.8067 51.611C51.8462 51.5751 51.8864 51.5402 51.9275 51.5062C51.9686 51.4722 52.0105 51.4392 52.0533 51.4072C52.096 51.3752 52.1395 51.3443 52.1838 51.3145C52.2281 51.2846 52.273 51.2558 52.3187 51.2281C52.3645 51.2005 52.4108 51.1739 52.4578 51.1484C52.5049 51.123 52.5525 51.0988 52.6008 51.0756C52.6489 51.0525 52.6977 51.0306 52.7471 51.0098C52.7963 50.989 52.8461 50.9694 52.8964 50.9511C52.9467 50.9327 52.9975 50.9155 53.0486 50.8996C53.0997 50.8837 53.1512 50.869 53.2031 50.8556C53.255 50.8422 53.3072 50.8301 53.3596 50.8192C53.4121 50.8083 53.4648 50.7987 53.5177 50.7903C53.5707 50.782 53.6238 50.7749 53.6771 50.7692C53.7304 50.7634 53.7838 50.7589 53.8373 50.7557Z"/>
</mask>
<path d="M53.8373 50.7557C53.891 50.7525 53.9448 50.7506 53.9986 50.7501C54.0524 50.7495 54.1062 50.7502 54.16 50.7522C54.2137 50.7542 54.2674 50.7576 54.321 50.7622C54.3746 50.7669 54.4281 50.7728 54.4813 50.78C54.5346 50.7873 54.5877 50.7958 54.6407 50.8056C54.6935 50.8154 54.7461 50.8264 54.7984 50.8388C54.8507 50.8512 54.9027 50.8648 54.9544 50.8797C55.006 50.8946 55.0573 50.9107 55.1081 50.9281C55.159 50.9454 55.2094 50.964 55.2593 50.9839C55.3092 51.0037 55.3586 51.0247 55.4074 51.0469C55.4563 51.0692 55.5046 51.0925 55.5523 51.1171C55.6 51.1416 55.6471 51.1674 55.6935 51.1942C55.74 51.2211 55.7857 51.249 55.8307 51.2781C55.8757 51.3072 55.92 51.3373 55.9635 51.3685C56.0071 51.3997 56.0498 51.432 56.0917 51.4653C56.1336 51.4986 56.1747 51.5329 56.215 51.5682C56.2552 51.6035 56.2945 51.6397 56.3329 51.6769C56.3713 51.7141 56.4088 51.7522 56.4453 51.7912C56.4818 51.8302 56.5173 51.8701 56.5518 51.9109C56.5864 51.9516 56.6199 51.9931 56.6523 52.0355C56.6848 52.0779 56.7162 52.121 56.7464 52.1649C56.7768 52.2089 56.806 52.2535 56.8341 52.2988C56.8622 52.3441 56.8891 52.39 56.9149 52.4366C56.9407 52.4832 56.9653 52.5305 56.9887 52.5783C57.0122 52.6261 57.0345 52.6745 57.0554 52.7233C57.0765 52.7722 57.0963 52.8216 57.1149 52.8715C57.1334 52.9213 57.1508 52.9716 57.1669 53.0223C57.183 53.073 57.1977 53.1241 57.2113 53.1754C57.2248 53.2269 57.237 53.2786 57.248 53.3306C57.259 53.3826 57.2686 53.4349 57.2769 53.4873C57.2853 53.5398 57.2923 53.5925 57.298 53.6453C57.3038 53.6981 57.3082 53.7511 57.3113 53.8041C57.3144 53.8571 57.3161 53.9102 57.3166 53.9633C57.317 54.0165 57.3161 54.0696 57.314 54.1227C57.3118 54.1757 57.3083 54.2287 57.3034 54.2816C57.2986 54.3345 57.2924 54.3873 57.285 54.4399C57.2775 54.4925 57.2687 54.5449 57.2587 54.5971C57.2486 54.6493 57.2372 54.7012 57.2245 54.7528C57.2119 54.8044 57.198 54.8557 57.1827 54.9066C57.1675 54.9576 57.151 55.0082 57.1333 55.0583C57.1156 55.1085 57.0966 55.1582 57.0764 55.2074C57.0562 55.2566 57.0348 55.3053 57.0122 55.3536C56.9895 55.4018 56.9657 55.4494 56.9406 55.4964C56.9157 55.5434 56.8895 55.5898 56.8622 55.6356C56.8349 55.6814 56.8064 55.7264 56.7769 55.7708C56.7473 55.8152 56.7166 55.8589 56.6849 55.9017C56.6531 55.9446 56.6204 55.9867 56.5866 56.0281C56.5527 56.0694 56.5179 56.1099 56.482 56.1495C56.4462 56.1891 56.4094 56.2278 56.3715 56.2656C56.3338 56.3034 56.2951 56.3403 56.2555 56.3762C56.2159 56.4122 56.1754 56.4471 56.134 56.4811C56.0927 56.5151 56.0505 56.5481 56.0075 56.58C55.9645 56.6119 55.9207 56.6428 55.8762 56.6726C55.8316 56.7024 55.7864 56.7312 55.7404 56.7588C55.6945 56.7864 55.6479 56.8129 55.6006 56.8382C55.5533 56.8635 55.5054 56.8877 55.4569 56.9107C55.4084 56.9337 55.3594 56.9555 55.3098 56.9762C55.2602 56.9969 55.2101 57.0163 55.1596 57.0345C55.1091 57.0527 55.0581 57.0697 55.0067 57.0854C54.9553 57.1011 54.9036 57.1156 54.8515 57.1288C54.7993 57.142 54.7469 57.154 54.6942 57.1646C54.6415 57.1753 54.5885 57.1847 54.5354 57.1928C54.4822 57.2009 54.4289 57.2077 54.3754 57.2133C54.3218 57.2188 54.2682 57.223 54.2145 57.2259C54.1609 57.2288 54.1074 57.2304 54.0538 57.2307C54.0002 57.231 53.9466 57.23 53.893 57.2277C53.8394 57.2254 53.786 57.2218 53.7326 57.217C53.6792 57.2121 53.6259 57.2059 53.5729 57.1985C53.5198 57.191 53.4669 57.1823 53.4143 57.1723C53.3616 57.1623 53.3092 57.151 53.2571 57.1385C53.205 57.1259 53.1533 57.1121 53.1019 57.0971C53.0505 57.082 52.9995 57.0658 52.9489 57.0482C52.8983 57.0307 52.8482 57.0119 52.7985 56.992C52.7489 56.9721 52.6997 56.9509 52.6511 56.9286C52.6024 56.9063 52.5544 56.8828 52.507 56.8582C52.4595 56.8336 52.4127 56.8078 52.3665 56.7809C52.3203 56.7539 52.2748 56.7259 52.2301 56.6968C52.1853 56.6676 52.1413 56.6375 52.098 56.6063C52.0547 56.575 52.0122 56.5428 51.9705 56.5095C51.9289 56.4762 51.888 56.4419 51.848 56.4065C51.808 56.3713 51.7689 56.3351 51.7308 56.2979C51.6926 56.2608 51.6553 56.2227 51.6191 56.1837C51.5828 56.1448 51.5475 56.105 51.5132 56.0643C51.4789 56.0236 51.4456 55.9821 51.4132 55.9398C51.381 55.8975 51.3499 55.8545 51.3197 55.8107C51.2896 55.7669 51.2606 55.7224 51.2327 55.6772C51.2048 55.632 51.178 55.5861 51.1523 55.5396C51.1267 55.4931 51.1023 55.446 51.079 55.3984C51.0557 55.3507 51.0336 55.3025 51.0126 55.2537C50.9917 55.205 50.972 55.1557 50.9536 55.1061C50.9352 55.0563 50.9179 55.0062 50.9019 54.9556C50.8859 54.9051 50.8712 54.8543 50.8578 54.803C50.8443 54.7518 50.8322 54.7002 50.8213 54.6483C50.8104 54.5965 50.8008 54.5445 50.7925 54.4921C50.7842 54.4399 50.7772 54.3874 50.7715 54.3348C50.7658 54.2821 50.7614 54.2293 50.7583 54.1765C50.7553 54.1237 50.7535 54.0708 50.753 54.0178C50.7526 53.9649 50.7535 53.9119 50.7556 53.8591C50.7578 53.8062 50.7613 53.7534 50.766 53.7007C50.7708 53.6479 50.7769 53.5953 50.7843 53.5428C50.7918 53.4905 50.8005 53.4382 50.8105 53.3862C50.8204 53.3342 50.8317 53.2824 50.8442 53.231C50.8569 53.1795 50.8707 53.1284 50.8858 53.0776C50.9009 53.0268 50.9173 52.9764 50.9349 52.9264C50.9525 52.8764 50.9713 52.8268 50.9913 52.7777C51.0114 52.7286 51.0327 52.6801 51.0552 52.632C51.0776 52.584 51.1013 52.5364 51.1261 52.4895C51.1509 52.4426 51.1769 52.3963 51.2041 52.3506C51.2312 52.305 51.2594 52.26 51.2888 52.2157C51.3182 52.1714 51.3486 52.1279 51.3801 52.085C51.4117 52.0422 51.4442 52.0002 51.4778 51.959C51.5114 51.9177 51.5461 51.8773 51.5817 51.8377C51.6173 51.7982 51.6539 51.7595 51.6914 51.7216C51.729 51.6838 51.7674 51.6469 51.8067 51.611C51.8462 51.5751 51.8864 51.5402 51.9275 51.5062C51.9686 51.4722 52.0105 51.4392 52.0533 51.4072C52.096 51.3752 52.1395 51.3443 52.1838 51.3145C52.2281 51.2846 52.273 51.2558 52.3187 51.2281C52.3645 51.2005 52.4108 51.1739 52.4578 51.1484C52.5049 51.123 52.5525 51.0988 52.6008 51.0756C52.6489 51.0525 52.6977 51.0306 52.7471 51.0098C52.7963 50.989 52.8461 50.9694 52.8964 50.9511C52.9467 50.9327 52.9975 50.9155 53.0486 50.8996C53.0997 50.8837 53.1512 50.869 53.2031 50.8556C53.255 50.8422 53.3072 50.8301 53.3596 50.8192C53.4121 50.8083 53.4648 50.7987 53.5177 50.7903C53.5707 50.782 53.6238 50.7749 53.6771 50.7692C53.7304 50.7634 53.7838 50.7589 53.8373 50.7557Z" fill="#B51111"/>
<path d="M53.8373 50.7557C53.891 50.7525 53.9448 50.7506 53.9986 50.7501C54.0524 50.7495 54.1062 50.7502 54.16 50.7522C54.2137 50.7542 54.2674 50.7576 54.321 50.7622C54.3746 50.7669 54.4281 50.7728 54.4813 50.78C54.5346 50.7873 54.5877 50.7958 54.6407 50.8056C54.6935 50.8154 54.7461 50.8264 54.7984 50.8388C54.8507 50.8512 54.9027 50.8648 54.9544 50.8797C55.006 50.8946 55.0573 50.9107 55.1081 50.9281C55.159 50.9454 55.2094 50.964 55.2593 50.9839C55.3092 51.0037 55.3586 51.0247 55.4074 51.0469C55.4563 51.0692 55.5046 51.0925 55.5523 51.1171C55.6 51.1416 55.6471 51.1674 55.6935 51.1942C55.74 51.2211 55.7857 51.249 55.8307 51.2781C55.8757 51.3072 55.92 51.3373 55.9635 51.3685C56.0071 51.3997 56.0498 51.432 56.0917 51.4653C56.1336 51.4986 56.1747 51.5329 56.215 51.5682C56.2552 51.6035 56.2945 51.6397 56.3329 51.6769C56.3713 51.7141 56.4088 51.7522 56.4453 51.7912C56.4818 51.8302 56.5173 51.8701 56.5518 51.9109C56.5864 51.9516 56.6199 51.9931 56.6523 52.0355C56.6848 52.0779 56.7162 52.121 56.7464 52.1649C56.7768 52.2089 56.806 52.2535 56.8341 52.2988C56.8622 52.3441 56.8891 52.39 56.9149 52.4366C56.9407 52.4832 56.9653 52.5305 56.9887 52.5783C57.0122 52.6261 57.0345 52.6745 57.0554 52.7233C57.0765 52.7722 57.0963 52.8216 57.1149 52.8715C57.1334 52.9213 57.1508 52.9716 57.1669 53.0223C57.183 53.073 57.1977 53.1241 57.2113 53.1754C57.2248 53.2269 57.237 53.2786 57.248 53.3306C57.259 53.3826 57.2686 53.4349 57.2769 53.4873C57.2853 53.5398 57.2923 53.5925 57.298 53.6453C57.3038 53.6981 57.3082 53.7511 57.3113 53.8041C57.3144 53.8571 57.3161 53.9102 57.3166 53.9633C57.317 54.0165 57.3161 54.0696 57.314 54.1227C57.3118 54.1757 57.3083 54.2287 57.3034 54.2816C57.2986 54.3345 57.2924 54.3873 57.285 54.4399C57.2775 54.4925 57.2687 54.5449 57.2587 54.5971C57.2486 54.6493 57.2372 54.7012 57.2245 54.7528C57.2119 54.8044 57.198 54.8557 57.1827 54.9066C57.1675 54.9576 57.151 55.0082 57.1333 55.0583C57.1156 55.1085 57.0966 55.1582 57.0764 55.2074C57.0562 55.2566 57.0348 55.3053 57.0122 55.3536C56.9895 55.4018 56.9657 55.4494 56.9406 55.4964C56.9157 55.5434 56.8895 55.5898 56.8622 55.6356C56.8349 55.6814 56.8064 55.7264 56.7769 55.7708C56.7473 55.8152 56.7166 55.8589 56.6849 55.9017C56.6531 55.9446 56.6204 55.9867 56.5866 56.0281C56.5527 56.0694 56.5179 56.1099 56.482 56.1495C56.4462 56.1891 56.4094 56.2278 56.3715 56.2656C56.3338 56.3034 56.2951 56.3403 56.2555 56.3762C56.2159 56.4122 56.1754 56.4471 56.134 56.4811C56.0927 56.5151 56.0505 56.5481 56.0075 56.58C55.9645 56.6119 55.9207 56.6428 55.8762 56.6726C55.8316 56.7024 55.7864 56.7312 55.7404 56.7588C55.6945 56.7864 55.6479 56.8129 55.6006 56.8382C55.5533 56.8635 55.5054 56.8877 55.4569 56.9107C55.4084 56.9337 55.3594 56.9555 55.3098 56.9762C55.2602 56.9969 55.2101 57.0163 55.1596 57.0345C55.1091 57.0527 55.0581 57.0697 55.0067 57.0854C54.9553 57.1011 54.9036 57.1156 54.8515 57.1288C54.7993 57.142 54.7469 57.154 54.6942 57.1646C54.6415 57.1753 54.5885 57.1847 54.5354 57.1928C54.4822 57.2009 54.4289 57.2077 54.3754 57.2133C54.3218 57.2188 54.2682 57.223 54.2145 57.2259C54.1609 57.2288 54.1074 57.2304 54.0538 57.2307C54.0002 57.231 53.9466 57.23 53.893 57.2277C53.8394 57.2254 53.786 57.2218 53.7326 57.217C53.6792 57.2121 53.6259 57.2059 53.5729 57.1985C53.5198 57.191 53.4669 57.1823 53.4143 57.1723C53.3616 57.1623 53.3092 57.151 53.2571 57.1385C53.205 57.1259 53.1533 57.1121 53.1019 57.0971C53.0505 57.082 52.9995 57.0658 52.9489 57.0482C52.8983 57.0307 52.8482 57.0119 52.7985 56.992C52.7489 56.9721 52.6997 56.9509 52.6511 56.9286C52.6024 56.9063 52.5544 56.8828 52.507 56.8582C52.4595 56.8336 52.4127 56.8078 52.3665 56.7809C52.3203 56.7539 52.2748 56.7259 52.2301 56.6968C52.1853 56.6676 52.1413 56.6375 52.098 56.6063C52.0547 56.575 52.0122 56.5428 51.9705 56.5095C51.9289 56.4762 51.888 56.4419 51.848 56.4065C51.808 56.3713 51.7689 56.3351 51.7308 56.2979C51.6926 56.2608 51.6553 56.2227 51.6191 56.1837C51.5828 56.1448 51.5475 56.105 51.5132 56.0643C51.4789 56.0236 51.4456 55.9821 51.4132 55.9398C51.381 55.8975 51.3499 55.8545 51.3197 55.8107C51.2896 55.7669 51.2606 55.7224 51.2327 55.6772C51.2048 55.632 51.178 55.5861 51.1523 55.5396C51.1267 55.4931 51.1023 55.446 51.079 55.3984C51.0557 55.3507 51.0336 55.3025 51.0126 55.2537C50.9917 55.205 50.972 55.1557 50.9536 55.1061C50.9352 55.0563 50.9179 55.0062 50.9019 54.9556C50.8859 54.9051 50.8712 54.8543 50.8578 54.803C50.8443 54.7518 50.8322 54.7002 50.8213 54.6483C50.8104 54.5965 50.8008 54.5445 50.7925 54.4921C50.7842 54.4399 50.7772 54.3874 50.7715 54.3348C50.7658 54.2821 50.7614 54.2293 50.7583 54.1765C50.7553 54.1237 50.7535 54.0708 50.753 54.0178C50.7526 53.9649 50.7535 53.9119 50.7556 53.8591C50.7578 53.8062 50.7613 53.7534 50.766 53.7007C50.7708 53.6479 50.7769 53.5953 50.7843 53.5428C50.7918 53.4905 50.8005 53.4382 50.8105 53.3862C50.8204 53.3342 50.8317 53.2824 50.8442 53.231C50.8569 53.1795 50.8707 53.1284 50.8858 53.0776C50.9009 53.0268 50.9173 52.9764 50.9349 52.9264C50.9525 52.8764 50.9713 52.8268 50.9913 52.7777C51.0114 52.7286 51.0327 52.6801 51.0552 52.632C51.0776 52.584 51.1013 52.5364 51.1261 52.4895C51.1509 52.4426 51.1769 52.3963 51.2041 52.3506C51.2312 52.305 51.2594 52.26 51.2888 52.2157C51.3182 52.1714 51.3486 52.1279 51.3801 52.085C51.4117 52.0422 51.4442 52.0002 51.4778 51.959C51.5114 51.9177 51.5461 51.8773 51.5817 51.8377C51.6173 51.7982 51.6539 51.7595 51.6914 51.7216C51.729 51.6838 51.7674 51.6469 51.8067 51.611C51.8462 51.5751 51.8864 51.5402 51.9275 51.5062C51.9686 51.4722 52.0105 51.4392 52.0533 51.4072C52.096 51.3752 52.1395 51.3443 52.1838 51.3145C52.2281 51.2846 52.273 51.2558 52.3187 51.2281C52.3645 51.2005 52.4108 51.1739 52.4578 51.1484C52.5049 51.123 52.5525 51.0988 52.6008 51.0756C52.6489 51.0525 52.6977 51.0306 52.7471 51.0098C52.7963 50.989 52.8461 50.9694 52.8964 50.9511C52.9467 50.9327 52.9975 50.9155 53.0486 50.8996C53.0997 50.8837 53.1512 50.869 53.2031 50.8556C53.255 50.8422 53.3072 50.8301 53.3596 50.8192C53.4121 50.8083 53.4648 50.7987 53.5177 50.7903C53.5707 50.782 53.6238 50.7749 53.6771 50.7692C53.7304 50.7634 53.7838 50.7589 53.8373 50.7557Z" stroke="#B51111" stroke-width="0.6" mask="url(#path-3-outside-1_129_700)"/>
<path d="M53.8233 51.4861C53.8685 51.4781 53.9138 51.4712 53.9592 51.4655C54.0046 51.4597 54.0502 51.4551 54.0959 51.4516C54.1416 51.448 54.1873 51.4456 54.2331 51.4443C54.2789 51.4429 54.3247 51.4427 54.3705 51.4437C54.4163 51.4446 54.462 51.4466 54.5077 51.4497C54.5535 51.4528 54.5991 51.4571 54.6446 51.4624C54.6901 51.4677 54.7354 51.4742 54.7806 51.4817C54.8257 51.4893 54.8707 51.4979 54.9155 51.5077C54.9603 51.5174 55.0048 51.5282 55.049 51.5401C55.0931 51.552 55.137 51.5649 55.1806 51.579C55.2242 51.5929 55.2674 51.608 55.3102 51.6241C55.353 51.6402 55.3954 51.6573 55.4373 51.6755C55.4793 51.6937 55.5208 51.7129 55.5618 51.7331C55.6028 51.7533 55.6433 51.7745 55.6833 51.7966C55.7232 51.8188 55.7625 51.8419 55.8013 51.8659C55.8401 51.8899 55.8783 51.9149 55.9159 51.9408C55.9534 51.9668 55.9903 51.9936 56.0265 52.0213C56.0628 52.049 56.0983 52.0776 56.133 52.107C56.1678 52.1365 56.2019 52.1667 56.2352 52.1978C56.2684 52.2289 56.301 52.2608 56.3327 52.2935C56.3644 52.3261 56.3952 52.3595 56.4252 52.3936C56.4553 52.4278 56.4845 52.4627 56.5128 52.4983C56.5411 52.5339 56.5685 52.5701 56.595 52.607C56.6215 52.6439 56.647 52.6814 56.6717 52.7196C56.6962 52.7578 56.7199 52.7965 56.7426 52.8358C56.7653 52.8751 56.787 52.9149 56.8077 52.9553C56.8284 52.9956 56.8481 53.0365 56.8668 53.0778C56.8855 53.1191 56.9032 53.1608 56.9197 53.203C56.9363 53.2452 56.9519 53.2877 56.9664 53.3306C56.9809 53.3736 56.9943 53.4168 57.0066 53.4604C57.0189 53.504 57.0301 53.5478 57.0403 53.5919C57.0504 53.636 57.0594 53.6804 57.0674 53.7249C57.0753 53.7695 57.0821 53.8142 57.0878 53.859C57.0935 53.904 57.0981 53.949 57.1017 53.9941C57.1051 54.0392 57.1074 54.0843 57.1087 54.1296C57.1099 54.1748 57.11 54.22 57.109 54.2652C57.1079 54.3105 57.1057 54.3556 57.1024 54.4008C57.0992 54.4459 57.0947 54.4909 57.0892 54.5358C57.0837 54.5808 57.077 54.6255 57.0693 54.67C57.0615 54.7147 57.0526 54.759 57.0427 54.8032C57.0327 54.8473 57.0217 54.8912 57.0095 54.9349C56.9973 54.9785 56.9841 55.0218 56.9698 55.0647C56.9555 55.1077 56.9401 55.1503 56.9237 55.1925C56.9073 55.2348 56.8898 55.2766 56.8713 55.3179C56.8528 55.3593 56.8332 55.4002 56.8127 55.4407C56.7922 55.4811 56.7706 55.521 56.7481 55.5604C56.7255 55.5998 56.702 55.6386 56.6775 55.6769C56.6531 55.7151 56.6277 55.7527 56.6013 55.7898C56.5749 55.8267 56.5477 55.8631 56.5195 55.8988C56.4914 55.9345 56.4623 55.9695 56.4324 56.0038C56.4026 56.038 56.3718 56.0716 56.3403 56.1044C56.3087 56.1372 56.2763 56.1692 56.2431 56.2004C56.21 56.2316 56.1761 56.262 56.1414 56.2916C56.1067 56.3211 56.0714 56.3498 56.0352 56.3776C55.9991 56.4055 55.9623 56.4324 55.9249 56.4585C55.8874 56.4846 55.8494 56.5097 55.8106 56.5339C55.7719 56.5581 55.7327 56.5814 55.6929 56.6037C55.653 56.626 55.6126 56.6473 55.5716 56.6677C55.5307 56.688 55.4893 56.7074 55.4475 56.7257C55.4056 56.7441 55.3632 56.7614 55.3205 56.7776C55.2777 56.7939 55.2346 56.8092 55.1911 56.8233C55.1476 56.8375 55.1038 56.8507 55.0596 56.8627C55.0155 56.8748 54.971 56.8858 54.9263 56.8956C54.8816 56.9056 54.8366 56.9144 54.7915 56.9221C54.7465 56.9298 54.7014 56.9364 54.6561 56.9419C54.6107 56.9474 54.5652 56.9518 54.5197 56.9551C54.4742 56.9584 54.4286 56.9606 54.3829 56.9617C54.3373 56.9628 54.2916 56.9628 54.2459 56.9617C54.2003 56.9606 54.1547 56.9584 54.1091 56.9551C54.0636 56.9518 54.0182 56.9474 53.9728 56.9419C53.9275 56.9363 53.8824 56.9297 53.8374 56.9221C53.7924 56.9144 53.7476 56.9056 53.7031 56.8957C53.6585 56.8859 53.6142 56.8749 53.5702 56.8629C53.5262 56.8509 53.4825 56.8378 53.4391 56.8237C53.3957 56.8095 53.3528 56.7944 53.3101 56.7782C53.2675 56.762 53.2253 56.7448 53.1835 56.7265C53.1418 56.7083 53.1005 56.689 53.0597 56.6688C53.0189 56.6485 52.9786 56.6273 52.9389 56.6051C52.8991 56.5829 52.8599 56.5598 52.8213 56.5357C52.7827 56.5116 52.7447 56.4866 52.7073 56.4607C52.67 56.4347 52.6333 56.4079 52.5972 56.3802C52.5612 56.3525 52.5259 56.3239 52.4913 56.2945C52.4567 56.2651 52.4228 56.2349 52.3897 56.2039C52.3566 56.1728 52.3243 56.1409 52.2927 56.1083C52.2612 56.0757 52.2306 56.0424 52.2007 56.0082C52.1708 55.9741 52.1417 55.9393 52.1136 55.9039C52.0854 55.8684 52.0582 55.8322 52.0319 55.7953C52.0055 55.7585 51.9801 55.7211 51.9556 55.683C51.9311 55.645 51.9075 55.6063 51.885 55.5671C51.8624 55.5279 51.8408 55.4882 51.8202 55.448C51.7996 55.4077 51.78 55.367 51.7615 55.3259C51.7428 55.2847 51.7253 55.2431 51.7088 55.201C51.6922 55.1589 51.6768 55.1165 51.6624 55.0737C51.648 55.031 51.6346 54.9879 51.6224 54.9444C51.6101 54.901 51.5989 54.8573 51.5888 54.8134C51.5787 54.7694 51.5697 54.7252 51.5618 54.6808C51.5538 54.6363 51.547 54.5917 51.5413 54.547C51.5356 54.5023 51.5311 54.4574 51.5276 54.4125C51.5241 54.3675 51.5218 54.3225 51.5206 54.2774C51.5193 54.2324 51.5192 54.1873 51.5202 54.1422C51.5212 54.0971 51.5233 54.0521 51.5265 54.0071C51.5298 53.9621 51.5342 53.9172 51.5396 53.8725C51.5451 53.8278 51.5517 53.7832 51.5594 53.7387C51.5671 53.6942 51.5758 53.65 51.5857 53.606C51.5955 53.5619 51.6065 53.5182 51.6186 53.4747C51.6306 53.4312 51.6438 53.3881 51.658 53.3452C51.6721 53.3024 51.6874 53.2599 51.7037 53.2177C51.72 53.1756 51.7373 53.1339 51.7557 53.0926C51.7741 53.0513 51.7934 53.0105 51.8138 52.9702C51.8342 52.9299 51.8556 52.89 51.878 52.8507C51.9003 52.8114 51.9237 52.7727 51.948 52.7345C51.9723 52.6963 51.9975 52.6588 52.0236 52.6218C52.0498 52.5848 52.0769 52.5485 52.1049 52.5129C52.1328 52.4772 52.1617 52.4423 52.1913 52.4081C52.221 52.3738 52.2516 52.3403 52.2829 52.3075C52.3143 52.2747 52.3465 52.2427 52.3794 52.2115C52.4124 52.1802 52.4461 52.1499 52.4805 52.1203C52.515 52.0907 52.5502 52.062 52.5861 52.0341C52.6219 52.0062 52.6585 51.9792 52.6957 51.9531C52.733 51.927 52.7708 51.9018 52.8093 51.8775C52.8478 51.8532 52.8868 51.8298 52.9265 51.8075C52.9661 51.7851 53.0063 51.7637 53.047 51.7432C53.0877 51.7227 53.1289 51.7033 53.1705 51.6848C53.2122 51.6664 53.2543 51.649 53.2968 51.6326C53.3393 51.6162 53.3823 51.6008 53.4256 51.5864C53.4689 51.5721 53.5125 51.5588 53.5565 51.5465C53.6004 51.5343 53.6447 51.5232 53.6891 51.5131C53.7337 51.503 53.7784 51.494 53.8233 51.4861Z" fill="white"/>
<path d="M64.8223 71.9079C64.8493 71.9115 64.8693 71.9132 64.8926 71.9157C64.9138 71.9179 64.9406 71.9209 64.9688 71.9284C65.001 71.937 65.0294 71.9499 65.0566 71.9665L65.1377 72.028L65.168 72.0544L65.1807 72.0924L65.2051 72.194C65.2206 72.2942 65.2118 72.3915 65.2002 72.4762L65.1592 72.7809C65.14 73.336 65.1822 73.8821 64.9854 74.4489L64.8857 74.693C64.3487 75.8284 63.4043 76.649 62.2383 77.0846L62.2139 77.0934H62.1875C62.1337 77.0939 62.0904 77.08 62.0566 77.0651C62.0407 77.058 62.0256 77.0514 62.0146 77.0456C62.0025 77.0391 61.995 77.0342 61.9863 77.0299L61.9219 76.9987L61.9062 76.9284L61.8867 76.8444L61.8701 76.7702L61.9199 76.7126C62.1373 76.4646 62.485 76.3073 62.7959 76.1647C63.1231 76.0146 63.4198 75.8771 63.6133 75.6754L63.8096 75.4635C63.873 75.3919 63.934 75.3192 63.9912 75.2448L64.0889 75.1081C64.5513 74.4194 64.6057 73.6262 64.6387 72.7614L64.6621 72.4049C64.6683 72.296 64.6689 72.1919 64.6533 72.0768L64.627 71.8815L64.8223 71.9079Z" fill="#B51111" stroke="#B51111" stroke-width="0.3"/>
<path d="M64.5479 34.1129C64.5579 34.1205 64.5828 34.1387 64.6006 34.1529L64.6016 34.1539L64.6885 34.2359C64.773 34.3273 64.8509 34.4448 64.9209 34.5709C65.0159 34.7421 65.1036 34.9427 65.1797 35.1461C65.3308 35.5503 65.4422 35.9851 65.4648 36.2486L65.4785 36.5269C65.4802 36.6321 65.4782 36.7463 65.4688 36.859C65.4593 36.9719 65.4421 37.0874 65.4131 37.192C65.3917 37.2692 65.3624 37.3468 65.3203 37.4146L65.2734 37.4791L65.1709 37.6012L65.0547 37.4898C64.9557 37.3942 64.9117 37.2508 64.8887 37.1178C64.8647 36.9791 64.8587 36.8193 64.8574 36.6646C64.8568 36.5868 64.8578 36.5081 64.8584 36.4322C64.859 36.3557 64.8592 36.282 64.8584 36.2125C64.8576 36.1415 64.8549 36.0781 64.8506 36.023L64.8311 35.8834C64.777 35.6622 64.6376 35.4347 64.4883 35.1734C64.3468 34.9258 64.1955 34.6447 64.1748 34.3541L64.1689 34.2779L64.2285 34.2281L64.3613 34.1178L64.4531 34.0416L64.5479 34.1129Z" fill="#B51111" stroke="#B51111" stroke-width="0.3"/>
<path d="M7.79102 25.1928L7.90723 25.2133C8.01115 25.2458 8.08147 25.3092 8.14453 25.3667L8.20508 25.4214L8.19141 25.5014L8.18066 25.5688L8.1709 25.6303L8.12012 25.6665C8.00844 25.746 7.83257 25.801 7.64941 25.8423C7.45983 25.885 7.23773 25.918 7.01562 25.9458C6.79307 25.9736 6.56699 25.9965 6.36914 26.0161L5.88965 26.0688L5.88086 26.0708V26.0698C5.75163 26.0808 5.64376 26.0832 5.53613 26.0649C5.42785 26.0465 5.32765 26.0083 5.20996 25.9516L5.13574 25.9165L5.12598 25.8335L5.11816 25.7651L5.10742 25.6684L5.19141 25.6186C5.31069 25.5483 5.48558 25.4964 5.67285 25.4555C5.86442 25.4137 6.08561 25.3805 6.30762 25.352C6.53012 25.3235 6.75713 25.3004 6.95898 25.2798C7.16197 25.259 7.33792 25.2413 7.46484 25.2241L7.61426 25.2016C7.67208 25.1943 7.73453 25.1894 7.79102 25.1928Z" fill="#B51111" stroke="#B51111" stroke-width="0.3"/>
<path d="M5.45996 29.7901C5.77059 29.8025 6.07881 29.8204 6.32812 29.8458C6.45261 29.8584 6.5648 29.8736 6.65625 29.8907C6.69877 29.8986 6.74167 29.9076 6.78125 29.919L6.88672 29.961L6.9375 29.9893L6.95605 30.045C6.97047 30.0889 6.98891 30.143 6.98535 30.2022C6.98206 30.2563 6.95934 30.3093 6.94531 30.3467L6.9082 30.4454L6.80273 30.4444C6.6108 30.4423 6.39704 30.4444 6.1709 30.4464C5.94522 30.4483 5.70783 30.4492 5.47168 30.4464C5.11898 30.4421 4.76321 30.4276 4.44727 30.3868L4.14648 30.337C4.08299 30.3235 4.01303 30.308 3.9502 30.2735C3.91582 30.2546 3.88594 30.232 3.85938 30.2051L3.78711 30.1114L3.7334 30.0284L3.78906 29.9464L3.86133 29.8409L3.90234 29.7794L3.97656 29.7755C4.19715 29.7631 4.84016 29.7653 5.45996 29.7901Z" fill="#B51111" stroke="#B51111" stroke-width="0.3"/>
<path d="M15.4561 30.1817C15.8028 30.1875 16.1495 30.1969 16.4346 30.209C16.5749 30.215 16.7034 30.2217 16.8105 30.2296L17.0586 30.2559L17.1055 30.2647L17.1396 30.2989C17.1809 30.3412 17.2272 30.3881 17.251 30.4522C17.263 30.4846 17.2671 30.5153 17.2695 30.5411C17.2717 30.5646 17.2727 30.5961 17.2744 30.6251L17.2832 30.7686L17.1406 30.7833C16.9046 30.8077 16.15 30.815 15.4287 30.795C15.0665 30.7849 14.7079 30.7676 14.4219 30.7413C14.2793 30.7282 14.1515 30.7131 14.0498 30.6944C13.999 30.685 13.9515 30.6743 13.9111 30.6622C13.8734 30.6508 13.8305 30.6347 13.7949 30.6104L13.7412 30.5743L13.7314 30.5098L13.708 30.3614L13.6836 30.2022L13.8447 30.1895C14.064 30.172 14.7668 30.1702 15.4561 30.1817Z" fill="#B51111" stroke="#B51111" stroke-width="0.3"/>
<path d="M64.8848 41.7584L65.0459 41.7946C65.0913 41.8101 65.1387 41.8339 65.1846 41.8727L65.2295 41.9176L65.2559 41.9469L65.2646 41.986C65.331 42.2995 65.3508 42.8888 65.3379 43.4635C65.3249 44.0392 65.2779 44.6292 65.2031 44.9459L65.1943 44.986L65.165 45.0162L65.1309 45.0514L65.0703 45.1129L64.9873 45.0934L64.9043 45.0729L64.8242 45.0533L64.7979 44.9752C64.7427 44.8107 64.7154 44.5774 64.7021 44.3229C64.6887 44.0648 64.6889 43.7699 64.6934 43.4733C64.7002 43.0222 64.7171 42.5724 64.7148 42.2252L64.7051 41.9156L64.6914 41.7203L64.8848 41.7584Z" fill="#B51111" stroke="#B51111" stroke-width="0.3"/>
<path d="M8.7168 29.9267C8.99541 29.9362 9.27193 29.9531 9.49707 29.9834C9.60947 29.9985 9.71276 30.0177 9.79883 30.042C9.87933 30.0646 9.96643 30.0974 10.0264 30.1523L10.0762 30.1973L10.0752 30.2646L10.0723 30.4404L10.0703 30.5849L9.9248 30.5879C9.67254 30.5928 9.11972 30.5996 8.58203 30.581C8.31332 30.5718 8.04567 30.556 7.82031 30.5303C7.65746 30.5117 7.50298 30.4865 7.38477 30.4492L7.2793 30.4072L7.23047 30.3828L7.20898 30.333C7.18719 30.2817 7.16373 30.2225 7.1709 30.1543C7.17415 30.1236 7.18297 30.0971 7.18848 30.081C7.19489 30.0623 7.20011 30.0473 7.20703 30.0244L7.23926 29.918H7.35156L7.90918 29.915C8.15288 29.9148 8.43852 29.9173 8.7168 29.9267Z" fill="#B51111" stroke="#B51111" stroke-width="0.3"/>
<path d="M65.0557 37.743L65.1592 37.7889L65.2129 37.8123L65.2354 37.866L65.2666 37.9735C65.2747 38.014 65.2807 38.0584 65.2861 38.1033C65.2978 38.2002 65.3072 38.3207 65.3145 38.4549C65.3289 38.7237 65.3359 39.0567 65.3359 39.3895C65.336 39.7224 65.3293 40.0575 65.3174 40.3299C65.3114 40.4659 65.3036 40.5878 65.2949 40.6864C65.2866 40.781 65.2769 40.8645 65.2627 40.9188L65.2021 41.1492L65.0205 40.9959C65.0055 40.9832 64.9937 40.9739 64.9785 40.9617C64.9648 40.9507 64.9474 40.9369 64.9307 40.9198C64.9115 40.9001 64.8957 40.8787 64.8818 40.8553L64.8457 40.7762C64.7961 40.6354 64.7867 40.4738 64.7852 40.3289L64.7832 39.9227C64.7751 39.7784 64.7582 39.6151 64.7402 39.4373C64.7224 39.2612 64.7043 39.0725 64.6963 38.8846C64.6805 38.5142 64.7014 38.1197 64.8613 37.8104L64.9268 37.6854L65.0557 37.743Z" fill="#B51111" stroke="#B51111" stroke-width="0.3"/>
<path d="M58.7754 31.3406C59.3749 31.3442 59.9829 31.3639 60.2559 31.3934L60.3711 31.4109C60.4088 31.4191 60.446 31.4306 60.4814 31.448C60.5548 31.4841 60.6085 31.5384 60.6621 31.6033L60.7715 31.7352L60.626 31.826L60.5654 31.8631C60.5305 31.8808 60.4891 31.8914 60.4521 31.8992C60.4126 31.9075 60.3665 31.915 60.3164 31.9207C60.216 31.9322 60.0907 31.9399 59.9502 31.9451C59.6683 31.9556 59.3163 31.9555 58.9639 31.9471C58.6111 31.9386 58.2549 31.9219 57.9648 31.9002C57.82 31.8894 57.6903 31.8774 57.585 31.8641C57.4834 31.8512 57.3928 31.8358 57.334 31.8162L57.2744 31.7967L57.2471 31.7391L57.1797 31.6014L57.0889 31.4158L57.2939 31.3875L57.5566 31.3631C57.8719 31.3437 58.3273 31.3379 58.7754 31.3406Z" fill="#B51111" stroke="#B51111" stroke-width="0.3"/>
<path d="M36.7979 75.5705C37.4198 75.5307 38.1252 75.6011 38.7031 75.6516L39.0186 75.6926C39.1206 75.707 39.215 75.7184 39.3047 75.718L39.4238 75.7072C39.4642 75.7007 39.5066 75.6913 39.5547 75.6818C39.6235 75.6683 39.7026 75.6536 39.7891 75.6516L39.8779 75.6545L39.9658 75.6623L40.002 75.7434L40.0879 75.9367L40.1572 76.0939L39.9922 76.1418C39.941 76.1565 39.8529 76.164 39.7588 76.1691C39.6574 76.1747 39.5279 76.1788 39.3809 76.1809C39.0865 76.185 38.716 76.1824 38.3457 76.176C37.9754 76.1695 37.6035 76.1592 37.3066 76.1457C37.1584 76.139 37.0276 76.1312 36.9248 76.1232C36.8759 76.1195 36.8304 76.1151 36.791 76.1105L36.6934 76.0949C36.5973 76.0718 36.5302 76.0261 36.4854 75.9523C36.4674 75.9229 36.4546 75.8923 36.4463 75.8713C36.437 75.8479 36.4305 75.8297 36.4209 75.8098L36.3291 75.6213L36.5371 75.5949L36.7979 75.5705Z" fill="#B51111" stroke="#B51111" stroke-width="0.3"/>
<path d="M41.0713 75.7816L41.4307 75.8412C42.2827 75.9656 43.2155 75.9912 44.0664 75.9828L44.1289 75.9818L44.1738 76.0258L44.2256 76.0766L44.2861 76.1361L44.2666 76.2191C44.2482 76.2949 44.2184 76.3495 44.1738 76.3969C44.1546 76.4173 44.1343 76.4353 44.1182 76.4486L44.0684 76.4906L44.0049 76.5482L43.9219 76.5219C43.7537 76.468 43.5326 76.4425 43.2734 76.433C43.0153 76.4236 42.7316 76.43 42.4404 76.435C42.1515 76.4399 41.8553 76.4433 41.582 76.4262C41.3782 76.4134 41.1809 76.3885 41.0039 76.3422L40.834 76.2885L40.7168 76.2436L40.7402 76.1205C40.756 76.0388 40.7934 75.979 40.833 75.932C40.8516 75.9101 40.8712 75.8898 40.8877 75.8734C40.9052 75.8561 40.9191 75.8421 40.9336 75.8266L40.9902 75.767L41.0713 75.7816Z" fill="#B51111" stroke="#B51111" stroke-width="0.3"/>
<path d="M61.3721 31.3311C61.5291 31.3309 61.689 31.338 61.8477 31.3574L62.085 31.3965L62.2539 31.4365C62.4354 31.4833 62.6502 31.5519 62.8506 31.6426C63.1093 31.7597 63.3807 31.9301 63.498 32.1709L63.5264 32.2363C63.5502 32.3005 63.5604 32.3599 63.5566 32.4229C63.5546 32.4573 63.547 32.4935 63.5391 32.5283L63.5156 32.626L63.4707 32.8154L63.2988 32.7236C63.0598 32.5964 62.8675 32.4459 62.6826 32.3135C62.5422 32.2129 62.4007 32.1175 62.2314 32.0361L62.0518 31.96C62.0054 31.9425 61.9382 31.9293 61.8506 31.9199C61.7632 31.9106 61.6708 31.9059 61.5713 31.8985C61.4756 31.8912 61.374 31.8816 61.2842 31.8623C61.1981 31.8438 61.0988 31.8117 61.0264 31.7442L60.9717 31.6934L60.9795 31.6192L60.9961 31.4707L61.0098 31.3418L61.1387 31.3369L61.3721 31.3311Z" fill="#B51111" stroke="#B51111" stroke-width="0.3"/>
<path d="M50.3311 31.1253C50.6963 31.1336 51.0595 31.1482 51.3564 31.1702C51.5047 31.1812 51.6381 31.1941 51.748 31.2093C51.8012 31.2167 51.8519 31.2252 51.8975 31.2347L52.0166 31.2679L52.0752 31.2904L52.1006 31.347L52.1592 31.4798L52.2363 31.6556L52.0469 31.6878C51.9526 31.704 51.726 31.7107 51.4521 31.7122C51.1709 31.7138 50.8223 31.7095 50.4727 31.7025C49.9529 31.692 49.4196 31.6737 49.1016 31.6527L48.8633 31.6312C48.7732 31.6177 48.6979 31.5963 48.6299 31.5472C48.5685 31.5028 48.5221 31.4417 48.4785 31.3851L48.3145 31.1702L48.583 31.1439L48.8672 31.1273C49.2263 31.1144 49.7857 31.1129 50.3311 31.1253Z" fill="#B51111" stroke="#B51111" stroke-width="0.3"/>
<path d="M36.0469 30.7623L36.835 30.8053C37.0964 30.8219 37.355 30.8376 37.6113 30.8424L37.9463 30.8356C38.0612 30.8302 38.1796 30.8235 38.3018 30.818C38.5402 30.8072 38.789 30.8034 39.0244 30.8414H39.0254L39.1016 30.86C39.1725 30.8845 39.2264 30.9247 39.2695 30.9742C39.2951 31.0036 39.3153 31.035 39.332 31.0611C39.3503 31.0897 39.3635 31.1124 39.3809 31.1373L39.5381 31.3619L39.2637 31.3727C39.0505 31.3809 38.2942 31.38 37.5703 31.3609C37.2076 31.3514 36.8493 31.3369 36.5703 31.317C36.4313 31.3071 36.3093 31.2954 36.2148 31.2818C36.1678 31.2751 36.1249 31.2673 36.0889 31.2584C36.0589 31.251 36.0138 31.2387 35.9775 31.2135L35.9219 31.1744L35.9141 31.108L35.8926 30.9303L35.8721 30.7574L36.0469 30.7623Z" fill="#B51111" stroke="#B51111" stroke-width="0.3"/>
<path d="M5.88867 73.8468C6.36258 73.8188 6.87479 73.8822 7.32129 73.8986L7.97266 73.9035C8.14017 73.9051 8.31143 73.911 8.47949 73.9298L8.64648 73.9533L8.74121 73.9699L8.76562 74.0636C8.78711 74.146 8.78899 74.2131 8.77246 74.2814C8.76515 74.3115 8.75497 74.3393 8.74609 74.3625C8.73647 74.3875 8.72713 74.4082 8.71777 74.4347L8.66992 74.5714L8.53223 74.5285C8.17363 74.4176 7.73342 74.4316 7.26465 74.4513C6.86768 74.468 6.44592 74.4894 6.08105 74.4162L5.92871 74.3781C5.88973 74.3666 5.82416 74.3495 5.77832 74.2951C5.75794 74.2709 5.74635 74.2445 5.74121 74.2336C5.73468 74.2196 5.72968 74.2095 5.72168 74.1945L5.69141 74.1369L5.71289 74.0753L5.75586 73.9484L5.78809 73.8527L5.88867 73.8468Z" fill="#B51111" stroke="#B51111" stroke-width="0.3"/>
<path d="M29.1797 75.0704C29.4741 75.0766 29.84 75.0875 30.2012 75.1016C30.5623 75.1157 30.9197 75.1331 31.1963 75.1505C31.3344 75.1591 31.454 75.168 31.5439 75.1768C31.5887 75.1812 31.628 75.1848 31.6592 75.1895L31.752 75.213L31.834 75.2481L31.8418 75.338L31.8535 75.4835L31.8643 75.6016L31.751 75.6387L31.6846 75.6602C31.6263 75.676 31.5378 75.6839 31.4404 75.6895C31.3384 75.6954 31.2124 75.6986 31.0723 75.6993C30.7918 75.7006 30.4475 75.6929 30.1064 75.6778C29.7654 75.6627 29.4253 75.6402 29.1533 75.6133C29.0176 75.5999 28.897 75.5854 28.8008 75.5694C28.7566 75.5621 28.7122 75.5531 28.6719 75.543L28.5664 75.5069L28.5098 75.4776L28.4912 75.4171L28.4443 75.2637L28.3906 75.086L28.5742 75.0704C28.6578 75.063 28.8903 75.0643 29.1797 75.0704Z" fill="#B51111" stroke="#B51111" stroke-width="0.3"/>
<path d="M11.0732 30.0565C11.3349 30.0634 11.6673 30.0738 11.9941 30.0849C12.3209 30.0959 12.6432 30.108 12.8857 30.1181C13.0069 30.1231 13.109 30.1279 13.1816 30.1317C13.2174 30.1337 13.247 30.135 13.2686 30.1366C13.2792 30.1374 13.2896 30.1386 13.2979 30.1396C13.3017 30.14 13.307 30.1406 13.3125 30.1415C13.3152 30.142 13.3199 30.1432 13.3252 30.1444L13.3594 30.1562L13.4287 30.204C13.4485 30.2209 13.4505 30.224 13.46 30.2314L13.5195 30.2773L13.5186 30.3515L13.5166 30.5321L13.5146 30.6864L13.3613 30.6806C12.9606 30.6662 12.4518 30.6774 11.9355 30.6737C11.4272 30.6701 10.9135 30.6523 10.5283 30.5761L10.4648 30.5634L10.4297 30.5077L10.3867 30.4374L10.3477 30.3759L10.373 30.3065L10.4307 30.1474L10.4648 30.0546L10.5635 30.0497L11.0732 30.0565Z" fill="#B51111" stroke="#B51111" stroke-width="0.3"/>
<path d="M45.751 76.0984C46.0225 76.0997 46.35 76.1079 46.6777 76.1209C47.1659 76.1402 47.664 76.1697 47.9824 76.2L48.2334 76.2303L48.2998 76.241L48.3359 76.2977L48.4023 76.4041L48.5107 76.576L48.3145 76.6287C48.1906 76.6616 47.9522 76.6839 47.6758 76.698C47.3936 76.7124 47.0549 76.7187 46.7188 76.7156C46.3827 76.7125 46.0467 76.6997 45.7705 76.6756C45.6326 76.6635 45.5072 76.6494 45.4033 76.6307C45.3041 76.6128 45.2096 76.5887 45.1426 76.5535L45.0869 76.5242L45.0684 76.4637L45.0225 76.3123L44.9727 76.1482L45.1426 76.1209C45.2589 76.1024 45.4845 76.0972 45.751 76.0984Z" fill="#B51111" stroke="#B51111" stroke-width="0.3"/>
<path d="M25.3516 74.8811C25.6165 74.8854 25.9307 74.8933 26.2402 74.9045C26.551 74.9157 26.8595 74.9296 27.1123 74.9455C27.2362 74.9534 27.3502 74.9618 27.4453 74.9709L27.666 75.0002L27.748 75.0188L27.7764 75.0979L27.8418 75.2863L27.9072 75.4709L27.7119 75.4856C27.4671 75.5038 26.839 75.5172 26.2295 75.5041C25.9242 75.4976 25.62 75.484 25.3691 75.4612C25.244 75.4498 25.1298 75.4364 25.0342 75.4192C24.9881 75.4109 24.9429 75.4013 24.9014 75.3899L24.79 75.3488C24.7081 75.3082 24.6684 75.2435 24.6484 75.1838C24.64 75.1584 24.6343 75.1333 24.6309 75.1164L24.6211 75.0725L24.5693 74.8899L24.7588 74.8811H25.3516Z" fill="#B51111" stroke="#B51111" stroke-width="0.3"/>
<path d="M20.9307 30.3679C21.3008 30.3858 21.781 30.382 22.2598 30.3845C22.7337 30.387 23.2084 30.3957 23.5527 30.4392L23.5898 30.4431C23.6013 30.4444 23.6141 30.4455 23.626 30.447C23.6496 30.4501 23.68 30.4547 23.7109 30.4656C23.7819 30.4906 23.8294 30.5381 23.873 30.5955L23.9141 30.6492L23.9004 30.7166L23.8682 30.8767L23.8447 30.992L23.7266 30.9968C23.4236 31.0088 23.123 30.9918 22.8291 30.9724C22.6809 30.9627 22.5348 30.9523 22.3896 30.9441L21.9561 30.9295C21.8656 30.929 21.6806 30.9425 21.4795 30.9509C21.3825 30.955 21.2836 30.9576 21.1992 30.9558C21.1605 30.955 21.1193 30.9532 21.0801 30.949L20.9736 30.9275C20.9301 30.9126 20.8995 30.887 20.8838 30.8728C20.8768 30.8665 20.8669 30.8568 20.8643 30.8543C20.8622 30.8523 20.8605 30.8513 20.8594 30.8504L20.8584 30.8484L20.8076 30.8103L20.8008 30.7478L20.7744 30.5349L20.7539 30.3591L20.9307 30.3679Z" fill="#B51111" stroke="#B51111" stroke-width="0.3"/>
<path d="M53.7207 76.4686C53.8824 76.475 54.0443 76.4936 54.2002 76.5125C54.3577 76.5317 54.5089 76.5503 54.6592 76.5604L55.2891 76.5868C55.4983 76.5924 55.7091 76.5973 55.9268 76.6073L56.3369 76.6053C56.4169 76.6055 56.4993 76.6076 56.5742 76.6141C56.6466 76.6204 56.7241 76.6319 56.7871 76.6561L56.8418 76.6873C56.8559 76.6982 56.8664 76.7086 56.873 76.7157C56.879 76.7219 56.8881 76.7315 56.8896 76.7332C56.8907 76.7344 56.8911 76.7356 56.8916 76.7362L56.959 76.7957L56.9385 76.8827L56.915 76.9852L56.8916 77.0868L56.7881 77.1004C56.1981 77.1779 55.3682 77.1495 54.6562 77.0985L53.9961 77.0428C53.9703 77.0404 53.9442 77.0391 53.9092 77.037C53.8767 77.035 53.8381 77.0324 53.7998 77.0262C53.7255 77.0142 53.6259 76.9852 53.5537 76.8983L53.5049 76.8407L53.5234 76.7664L53.5693 76.5819L53.5996 76.4637L53.7207 76.4686Z" fill="#B51111" stroke="#B51111" stroke-width="0.3"/>
<path d="M40.5518 30.885C40.8198 30.9028 41.07 30.9295 41.3105 30.9348L41.9707 30.924C42.1961 30.9187 42.4293 30.9187 42.6572 30.9455L42.6562 30.9465C42.6979 30.9514 42.7387 30.959 42.7793 30.9758C42.7993 30.9841 42.8177 30.9935 42.835 31.0041L42.8848 31.0383L42.9375 31.0793L42.9434 31.1457L42.9551 31.2922L42.9678 31.4494L42.8105 31.4543C42.5338 31.4632 41.8628 31.4782 41.209 31.469C40.8823 31.4643 40.5576 31.4534 40.2881 31.4328C40.1535 31.4226 40.0303 31.41 39.9268 31.3938C39.8763 31.3859 39.8277 31.3762 39.7832 31.3654L39.6641 31.3283L39.5869 31.2951L39.5742 31.2112L39.5557 31.0803L39.5352 30.9348L39.6797 30.9104L39.7607 30.8967L39.9561 30.8772C40.1535 30.8645 40.3554 30.8719 40.5518 30.885Z" fill="#B51111" stroke="#B51111" stroke-width="0.3"/>
<path d="M32.5527 75.3026C32.9245 75.2552 33.4224 75.3007 33.9092 75.3446C34.4068 75.3895 34.899 75.4335 35.292 75.3964L35.4033 75.3885L35.5322 75.4061L35.6182 75.4257L35.6436 75.5106L35.6885 75.6678L35.7246 75.7909L35.6084 75.8456C35.5784 75.8596 35.5455 75.875 35.5088 75.8885L35.3867 75.9208C35.2886 75.9359 35.0719 75.9405 34.8145 75.9384C34.5508 75.9362 34.2291 75.927 33.9131 75.912C33.5976 75.897 33.2851 75.8762 33.0391 75.8505C32.9163 75.8376 32.807 75.8234 32.7217 75.8075C32.6793 75.7996 32.6399 75.7901 32.6064 75.7802C32.5774 75.7715 32.5364 75.7571 32.5029 75.7323L32.4521 75.6952L32.4434 75.6317L32.4229 75.4716L32.4033 75.3221L32.5527 75.3026Z" fill="#B51111" stroke="#B51111" stroke-width="0.3"/>
<path d="M64.9492 64.1809L65.0898 64.2366L65.1436 64.2581L65.1689 64.3098C65.1991 64.3705 65.2158 64.4518 65.2275 64.5325C65.2399 64.6178 65.2483 64.7202 65.2539 64.8313C65.2651 65.0534 65.2661 65.3233 65.2627 65.595C65.2557 66.1467 65.2323 66.695 65.2422 66.9202L65.2451 66.9768L65.25 67.0764L65.1611 67.1194C65.1356 67.1318 65.1205 67.14 65.1074 67.1467C65.0966 67.1523 65.0762 67.1635 65.0508 67.1702C65.0262 67.1766 65.0025 67.1773 64.9912 67.178C64.9768 67.1788 64.9587 67.1794 64.9297 67.1819L64.8486 67.1887L64.7988 67.1252C64.7493 67.0619 64.7257 66.9682 64.7109 66.887C64.6946 66.7974 64.6836 66.6883 64.6768 66.5686C64.663 66.3283 64.664 66.0307 64.6719 65.7317C64.6876 65.1331 64.732 64.5142 64.7441 64.3118L64.7559 64.1047L64.9492 64.1809Z" fill="#B51111" stroke="#B51111" stroke-width="0.3"/>
<path d="M58.7441 76.7364C59.0411 76.7506 59.3275 76.7704 59.6094 76.7735L59.874 76.7696C59.9629 76.7662 60.0532 76.7611 60.1455 76.7569C60.2366 76.7528 60.3293 76.75 60.4229 76.7491L60.7061 76.756L60.7744 76.7608L60.8154 76.8165L60.8672 76.8858L60.9326 76.9737L60.8682 77.0626C60.8366 77.1064 60.8019 77.1552 60.748 77.1866C60.7219 77.2018 60.6963 77.2104 60.6787 77.2159L60.6182 77.2345L60.6016 77.2403L60.584 77.2423C60.2794 77.269 59.6567 77.3009 59.0498 77.2999C58.7462 77.2994 58.4433 77.2904 58.1855 77.2677C57.9975 77.251 57.8216 77.2265 57.6846 77.1876L57.5605 77.1436L57.4043 77.0724L57.4961 76.9259C57.5474 76.8454 57.621 76.8075 57.6807 76.7862C57.7096 76.7759 57.7395 76.7687 57.7627 76.7628C57.7876 76.7565 57.8062 76.7518 57.8242 76.7462L57.8398 76.7413L57.8564 76.7393L58.0781 76.7267C58.3002 76.7188 58.524 76.7259 58.7441 76.7364Z" fill="#B51111" stroke="#B51111" stroke-width="0.3"/>
<path d="M49.4219 76.2899C49.5876 76.2853 49.7541 76.2952 49.915 76.3074C50.0785 76.3199 50.2344 76.3338 50.3887 76.3387L51.4248 76.3641C51.5985 76.3681 51.7725 76.3727 51.9463 76.3787L52.4668 76.4022L52.541 76.4061L52.582 76.4676L52.624 76.5291L52.6719 76.5994L52.6357 76.6776L52.5859 76.782L52.5518 76.8553L52.4697 76.866C52.3632 76.8802 52.1353 76.8871 51.8604 76.8885C51.5808 76.8899 51.2416 76.8859 50.9062 76.8777C50.571 76.8696 50.2381 76.8568 49.9717 76.8406C49.8387 76.8326 49.7208 76.8243 49.627 76.8143C49.5386 76.8049 49.4564 76.7931 49.4053 76.7762L49.3164 76.7469L49.3037 76.6541L49.2773 76.4598L49.2539 76.2938L49.4219 76.2899Z" fill="#B51111" stroke="#B51111" stroke-width="0.3"/>
<path d="M24.3984 30.4789C24.6663 30.4619 24.9278 30.4761 25.1816 30.4945C25.4382 30.5132 25.6837 30.5363 25.9346 30.5424L26.2275 30.5394C26.3266 30.5359 26.4271 30.5304 26.5303 30.5258C26.7337 30.5166 26.9456 30.5104 27.1562 30.5297L27.2617 30.5443C27.3615 30.5634 27.4459 30.597 27.543 30.6527L27.752 30.7719L27.5518 30.9066L27.4131 31.0004L27.3848 31.0199L27.3496 31.0238C27.1052 31.0572 26.4799 31.0707 25.877 31.0599C25.5731 31.0545 25.2702 31.0424 25.0186 31.0238C24.8356 31.0103 24.6683 30.9931 24.5469 30.9681L24.4414 30.9408L24.3828 30.9203L24.3555 30.8636L24.2734 30.6947L24.1758 30.4935L24.3984 30.4789Z" fill="#B51111" stroke="#B51111" stroke-width="0.3"/>
<path d="M14.8125 74.3254C15.1339 74.3333 15.4518 74.3442 15.7002 74.3586C15.824 74.3658 15.9328 74.3747 16.0166 74.384C16.0582 74.3886 16.0958 74.3929 16.127 74.3986L16.2227 74.4279L16.2959 74.4641L16.3047 74.5451L16.3242 74.7131L16.3389 74.8459L16.209 74.8762C16.1623 74.8871 16.0837 74.8923 15.998 74.8957C15.9066 74.8993 15.7903 74.9013 15.6592 74.9016C15.3964 74.9021 15.0675 74.8972 14.7422 74.8869C14.4172 74.8766 14.0935 74.8615 13.8398 74.843C13.7134 74.8337 13.6023 74.8229 13.5166 74.8117C13.4741 74.8061 13.4353 74.7999 13.4033 74.7932C13.377 74.7876 13.3366 74.7778 13.3037 74.759L13.2471 74.7277L13.2324 74.6642L13.1924 74.4992L13.1494 74.3215L13.3311 74.3137C13.5041 74.3062 14.1717 74.3097 14.8125 74.3254Z" fill="#B51111" stroke="#B51111" stroke-width="0.3"/>
<path d="M17.6611 30.2352C18.0544 30.2731 18.4809 30.2775 18.9102 30.285C19.3357 30.2925 19.7649 30.3033 20.1514 30.3563L20.2334 30.3651C20.2589 30.3679 20.2919 30.3725 20.3252 30.3827C20.4037 30.4067 20.4592 30.4552 20.5117 30.5243L20.5605 30.5887L20.5342 30.6649L20.4814 30.8143L20.4453 30.9188L20.3359 30.9149C20.1487 30.9094 19.517 30.8874 18.9141 30.8524C18.613 30.8349 18.3172 30.8141 18.0869 30.7909C17.9721 30.7793 17.8701 30.7663 17.792 30.7528C17.7534 30.7461 17.7177 30.7387 17.6875 30.7303C17.6755 30.727 17.6585 30.723 17.6406 30.7157L17.5869 30.6854C17.5083 30.6253 17.4913 30.5436 17.4902 30.4862C17.4897 30.4604 17.4926 30.4357 17.4941 30.4198C17.496 30.4009 17.497 30.3911 17.4971 30.3827L17.499 30.2196L17.6611 30.2352Z" fill="#B51111" stroke="#B51111" stroke-width="0.3"/>
<path d="M21.0029 74.6489C21.3084 74.6799 21.8893 74.6852 22.46 74.6958C22.7425 74.701 23.0213 74.707 23.2559 74.7192C23.4285 74.7282 23.5858 74.7405 23.7051 74.7592L23.8105 74.7807L23.9053 74.8051L23.9209 74.9008L23.9385 75.0014L23.9561 75.1088L23.8594 75.1586C23.7476 75.2168 23.6557 75.2473 23.5459 75.2602L23.4287 75.268C23.2472 75.2715 22.6844 75.2773 22.1406 75.2583C21.8692 75.2487 21.5991 75.2325 21.3828 75.2065C21.2751 75.1935 21.1766 75.1777 21.0967 75.1577C21.0568 75.1477 21.0184 75.1358 20.9844 75.1215C20.9682 75.1148 20.9502 75.1066 20.9326 75.0961L20.8818 75.0581L20.834 75.0131L20.835 74.9477L20.8379 74.7954L20.8408 74.6323L21.0029 74.6489Z" fill="#B51111" stroke="#B51111" stroke-width="0.3"/>
<path d="M64.9395 68.2234L65.0664 68.2635L65.1191 68.2801L65.1484 68.326C65.2658 68.5098 65.2393 68.7158 65.2041 68.8758C65.1872 68.9526 65.1612 69.045 65.1455 69.1102C65.1366 69.147 65.1301 69.1807 65.125 69.2117L65.1162 69.2967C65.1143 69.4173 65.1341 69.5457 65.1602 69.6863C65.1854 69.8222 65.2174 69.9741 65.2305 70.1209L65.2441 70.3162C65.2472 70.389 65.2476 70.4673 65.2422 70.5447C65.2318 70.6941 65.1979 70.8716 65.0898 70.9988L65.0068 71.0965L64.8975 71.0301C64.8835 71.0216 64.8648 71.0109 64.8438 70.9969L64.7764 70.9432C64.7145 70.8833 64.6815 70.7984 64.6611 70.7215C64.6398 70.6409 64.6265 70.5468 64.6191 70.4471C64.6045 70.2469 64.6107 70.0034 64.6221 69.7615C64.6333 69.5229 64.6513 69.2669 64.6621 69.0604C64.6678 68.9523 64.6711 68.8569 64.6719 68.7772L64.6641 68.5867C64.6539 68.5099 64.6657 68.4471 64.6982 68.3885C64.7113 68.365 64.7268 68.3441 64.7373 68.3299C64.749 68.3141 64.7595 68.3015 64.7695 68.2859L64.8311 68.1893L64.9395 68.2234Z" fill="#B51111" stroke="#B51111" stroke-width="0.3"/>
<path d="M9.87012 74.077C10.163 74.0913 10.4898 74.1296 10.7998 74.1581C11.2245 74.197 11.6175 74.2185 11.9023 74.1629L12.0537 74.1414C12.1027 74.1369 12.1508 74.1347 12.1992 74.1327L12.2939 74.1288L12.3389 74.2127L12.3652 74.2704C12.4145 74.4036 12.3838 74.5144 12.377 74.5916L12.3623 74.7498L12.2051 74.7264C12.0968 74.7102 11.8989 74.7005 11.6494 74.6932C11.4014 74.686 11.118 74.6819 10.834 74.6747C10.5528 74.6675 10.2751 74.6576 10.0508 74.6395C9.93897 74.6305 9.83728 74.619 9.75391 74.6043C9.67707 74.5908 9.5937 74.5708 9.53516 74.535L9.47266 74.4969L9.46484 74.4237L9.44336 74.2391L9.42578 74.075L9.58984 74.0721L9.87012 74.077Z" fill="#B51111" stroke="#B51111" stroke-width="0.3"/>
<path d="M17.1543 74.5116C17.3811 74.4816 17.986 74.4816 18.5684 74.4999C18.8625 74.5092 19.1563 74.5239 19.4004 74.5419C19.52 74.5507 19.6317 74.5599 19.7266 74.5712L19.9541 74.6103L20.0156 74.6259L20.0469 74.6806L20.1182 74.8065L20.209 74.9667L20.0342 75.0233C19.9792 75.0412 19.8982 75.0515 19.8125 75.0585C19.7219 75.0659 19.6103 75.0711 19.4863 75.0741C19.2378 75.0801 18.9315 75.0782 18.626 75.0712C18.3204 75.0642 18.0132 75.052 17.7617 75.037C17.516 75.0223 17.3098 75.0043 17.2148 74.9833L17.1387 74.9667L17.1084 74.8944L17.0352 74.7177L16.96 74.538L17.1543 74.5116Z" fill="#B51111" stroke="#B51111" stroke-width="0.3"/>
<path d="M46.6445 30.9907C47.1289 30.9972 47.6232 31.029 47.9141 31.0815L48.0283 31.1098C48.0645 31.1227 48.0986 31.1402 48.1299 31.1665C48.1589 31.1908 48.1803 31.2183 48.1973 31.2417C48.2103 31.2596 48.2351 31.2964 48.251 31.3188L48.3945 31.521L48.1484 31.5542C47.6614 31.619 46.9181 31.6081 46.3066 31.5737L45.7529 31.5327C45.6612 31.5242 45.5775 31.5122 45.499 31.4741C45.4189 31.4352 45.3581 31.3765 45.2959 31.3042L45.127 31.1079L45.3809 31.059C45.6682 31.003 46.1618 30.9842 46.6445 30.9907Z" fill="#B51111" stroke="#B51111" stroke-width="0.3"/>
<path d="M1.25 29.0353C1.35696 29.0457 1.48449 29.074 1.61621 29.1095C1.79696 29.1581 2.00282 29.2249 2.20605 29.297C2.6126 29.4412 3.01852 29.6085 3.2168 29.6944L3.32617 29.7472C3.36068 29.7672 3.39271 29.7906 3.4209 29.8204C3.47656 29.8794 3.50687 29.953 3.53613 30.0284L3.60742 30.212L3.41016 30.2316L3.25781 30.2423C2.9135 30.2522 2.47343 30.1154 2.0752 29.9337C1.67433 29.7508 1.28951 29.5104 1.05273 29.2911L0.783203 29.0411L1.15039 29.0314L1.25 29.0353Z" fill="#B51111" stroke="#B51111" stroke-width="0.3"/>
<path d="M55.7754 31.2581C56.0061 31.26 56.2366 31.267 56.4248 31.2845C56.5185 31.2932 56.6051 31.3049 56.6777 31.3206C56.7446 31.3352 56.8215 31.3577 56.877 31.3988L56.9268 31.4486C56.9649 31.5015 56.972 31.5606 56.9727 31.599C56.9731 31.6245 56.9712 31.6493 56.9697 31.6654C56.968 31.6843 56.9669 31.6932 56.9668 31.7005L56.9658 31.8499H56.8164C56.7141 31.85 56.5478 31.855 56.3457 31.8597C56.1453 31.8644 55.9131 31.8685 55.6846 31.8665C55.4566 31.8646 55.2284 31.8569 55.0381 31.8363C54.9432 31.826 54.8546 31.8119 54.7783 31.7933C54.705 31.7754 54.6294 31.7498 54.5713 31.7093L54.5039 31.6624L54.5078 31.5804L54.5146 31.4154L54.5205 31.2708H54.6641L55.1104 31.263C55.3089 31.2592 55.5441 31.2563 55.7754 31.2581Z" fill="#B51111" stroke="#B51111" stroke-width="0.3"/>
<path d="M63.6211 32.6214C63.6366 32.6254 63.6852 32.6362 63.7197 32.6478L63.7861 32.679C63.8489 32.7179 63.9007 32.7762 63.9404 32.8275C63.9982 32.9021 64.0529 32.9934 64.1016 33.0833C64.199 33.2634 64.2826 33.4594 64.3223 33.5482L64.3818 33.6849C64.4003 33.7313 64.4161 33.7785 64.4248 33.8265C64.4443 33.9345 64.4292 34.0387 64.3799 34.1624L64.332 34.2816L64.2061 34.2523C64.1885 34.2482 64.1634 34.2437 64.1348 34.2357L64.042 34.1995C63.969 34.161 63.9099 34.0937 63.8643 34.0316C63.8162 33.9661 63.771 33.8893 63.7314 33.8138C63.6921 33.7387 63.6552 33.6609 63.624 33.5911L63.5488 33.4163C63.4685 33.2328 63.324 33.0073 63.4443 32.7103L63.4941 32.5882L63.6211 32.6214Z" fill="#B51111" stroke="#B51111" stroke-width="0.3"/>
<path d="M52.4609 31.2431C52.8863 31.2065 53.3386 31.2091 53.7598 31.2304L53.9355 31.246C53.9904 31.254 54.0423 31.2656 54.0918 31.2861C54.1949 31.3288 54.2747 31.4003 54.3643 31.498L54.5635 31.7158L54.2695 31.749C54.0404 31.7746 53.707 31.7975 53.3779 31.7949C53.0543 31.7922 52.7131 31.7645 52.4824 31.6777L52.4229 31.6552L52.3975 31.5966L52.3359 31.4521L52.2539 31.2607L52.4609 31.2431Z" fill="#B51111" stroke="#B51111" stroke-width="0.3"/>
<path d="M64.9023 45.4645C64.9146 45.4659 64.941 45.4692 64.9639 45.4723C64.9855 45.4753 65.019 45.4804 65.0488 45.4909L65.1104 45.5182C65.1704 45.5508 65.2243 45.6005 65.2588 45.6745L65.2881 45.7497C65.3476 45.9325 65.3483 46.1691 65.3281 46.3815C65.3044 46.6313 65.2478 46.8844 65.1855 47.0495L65.1211 47.2204L64.9658 47.1237L64.8721 47.0661L64.8457 47.0495L64.8281 47.0241C64.6994 46.8373 64.7001 46.6218 64.7148 46.444C64.7186 46.3984 64.7237 46.3525 64.7285 46.3092C64.7334 46.2655 64.7377 46.2239 64.7412 46.1833C64.7448 46.1422 64.7478 46.1039 64.748 46.068L64.7422 45.9675C64.7235 45.8293 64.7137 45.7465 64.7363 45.5925L64.7578 45.4479L64.9023 45.4645Z" fill="#B51111" stroke="#B51111" stroke-width="0.3"/>
<path d="M28.6826 30.5533C28.8174 30.5533 28.9551 30.5592 29.0801 30.5758C29.2027 30.5921 29.3263 30.6202 29.4248 30.6744L29.4746 30.7105C29.5175 30.7492 29.5398 30.7958 29.5518 30.8375C29.5587 30.8617 29.5629 30.8856 29.5654 30.901C29.5683 30.919 29.5699 30.9294 29.5723 30.9391L29.6172 31.1236H29.4268C29.3471 31.1238 29.2397 31.1289 29.1133 31.1344C28.9886 31.1398 28.848 31.1464 28.709 31.1471C28.5703 31.1477 28.429 31.1427 28.3027 31.1275C28.2106 31.1164 28.1174 31.0989 28.0361 31.068L27.96 31.0328C27.876 30.9856 27.8457 30.9108 27.835 30.8521C27.8303 30.8265 27.8281 30.8016 27.8271 30.7857L27.8242 30.7477L27.7988 30.5768L27.9717 30.5758C28.0563 30.5752 28.1645 30.5705 28.2891 30.565C28.4116 30.5596 28.5476 30.5534 28.6826 30.5533Z" fill="#B51111" stroke="#B51111" stroke-width="0.3"/>
<path d="M43.3623 31.0093C43.7377 30.9324 44.2538 30.9525 44.6152 30.9849L44.7607 31.0044C44.8069 31.014 44.8506 31.0282 44.8926 31.0493C44.9773 31.092 45.041 31.1571 45.1084 31.2368L45.2871 31.4487L45.0127 31.4829C44.6521 31.5283 44.1002 31.551 43.6816 31.4849L43.5117 31.4507C43.4431 31.4336 43.38 31.4082 43.332 31.3482C43.3131 31.3244 43.2999 31.2987 43.292 31.2837C43.2829 31.2664 43.2755 31.2517 43.2646 31.2339L43.1533 31.0523L43.3623 31.0093Z" fill="#B51111" stroke="#B51111" stroke-width="0.3"/>
<path d="M30.6699 30.6186L30.7793 30.6352C30.898 30.6581 31.0375 30.7052 31.1367 30.8139L31.2432 30.9302L31.1211 31.0307C31.0831 31.0619 31.0527 31.0847 31.0225 31.1108L30.9795 31.1684L30.9043 31.1675L30.6348 31.1645V31.1636C30.3179 31.1625 30.0114 31.1548 29.6875 31.0972L29.6123 31.0835L29.5781 31.0141L29.5439 30.9429L29.4814 30.8139L29.6064 30.7456L29.6768 30.7134C29.7497 30.6856 29.829 30.6705 29.8984 30.6597C29.9466 30.6521 29.9954 30.6464 30.0391 30.6411C30.0835 30.6357 30.1222 30.6308 30.1562 30.6255L30.1738 30.6235L30.4121 30.6118C30.4977 30.609 30.5866 30.6092 30.6699 30.6186Z" fill="#B51111" stroke="#B51111" stroke-width="0.3"/>
<path d="M33.1475 30.6807C33.3556 30.6772 33.5832 30.6878 33.7646 30.7549L33.8613 30.8018C33.8906 30.8212 33.9164 30.8457 33.9385 30.877C33.9576 30.9042 33.9696 30.932 33.9785 30.9532C33.9917 30.9847 33.9923 30.9868 34.0059 31.0186L34.0879 31.211L33.8789 31.2266C33.7395 31.2371 33.4847 31.265 33.2422 31.2715C33.1199 31.2749 32.9948 31.2727 32.8818 31.2598C32.7995 31.2505 32.7145 31.2354 32.6396 31.2061L32.5693 31.1719C32.4879 31.1248 32.4576 31.0491 32.4443 30.9981C32.4379 30.9733 32.4343 30.9486 32.4316 30.9317C32.4287 30.9125 32.426 30.902 32.4238 30.8926L32.3828 30.7139L32.5654 30.7081L32.8359 30.6944C32.9346 30.6886 33.0412 30.6825 33.1475 30.6807Z" fill="#B51111" stroke="#B51111" stroke-width="0.3"/>
<path d="M34.8809 30.7087C34.9949 30.7059 35.1125 30.709 35.2197 30.7233C35.2982 30.7338 35.3783 30.752 35.4502 30.7819L35.5195 30.8161L35.5713 30.8571C35.6145 30.902 35.6331 30.9554 35.6426 30.9929C35.6489 31.0181 35.6526 31.0436 35.6553 31.0612C35.6583 31.0814 35.6609 31.0926 35.6631 31.1022L35.7041 31.2819L35.5205 31.2858C35.4473 31.2877 35.3583 31.2935 35.2568 31.2995C35.157 31.3054 35.0469 31.3118 34.9375 31.3132C34.7541 31.3155 34.5471 31.3061 34.3848 31.2468L34.3174 31.2175C34.2374 31.177 34.2008 31.1123 34.1826 31.0563C34.1747 31.0318 34.1692 31.0078 34.166 30.9919C34.1623 30.9735 34.1601 30.9629 34.1572 30.9528L34.1104 30.7858L34.2822 30.7624C34.422 30.7437 34.6527 30.7143 34.8809 30.7087Z" fill="#B51111" stroke="#B51111" stroke-width="0.3"/>
<path d="M31.8789 30.6421C32.0113 30.646 32.1748 30.6633 32.2969 30.7397H32.2979L32.2969 30.7407C32.353 30.7761 32.3936 30.8223 32.4111 30.8872C32.4177 30.9115 32.4207 30.9345 32.4219 30.9468C32.4233 30.9615 32.4232 30.9701 32.4248 30.98L32.4482 31.1196L32.3105 31.1509C32.2127 31.173 32.0686 31.2043 31.9248 31.2134C31.822 31.2198 31.6988 31.2169 31.5889 31.1772L31.4854 31.1245C31.4046 31.0691 31.3808 30.9861 31.3721 30.9341C31.3677 30.9079 31.3656 30.882 31.3643 30.8638C31.3628 30.8429 31.3619 30.831 31.3604 30.8208L31.335 30.6489H31.5078C31.59 30.6485 31.7489 30.6382 31.8789 30.6421Z" fill="#B51111" stroke="#B51111" stroke-width="0.3"/>
<path d="M27.1311 3.35374C27.4823 3.47934 27.8466 3.72199 28.1803 3.89336C29.1868 4.40995 30.1854 4.9472 31.1979 5.45166C36.0185 7.85336 40.7336 10.4718 45.5937 12.7956C44.4766 14.6503 43.4961 16.6045 42.4809 18.5155C40.83 21.6158 39.2144 24.7338 37.6339 27.8696C37.074 27.8679 36.5112 27.8372 35.9514 27.8187C36.2142 27.2804 36.9731 25.8723 37.0432 25.3567C36.9449 25.4252 36.0593 27.4602 35.8908 27.7643L35.8595 27.8199L35.1332 27.8182C35.176 27.7398 35.2181 27.6611 35.2596 27.5821C35.5147 27.0956 36.8964 24.3683 36.805 24.0844C36.647 24.2848 36.638 24.573 36.5145 24.7975C36.1834 25.3991 35.3916 27.5614 34.8667 27.822C34.7466 27.8235 34.6409 27.8379 34.5372 27.7672C34.5262 27.3434 36.4531 23.8314 36.4172 23.5647C35.9609 24.0872 35.5259 25.4189 35.1492 26.0969C34.8267 26.6774 34.6251 27.31 34.283 27.8885C34.5026 25.7431 34.6694 24.2358 33.7236 22.1863C32.0228 18.5003 28.128 17.3715 24.3239 18.0991C23.268 18.301 22.0134 18.8804 20.9587 18.8376C20.2805 18.8101 19.5356 18.3615 18.8958 18.1247C18.2008 19.712 17.3497 21.2708 16.5519 22.811C16.2547 23.3845 15.2871 24.897 15.2266 25.4195C15.4881 24.9093 15.793 24.4203 16.0644 23.9137C16.7715 22.6456 17.4023 21.3388 18.0673 20.049C18.3668 19.4682 18.6505 18.8706 18.9935 18.3135C19.5368 18.4953 20.105 18.9003 20.6664 18.9708C21.5125 19.0771 22.3754 18.7365 23.178 18.5156C25.0146 18.0103 26.8995 17.8497 28.7627 18.3225C30.6332 18.7971 32.2631 19.915 33.2414 21.5766C34.3138 23.3985 34.6281 25.7678 34.075 27.8036C31.902 27.8635 29.6919 27.7069 27.5168 27.6544L17.7162 27.4875C17.9543 27.0667 18.2202 26.6604 18.4598 26.2399C18.6986 25.8207 18.9021 25.3856 19.1512 24.9705C19.5905 24.2384 20.1739 23.4959 20.458 22.6874C20.3962 22.7047 17.9599 26.9227 17.618 27.4859C17.5123 27.4852 17.4211 27.4816 17.3173 27.46C17.1311 27.4212 16.9963 27.4018 16.8067 27.4268C16.583 27.4563 16.2991 27.5205 16.0766 27.4592C15.8509 27.3972 16.0377 27.3684 15.9596 27.236C15.9122 27.3128 15.8641 27.3665 15.7982 27.4284C15.5461 27.4218 15.249 27.4509 15.0074 27.3834C15.0425 27.0097 15.8658 26.0484 15.8238 25.7573C15.4589 26.2559 15.1714 26.8823 14.8638 27.4205L14.181 27.3996C14.4834 26.7752 14.8575 26.1897 15.1316 25.5505C14.7666 25.8801 14.2835 26.9464 14.0385 27.4006L11.792 27.34C13.0373 25.0661 14.1732 22.7392 15.3757 20.4443C16.5916 18.1237 17.874 15.8342 19.0665 13.502C19.687 12.2884 20.342 11.0894 20.9508 9.8709C21.4239 8.92389 21.9989 7.47469 22.6358 6.67725C23.7709 5.25611 25.5177 4.18218 27.1311 3.35374Z" fill="white"/>
<path d="M46.3916 13.2091C46.7844 13.4318 47.2187 13.6083 47.6251 13.8094C48.8077 14.3948 49.9952 14.9569 51.1887 15.5199C53.3925 16.5622 55.579 17.6388 57.7482 18.7499C58.0299 19.8088 58.5177 20.8047 58.7907 21.8647C58.8743 22.1898 58.9586 22.5257 58.9851 22.861C59.0038 23.0976 58.9487 23.3441 59.0136 23.5733C59.1376 23.6773 59.2214 23.6433 59.3793 23.646L59.3848 23.6707L59.3534 23.635L59.3798 23.6759C59.1365 24.4029 58.6403 25.1257 58.2699 25.8028C57.8163 26.6319 57.397 27.4788 56.9195 28.2951C55.3001 28.2998 53.6649 28.1942 52.044 28.1596C49.9545 28.1356 47.8669 28.0402 45.7781 28.0089C43.4174 27.9737 41.0386 27.9983 38.6816 27.8828C38.8627 27.2911 39.2164 26.7608 39.5083 26.2177L40.8644 23.676L44.3028 17.0922C44.9889 15.7938 45.7225 14.5152 46.3916 13.2091Z" fill="white"/>
<path d="M50.5371 20.0131L50.5898 20.0541L50.6182 20.0756L50.6338 20.1078C50.7092 20.266 50.695 20.4105 50.665 20.5356L50.6328 20.6537C50.532 21.0015 50.3624 21.4333 50.1338 21.8246C49.9071 22.2126 49.6124 22.5784 49.2559 22.7729L49.1396 22.8363L49.0625 22.7289L49.0068 22.6518C48.8866 22.4511 48.9202 22.2615 48.9648 22.0951L49.0527 21.8178C49.1555 21.5302 49.3034 21.2174 49.4834 20.9291C49.7219 20.5472 50.0272 20.1908 50.374 20.0004L50.46 19.9535L50.5371 20.0131Z" fill="#B51111" stroke="#B51111" stroke-width="0.3"/>
<path d="M47.6963 25.1465L47.8447 25.1982L47.9092 25.2207L47.9346 25.2851L47.9609 25.3593C47.9685 25.3844 47.9751 25.4102 47.9785 25.4375C47.9856 25.4941 47.9802 25.5477 47.9697 25.6064C47.9144 25.9154 47.7408 26.3587 47.5244 26.7636C47.3101 27.1648 47.0361 27.5608 46.7656 27.7519L46.7021 27.7968L46.6289 27.7705L46.457 27.709L46.4131 27.6933L46.3857 27.6552C46.2721 27.4973 46.263 27.3468 46.2861 27.1836V27.1826L46.3115 27.0439C46.384 26.7161 46.5467 26.3743 46.748 26.0654C46.9787 25.7115 47.2683 25.3885 47.5557 25.1689L47.6201 25.1201L47.6963 25.1465Z" fill="#B51111" stroke="#B51111" stroke-width="0.3"/>
<path d="M24.387 0.523552C24.5749 0.51013 24.8047 0.508026 24.9825 0.577125C25.3532 0.72103 25.7212 0.963031 26.0718 1.15147C26.8687 1.57971 27.6659 2.00284 28.4571 2.44189C29.9537 3.27251 31.4952 4.05014 33.0073 4.85469C40.0816 8.563 47.2057 12.1756 54.3796 15.6925C54.9594 15.9714 55.5537 16.22 56.132 16.5018C57.3118 17.0768 58.4772 17.6774 59.6742 18.2179C60.4618 18.5736 61.3247 18.8294 62.0894 19.2139C62.3175 19.3286 62.6747 19.5459 62.7279 19.8196C62.7751 20.062 62.676 20.3699 62.5919 20.598C62.3643 21.2154 61.9988 21.8099 61.7024 22.3992C60.6816 24.4296 59.552 26.3819 58.4129 28.3498C57.9956 28.3445 57.5859 28.3325 57.1703 28.2917C57.499 27.3248 58.2727 26.1022 58.7724 25.1715C59.0564 24.6426 59.2937 24.0734 59.6225 23.5709C59.7815 23.4888 59.9517 23.4221 60.1157 23.3499C60.5423 22.6673 60.7062 21.8811 60.2116 21.1793C60 20.8791 59.7221 20.6024 59.5589 20.2718C59.4187 19.9881 59.4311 19.652 59.3455 19.3521C59.3127 19.2374 59.2599 19.1746 59.1557 19.1151C58.7118 18.8618 57.9503 18.624 57.4496 18.3955C56.2931 17.8679 55.155 17.2818 54.0092 16.7294C49.8198 14.7246 45.6544 12.672 41.5132 10.5717C40.4102 10.0378 39.3343 9.44824 38.2454 8.88692L30.8143 5.0418C30.3714 4.81365 27.5628 3.44834 27.3952 3.29621L27.6305 3.24104C27.6235 3.16625 27.6267 3.13175 27.6419 3.06076L27.7354 3.00654C27.918 3.04218 27.8518 3.15829 28.0433 3.29895C27.9739 3.30189 27.9541 3.29071 27.8977 3.33431C27.9606 3.41943 27.94 3.42038 28.0522 3.449C28.0955 3.26398 28.1551 3.1164 28.3173 3.00568L28.354 3.06512C28.3157 3.20587 28.2721 3.34038 28.2204 3.47696C28.3149 3.39981 28.3671 3.32142 28.4154 3.21156C28.4786 3.06786 28.4618 2.97952 28.4048 2.83839C28.361 2.80758 28.3249 2.76132 28.2734 2.74587C28.0912 2.69137 27.3437 3.19393 27.0428 3.19336C26.8944 3.19308 26.8191 3.1199 26.7322 3.01497C26.6631 2.93147 26.6322 2.88957 26.522 2.85895C26.2286 2.89924 26.1187 2.85621 25.8689 2.71829C25.6891 2.61905 25.6144 2.58227 25.4084 2.6399C25.3283 2.71365 25.3141 2.76483 25.2923 2.86654C25.2895 2.87924 25.269 2.98085 25.2647 2.99526C25.1573 3.34891 24.8919 3.06881 24.6487 3.14246C24.4332 3.20767 24.3628 3.67004 24.1254 3.80369C23.9459 3.80199 23.7896 3.71772 23.6289 3.6472C23.3946 3.87621 23.1597 4.41791 23.0202 4.72275C22.9256 4.92957 23.0721 5.0872 23.011 5.23185C22.8858 5.52777 22.7116 5.80796 22.5781 6.10199C22.0973 7.16199 21.6089 8.20568 21.0838 9.24549C18.0207 15.3112 14.7134 21.2572 11.6582 27.3265C11.1516 27.3248 10.6433 27.304 10.1367 27.2923C11.6278 24.8527 12.8384 22.2247 14.1543 19.6896C16.3776 15.4898 18.5702 11.2744 20.732 7.04341L22.8199 2.889C23.127 2.28104 23.4012 1.62085 23.7632 1.04322C23.913 0.804234 24.1408 0.652566 24.387 0.523552Z" fill="white"/>
<path d="M44.0814 3.3563C44.2902 3.42066 44.6131 3.75497 44.8062 3.89839C45.6624 4.5346 46.772 4.74559 47.8173 4.81166C48.1515 5.18303 48.4295 5.62474 48.7163 6.03346C49.2846 6.84322 49.8392 7.66369 50.4158 8.46758L54.0694 13.5964C54.632 14.3791 55.2348 15.1336 55.7845 15.9254C54.9125 15.4972 54.2112 14.2644 53.6136 13.5057L53.5311 13.5203L53.535 13.5051C54.0011 14.2425 54.6571 14.8372 55.116 15.5674L55.1519 15.6255C54.9217 15.5382 54.7314 15.4489 54.5275 15.3067C54.0992 15.0432 53.6126 14.8678 53.1546 14.6595C52.6487 14.4295 52.1571 14.1713 51.6649 13.9141L42.2409 9.10625C40.98 8.46085 39.6557 7.87365 38.4326 7.16284C38.9592 6.75431 39.5773 6.4182 40.1311 6.04189C41.4396 5.13472 42.7564 4.23952 44.0814 3.3563Z" fill="white"/>
<path d="M59.6292 5.32152C59.8144 5.30986 60.0074 5.35034 60.1907 5.37555C60.2282 5.40139 60.2653 5.42778 60.302 5.45469C60.4691 5.57877 60.5859 5.70228 60.6797 5.88815C61.0123 6.54749 61.3204 8.38285 61.4365 9.17327C61.1027 9.10218 60.7624 9.05384 60.4255 8.99811C60.2566 7.8819 59.6532 7.51394 58.6208 7.2382C58.4729 7.19868 58.2608 7.17233 58.1494 7.06228C58.0909 7.00436 58.0757 6.98692 57.9999 6.95953C57.9785 7.03384 57.9755 7.09479 57.978 7.17128L57.9815 7.26455L57.9474 7.28247C57.7965 7.13384 57.6369 7.00626 57.4684 6.8782C56.8309 7.14626 52.4709 8.41081 52.2894 8.58607L52.3244 8.63877L52.6056 8.63469C52.9982 8.87318 54.8004 11.4223 55.3922 12.0042C54.9684 11.3305 54.4365 10.73 53.9316 10.1157C53.5101 9.60304 53.1097 9.07413 52.6847 8.56427L53.1651 8.43251C54.017 9.25375 54.4882 10.4569 55.3748 11.2486C55.3201 11.1029 53.4865 8.65716 53.2522 8.39906C53.3975 8.35015 53.5321 8.29498 53.6881 8.29887C53.7644 8.35631 53.8081 8.39128 53.9046 8.40285C53.8946 8.3419 53.8894 8.28351 53.885 8.22199C54.5927 7.98323 56.8111 7.12882 57.3987 7.11621C57.5586 7.19659 57.6355 7.31052 57.7408 7.45062C58.2636 8.5856 59.0883 9.01801 60.2138 9.48133C60.5358 10.4794 60.7261 11.5502 60.9579 12.5733C61.4534 14.7597 61.9019 16.9573 62.4188 19.1385C61.7842 18.8431 61.083 18.6355 60.4691 18.3071C60.3209 18.2278 60.2561 18.2109 60.2065 18.0397C60.2022 18.0247 60.1983 18.0097 60.1941 17.9946C60.1765 17.9978 60.1581 17.9987 60.1412 18.0043C60.1109 18.0142 60.0824 18.0288 60.0531 18.0411C59.602 17.9631 59.1068 17.6187 58.7053 17.3975C58.6522 17.2882 58.5707 17.0612 58.4624 17.0135C58.4647 17.0319 58.4638 17.0511 58.4692 17.069C58.494 17.1511 58.5183 17.166 58.5317 17.2628C58.4801 17.2602 58.4765 17.2633 58.4203 17.2414C57.5978 16.921 54.0511 11.2918 53.335 10.2341C52.7756 9.40797 52.0397 8.58787 51.6133 7.68853C53.3862 7.18778 55.1541 6.62578 56.9165 6.08673C57.7886 5.81991 58.7259 5.44 59.6292 5.32152Z" fill="white"/>
<path d="M60.6148 25.3755C61.1195 25.3644 61.6244 25.3594 62.1294 25.3605C62.9401 25.3725 63.7506 25.3894 64.561 25.4109C66.137 25.4444 67.508 25.3994 68.6896 26.5932C69.4034 27.3142 69.7757 28.1891 69.9517 29.1727C70.1873 30.4895 70.0262 32.537 70.0269 33.9323C70.0318 37.9613 70.0007 41.9901 69.9334 46.0186C69.5733 46.2528 69.1854 46.4191 68.7849 46.5732L68.7794 46.0308L68.7937 37.0056C68.7951 35.6547 68.945 33.5831 68.6891 32.339C68.6672 32.2329 68.6416 32.1276 68.6124 32.0232C68.5833 31.9188 68.5507 31.8155 68.5144 31.7133C68.4782 31.611 68.4386 31.5101 68.3955 31.4106C68.3523 31.311 68.3059 31.213 68.2561 31.1165C68.2063 31.02 68.1532 30.9253 68.0969 30.8323C68.0407 30.7394 67.9813 30.6484 67.9188 30.5594C67.8563 30.4704 67.7908 30.3836 67.7224 30.299C67.654 30.2143 67.5828 30.132 67.5087 30.0521C66.0493 28.5039 64.1166 28.4591 62.1242 28.416C61.0254 28.3923 59.9266 28.3917 58.8281 28.35C59.2427 27.5258 59.8258 26.3029 60.3353 25.5627C60.4246 25.4329 60.4601 25.4099 60.6148 25.3755Z" fill="white"/>
<path d="M60.4424 9.50398C60.814 9.57248 61.1844 9.64645 61.5538 9.72588C61.8828 10.7747 62.071 11.9134 62.3064 12.9868L63.7259 19.5648L64.5678 23.4549C64.6708 23.9384 64.8736 24.5208 64.8687 25.0111L64.7957 25.0621C64.422 25.0756 64.0518 25.065 63.6782 25.0512C63.3792 23.6521 63.1414 22.2391 62.8317 20.8428C62.9241 20.5854 62.9896 20.3198 63.0597 20.0558C62.9922 19.8595 62.9096 19.7014 62.7959 19.5274C62.7032 19.3854 62.6322 19.2622 62.5827 19.0988C62.279 18.0955 62.1329 17.0244 61.9098 16.0005C61.4344 13.8319 60.9452 11.6664 60.4424 9.50398Z" fill="white"/>
<path d="M48.2227 4.80511C48.5969 4.86208 48.9567 4.88047 49.335 4.88379C50.016 5.82123 50.6384 6.8109 51.2916 7.76815L55.2902 13.6324C56.0164 14.7053 56.8381 15.7144 57.5569 16.7887C57.1076 16.5886 56.5611 16.401 56.1627 16.1169C55.6822 15.7742 53.619 12.6537 53.1329 11.9742L49.8525 7.39175C49.3959 6.74085 48.9131 6.09488 48.4906 5.42218C48.3699 5.23023 48.258 5.0309 48.2227 4.80511Z" fill="white"/>
<path d="M45.6939 12.8671L46.2399 13.1423L46.2248 13.1759C45.6867 14.3549 44.9883 15.4934 44.3785 16.641L40.9689 23.1906C40.1511 24.7399 39.257 26.2596 38.528 27.8535L38.4122 27.8814L37.748 27.8676C40.3283 22.8321 42.9769 17.832 45.6939 12.8671Z" fill="white"/>
<path d="M69.4052 60.2356L69.4738 60.3013C69.4951 61.0506 69.4549 61.8118 69.4431 62.562C69.423 63.728 69.4155 64.8941 69.4206 66.0603L69.412 69.0993C69.4098 69.822 69.4428 70.5694 69.3352 71.2856C69.2366 71.9417 68.9428 72.5535 68.6557 73.146L68.6196 73.1571C68.5322 72.9408 68.5835 61.7418 68.6175 60.5636L69.4052 60.2356Z" fill="white"/>
<path d="M43.3105 2.20939C43.8496 1.80152 45.3759 0.461575 46.0406 0.539054C46.3432 0.574333 46.5116 0.784808 46.6789 1.01318C47.5802 2.24161 48.4457 3.49419 49.2754 4.7709C48.8604 4.70427 48.4575 4.6783 48.0384 4.65678C47.7926 4.33441 47.0988 3.19365 46.8193 3.03384C46.7808 3.14209 46.796 3.08455 46.7758 3.20692C46.4077 3.23251 46.0921 3.1454 45.7529 3.01754C45.6648 2.98436 45.608 2.97972 45.5149 2.98104C45.4544 3.16351 45.4024 3.35413 45.3347 3.53346C45.2844 3.66683 45.2019 3.79744 45.0695 3.86019C44.9735 3.79337 44.9709 3.79213 44.9362 3.68171C44.9771 3.51763 45.1362 3.42446 45.2598 3.30758C45.2898 3.18721 45.2357 3.1019 45.188 2.99365L45.1646 2.94123C45.2249 2.89725 45.3131 2.92768 45.3863 2.93394C45.3145 2.79071 45.3127 2.74029 45.1638 2.66825C44.8527 2.68341 44.5354 2.90503 44.329 3.13062C44.3035 3.15839 44.2766 3.19858 44.2556 3.22787L43.3105 2.20939Z" fill="white"/>
<path d="M43.1275 2.30976C43.464 2.54995 43.7347 2.91042 43.9905 3.22948C43.399 3.63308 42.7916 4.01279 42.2043 4.42246C40.921 5.31763 39.6517 6.25137 38.2724 6.99896C38.0535 7.06114 37.6413 6.78417 37.4395 6.67981C38.4511 5.7473 39.634 4.93251 40.7445 4.11564C41.5483 3.52445 42.3269 2.90398 43.1275 2.30976Z" fill="white"/>
<path d="M62.4687 21.5048C62.5192 21.5849 62.5141 21.5566 62.5255 21.6381C62.6019 22.1847 62.6786 22.7219 62.7945 23.2624C62.9145 23.8218 63.1023 24.4361 63.1394 25.0037L62.8688 25.077C62.7488 24.9292 62.6971 24.7768 62.6412 24.5989C62.4349 23.9434 62.057 22.8197 62.1629 22.16C62.1973 21.9457 62.3662 21.6972 62.4687 21.5048Z" fill="white"/>
<path d="M25.4706 3.31545C25.6795 3.39773 25.9078 3.5747 26.1401 3.53763C26.1705 3.5328 26.2007 3.52635 26.2311 3.52067C25.6868 3.96512 25.0316 4.31631 24.4478 4.71251C24.2091 4.8745 23.9914 5.12266 23.7286 5.23375L23.7028 5.12948L23.673 5.0855C23.4722 4.99972 23.4138 4.97109 23.1982 5.00787C23.2004 4.99498 23.201 4.98171 23.2045 4.96901C23.2413 4.8346 23.381 4.63905 23.5065 4.57488C23.6036 4.64465 23.6044 4.78977 23.6314 4.90398L23.6901 4.93868C24.2045 4.71308 25.2301 3.81251 25.4706 3.31545Z" fill="white"/>
<path d="M61.6377 23.1203L62.0221 22.3156C62.1235 23.0103 62.3158 23.7048 62.5004 24.3824C62.5534 24.5505 62.692 24.8243 62.6259 24.9848C62.5039 25.0318 62.4333 25.0389 62.3031 25.0277C62.0239 24.7459 61.9296 23.5638 61.6377 23.1203Z" fill="white"/>
<path d="M62.6953 21.0713C62.7044 21.0833 62.7148 21.0945 62.7224 21.1075C62.8186 21.27 63.5316 24.9194 63.5038 25.0815C63.3835 25.04 63.3272 25.0443 63.2712 24.924C63.0484 24.4459 62.6032 21.9299 62.6065 21.419C62.6073 21.2921 62.6435 21.1859 62.6953 21.0713Z" fill="white"/>
<path d="M61.6375 23.1203C61.7237 23.672 62.1581 24.5069 62.1398 25.0197L61.7905 25.0561L61.7729 25.0526C61.5732 24.9051 61.392 23.9964 61.335 23.7344C61.4237 23.5189 61.5114 23.3183 61.6375 23.1203Z" fill="white"/>
<path d="M58.4268 19.0336C58.6083 19.0608 58.8159 19.128 58.9542 19.2527C59.2953 19.5605 59.4853 21.0264 59.5078 21.4985C59.454 21.4778 59.4823 21.4912 59.4152 21.448C59.337 21.3977 59.2916 21.3189 59.2662 21.23C59.1987 20.995 59.1864 20.7104 59.1325 20.4661C59.0591 20.1346 58.9423 19.8186 58.873 19.4842C58.7006 19.3436 58.5545 19.2181 58.4268 19.0336Z" fill="white"/>
<path d="M61.2142 23.9173C61.2323 23.9365 61.2537 23.9532 61.2687 23.9748C61.3865 24.1428 61.6018 24.8112 61.5758 25.016C61.4667 25.0664 61.416 25.0813 61.2959 25.0657C61.1506 24.9639 61.1177 24.717 61.0697 24.5545L60.9688 24.5169C60.9616 24.6902 61.0704 24.8551 61.018 25.0229C60.8834 25.0554 60.7863 25.0263 60.6562 24.9942C60.7311 24.6563 61.0477 24.229 61.2142 23.9173Z" fill="white"/>
<path d="M59.5908 20.7321C59.7126 20.8342 59.8219 20.9536 59.9335 21.0667C60.0061 21.422 60.0629 21.7314 59.9996 22.0955C59.8991 22.0956 59.8161 22.0879 59.7183 22.0649C59.5854 21.9086 59.6234 21.0121 59.5908 20.7321Z" fill="white"/>
<path d="M59.0967 22.0694C59.2726 22.1704 59.384 22.3698 59.5482 22.498C59.6356 22.4319 59.67 22.3622 59.7253 22.2705L59.8157 22.2482L59.9188 22.3102C59.9215 22.4571 59.7907 22.6007 59.7094 22.7178C59.6283 22.8254 59.5731 22.9878 59.5161 23.1116C59.2952 22.7685 59.1715 22.4706 59.0967 22.0694Z" fill="white"/>
<path d="M58.5352 20.5441C58.69 20.594 58.8214 20.644 58.9611 20.7272C59.0247 20.8877 58.9026 20.9915 58.9505 21.115C59.0792 21.4469 59.4316 21.6276 59.4572 22.0102L59.3512 22.0092C58.9388 21.6377 58.7585 21.0385 58.5352 20.5441Z" fill="white"/>
<path d="M60.2712 21.8201C60.3553 22.0176 60.3714 22.3001 60.3353 22.5107C60.2797 22.8347 60.1131 23.1054 59.8377 23.2876L59.8064 23.2599C59.7564 23.0716 60.2336 22.1519 60.2712 21.8201Z" fill="white"/>
<path d="M45.7529 3.10692C45.7643 3.11763 45.778 3.12644 45.7871 3.13905C45.9462 3.35858 45.7309 3.74066 45.7186 3.9946C45.7169 4.02616 45.7165 4.05772 45.7155 4.08929L45.6387 4.14654C45.5945 4.11592 45.533 4.07877 45.496 4.03782C45.4128 3.94569 45.3886 3.82057 45.4036 3.7C45.4335 3.46009 45.5769 3.26597 45.7529 3.10692Z" fill="white"/>
<path d="M46.8525 3.35668C47.0966 3.6073 47.2742 4.2491 47.4573 4.59185C47.3486 4.58986 47.1667 4.59971 47.0851 4.52208C46.8384 4.2872 46.8757 3.67166 46.8525 3.35668Z" fill="white"/>
<path d="M58.2834 7.32957C58.3361 7.33014 58.4135 7.32531 58.4663 7.3382C58.5869 7.36739 58.6425 7.39478 58.6891 7.51241C58.7472 7.65895 58.7374 8.01223 58.6723 8.15289C58.6403 8.22189 58.6373 8.20114 58.5514 8.22929C58.4425 8.16872 58.4287 8.14464 58.363 8.03791L58.3822 7.98009L58.5359 8.02606L58.5698 8.06455L58.5993 8.03516C58.5935 8.01355 58.5882 7.99185 58.5821 7.97042C58.542 7.8309 58.4586 7.6181 58.3267 7.54625C58.2715 7.61943 58.2628 7.62976 58.1744 7.67005C58.0748 7.57014 58.0741 7.52076 58.041 7.38739C58.1013 7.39298 58.0702 7.38654 58.1454 7.41658C58.1659 7.42483 58.1863 7.43346 58.2066 7.4418L58.2834 7.32957Z" fill="white"/>
<path d="M23.77 3.97573C23.992 3.9708 24.1663 4.02369 24.3512 4.14095L24.3587 4.22758C24.2669 4.28066 24.1833 4.31801 24.0825 4.35175C24.0543 4.33725 24.0274 4.31971 23.9977 4.30834C23.8878 4.26635 23.8532 4.2999 23.7557 4.3454C23.6446 4.39734 23.6537 4.41734 23.5332 4.37621C23.6199 4.24815 23.6932 4.10995 23.77 3.97573Z" fill="white"/>
<path d="M24.6318 3.45829C24.6711 3.45421 24.7088 3.44938 24.7487 3.45023C24.87 3.45298 24.9014 3.44369 24.9895 3.52635C24.9694 3.6727 24.8487 3.77052 24.752 3.87535C24.6733 3.92796 24.6241 3.9453 24.5301 3.95867L24.4707 3.89241C24.4837 3.7126 24.5391 3.61184 24.6318 3.45829Z" fill="white"/>
<path d="M58.3486 19.922C58.456 19.9538 58.5759 19.9839 58.6743 20.0374C58.8691 20.1437 58.9006 20.3432 58.9545 20.5383C58.8876 20.4927 58.829 20.4588 58.7509 20.4347C58.6872 20.4152 58.6097 20.3999 58.5502 20.3699C58.4137 20.301 58.3829 20.0585 58.3486 19.922Z" fill="white"/>
<path d="M58.1279 19.1283C58.4129 19.227 58.5649 19.5889 58.7185 19.8338C58.6091 19.8264 58.5196 19.8083 58.4149 19.7765C58.2296 19.6172 58.1927 19.3538 58.1279 19.1283Z" fill="white"/>
<path d="M46.3747 3.89953C46.5315 3.9345 46.5867 3.92872 46.6983 4.04768C46.7321 4.19195 46.7006 4.30541 46.6694 4.44616C46.5731 4.41858 46.4974 4.37887 46.4105 4.32977C46.3208 4.19185 46.3576 4.05365 46.3747 3.89953Z" fill="white"/>
<path d="M46.4111 3.23488C46.4982 3.26549 46.5735 3.30711 46.6537 3.35194C46.75 3.49175 46.7222 3.68322 46.72 3.84692L46.5557 3.79829C46.4063 3.6473 46.4259 3.43848 46.4111 3.23488Z" fill="white"/>
<path d="M45.9814 3.85801C46.0643 3.89744 46.0967 3.92351 46.1609 3.98502C46.1998 4.11754 46.1768 4.20711 46.1472 4.33706C46.0766 4.30493 46.0091 4.26768 45.9407 4.23138C45.8852 4.08664 45.939 4.00417 45.9814 3.85801Z" fill="white"/>
</g>
<defs>
<clipPath id="clip0_129_700">
<rect width="72" height="80" fill="white"/>
</clipPath>
</defs>
</svg>
