<svg xmlns="http://www.w3.org/2000/svg" width="24" height="24" fill="currentColor" viewBox="0 0 24 24">
  <path d="m13.019.96.144.039.002.001.411.179a18.502 18.502 0 0 1 9.395 9.591l.03.072c.026.073.042.15.046.227v.077a.775.775 0 0 1-.461.667h-.001a.77.77 0 0 1-.438.05l-.143-.042a.773.773 0 0 1-.422-.401v-.001a16.974 16.974 0 0 0-8.613-8.797l-.376-.165a.77.77 0 0 1-.197-.117l-.056-.05a.775.775 0 0 1-.136-.186l-.032-.069a.773.773 0 0 1-.058-.299l.004-.077a.774.774 0 0 1 .059-.222.773.773 0 0 1 .403-.42l.143-.047a.77.77 0 0 1 .296-.01Zm-.387 3.956.14.035.003.001.518.235a11.746 11.746 0 0 1 5.712 5.97l.044.14c.02.095.023.194.007.29l-.038.142a.772.772 0 0 1-.383.424h-.001a.716.716 0 0 1-.303.07h-.002a.77.77 0 0 1-.306-.077l-.092-.052a.772.772 0 0 1-.273-.319v-.002a10.26 10.26 0 0 0-4.988-5.21l-.453-.204a.772.772 0 0 1-.334-.28l-.07-.132a.774.774 0 0 1-.005-.576V5.37l.07-.127a.772.772 0 0 1 .331-.271l.138-.045a.77.77 0 0 1 .285-.01Zm2.217 11.725c.584-.6 1.176-1.192 1.767-1.777.16-.187.36-.337.583-.44l.173-.069a1.714 1.714 0 0 1 1.263.069l.164.086c.158.094.3.214.42.354l1.42 1.416c.47.471.939.942 1.404 1.413l.137.131c.13.137.236.295.316.468l.07.176a1.752 1.752 0 0 1 0 1.114l-.07.177c-.106.23-.26.433-.453.597-.407.407-.826.8-1.223 1.21l-.387.418a3.16 3.16 0 0 1-.97.741l-.16.075a3.154 3.154 0 0 1-1.194.252l-.175-.003h-.285a11.345 11.345 0 0 1-4.344-1.277l-.565-.282a23.587 23.587 0 0 1-7.306-5.88 21.805 21.805 0 0 1-3.838-6.407 8.365 8.365 0 0 1-.639-3.575v-.001l.028-.28c.097-.65.41-1.25.89-1.705l.452-.437c.149-.147.296-.295.443-.443l.885-.89c.168-.178.369-.322.592-.424l.171-.068a1.84 1.84 0 0 1 .54-.099h.003l.183.014c.18.023.358.074.525.15l.162.082c.158.091.301.205.426.339L7.7 3.311l1.393 1.395h-.001c.195.163.352.366.46.597l.071.176a1.745 1.745 0 0 1-.534 1.902l-.001-.001c-.583.59-1.158 1.176-1.75 1.754l-.003.003-.031-.04.03.04a.311.311 0 0 0-.1.133l-.016.055a.312.312 0 0 0 .011.166l.025.05.002.006.158.34c.328.675.728 1.312 1.191 1.9l.238.29v.003l.236.293a18.273 18.273 0 0 0 4.18 3.741c.182.114.375.213.571.31l.588.296.006.002-.03.041.03-.04c.032.024.069.04.107.05l.059.006c.02 0 .039 0 .058-.004l.058-.016a.302.302 0 0 0 .053-.027l.046-.038a.298.298 0 0 0 .038-.045l.005-.008ZM4.9 2.831l-.06.027a.24.24 0 0 0-.088.099l-.004.008-.728.728c-.191.184-.373.366-.554.548l-.55.543a1.45 1.45 0 0 0-.446.985 6.82 6.82 0 0 0 .407 2.564l.138.347v.002l.163.407a20.13 20.13 0 0 0 3.15 5.213l.284.334h.001l.384.449a22.315 22.315 0 0 0 6.45 5.052l.528.266.001.001.445.222a9.868 9.868 0 0 0 3.33.892h.202l.188.003a1.601 1.601 0 0 0 1.147-.556h.001l.283-.31c.095-.1.19-.197.285-.292l.567-.55.54-.535c.063-.064.105-.114.134-.156a.217.217 0 0 0 .042-.103.206.206 0 0 0-.025-.101c-.02-.042-.05-.09-.092-.153a218.1 218.1 0 0 1-2.879-2.834l-.004-.004a.396.396 0 0 0-.213-.144.419.419 0 0 0-.205.144l-.004.005-.036-.036.035.036c-.605.6-1.183 1.168-1.751 1.752v.001a1.84 1.84 0 0 1-.444.36l-.17.089c-.175.078-.361.13-.551.15l-.192.01a1.867 1.867 0 0 1-.934-.26l-.386-.192a9.392 9.392 0 0 1-.826-.444h-.001a19.792 19.792 0 0 1-4.802-4.346v-.001a11.614 11.614 0 0 1-1.81-2.9 1.855 1.855 0 0 1-.132-1.119l.033-.14a1.85 1.85 0 0 1 .508-.85l.763-.75c.25-.25.498-.498.743-.75l.246-.246v-.001l.14-.149c.029-.04.039-.067.04-.09 0-.024-.009-.052-.038-.094a.765.765 0 0 0-.057-.07l-.085-.09-.686-.686-.72-.723-.477-.476v-.001c-.31-.318-.62-.635-.938-.946l-.005-.005-.004-.008a.24.24 0 0 0-.037-.056l-.051-.043a.24.24 0 0 0-.193-.027Z"/>
</svg>
