<svg width="31" height="31" viewBox="0 0 31 31" fill="none" xmlns="http://www.w3.org/2000/svg">
<path d="M28.403 16.1898L30.0974 6.89815C30.127 6.73856 30.1199 6.57434 30.0765 6.41793C30.0332 6.26152 29.9549 6.11701 29.8474 5.99537C29.7448 5.86978 29.6155 5.76852 29.469 5.69887C29.3225 5.62923 29.1624 5.59293 29.0002 5.59259H6.59744L5.91688 1.85648C5.82288 1.3464 5.55341 0.885278 5.15517 0.552987C4.75692 0.220695 4.25499 0.0381715 3.73633 0.0370369H1.22244C0.927754 0.0370369 0.645139 0.1541 0.436765 0.362474C0.228391 0.570847 0.111328 0.853463 0.111328 1.14815C0.111328 1.44283 0.228391 1.72545 0.436765 1.93382C0.645139 2.1422 0.927754 2.25926 1.22244 2.25926H3.73633L7.54188 23.2315C6.9993 23.7094 6.6007 24.3291 6.39084 25.021C6.18099 25.713 6.16819 26.4497 6.35388 27.1485C6.53957 27.8473 6.9164 28.4805 7.44205 28.9769C7.9677 29.4734 8.62135 29.8135 9.3296 29.959C10.0378 30.1046 10.7726 30.0498 11.4515 29.8008C12.1303 29.5518 12.7263 29.1185 13.1725 28.5496C13.6186 27.9806 13.8974 27.2985 13.9774 26.5799C14.0573 25.8613 13.9354 25.1346 13.6252 24.4815H21.0419C20.6808 25.2428 20.5767 26.1008 20.7453 26.9264C20.914 27.752 21.3462 28.5005 21.977 29.0592C22.6077 29.618 23.4029 29.9567 24.2428 30.0244C25.0827 30.0922 25.9219 29.8853 26.6341 29.4349C27.3463 28.9845 27.8929 28.315 28.1917 27.5271C28.4905 26.7392 28.5253 25.8756 28.2909 25.0662C28.0565 24.2569 27.5655 23.5455 26.8919 23.0393C26.2182 22.5331 25.3984 22.2593 24.5558 22.2593H9.62522L9.01411 18.9259H25.1252C25.9054 18.9255 26.6607 18.6515 27.2597 18.1516C27.8586 17.6516 28.2632 16.9574 28.403 16.1898ZM11.778 26.1481C11.778 26.4778 11.6802 26.8 11.4971 27.0741C11.314 27.3482 11.0537 27.5618 10.7491 27.6879C10.4446 27.8141 10.1095 27.8471 9.78618 27.7828C9.46288 27.7185 9.1659 27.5597 8.93282 27.3267C8.69973 27.0936 8.54099 26.7966 8.47669 26.4733C8.41238 26.15 8.44538 25.8149 8.57153 25.5103C8.69767 25.2058 8.9113 24.9455 9.18538 24.7624C9.45946 24.5792 9.78169 24.4815 10.1113 24.4815C10.5534 24.4815 10.9773 24.6571 11.2898 24.9696C11.6024 25.2822 11.778 25.7061 11.778 26.1481ZM26.2224 26.1481C26.2224 26.4778 26.1247 26.8 25.9416 27.0741C25.7584 27.3482 25.4981 27.5618 25.1936 27.6879C24.889 27.8141 24.5539 27.8471 24.2306 27.7828C23.9073 27.7185 23.6104 27.5597 23.3773 27.3267C23.1442 27.0936 22.9854 26.7966 22.9211 26.4733C22.8568 26.15 22.8898 25.8149 23.016 25.5103C23.1421 25.2058 23.3557 24.9455 23.6298 24.7624C23.9039 24.5792 24.2261 24.4815 24.5558 24.4815C24.9978 24.4815 25.4217 24.6571 25.7343 24.9696C26.0468 25.2822 26.2224 25.7061 26.2224 26.1481ZM7.00022 7.81481H27.6669L26.2224 15.787C26.1767 16.0445 26.0416 16.2776 25.8409 16.4453C25.6402 16.613 25.3867 16.7045 25.1252 16.7037H8.61133L7.00022 7.81481Z" fill="#1C1C1C"/>
</svg>
