<svg width="140" height="120" viewBox="0 0 140 120" fill="none" xmlns="http://www.w3.org/2000/svg">
<g clip-path="url(#clip0_114_794)">
<path d="M97.0892 0.0663648C98.0195 0.0307469 98.3537 1.02224 99.0954 1.40349C99.7026 1.71564 100.443 1.86698 101.097 2.05745C102.153 2.36486 103.229 2.64461 104.262 3.02494C105.309 3.41031 106.329 3.90285 107.356 4.34203L113.114 6.76389C116.764 8.2684 120.505 9.57205 124.231 10.8639C126.262 11.5683 128.324 12.4872 130.443 12.8792C131.042 15.5534 130.514 18.3265 130.012 20.9668C129.822 21.9671 129.666 22.9825 129.439 23.9742C128.79 26.81 127.801 29.7521 126.538 32.3678C125.302 34.926 123.604 37.241 122.521 39.8848C122.226 40.6172 121.944 41.3547 121.674 42.0972C121.404 42.8398 121.146 43.5869 120.902 44.3386C120.658 45.0903 120.426 45.8461 120.207 46.6062C119.989 47.3661 119.783 48.1297 119.59 48.897C119.398 49.6644 119.218 50.435 119.052 51.2087C118.886 51.9824 118.732 52.7588 118.593 53.5381C118.453 54.3173 118.326 55.0987 118.213 55.8824C118.1 56.6661 118 57.4516 117.914 58.2388C117.798 59.3552 117.654 60.4525 117.661 61.5773C119.914 60.1792 120.932 60.4034 123.427 60.8038C124.515 60.2041 125.529 59.5564 126.729 59.1984C128.223 58.7528 129.596 58.7635 130.975 59.568C131.839 60.072 131.975 61.045 132.22 61.9484C133.57 61.7513 135.226 61.6542 136.407 62.4914C137.725 63.4259 137.725 65.2715 137.502 66.7219C137.446 67.0855 137.277 67.6676 137.373 68.0235C137.476 68.4041 138.418 68.6255 138.759 68.8586C139.423 69.3123 139.799 70.3134 139.912 71.0888C139.938 71.2705 139.954 71.4532 139.96 71.637C139.966 71.8206 139.961 72.004 139.946 72.1871C139.93 72.3701 139.904 72.5517 139.868 72.7318C139.832 72.9118 139.786 73.089 139.729 73.2635C139.44 74.1861 138.924 75.0393 138.47 75.8856C137.429 77.7926 136.313 79.6529 135.122 81.4663C133.932 83.2797 132.671 85.0401 131.339 86.7475C129.764 88.7789 128.051 90.655 126.542 92.7453C125.521 94.1595 124.029 95.3042 122.435 95.9768C121.774 96.2558 121.093 96.4452 120.451 96.774C118.416 97.8162 116.387 98.9005 114.34 99.9135L105.898 104.106C103.567 105.293 101.191 106.788 98.6321 107.395C98.2643 107.482 97.8928 107.547 97.5176 107.59C97.1424 107.634 96.766 107.654 96.3885 107.653C93.9459 107.641 91.5226 107.178 89.1208 106.773C86.6946 106.363 84.2615 105.951 81.8608 105.402C80.7953 105.158 79.7481 104.806 78.6792 104.584C77.1544 104.266 75.5948 104.096 74.0643 103.802C72.4256 103.488 70.8041 103.023 69.1704 102.727C67.8484 102.487 66.4662 102.374 65.1298 102.229C63.878 102.093 62.1768 101.679 60.9565 101.876C59.749 102.072 58.5441 101.788 57.32 101.955C55.657 102.181 53.9824 102.477 52.3347 102.799C51.0529 103.05 49.8124 103.361 48.5097 103.503C48.3766 104.387 48.2433 105.297 47.9186 106.134C47.3949 107.482 46.2329 108.38 44.9629 108.93C44.1997 109.211 43.3546 109.216 42.604 109.51C42.0942 109.71 42.1883 109.922 41.9814 110.381C41.8454 110.682 41.5668 110.931 41.2821 111.081C40.5824 111.449 39.6818 111.575 38.9277 111.836C37.0097 112.499 35.1214 113.261 33.2076 113.939C30.5288 114.916 27.8146 115.775 25.065 116.517C23.7506 116.858 22.375 117.183 21.0353 117.393C20.1175 117.538 19.1741 117.58 18.2649 117.769C14.2666 118.601 10.4696 119.853 6.34657 119.95C5.90506 119.96 5.20924 120.061 4.81516 119.846C4.66234 119.763 4.6471 119.759 4.59255 119.587C4.69213 119.478 4.77558 119.394 4.84088 119.259C4.94883 119.036 4.34718 118.197 4.22529 117.936C2.73006 114.732 1.97135 111.34 1.25492 107.89C1.02989 106.806 0.767279 105.733 0.613832 104.634C0.394956 103.068 0.318233 101.512 0.218006 99.9365C0.108845 98.2202 -0.0131352 96.576 0.0500217 94.8537C0.11022 93.2123 0.361354 91.5652 0.563987 89.9369C0.824399 87.8443 1.06416 85.7448 1.43112 83.6683C1.90107 81.009 2.75668 77.7317 2.80373 75.0772C3.86625 74.9922 4.9255 74.7186 5.97429 74.5241C7.57215 74.2279 9.18554 74.0353 10.7771 73.6915C12.4287 73.3347 14.038 72.8052 15.7088 72.5294C17.1354 72.2938 18.5512 72.284 19.9815 72.1327C22.359 71.8814 24.685 71.528 27.0816 71.4084C28.5841 71.3335 30.1053 71.4141 31.6048 71.3111C31.859 71.2936 31.9024 71.2247 32.0729 71.0337C33.6292 70.7289 37.5432 70.9419 39.1361 71.1855C39.5752 71.2526 40.1763 71.2841 40.4303 71.7216C40.6072 72.0265 40.4353 72.3967 40.3423 72.7075C42.0023 72.7396 43.6566 72.5911 45.3176 72.62C46.133 73.0615 46.2273 74.0354 46.8379 74.1744C47.2791 74.2748 47.855 74.0183 48.2621 73.8549C51.091 72.7193 53.1578 70.5785 55.6159 68.8468C57.0693 67.8231 58.5564 66.8629 60.1384 66.0618C63.1571 64.5331 67.778 63.0871 71.1631 63.2515C72.9728 63.3392 76.4668 64.2723 78.2678 64.8946C78.2418 63.9855 78.1435 63.0248 77.9964 62.1281C77.6067 59.7542 76.6533 60.7848 75.2814 59.7859C75.1998 59.6585 75.114 59.5119 75.1339 59.3506C75.1716 59.0443 75.8648 58.4252 76.073 58.1698C76.5179 57.6234 76.7558 56.9546 76.9824 56.2907C77.3038 55.3498 77.7482 54.3044 77.9225 53.3294C78.0622 52.5484 77.9992 51.7186 77.9998 50.9266L78.0092 47.5186C78.0222 44.9231 78.1328 42.3262 78.063 39.7298C77.9473 35.4217 77.5233 31.1112 77.4683 26.8042C77.4392 24.5262 77.6282 22.2347 77.7421 19.9588C77.8371 18.0587 78.3414 16.4244 78.8229 14.6105C78.9544 14.1155 78.9982 13.2388 79.3355 12.8527C79.4612 12.7087 79.7778 12.6694 79.9543 12.6457C81.0849 12.4939 82.2718 12.4748 83.4133 12.3831C85.9274 12.1621 88.4429 11.9591 90.9597 11.7742C91.4428 11.736 93.2018 11.7197 93.5154 11.517C94.039 11.1784 95.8466 5.25786 96.0517 4.3428C96.3275 3.11177 96.3419 1.76547 96.7311 0.56792C96.8043 0.342442 96.9197 0.223206 97.0892 0.0663648Z" fill="#B51111"/>
<path d="M70.1263 64.3895C71.5475 64.2776 72.8618 64.8412 74.2343 65.1217C77.3434 65.757 80.639 66.8876 83.3241 68.6649C85.2577 69.9448 86.8119 71.7028 88.5648 73.2143C90.9978 75.3123 95.8669 77.6705 98.9913 78.2834C100.956 77.3516 109.365 77.5099 111.823 77.7557C113.196 77.8931 116.143 78.3378 117.275 79.1006C117.766 79.4317 118.129 79.9054 118.495 80.3668C117.101 80.1162 115.182 80.0036 113.801 80.3304C113.363 80.434 112.897 80.6269 112.664 81.0452C112.059 82.1275 112.145 84.6539 112.476 85.8363C112.511 85.87 112.545 85.904 112.581 85.9372C113.726 87.0108 115.666 86.8426 117.108 86.7833C115.282 87.6614 111.908 88.1902 109.827 88.6451C108.354 88.9669 106.837 89.4177 105.333 89.5229C102.652 89.7104 99.981 89.1184 97.3113 88.9681C92.452 88.6949 88.2925 89.0505 83.4151 88.0734C83.7628 87.8591 84.3713 87.6745 84.5639 87.2996L84.4495 87.2192C83.9463 87.1705 83.4369 87.2789 82.957 87.4315C81.4291 87.917 80.0167 88.7472 78.5099 89.3001C77.5893 89.6378 74.9392 90.2577 74.3317 90.7199C74.1654 90.8465 74.1479 90.8753 74.1086 91.0709C74.1942 91.2452 74.2302 91.3042 74.4121 91.3964C74.6715 91.5277 75.1137 91.4684 75.3847 91.4162C76.0199 91.2944 76.6256 90.9965 77.2446 90.8077C78.1311 90.5373 79.0307 90.3731 79.899 90.0336C80.6961 89.7219 81.4472 89.3075 82.2407 88.9918L82.3117 88.964C86.1549 90.131 90.3047 90.1062 94.2827 90.081C95.5661 90.0727 96.8276 89.992 98.1123 90.06C99.9967 90.16 101.833 90.5461 103.704 90.6943C104.672 90.7709 105.671 90.7198 106.639 90.6703C106.253 90.8637 105.892 91.0973 105.556 91.371C104.998 91.8308 104.555 92.4507 104.496 93.2004C104.475 93.4622 104.501 93.6519 104.673 93.8513L104.956 93.8325L104.854 93.8716C105.317 93.6742 106.152 92.2228 106.638 91.7648C107.192 91.2415 107.916 90.8534 108.601 90.5412C109.932 89.9339 111.313 89.6953 112.722 89.3709C114.574 88.9447 117.318 88.1654 118.931 87.2046C120.792 86.0957 120.223 85.8088 121.245 84.3679C121.768 83.6314 122.498 82.9406 123.118 82.2816C123.407 81.9745 124.349 81.3167 124.478 81.084C124.524 81.0001 124.544 80.8297 124.569 80.7317C125.496 80.6496 127.024 82.3204 127.871 82.7177C128.037 82.7957 127.964 82.7954 128.112 82.7374L128.174 82.5344C127.941 81.4682 126.085 80.6902 125.298 80.0276C125.272 80.006 125.247 79.9838 125.222 79.962C125.733 79.1516 126.323 78.3928 126.883 77.6178C128.663 75.154 130.492 72.7999 133.004 71.076C134.066 70.3465 135.846 69.0171 137.199 69.333C137.927 69.5032 138.344 70.0841 138.702 70.7039C139.12 72.5179 138.024 74.3133 137.184 75.8357C134.454 80.7824 127.135 91.308 122.552 94.1711C121.181 95.0277 119.661 95.6595 118.203 96.345C116.515 97.1386 114.857 97.9964 113.167 98.7873C112.135 99.2704 111.057 99.6756 110.039 100.182C109.015 100.69 108.017 101.253 106.999 101.771C106.164 102.195 105.303 102.567 104.472 102.998C102.953 103.786 101.53 104.653 99.9202 105.256C99.0881 105.568 98.218 105.722 97.3661 105.966C98.1971 105.477 99.2481 104.798 99.8945 104.076C100.059 103.893 100.14 103.764 100.131 103.514C99.7234 103.248 98.1731 104.699 97.7244 104.948C95.6701 106.088 94.766 105.875 92.574 105.941C93.0079 105.793 93.4416 105.644 93.8582 105.449C94.5951 105.104 96.4134 104.042 96.6815 103.298C96.6216 103.081 96.5939 103.083 96.4118 102.95C95.8043 102.947 95.1639 103.814 94.7028 104.192C94.4406 104.407 94.1409 104.589 93.8453 104.751C93.0799 105.172 92.2696 105.265 91.4716 105.57C90.716 105.319 89.8941 105.197 89.1188 105.016C86.2846 104.357 83.4333 103.886 80.5848 103.308C78.2738 102.839 76.0078 102.169 73.6985 101.697C72.5426 101.46 71.3676 101.365 70.2027 101.189C65.35 100.455 60.9676 99.9703 56.0595 100.485C53.7521 100.727 51.4485 101.314 49.1554 101.698C51.0558 100.747 52.9333 100.076 55.0057 99.6187C55.5899 99.4897 56.2031 99.511 56.7721 99.3606C57.0101 99.2976 57.1175 99.2273 57.2439 99.0137C57.2116 98.8356 57.2078 98.83 57.0779 98.7066C56.5255 98.5392 55.8956 98.7385 55.3446 98.8488C53.2757 99.2627 51.4428 99.9109 49.5254 100.801C48.7792 101.148 48.0641 101.59 47.2969 101.885C46.4355 102.215 45.5231 102.36 44.6246 102.546C44.5586 102.43 44.4948 102.313 44.4444 102.189C44.0349 101.184 44.0038 99.9058 43.8462 98.8312C42.9315 92.5996 42.4075 81.5183 44.5988 75.7565C44.6817 75.8097 44.7646 75.8617 44.8506 75.91C45.6587 76.3646 48.656 74.865 49.6044 74.5056C50.1211 74.3099 50.6696 74.1891 51.1996 74.0361C51.7681 73.8719 52.7933 73.5633 53.0928 73.015L53.0335 72.9208C52.5408 72.7797 52.1168 72.9109 51.6476 73.0627C52.5931 72.1952 53.6747 71.4282 54.7039 70.6679C59.3816 67.212 64.2808 64.7678 70.1263 64.3895Z" fill="#F4F4F4"/>
<path d="M102.393 80.4556C102.566 80.5282 102.683 80.5627 102.799 80.7199C102.717 81.4275 102.186 82.1531 102.04 82.8851C101.892 83.6254 102.213 84.6039 101.888 85.2741C101.554 85.0096 101.419 84.7565 101.336 84.33C101.088 83.063 101.742 81.503 102.393 80.4556Z" fill="#B51111"/>
<path d="M103.94 83.1797L104.217 83.2422C104.297 83.3144 104.367 83.3816 104.411 83.4834C104.721 84.1999 104.573 85.6647 104.326 86.3879C104.14 86.4243 104.233 86.4309 104.047 86.3614C103.757 85.8663 103.895 83.8265 103.94 83.1797Z" fill="#B51111"/>
<path d="M97.3985 1.0376C98.0812 1.49344 98.6755 2.15872 99.4045 2.52896C101.137 3.40886 103.134 3.62593 104.928 4.33584C106.279 4.87072 107.529 5.65141 108.883 6.18858C110.307 6.75342 111.75 7.26934 113.179 7.82195C114.376 8.28499 115.559 8.79281 116.769 9.21854C118.797 9.93181 120.862 10.5399 122.887 11.2715C125.178 12.0993 127.199 13.1104 129.632 13.5786C130.233 18.9792 127.895 26.6685 125.647 31.5586C125.038 32.8815 124.209 34.1363 123.538 35.4351C122.118 38.1875 120.697 41.418 119.733 44.3712C119.389 45.4281 119.145 46.5288 118.85 47.6019C118.221 49.8855 117.541 52.1735 117.226 54.5313C116.909 56.9082 116.888 59.2951 116.53 61.6735C116.271 63.4011 115.369 67.9933 114.006 68.9556C112.931 69.715 110.896 69.1108 109.699 68.8549C108.027 68.4265 106.304 68.1994 104.616 67.8324C98.8754 66.5833 93.0751 65.3892 87.4447 63.6781C85.5358 63.0979 83.5312 62.3084 81.7043 61.4902C80.0005 60.7273 78.4075 59.8966 76.625 59.315C78.1324 57.7588 78.6194 54.5241 79.4069 52.4823C79.9872 50.9779 80.8107 49.6359 81.4394 48.1676C82.2994 46.1588 83.0575 44.1078 83.8249 42.0611C84.4339 40.437 85.0597 38.8324 85.6038 37.1828C86.3018 35.0342 86.9254 32.8633 87.4746 30.6701C88.0827 28.2117 88.6054 25.733 89.4339 23.3374C91.5569 17.198 94.8725 11.4993 96.6514 5.22032C97.0351 3.86608 97.1025 2.41905 97.3985 1.0376Z" fill="#F4F4F4"/>
<path d="M103.921 29.5315C104.136 29.5192 104.35 29.5168 104.565 29.5243C107.643 29.6084 110.537 31.1236 112.626 33.405C115.179 36.192 116.376 40.3983 116.882 44.1036C116.98 44.8265 117.132 45.6087 117.084 46.3379C117.068 46.5765 117.077 46.7669 116.903 46.9289C116.726 46.9359 116.591 46.9261 116.419 46.883C116.382 46.8236 116.325 46.773 116.306 46.7049C116.223 46.4047 116.303 45.9559 116.284 45.6317C116.232 44.7227 116.139 43.7864 116.018 42.8844C115.703 40.5405 114.899 38.3458 113.761 36.3012C112.717 34.5588 111.33 32.9202 109.626 31.8246C106.056 29.5289 100.437 29.8614 96.6078 31.1792C95.9522 31.4049 95.2961 31.6381 94.6613 31.9202C94.06 32.1872 93.4123 32.5955 92.7769 32.742L92.7014 32.67C92.7211 32.5028 92.7246 32.4441 92.8371 32.3117C93.733 31.2569 98.8885 29.7894 100.395 29.6316C101.558 29.5098 102.745 29.6374 103.921 29.5315Z" fill="#B51111"/>
<path d="M107.328 18.7394C108.008 18.6914 108.595 18.6785 109.246 18.9404C109.996 19.2421 110.767 19.8513 111.072 20.6367C111.261 21.1235 111.233 21.6479 111.018 22.1208C110.664 22.8967 109.968 23.3101 109.219 23.6002C108.567 23.8189 107.882 23.7535 107.253 23.4891C106.489 23.1683 105.908 22.5815 105.616 21.788C105.396 21.1895 105.37 20.4975 105.657 19.917C106.022 19.1778 106.613 18.9797 107.328 18.7394Z" fill="#B51111"/>
<path d="M107.795 19.333C108.206 19.3495 108.741 19.479 109.123 19.6283C109.6 19.8151 110.052 20.1661 110.245 20.6637C110.388 21.034 110.387 21.4372 110.207 21.7946C109.918 22.3665 109.295 22.6398 108.724 22.81C108.277 22.8524 107.88 22.8393 107.451 22.6961C106.961 22.5327 106.492 22.2052 106.265 21.718C106.096 21.3551 106.084 20.9552 106.236 20.5845C106.52 19.892 107.151 19.5816 107.795 19.333Z" fill="#F4F4F4"/>
<path d="M113.118 10.4062C113.77 10.5539 114.464 10.976 115.086 11.2398C116.507 11.843 121.044 13.7176 122.357 13.4526C122.401 13.4437 122.586 13.4029 122.637 13.3989C122.677 13.3959 122.88 13.4195 122.905 13.451C123.026 13.6057 123.325 15.9256 123.496 16.439C124.39 19.11 125.252 18.1657 126.427 19.3298C126.481 19.6476 126.148 20.3031 126.061 20.6454C125.459 23.0328 124.797 25.533 123.939 27.8371C123.336 29.4567 122.599 31.02 121.855 32.5755C121.754 32.6393 121.694 32.6561 121.58 32.6833L121.463 32.5888C121.406 32.0345 123.056 28.6663 123.356 27.8619C124.35 25.1985 125.049 22.4114 125.678 19.6377C125.123 19.3887 124.591 19.1455 124.127 18.7346C122.751 17.5139 122.439 15.7315 122.304 13.9693C121.991 14.0902 121.663 14.2363 121.332 14.2884C120.166 14.472 114.54 11.9867 113.557 11.2467C113.196 10.9754 113.182 10.8486 113.118 10.4062Z" fill="#B51111"/>
<path d="M82.4402 48.334C82.6182 48.3399 82.7408 48.3563 82.9065 48.424C83.2061 49.1784 82.2874 51.7637 82.0688 52.6734C82.9932 53.0172 83.8081 53.4562 84.4915 54.1963C85.7535 55.5627 85.8799 57.3322 85.8201 59.1153C87.1851 59.7841 88.5186 60.5098 89.9537 61.0165C90.8641 61.3379 93.7787 61.9354 94.2797 62.2555C94.4438 62.3605 94.4804 62.4416 94.5216 62.6274C94.4953 62.6805 94.4663 62.7485 94.4225 62.7887C94.2498 62.9472 94.0991 62.9182 93.889 62.9183C91.0234 62.355 88.8822 61.4797 86.2728 60.1796C85.8849 59.9864 85.0956 59.6985 84.8745 59.3139C84.803 59.1898 84.9587 58.6658 84.9862 58.506C85.1884 57.3367 84.9879 56.0519 84.2958 55.0806C83.7376 54.2974 82.6811 53.4698 81.7233 53.3208C81.523 53.2896 81.3712 53.2581 81.1832 53.1805C81.1136 52.98 81.1568 52.8458 81.2085 52.6408C81.3609 52.0359 81.5978 51.4428 81.7812 50.846C82.0358 50.0173 82.2416 49.1783 82.4402 48.334Z" fill="#B51111"/>
<path d="M103.003 7.41961C103.119 7.41879 103.235 7.42083 103.351 7.42572C105.407 7.50399 109.046 8.45436 110.716 9.55393C110.954 9.71061 111.148 9.94297 111.338 10.1559C109.939 9.85935 108.634 9.28458 107.277 8.84738C106.641 8.64223 104.008 7.86873 103.517 8.13105C103.511 8.17446 103.505 8.21788 103.499 8.26114C103.491 8.31265 103.482 8.36402 103.474 8.41553C103.448 8.58628 103.392 8.67754 103.263 8.79403C102.544 9.44402 100.841 10.3069 99.878 10.4494C99.5809 10.4934 99.2625 10.4716 98.9631 10.4632C98.7556 10.2805 98.5304 9.98287 98.2634 9.91805C97.8485 10.7967 97.4334 12.8121 97.0774 13.8912C96.4123 15.7293 95.2808 18.741 94.1079 20.2382C93.9817 20.3995 93.9171 20.4489 93.719 20.4781L93.6282 20.3677C93.6829 19.8527 94.4662 18.6362 94.709 18.0646C94.992 17.3978 95.1982 16.6969 95.4616 16.0217C95.8927 14.9175 96.3565 13.8301 96.7614 12.7147C97.1705 11.5878 97.2728 10.3423 97.6992 9.2326C97.7439 9.11627 97.8011 9.03586 97.8864 8.94781C98.121 9.02226 98.306 9.29237 98.4745 9.47367C98.7967 9.54842 99.1145 9.61981 99.4465 9.62409C100.52 9.63831 101.961 9.13202 102.723 8.34047C103.016 8.03597 103.013 7.82623 103.003 7.41961Z" fill="#B51111"/>
<path d="M115.402 48.6494C115.492 48.6711 115.568 48.7087 115.653 48.7474C115.695 48.8723 115.722 48.9839 115.727 49.1167C115.795 50.9199 113.664 59.6422 112.531 60.8796C112.338 61.0895 112.244 61.0719 111.976 61.0823C111.731 60.9448 111.899 60.8695 111.774 60.6488C110.768 60.977 109.128 62.0842 108.135 62.6582C108.13 62.6601 108.125 62.6624 108.12 62.6637C107.881 62.7267 107.867 62.7519 107.653 62.6396C107.357 61.7773 111.709 60.4862 112.495 59.3944C113.513 57.9793 114.491 53.2354 114.817 51.3995C114.968 50.5497 114.996 49.4893 115.37 48.7135C115.38 48.6919 115.391 48.6707 115.402 48.6494Z" fill="#B51111"/>
<path d="M89.9415 34.2739C90.1035 34.3644 90.1015 34.3675 90.1728 34.5422C90.1698 34.6402 90.1671 34.7286 90.1345 34.8223C89.8947 35.512 89.2028 36.6116 88.8575 37.3462C87.6479 39.919 86.57 42.6455 85.114 45.0834C85.099 45.0687 85.0836 45.0545 85.0691 45.0395C84.9755 44.9423 84.8278 44.8101 84.8398 44.6678C84.8891 44.0823 88.9572 35.8257 89.5184 34.8322C89.6365 34.6228 89.7742 34.4439 89.9415 34.2739Z" fill="#B51111"/>
<path d="M98.2388 63.1313C99.1175 63.2017 100.023 63.5047 100.896 63.6629C102.326 63.9218 103.865 64.0006 105.255 64.4368C105.416 64.6001 105.374 64.6715 105.376 64.8976C105.155 64.9098 104.935 64.9077 104.715 64.8817C103.8 64.7737 98.6641 63.9762 98.2004 63.3888L98.2388 63.1313Z" fill="#B51111"/>
<path d="M107.513 64.7617C107.744 64.8054 107.809 64.82 107.947 65.0034C107.954 65.2405 107.856 65.3671 107.735 65.5562C107.529 65.5176 107.455 65.5274 107.303 65.3749C107.269 65.1382 107.404 64.9601 107.513 64.7617Z" fill="#B51111"/>
<path d="M31.3427 72.72C32.5208 72.7052 33.6533 72.9029 34.8219 72.9926C36.0339 73.0857 37.4808 73.0343 38.6781 72.815C38.2364 73.9451 37.7605 75.0826 37.4647 76.2636C35.5087 84.0723 36.1421 96.4632 38.4585 104.212C38.9926 105.998 39.9061 107.628 40.571 109.362C39.2856 109.979 37.9579 110.375 36.6305 110.872C35.2087 111.405 33.8095 112.026 32.3518 112.453C31.3785 112.738 30.3583 112.817 29.3858 113.119C28.4959 113.395 27.5879 113.666 26.7116 113.983C25.9426 114.261 25.1906 114.602 24.4145 114.858C23.6179 115.121 22.7762 115.27 21.9637 115.477C21.1092 115.694 20.2634 115.957 19.4047 116.156C16.816 116.754 14.0196 116.775 11.5363 117.77C11.5139 117.781 11.4916 117.792 11.4689 117.803C11.4313 117.82 11.3932 117.837 11.3554 117.854C10.4437 118.272 8.29105 118.778 7.26042 118.889C6.78644 118.939 6.30304 118.915 5.82747 118.9C5.50213 117.835 4.95928 116.808 4.52762 115.781C4.03116 114.6 3.61573 113.346 3.25858 112.113C1.7111 106.77 0.781033 100.327 0.980037 94.7364C1.06968 92.2183 1.406 89.7041 1.76649 87.2133C2.03317 85.3706 2.29108 83.5162 2.7025 81.7008C2.88126 80.9118 3.07273 80.1045 3.34587 79.3443C3.73311 78.2668 4.19188 77.3273 4.44463 76.1941C7.87855 76.2844 12.3738 74.6223 15.8775 74.0385C17.9365 73.6929 20.007 73.4502 22.0891 73.3102C23.8013 73.2042 25.5238 73.1934 27.2377 73.0906C28.6103 73.0082 29.9682 72.7761 31.3427 72.72Z" fill="#F4F4F4"/>
<path d="M20.3837 107.016C20.5243 107.032 20.6621 107.057 20.7982 107.096C21.537 107.312 22.3761 107.858 22.7367 108.562C22.7632 108.615 22.7871 108.669 22.8085 108.724C22.8298 108.779 22.8485 108.835 22.8646 108.891C22.8806 108.948 22.8938 109.006 22.9043 109.064C22.9148 109.122 22.9224 109.181 22.9273 109.24C22.9322 109.299 22.9342 109.358 22.9334 109.417C22.9326 109.476 22.929 109.535 22.9225 109.594C22.9162 109.652 22.9069 109.711 22.8949 109.769C22.8828 109.827 22.868 109.884 22.8505 109.94C22.6454 110.607 22.2186 110.93 21.6513 111.251C21.3329 111.375 20.9081 111.354 20.5823 111.259C20.1384 111.13 19.7949 110.774 19.5815 110.367C19.2244 109.685 19.1703 108.789 19.424 108.062C19.6123 107.522 19.8847 107.252 20.3837 107.016Z" fill="#B51111"/>
<path d="M20.7305 107.899C21.2858 108.179 21.7623 108.389 22.1133 108.94C22.2506 109.156 22.3102 109.435 22.2248 109.683C22.1236 109.977 21.8952 110.164 21.6431 110.316C21.4535 110.363 21.1585 110.464 20.9646 110.44C20.6888 110.406 20.3817 110.106 20.25 109.871C20.0188 109.458 20.019 108.964 20.1606 108.521C20.2749 108.163 20.413 108.058 20.7305 107.899Z" fill="#F4F4F4"/>
<path d="M28.4373 105.052C28.819 105.004 29.3566 105.031 29.7271 105.119C30.0527 105.196 30.3606 105.386 30.5238 105.692C30.6917 106.007 30.6897 106.395 30.5915 106.732C30.3387 107.598 29.6532 108.101 28.9193 108.512C28.7431 108.573 28.5762 108.62 28.3914 108.648C27.959 108.711 27.5412 108.656 27.1952 108.361C26.8379 108.057 26.6773 107.594 26.6456 107.132C26.6057 106.547 26.7329 105.941 27.1381 105.507C27.5098 105.109 27.9231 105.067 28.4373 105.052Z" fill="#B51111"/>
<path d="M28.3561 105.805C28.5438 105.79 28.7322 105.776 28.9206 105.782C29.223 105.793 29.5897 105.844 29.7798 106.12C29.8854 106.274 29.8881 106.453 29.8361 106.627C29.7104 107.046 29.2141 107.335 28.8701 107.535C28.5335 107.638 28.0853 107.835 27.7486 107.644C27.5699 107.543 27.4488 107.379 27.4005 107.176C27.3206 106.84 27.47 106.47 27.6506 106.195C27.838 105.91 28.0497 105.871 28.3561 105.805Z" fill="#F4F4F4"/>
<path d="M92.4512 12.7195C92.6448 12.6932 92.6801 12.6598 92.8628 12.7489C92.9795 13.41 92.1537 14.6979 91.8408 15.304C91.2469 15.3499 87.99 15.4884 87.7246 15.6416L87.7181 15.7743C87.7681 15.8276 87.7934 15.859 87.8469 15.9028C88.6125 16.5302 90.7171 16.0997 91.6119 15.9715C90.5214 18.4667 89.3697 20.895 88.5183 23.4917C87.4744 26.6761 86.8206 29.9847 85.9425 33.2201C85.0581 36.4789 83.9366 39.6347 82.7359 42.7818C82.0537 44.5703 81.3862 46.3759 80.5743 48.1082C80.0317 49.0179 79.6029 50.0007 79.1648 50.9662C79.1781 48.3985 79.2833 45.838 79.2951 43.272C79.3052 41.0958 79.2301 38.9025 79.1679 36.7261C79.1289 35.0287 79.0484 33.3333 78.9266 31.6399C78.8153 30.1902 78.6263 28.7358 78.5957 27.2817C78.4978 22.6496 79.1524 18.0975 79.9423 13.5534C81.2007 13.3344 82.5675 13.6005 83.8474 13.5313C85.5591 13.4385 87.2758 13.1992 88.9809 13.0227C90.1357 12.903 91.2953 12.8417 92.4512 12.7195Z" fill="#F4F4F4"/>
<path d="M86.3691 15.936C86.6012 15.9584 86.6612 15.9389 86.8413 16.1002C86.9412 16.3417 86.9451 16.5301 86.9089 16.7899C86.7619 17.8485 85.9889 19.0455 85.1595 19.6699C84.2457 20.3577 83.1953 20.4919 82.1026 20.3306C81.9435 22.6764 81.6735 25.0262 81.4451 27.3655C81.3332 28.5128 81.3305 29.6582 81.1637 30.8014L81.0645 30.9325L80.8786 30.9023C80.9265 30.9795 80.8891 30.9414 81.0212 30.9724L80.8691 30.8828C80.7564 30.6098 80.7439 30.3275 80.7434 30.0353C80.7403 27.5504 81.1028 25.0326 81.3471 22.5637C81.4321 21.7046 81.3916 20.6547 81.6498 19.8442C82.1933 19.3023 83.3983 19.477 84.12 19.1306C84.8347 18.7876 85.7304 18.0433 86.017 17.2745C86.1762 16.847 86.2106 16.3745 86.3691 15.936Z" fill="#B51111"/>
<path d="M81.6853 37.6206C81.9174 37.7111 81.9817 37.7114 82.0987 37.9474C82.3854 38.5266 82.2219 41.0557 82.0994 41.7492C82.0409 42.0808 81.9192 42.3709 81.7827 42.6745C81.6315 42.6418 81.5285 42.6019 81.3951 42.522C81.3585 41.9331 81.4777 41.2987 81.5118 40.7068C81.5706 39.6808 81.552 38.639 81.6853 37.6206Z" fill="#B51111"/>
<path d="M40.315 73.9372C41.3189 73.9387 43.4328 73.8702 44.3265 74.0893C44.3015 74.3033 43.7549 75.2497 43.6311 75.6048C43.1506 76.9811 42.8685 78.2957 42.6692 79.7403C42.4976 80.9832 42.308 82.2569 42.23 83.5085C41.9134 88.5862 42.0646 102.907 45.0144 106.913L44.0857 107.239C43.3472 107.508 42.6112 107.796 41.8499 107.991C39.8574 103.44 38.9307 98.3874 38.026 93.5122C37.1989 89.0555 37.5043 81.8338 38.3662 77.3978C38.5552 76.4245 38.7635 75.196 39.3389 74.3744C39.5941 74.0098 39.9167 73.9994 40.315 73.9372Z" fill="#F4F4F4"/>
<path d="M133.406 62.708C133.84 62.6578 134.364 62.7069 134.776 62.8544C135.388 63.0735 135.859 63.5234 136.124 64.1289C136.678 65.3986 136.363 66.6839 135.93 67.9201C135.093 68.7089 134.078 69.131 133.1 69.6929C132.548 70.0123 132.02 70.3679 131.515 70.7596C131.01 71.1513 130.533 71.5757 130.083 72.0327C128.27 73.9047 126.636 76.0978 125.079 78.1949C124.449 79.0448 123.882 79.9513 123.225 80.7797C122.56 81.6185 121.791 82.36 121.015 83.0889C120.71 82.087 120.673 81.086 120.157 80.1571C119.411 78.9944 118.863 78.533 117.704 77.8476C118.826 76.9544 119.814 75.8311 120.758 74.7456C121.48 73.9143 122.129 73.083 123.025 72.4344C123.265 72.576 123.505 72.7215 123.713 72.9112C124.06 73.2291 124.569 74.1867 125.016 74.2677L125.114 74.1814C125.15 74.0259 125.172 73.9016 125.14 73.7426C124.971 72.8909 123.894 72.1582 123.247 71.6863C123.831 70.9785 124.297 70.1504 124.822 69.3945C125.547 68.3503 126.336 67.4088 127.189 66.4729C128.788 64.7192 130.928 62.7914 133.406 62.708Z" fill="#F4F4F4"/>
<path d="M79.1548 65.1562C79.059 64.1888 78.6894 62.0935 78.9404 61.2527C79.0973 61.1896 79.1657 61.2596 79.3176 61.3276C79.8082 61.5473 80.3094 61.8524 80.7695 62.1338C80.7641 62.4356 80.7776 62.7506 80.751 63.0503C80.7523 63.2446 80.7365 63.4803 80.8019 63.6643C80.885 63.8976 81.0671 63.9935 81.2815 64.0659C81.4453 64.0266 81.5333 64.0135 81.6379 63.8606C81.7824 63.6495 81.7175 63.3293 81.6953 63.0911L81.6779 62.5553C84.2063 63.5024 86.6919 64.508 89.2591 65.3537C91.9362 66.2355 94.7424 66.949 97.4843 67.593C99.6522 68.1069 101.827 68.5883 104.009 69.037C105.328 69.2991 106.731 69.4389 108.018 69.8334C107.258 70.2416 106.491 70.6667 105.664 70.9152C103.951 71.4305 102.137 71.6034 100.371 71.8279C96.8139 72.2796 93.325 72.7354 89.7355 72.3563C88.8908 71.6788 87.8527 70.9901 87.1314 70.1859C87.1397 70.0986 87.1496 70.0146 87.1627 69.9279C87.3081 68.9751 86.5361 67.6379 85.9904 66.8976C85.6284 66.4063 85.1621 65.9916 84.7228 65.5747C84.4473 65.3132 83.8171 64.9406 83.428 64.9849C83.4041 64.9877 83.3812 64.9966 83.3578 65.0024C83.2976 65.1381 83.2811 65.1034 83.3294 65.234C83.5302 65.7788 84.4911 66.2976 84.9035 66.7706C85.6287 67.6025 86.0088 68.4825 86.3413 69.5329C84.8945 68.2997 83.4389 67.191 81.7368 66.3392C81.1784 66.0597 79.5335 65.4108 79.1548 65.1562Z" fill="#F4F4F4"/>
<path d="M91.6587 69.2407C92.8621 69.2753 94.075 69.5831 95.2893 69.6305C96.3163 69.6706 97.3064 69.3577 98.3424 69.5015C98.5288 69.651 98.52 69.7071 98.5822 69.9337C97.1212 69.9879 93.0048 70.4169 91.8966 69.6834C91.6969 69.5513 91.6926 69.4735 91.6587 69.2407Z" fill="#B51111"/>
<path d="M128.679 60.024C129.159 60.0165 129.665 60.0853 130.039 60.4202C130.594 60.9164 130.637 61.7038 130.697 62.4018C129.913 62.9243 129.048 63.3378 128.302 63.9167C126.101 65.6264 124.424 67.9872 122.916 70.3201C122.214 71.4052 121.564 72.5113 120.749 73.5162C119.752 74.7467 117.838 76.1591 117.162 77.508C116.14 77.2139 115.116 76.9732 114.075 76.7596C113.354 76.6309 112.631 76.5554 111.912 76.4089C112.639 75.773 113.259 75.0145 113.914 74.304L117.222 70.748C117.289 70.8906 117.179 70.9241 117.265 71.0788C117.443 71.0828 117.467 71.0757 117.621 70.9837C117.709 70.7665 117.629 70.5473 117.594 70.3244C117.568 70.1562 117.549 70.046 117.607 69.8811C117.891 69.074 119.116 67.2295 119.645 66.4849C120.586 65.1632 121.634 64.056 122.853 63.0073C124.764 61.3643 126.156 60.4315 128.679 60.024Z" fill="#F4F4F4"/>
<path d="M120.989 61.8654C121.423 61.8077 122.004 61.9242 122.449 61.9568C121.961 62.5232 121.393 63.0314 120.884 63.5813C120.061 64.4714 119.292 65.4519 118.58 66.4359C117.776 67.5456 117.298 68.8038 116.565 69.9417C115.506 71.5857 114.014 73.124 112.671 74.536C112.132 75.1021 111.367 75.9081 110.638 76.2044C109.702 76.5842 107.592 76.3227 106.485 76.3618C105.262 76.4049 104.049 76.5161 102.823 76.5298C102.294 76.5032 101.763 76.502 101.233 76.4938C102.039 76.1133 102.878 75.9755 103.725 75.7398C104.533 75.5153 105.346 75.1713 106.095 74.7904C107.026 74.3162 108.011 73.8048 108.875 73.2097C109.868 72.5253 110.834 71.6818 111.911 71.145C112.638 70.7828 113.509 71.0409 114.216 70.6378C115.53 69.8879 116.908 64.5835 117.35 62.9973C118.552 62.4952 119.689 62.0317 120.989 61.8654Z" fill="#F4F4F4"/>
<path d="M115.395 80.8955C116.533 80.8411 117.544 80.9186 118.662 81.1581C119.261 81.7442 119.662 82.5668 119.73 83.4158C119.781 84.0658 119.62 84.7815 119.194 85.2817C118.67 85.8956 118.008 85.9194 117.272 85.9928C117.213 86.0034 117.154 86.0147 117.095 86.0231C116.071 86.1669 114.215 86.2969 113.373 85.5767C112.952 85.217 112.831 84.6615 112.798 84.1263C112.756 83.4393 112.828 81.925 113.31 81.4096C113.777 80.9111 114.772 80.9375 115.395 80.8955Z" fill="#F4F4F4"/>
<path d="M109.45 70.3843L110.859 70.663C109.24 72.0863 106.186 74.0731 104.192 74.9125C102.845 75.4793 102.038 75.4336 100.665 76.2923C100.639 76.3082 100.614 76.3245 100.589 76.3401C100.039 76.6764 98.3406 76.8478 97.7595 76.6857L97.7762 76.6143C98.3158 76.1856 99.4585 75.6935 100.133 75.5793C100.435 75.5282 100.779 75.5813 101.082 75.6089C101.505 75.3673 101.906 75.1251 102.293 74.8264L102.316 74.6746C102.131 74.528 101.861 74.564 101.631 74.58C100.49 74.659 99.4588 75.1305 98.4395 75.6279C98.0905 75.7983 97.722 76.0153 97.35 76.1246C97.0135 76.2235 96.6259 76.2261 96.2808 76.1785C96.4852 75.9691 99.0415 75.1263 99.6364 74.8706C101.112 74.2367 102.547 73.5122 104.021 72.8762C105.871 72.0777 107.704 71.4212 109.45 70.3843Z" fill="#F4F4F4"/>
<path d="M101.945 72.6558L101.926 72.6538C102.005 72.6561 102.086 72.655 102.165 72.6624C101.851 73.2844 96.1306 75.0942 95.0133 75.5638C94.1365 75.2415 93.3257 74.8436 92.5251 74.3561C91.9351 74.0801 91.451 73.7587 90.9458 73.3463C94.6036 73.8387 98.3059 72.7717 101.945 72.6558Z" fill="#F4F4F4"/>
<path d="M45.8112 103.446C46.1251 103.405 46.4609 103.421 46.7782 103.414C46.6777 104.299 46.487 105.162 45.9366 105.877C45.4357 105.129 45.076 104.38 44.7783 103.528L45.8112 103.446Z" fill="#F4F4F4"/>
</g>
<defs>
<clipPath id="clip0_114_794">
<rect width="140" height="120" fill="white"/>
</clipPath>
</defs>
</svg>
