<svg xmlns="http://www.w3.org/2000/svg">
<defs>
<clipPath id="a">
      <path d="M0 0h19v19H0z"/>
    </clipPath>
</defs>
<symbol id="arrow1" viewBox="0 0 16 14">
  <path d="M9.69408 0.943928C9.40118 0.651035 8.92631 0.651035 8.63342 0.943929C8.34052 1.23682 8.34052 1.7117 8.63342 2.00459L13.1864 6.55759H1.24708C0.832865 6.55759 0.497078 6.89337 0.497078 7.30759C0.497078 7.7218 0.832865 8.05759 1.24708 8.05759H13.1864L8.63342 12.6106C8.34052 12.9035 8.34052 13.3784 8.63342 13.6713C8.92631 13.9642 9.40118 13.9642 9.69408 13.6713L15.5274 7.83792C15.6681 7.69727 15.7471 7.5065 15.7471 7.30759C15.7471 7.10868 15.6681 6.91791 15.5274 6.77726L9.69408 0.943928Z"/>
</symbol>
<symbol id="cat" viewBox="0 0 19 19">
  <g clip-path="url(#a)">
    <path d="M3 0H0v3h3V0Zm8 0H8v3h3V0Zm8 0h-3v3h3V0ZM3 8H0v3h3V8Zm8 0H8v3h3V8Zm8 0h-3v3h3V8ZM3 16H0v3h3v-3Zm8 0H8v3h3v-3Zm8 0h-3v3h3v-3Z"/>
  </g>
  
</symbol>
<symbol id="chevron1" viewBox="0 0 7 11">
  <path fill-rule="evenodd" clip-rule="evenodd" d="M1.99163 0.322183C1.53601 -0.107395 0.797322 -0.107395 0.341708 0.322183C-0.113903 0.751759 -0.113903 1.44824 0.341708 1.87782L4.18342 5.5L0.341711 9.12218C-0.113903 9.55176 -0.113903 10.2482 0.341711 10.6778C0.797322 11.1074 1.53601 11.1074 1.99163 10.6778L6.65829 6.27782C7.1139 5.84824 7.1139 5.15176 6.65829 4.72218L1.99163 0.322183Z"/>
</symbol>
<symbol id="chevron2" viewBox="0 0 19 12">
  <path d="M2.42893 0.379661L9.5 7.45073L16.5711 0.379661L18.6924 2.50098L9.5 11.6934L0.307612 2.50098L2.42893 0.379661Z"/>
</symbol>
<symbol id="mark1" viewBox="0 0 12 10">
  <path d="M3.93869 10L0 6.00386L1.79493 4.18275L3.93869 6.36422L10.2051 0L12 1.82111L3.93869 10Z"/>
</symbol>
<symbol id="minus1" viewBox="0 0 12 2">
  <path d="M1.5 0.25C1.08579 0.25 0.75 0.585786 0.75 1C0.75 1.41421 1.08579 1.75 1.5 1.75L10.5 1.75C10.9142 1.75 11.25 1.41421 11.25 1C11.25 0.585788 10.9142 0.25 10.5 0.25H1.5Z"/>
</symbol>
<symbol id="phone" viewBox="0 0 24 24">
  <path d="M22.927 10.792a18.451 18.451 0 0 0-9.78-9.746.72.72 0 0 0-.924.411.724.724 0 0 0 .39.954 17.021 17.021 0 0 1 9.016 8.988.722.722 0 0 0 .937.369.72.72 0 0 0 .361-.976Z"/>
  <path d="M12.56.97a.82.82 0 0 1 .545-.042l.077.024.004.001.412.18a18.551 18.551 0 0 1 9.419 9.616.826.826 0 0 1-.41 1.11h-.002a.82.82 0 0 1-1.067-.419v-.002a16.923 16.923 0 0 0-8.963-8.935.822.822 0 0 1-.443-1.085.82.82 0 0 1 .429-.447Zm.586.076a.72.72 0 0 0-.544.017l-.123.069a.722.722 0 0 0-.255.325.725.725 0 0 0-.059.28l.013.142a.715.715 0 0 0 .198.374.724.724 0 0 0 .237.158A17.023 17.023 0 0 1 21.63 11.4a.722.722 0 0 0 .804.41l.133-.041a.723.723 0 0 0 .126-.072l.11-.094a.727.727 0 0 0 .088-.116l.063-.13a.73.73 0 0 0 .037-.14l.008-.145a.725.725 0 0 0-.071-.279 18.452 18.452 0 0 0-9.37-9.567l-.41-.18Zm-.909 5.268a10.308 10.308 0 0 1 5.468 5.44.723.723 0 0 0 .627.42.662.662 0 0 0 .281-.066.722.722 0 0 0 .347-.932A11.694 11.694 0 0 0 12.757 5a.72.72 0 0 0-.902.39.724.724 0 0 0 .382.925Z"/>
  <path d="m12.64 4.866.15.038.006.002.52.236a11.795 11.795 0 0 1 5.498 5.475l.238.52.046.15a.823.823 0 0 1-.441.911.764.764 0 0 1-.324.075h-.005a.822.822 0 0 1-.714-.477l-.002-.003a10.21 10.21 0 0 0-5.414-5.388l.04-.091a10.31 10.31 0 0 1 5.467 5.44.722.722 0 0 0 .528.408l.099.01a.664.664 0 0 0 .214-.036l.067-.028a.722.722 0 0 0 .299-.273l.06-.124a.724.724 0 0 0-.012-.535 11.696 11.696 0 0 0-5.688-5.945L12.757 5a.72.72 0 0 0-.528.018l-.119.064a.722.722 0 0 0-.255.308l-.038.133a.725.725 0 0 0 .42.792l-.04.091a.822.822 0 0 1-.435-1.052l.002-.004.075-.135a.82.82 0 0 1 .801-.348ZM19.183 14.9a1.666 1.666 0 0 0-2.531 0c-.592.585-1.183 1.177-1.768 1.777a.347.347 0 0 1-.49.087c-.382-.21-.793-.376-1.161-.607a18.326 18.326 0 0 1-4.429-4.046A10.553 10.553 0 0 1 7.21 9.567a.362.362 0 0 1 .094-.47c.591-.577 1.168-1.162 1.753-1.755a1.69 1.69 0 0 0 0-2.6c-.462-.47-.924-.926-1.392-1.395L6.222 1.902A1.796 1.796 0 0 0 4.96 1.33a1.815 1.815 0 0 0-1.27.578c-.598.585-1.168 1.192-1.781 1.77a2.892 2.892 0 0 0-.902 1.95 8.314 8.314 0 0 0 .635 3.555c.9 2.337 2.195 4.5 3.83 6.395a23.534 23.534 0 0 0 7.854 6.148A11.297 11.297 0 0 0 17.654 23h.281a3.104 3.104 0 0 0 2.46-1.048c.505-.57 1.075-1.09 1.616-1.633a1.698 1.698 0 0 0 0-2.586 392.861 392.861 0 0 0-2.828-2.833Zm1.818 4.414-.541.535c-.375.36-.758.722-1.133 1.148a1.651 1.651 0 0 1-1.377.571h-.202a9.919 9.919 0 0 1-3.794-1.12 22.364 22.364 0 0 1-7.378-5.78A20.18 20.18 0 0 1 2.969 8.7a6.867 6.867 0 0 1-.548-2.933c.017-.387.182-.752.462-1.019.375-.361.72-.722 1.103-1.09l.721-.723a.289.289 0 0 1 .52 0c.317.31.627.628.937.946l.476.477.722.723.685.686c.267.267.252.318 0 .564l-.245.245c-.49.506-.988.997-1.508 1.503a1.8 1.8 0 0 0-.396 2.052A11.563 11.563 0 0 0 7.7 13.02a19.738 19.738 0 0 0 4.789 4.335c.281.173.57.318.822.44l.39.196c.275.163.588.25.908.253a1.787 1.787 0 0 0 1.32-.593c.57-.585 1.147-1.156 1.753-1.756a.468.468 0 0 1 .245-.166c.101.025.19.083.253.166.961.964 1.923 1.91 2.885 2.84.166.253.187.318-.065.578Z"/>
  <path d="M5.047 2.783a.288.288 0 0 1 .18.151c.317.311.627.63.937.948l.477.476 1.406 1.41c.267.267.252.317 0 .563l-.245.245-.743.752c-.25.25-.505.498-.765.75a1.802 1.802 0 0 0-.526.964l-.02.137c-.038.325.014.653.15.952A11.568 11.568 0 0 0 7.7 13.02a19.742 19.742 0 0 0 4.79 4.335c.28.173.57.318.822.44l.388.196c.242.143.512.227.79.248l.12.005c.186-.001.371-.032.548-.09l.174-.067a1.79 1.79 0 0 0 .598-.436c.285-.292.571-.581.862-.872l.89-.884a.469.469 0 0 1 .245-.166c.1.025.19.083.253.166.961.964 1.923 1.91 2.885 2.84.165.253.188.318-.065.578l-.54.534c-.376.362-.759.723-1.134 1.149l-.135.14c-.142.13-.306.236-.485.31l-.183.064c-.186.052-.38.072-.574.057h-.202l-.496-.056a9.92 9.92 0 0 1-2.851-.841l-.447-.223a22.363 22.363 0 0 1-6.993-5.33l-.386-.45a20.18 20.18 0 0 1-3.442-5.56L2.969 8.7a6.867 6.867 0 0 1-.548-2.933c.014-.338.143-.66.362-.914l.1-.105c.187-.18.368-.36.549-.542l.554-.549.721-.723a.29.29 0 0 1 .045-.066l.062-.052a.29.29 0 0 1 .153-.044l.08.011Zm-.08.089a.188.188 0 0 0-.169.106l-.008.016-.734.735c-.19.184-.372.366-.553.547a35.41 35.41 0 0 1-.55.544 1.4 1.4 0 0 0-.432.95c-.03.868.108 1.732.404 2.545l.137.346v.003l.163.406a20.08 20.08 0 0 0 3.142 5.2l.285.332v.002l.384.448a22.264 22.264 0 0 0 6.436 5.041l.526.265.003.002.443.22a9.82 9.82 0 0 0 3.313.889h.2l.183.002a1.553 1.553 0 0 0 1.112-.539l.285-.312c.286-.3.573-.574.854-.844l.538-.532.078-.084a.7.7 0 0 0 .05-.066.163.163 0 0 0 .033-.079.155.155 0 0 0-.02-.077 1.27 1.27 0 0 0-.084-.14c-.958-.927-1.917-1.87-2.876-2.83l-.01-.011a.348.348 0 0 0-.17-.121.368.368 0 0 0-.167.12l-.009.013v-.001c-.606.598-1.182 1.167-1.75 1.75l.001.002a1.889 1.889 0 0 1-1.393.625h-.002a1.916 1.916 0 0 1-.96-.267l-.382-.191a9.469 9.469 0 0 1-.83-.446h-.002a19.84 19.84 0 0 1-4.814-4.358 11.669 11.669 0 0 1-1.816-2.912 1.905 1.905 0 0 1 .42-2.164 73.976 73.976 0 0 0 1.504-1.5l.248-.248.133-.143c.027-.036.03-.053.03-.062 0-.008-.002-.026-.028-.063a.71.71 0 0 0-.053-.066l-.083-.087-1.883-1.886-.001-.001a57.85 57.85 0 0 0-.936-.944l-.012-.013-.008-.016a.19.19 0 0 0-.07-.078.19.19 0 0 0-.1-.028Zm2.337 6.225.06.08a.262.262 0 0 0-.087.297l.02.043.005.01-.092.04a.362.362 0 0 1-.049-.187l.007-.065a.363.363 0 0 1 .136-.218Zm2.362-3.055c0-.186-.031-.37-.09-.546l-.07-.173a1.69 1.69 0 0 0-.45-.582l-2.834-2.84a1.797 1.797 0 0 0-.415-.33l-.158-.082a1.794 1.794 0 0 0-.689-.158 1.82 1.82 0 0 0-.692.162l-.16.082c-.154.09-.295.202-.417.334-.599.585-1.169 1.192-1.782 1.77l-.192.2a2.892 2.892 0 0 0-.709 1.75l-.007.457a8.314 8.314 0 0 0 .642 3.098c.9 2.337 2.194 4.5 3.829 6.395a23.534 23.534 0 0 0 7.854 6.148 11.298 11.298 0 0 0 3.763 1.21l.565.062h.282c.404.017.807-.046 1.186-.183l.161-.063c.372-.159.71-.388.993-.675l.119-.127c.505-.57 1.075-1.091 1.616-1.633.14-.12.26-.26.354-.418l.086-.163a1.7 1.7 0 0 0 .147-.528l.01-.184c0-.184-.03-.368-.09-.542l-.067-.17a1.699 1.699 0 0 0-.44-.582 392.83 392.83 0 0 0-2.827-2.832 1.665 1.665 0 0 0-.41-.346l-.16-.085a1.667 1.667 0 0 0-.517-.143l-.18-.01c-.24 0-.478.053-.696.154l-.16.084a1.676 1.676 0 0 0-.41.346c-.59.585-1.182 1.178-1.766 1.778a.348.348 0 0 1-.099.096l-.061.032a.356.356 0 0 1-.068.019l-.068.006-.07-.009a.342.342 0 0 1-.065-.022l-.06-.035c-.383-.21-.794-.376-1.161-.607a18.325 18.325 0 0 1-4.193-3.752l-.235-.295a10.55 10.55 0 0 1-1.436-2.2l-.159-.342.092-.04c.353.796.804 1.546 1.343 2.23l.236.289.002.003.235.293a18.225 18.225 0 0 0 4.167 3.73c.18.113.372.21.568.307l.59.297.01.006.042.026a.245.245 0 0 0 .146.018.246.246 0 0 0 .16-.105l.006-.008.006-.006c.292-.3.586-.599.881-.895l.887-.884a1.766 1.766 0 0 1 2.075-.45c.23.105.432.26.597.45.952.945 1.896 1.889 2.83 2.833a1.795 1.795 0 0 1 .46 2.118 1.8 1.8 0 0 1-.468.615c-.407.408-.824.798-1.218 1.206l-.387.417a3.212 3.212 0 0 1-2.36 1.084l-.178-.003h-.286a11.396 11.396 0 0 1-4.363-1.28l-.566-.284a23.634 23.634 0 0 1-7.32-5.89 21.852 21.852 0 0 1-3.847-6.42l-.166-.431a8.415 8.415 0 0 1-.477-3.167l.03-.287c.098-.66.415-1.271.903-1.733l.452-.437c.445-.44.875-.888 1.328-1.331a1.919 1.919 0 0 1 1.337-.607h.006a1.895 1.895 0 0 1 1.33.6l1.442 1.445c.466.467.927.92 1.386 1.388l.144.134a1.792 1.792 0 0 1-.144 2.62c-.582.59-1.157 1.175-1.747 1.752l-.01.008-.06-.08a145.15 145.15 0 0 0 1.753-1.756 1.69 1.69 0 0 0 .361-.418l.088-.164a1.69 1.69 0 0 0 .15-.533l.01-.185Z"/>
</symbol>
<symbol id="plus1" viewBox="0 0 12 11">
  <path d="M6.75 0.90448C6.75 0.490266 6.41421 0.15448 6 0.15448C5.58579 0.15448 5.25 0.490266 5.25 0.90448V4.65448H1.5C1.08579 4.65448 0.75 4.99027 0.75 5.40448C0.75 5.81869 1.08579 6.15448 1.5 6.15448H5.25V9.90448C5.25 10.3187 5.58579 10.6545 6 10.6545C6.41421 10.6545 6.75 10.3187 6.75 9.90448V6.15448H10.5C10.9142 6.15448 11.25 5.81869 11.25 5.40448C11.25 4.99027 10.9142 4.65448 10.5 4.65448H6.75V0.90448Z"/>
</symbol>
<symbol id="search" viewBox="0 0 17 17">
  <path fill-rule="evenodd" clip-rule="evenodd" d="M11.4911 12.5636C10.3055 13.5244 8.7949 14.1001 7.1499 14.1001C3.33936 14.1001 0.25 11.0107 0.25 7.19995C0.25 3.3894 3.33936 0.300049 7.1499 0.300049C10.9607 0.300049 14.05 3.3894 14.05 7.19995C14.05 8.82536 13.488 10.3195 12.5477 11.4987L16.06 15.0111L14.9994 16.0718L11.4911 12.5636ZM12.5 7.15015C12.5 10.1047 10.1047 12.5 7.15015 12.5C4.19531 12.5 1.80005 10.1047 1.80005 7.15015C1.80005 4.19531 4.19531 1.80005 7.15015 1.80005C10.1047 1.80005 12.5 4.19531 12.5 7.15015Z"/>
</symbol>
<symbol id="spinner1" viewBox="0 0 27 22">
<path d="M4.71659 9.6673L0.499999 9.6673L6.74934 15.951L12.8613 9.66729L7.49102 9.6673C8.15029 5.74514 11.5291 2.76209 15.6083 2.76209C19.6875 2.76209 23.0663 5.74514 23.7256 9.66729L26.5 9.66729C25.827 4.21218 21.2121 1.00199e-06 15.6083 1.24694e-06C10.0045 1.49189e-06 5.38959 4.21218 4.71659 9.6673ZM24.2887 17.8154C25.5248 16.2134 26.2665 14.349 26.5 12.4294L23.7118 12.4294C23.5058 13.6309 23.0388 14.791 22.2971 15.8267L24.2887 17.8154ZM16.9818 19.2103L16.9818 22C18.8909 21.7652 20.7314 21.0056 22.3246 19.7627L20.3743 17.8154C19.3442 18.5336 18.1904 19.0169 16.9818 19.2103ZM10.8423 17.8016L8.89197 19.7489C10.4852 20.9918 12.3257 21.7652 14.2348 22L14.2348 19.2103C13.0399 19.0169 11.8724 18.5336 10.8423 17.8016Z"/>
</symbol>
<symbol id="user1" viewBox="0 0 26 26">
  <path d="M26 13.0022C26.0007 10.8401 25.4619 8.71189 24.4325 6.81044C23.403 4.90899 21.9155 3.29434 20.1045 2.11272C18.2935 0.931101 16.2163 0.219846 14.0611 0.0433709C11.9058 -0.133104 9.74055 0.230776 7.76142 1.10206C5.78229 1.97333 4.05181 3.32449 2.72669 5.03314C1.40157 6.7418 0.523684 8.75398 0.172538 10.8874C-0.178609 13.0209 0.00807875 15.2082 0.715691 17.2514C1.4233 19.2945 2.62949 21.1289 4.225 22.5883L4.3875 22.7383C6.76407 24.8399 9.82727 26 13 26C16.1727 26 19.2359 24.8399 21.6125 22.7383L21.775 22.5883C23.1077 21.3724 24.1718 19.8918 24.8993 18.2411C25.6268 16.5904 26.0017 14.8061 26 13.0022ZM2 13.0022C1.99934 11.2209 2.43142 9.46609 3.25909 7.88866C4.08675 6.31124 5.28522 4.95843 6.75145 3.94655C8.21768 2.93468 9.90778 2.29402 11.6764 2.07968C13.445 1.86534 15.2393 2.08373 16.9048 2.71607C18.5704 3.34841 20.0574 4.37577 21.238 5.70981C22.4186 7.04386 23.2575 8.64465 23.6824 10.3745C24.1074 12.1044 24.1058 13.9116 23.6778 15.6408C23.2497 17.3699 22.408 18.9692 21.225 20.3011C20.11 18.6844 18.5392 17.4358 16.7125 16.7142C17.6923 15.9426 18.4072 14.8849 18.7579 13.6882C19.1086 12.4916 19.0776 11.2153 18.6693 10.0371C18.2609 8.85883 17.4955 7.83709 16.4794 7.11395C15.4634 6.39081 14.2472 6.00222 13 6.00222C11.7528 6.00222 10.5366 6.39081 9.52058 7.11395C8.50452 7.83709 7.73909 8.85883 7.33073 10.0371C6.92238 11.2153 6.89139 12.4916 7.24209 13.6882C7.59278 14.8849 8.30773 15.9426 9.2875 16.7142C7.46076 17.4358 5.88999 18.6844 4.775 20.3011C2.98421 18.2919 1.99633 15.6935 2 13.0022ZM9 12.0024C9 11.2114 9.2346 10.4381 9.67412 9.78041C10.1136 9.12271 10.7384 8.6101 11.4693 8.30739C12.2002 8.00469 13.0044 7.92548 13.7804 8.0798C14.5563 8.23412 15.269 8.61503 15.8284 9.17436C16.3878 9.73368 16.7688 10.4463 16.9231 11.2221C17.0775 11.9979 16.9983 12.8021 16.6955 13.5329C16.3928 14.2637 15.8801 14.8883 15.2223 15.3278C14.5645 15.7672 13.7911 16.0018 13 16.0018C11.9401 15.9985 10.9246 15.5761 10.1752 14.8267C9.42578 14.0774 9.0033 13.0621 9 12.0024ZM6.2625 21.6884C6.98615 20.5583 7.98254 19.6283 9.15994 18.9842C10.3373 18.3401 11.6579 18.0025 13 18.0025C14.3421 18.0025 15.6627 18.3401 16.8401 18.9842C18.0175 19.6283 19.0138 20.5583 19.7375 21.6884C17.8111 23.1863 15.4404 23.9996 13 23.9996C10.5596 23.9996 8.18889 23.1863 6.2625 21.6884Z"/>
</symbol>
</svg>